<svg width="174" height="176" viewBox="0 0 174 176" fill="none" xmlns="http://www.w3.org/2000/svg">
<ellipse cx="98.4487" cy="93.7112" rx="75.5513" ry="78.1006" fill="#FAD8B3"/>
<path d="M50.2145 173.523C50.2145 172.214 50.3597 169.597 50.505 167.696C50.6745 165.795 50.8682 163.572 50.9166 162.832C51.2313 158.98 53.8218 149.079 55.5407 145.178C57.6228 140.462 60.6491 135.054 61.2059 135.054C61.3512 135.054 61.4722 134.906 61.4722 134.733C61.4722 134.289 63.9417 131.326 65.588 129.77C66.3385 129.104 67.2585 128.239 67.67 127.795C68.469 127.005 68.7353 126.832 70.3332 125.82C70.89 125.499 71.5437 124.98 71.81 124.709C72.0521 124.412 72.4637 124.165 72.73 124.165C72.9721 124.165 73.5047 123.894 73.9163 123.573C74.3279 123.252 74.8121 122.98 75.0057 122.98C75.1752 122.98 75.8047 122.709 76.3373 122.412C77.3541 121.82 80.6951 120.635 83.2372 119.943C84.0604 119.721 84.8109 119.449 84.9077 119.301C85.0046 119.178 86.0698 118.931 87.2803 118.807C88.8782 118.635 89.435 118.486 89.3866 118.166C89.2413 117.449 89.0719 114.98 89.0234 113.375C89.0234 111.919 88.975 111.795 88.0793 111.474C87.5466 111.252 86.7235 111.03 86.2393 110.956C84.8835 110.733 80.1867 108.511 78.2015 107.104C76.5794 105.943 74.0615 103.795 73.0689 102.709C71.7132 101.203 69.6069 98.4126 69.3648 97.7707C69.1226 97.1287 68.1785 97.0793 67.6216 97.6225C66.7501 98.5114 65.8543 98.7336 63.409 98.7336C60.988 98.7336 58.7849 98.141 58.7849 97.4744C58.7849 97.3509 58.6154 97.2275 58.3733 97.2275C58.1554 97.2275 57.7196 96.8571 57.4291 96.4127C57.1386 95.9188 56.727 95.3756 56.5091 95.1781C56.146 94.8078 56.0007 94.1411 56.0976 93.5485C56.0976 93.4004 56.0007 93.3016 55.8797 93.3016C55.7344 93.3016 55.6134 93.1288 55.5891 92.9312C55.5891 92.709 55.4197 91.9436 55.226 91.1782C55.0565 90.4127 54.9597 89.277 55.0807 88.6103C55.1776 87.9436 55.3228 87.0054 55.3713 86.5609C55.6376 84.9066 56.4365 82.882 57.0418 82.4128C57.6228 81.919 57.5986 81.919 56.7754 80.2894C54.5481 76.0672 53.5071 73.7216 53.265 72.2648C53.1439 71.5981 52.9986 70.8327 52.9502 70.6105C52.2723 68.0426 52.2966 62.0427 52.9502 59.7217C53.2165 58.8082 53.4829 57.7218 53.5313 57.302C53.5797 56.8823 53.9429 55.8699 54.306 55.0304C55.7344 51.9194 56.5576 50.191 56.8481 49.8947C57.0176 49.6725 57.5502 49.0058 58.0344 48.3638C59.3175 46.6355 62.4891 43.4009 62.9006 43.4009C63.0701 43.4009 63.2154 43.2775 63.2154 43.1293C63.2154 42.9812 63.6996 42.6355 64.2564 42.3639C64.8132 42.0923 65.2974 41.7219 65.2974 41.5985C65.2974 41.4503 65.5638 41.2775 65.9269 41.1787C66.4837 41.0306 66.4595 40.9071 65.3459 39.8701C64.4017 38.9565 64.1354 38.5121 64.1354 37.722C64.1354 36.4874 64.7648 36.1911 65.7574 36.8331C66.8953 37.5985 67.0406 37.4257 66.7743 35.8949C66.5564 34.7838 66.6048 34.3887 66.9195 34.0183C67.3069 33.648 67.4764 33.722 68.2511 34.5615C68.7595 35.1047 69.2679 36.0677 69.389 36.8084L69.6553 38.0677L71.1563 36.5615C73.8194 33.8702 75.732 32.29 76.6762 31.9937C76.9426 31.8702 77.1847 31.6974 77.1847 31.5492C77.1847 31.4011 77.3541 31.2776 77.572 31.2776C77.7415 31.2776 78.4678 31.006 79.1215 30.7097C82.4383 29.0801 82.7772 29.006 87.4256 29.006C89.8466 29.006 92.5581 29.1295 93.3571 29.253C95.2213 29.5246 99.2644 29.8949 100.62 29.8949C102.726 29.8949 107.883 29.4011 110.111 28.9814C110.861 28.8579 112.774 28.7344 114.42 28.7344C117.083 28.7098 117.567 28.7838 119.141 29.5492C121.005 30.4628 122.288 31.4752 122.288 32.0924C122.288 32.3146 122.53 32.5863 122.797 32.7344C123.208 32.9813 123.475 33.6727 124.201 36.4134C124.298 36.6603 124.346 37.1047 124.346 37.3763C124.37 37.6479 124.903 38.2652 125.581 38.7343C127.469 40.0676 131.198 43.8948 131.198 44.5367C131.198 44.6602 131.488 45.1046 131.876 45.5244C132.239 45.9194 132.578 46.512 132.626 46.8577C132.674 47.154 133.013 47.796 133.304 48.2157C133.594 48.6601 133.861 49.1786 133.861 49.3762C133.861 49.549 134.127 49.9688 134.442 50.3144C134.757 50.6354 135.12 51.3515 135.241 51.8206C135.338 52.3391 135.507 52.7342 135.604 52.7342C135.725 52.7342 136.04 53.5243 136.354 54.4872C136.645 55.4255 137.057 56.586 137.299 57.0057C137.855 58.1662 138.654 63.9439 138.703 66.9562C138.703 70.0426 138.17 74.487 137.541 76.2648C137.274 76.9561 137.032 77.7215 137.008 77.9191C136.96 78.0919 136.863 78.487 136.766 78.7339C135.798 81.4746 135.798 81.598 136.911 83.0795C137.565 83.9931 138.001 84.9807 138.146 85.8943C138.461 87.8943 138.412 91.993 138.025 92.9806C137.88 93.4251 137.783 93.8695 137.88 93.9189C137.928 94.0176 137.734 94.3139 137.395 94.6102C137.081 94.9065 136.814 95.3016 136.814 95.5238C136.814 95.9435 135.58 97.1287 134.079 98.0423C133.134 98.6349 132.626 98.7336 130.374 98.7089C128.413 98.6596 127.518 98.4867 126.791 98.067C125.775 97.4991 125.775 97.4991 125.242 98.1657C124.927 98.5608 124.685 99.0546 124.661 99.2521C124.661 99.425 124.54 99.6225 124.419 99.6225C124.274 99.6225 123.983 99.9929 123.741 100.437C123.257 101.351 119.964 104.832 118.463 105.968C117.93 106.388 117.301 106.906 117.107 107.129C116.865 107.301 116.575 107.499 116.405 107.499C116.236 107.499 116.09 107.622 116.09 107.771C116.09 107.919 115.848 108.092 115.582 108.19C115.292 108.289 114.71 108.561 114.299 108.783C113.234 109.45 111.103 110.388 109.457 110.956L108.028 111.474L108.246 115.277C108.367 117.4 108.561 119.203 108.755 119.301C108.9 119.425 109.844 119.672 110.813 119.869C116.429 120.98 124.007 124.733 128.075 128.363C130.617 130.659 133.183 133.499 134.176 135.227C134.466 135.746 134.853 136.215 135.047 136.313C135.217 136.437 135.362 136.807 135.362 137.128C135.362 137.425 135.459 137.696 135.604 137.696C135.822 137.696 137.565 141.054 138.533 143.449C140.349 147.745 141.439 152.56 142.044 159.029C142.576 164.535 142.601 167.893 142.165 172.387L141.802 175.794H96.0444H50.2629V173.474L50.2145 173.523ZM137.347 74.7586C137.347 74.5364 137.468 74.0426 137.589 73.5981C137.88 72.6105 137.904 61.5489 137.613 60.5859C137.468 60.1662 137.323 59.697 137.299 59.5242C137.25 59.3761 137.081 58.7588 136.984 58.265C136.863 57.7218 136.621 57.2773 136.475 57.2773C136.33 57.2773 136.258 57.3761 136.33 57.5242C136.427 57.6477 136.572 58.5613 136.645 59.5489C136.766 60.5365 136.911 61.7958 137.008 62.2649C137.226 63.697 137.226 73.8203 137.008 74.1907C136.887 74.3635 136.887 74.6845 136.984 74.8327C137.226 75.2277 137.299 75.2277 137.371 74.7833L137.347 74.7586ZM55.0807 74.3142C54.1849 69.9685 54.4028 59.4995 55.4681 56.981C55.7102 56.4378 55.6376 56.5613 56.1218 54.8576C56.3397 54.0922 56.6786 53.2774 56.8965 53.0552C57.1144 52.8082 57.3807 52.265 57.4775 51.8453C57.5986 51.4255 58.2281 50.2404 58.8091 49.2033C59.4386 48.1663 59.7533 47.4256 59.5112 47.4997C59.2691 47.5984 59.0996 47.7713 59.0996 47.8947C59.0996 48.0429 58.9301 48.3392 58.7123 48.5614C58.0344 49.2527 55.807 52.8576 55.6618 53.5737C55.5407 53.944 55.3713 54.2403 55.2502 54.2403C55.1291 54.2403 54.9355 54.7588 54.8144 55.3514C54.6934 55.9934 54.4271 56.8329 54.185 57.2773C53.9671 57.7218 53.7492 58.4872 53.6523 58.9316C53.386 60.5612 53.0713 64.0427 53.0713 65.1044C53.0955 66.9562 53.5555 71.2525 53.7734 71.8697C54.7902 74.4623 55.347 75.4993 55.0807 74.2648V74.3142ZM136.403 55.9193C136.282 55.4996 136.088 55.1539 135.894 55.1539C135.725 55.1539 135.677 55.302 135.846 55.5489C136.088 55.9193 136.137 56.0922 136.209 56.7341C136.209 56.907 136.33 57.0057 136.427 56.8823C136.548 56.7835 136.548 56.3391 136.427 55.9193H136.403ZM61.4964 45.6972C61.4964 45.5738 61.1817 45.6972 60.7459 45.9935C60.3586 46.2898 59.9954 46.6602 59.9954 46.7836C59.9954 46.9071 60.3101 46.7836 60.7459 46.4873C61.1333 46.191 61.4964 45.8207 61.4964 45.6972Z" fill="#F6E0D5"/>
<path d="M50.2145 174.14C50.2387 167.844 52.0544 154.733 53.1439 152.61C53.3134 152.289 53.4587 151.77 53.4587 151.449C53.4587 150.782 55.6618 144.733 56.4849 143.079C56.6544 142.758 57.3081 141.474 57.9375 140.239C58.567 138.98 59.2933 137.721 59.5354 137.449C59.7775 137.178 59.9712 136.807 59.9712 136.659C59.9712 136.511 60.2859 136.017 60.7217 135.573C61.1333 135.128 61.4722 134.61 61.4722 134.462C61.4722 134.289 61.7386 133.968 62.0533 133.77C62.368 133.548 62.6343 133.227 62.6343 133.054C62.6343 132.832 62.9491 132.486 63.3848 132.215C63.7964 131.943 64.1354 131.573 64.1354 131.425C64.1354 131.252 64.5469 130.733 65.0553 130.264C65.5638 129.82 66.6048 128.881 67.3311 128.165C68.1058 127.449 68.9048 126.857 69.0985 126.857C69.2679 126.857 69.4616 126.733 69.4616 126.561C69.4616 126.412 69.849 126.067 70.3332 125.795C70.8174 125.548 71.3742 125.153 71.6163 124.956C71.8342 124.733 72.4153 124.363 72.8995 124.116C73.4079 123.844 74.0616 123.523 74.3763 123.326C76.652 122.091 78.0804 121.425 78.492 121.425C78.7825 121.425 79.3878 121.203 79.8962 120.98C80.3804 120.709 81.4457 120.388 82.293 120.215C83.1162 120.042 84.2299 119.696 84.6899 119.449C85.1983 119.203 86.5056 118.906 87.6193 118.783C89.0719 118.659 89.6287 118.487 89.5077 118.24C89.4593 118.017 89.2656 116.437 89.1929 114.709L88.975 111.573L87.813 111.203C87.1835 110.98 86.4814 110.832 86.2151 110.832C85.3919 110.832 78.6615 107.573 78.6615 107.178C78.6615 107.055 78.3952 106.857 78.032 106.758C76.9426 106.388 73.771 103.499 71.8584 101.129C69.7763 98.4868 69.4616 98.0423 69.4616 97.6472C69.4616 96.8571 68.8321 96.9312 67.2101 97.8201C65.7574 98.6102 65.2006 98.7337 63.3364 98.7337C60.6975 98.7337 59.487 98.2398 57.7681 96.4374C55.9281 94.5609 55.1049 91.8448 55.347 88.4622C55.5649 85.6227 56.1702 83.524 57.0902 82.5116C57.7681 81.7956 57.7439 81.7215 56.4365 79.5487C55.9523 78.7339 55.3955 77.6969 55.226 77.2771C55.0565 76.8574 54.6449 76.0179 54.3302 75.3512C53.3134 73.3018 52.4902 68.3636 52.4902 64.8822C52.5145 61.4995 53.2892 57.4996 54.4271 54.9317C55.8313 51.7218 56.5091 50.5367 58.5186 47.8207C59.7049 46.2157 64.0385 42.1911 64.5954 42.1911C64.6922 42.1911 65.128 41.9195 65.6122 41.5491L66.4353 40.9072L65.2732 39.722C64.329 38.759 64.1111 38.364 64.208 37.5492C64.329 36.1665 65.128 36.1171 66.4353 37.5492C67.089 38.2158 67.4037 38.4627 67.3069 38.0924C66.9437 37.2529 66.7259 34.7344 66.9195 34.1912C67.0406 33.9196 67.3069 33.7961 67.549 33.8949C68.13 34.1418 69.51 36.5368 69.51 37.3023C69.51 38.2158 69.8248 38.0924 71.0111 36.8084C72.1974 35.4504 75.2478 32.7838 75.5384 32.7838C75.6594 32.7838 75.95 32.611 76.1678 32.4134C77.2089 31.4752 77.4994 31.2529 77.8868 31.2529C78.1047 31.2529 78.4194 31.1048 78.5647 30.9567C78.7341 30.7838 79.7994 30.29 80.9373 29.8702C83.7457 28.7838 87.6193 28.611 93.0666 29.3024C98.6349 29.9937 103.913 29.969 109.554 29.1542C112.411 28.7345 114.735 28.5616 115.8 28.6604C119.988 29.0801 122.918 31.648 123.935 35.6727C124.467 37.9195 124.564 38.043 126.089 39.2035C128.026 40.6603 129.963 42.5615 129.963 42.9812C129.963 43.154 130.084 43.3516 130.205 43.401C130.52 43.5244 132.626 46.7343 132.626 47.1293C132.626 47.2775 132.892 47.7713 133.207 48.191C133.522 48.6108 133.788 49.1787 133.788 49.4997C133.788 49.7713 133.885 50.0182 134.03 50.0182C134.151 50.0182 134.515 50.5367 134.805 51.1786C135.096 51.7712 135.459 52.5367 135.604 52.8329C136.5 54.586 137.734 58.7341 138.122 61.1785C138.993 66.9809 138.509 73.1537 136.79 78.3882C135.87 81.203 135.652 82.3882 136.112 82.3882C136.233 82.3882 136.693 82.9807 137.153 83.7462C137.904 84.9313 138.049 85.4992 138.17 88.0671C138.461 93.1782 137.396 95.8448 134.345 97.746C132.917 98.6349 132.505 98.709 130.544 98.709C128.97 98.709 127.929 98.5361 127.009 98.1164C126.307 97.7954 125.678 97.5485 125.654 97.5732C125.097 98.2398 123.426 100.585 123.426 100.783C123.426 101.055 117.882 106.585 117.64 106.585C117.519 106.585 117.011 106.882 116.502 107.277C114.42 108.758 112.774 109.598 109.917 110.635L108.15 111.301V115.351V119.425L110.522 119.919C114.251 120.709 116.357 121.449 121.15 123.844C122.24 124.388 123.305 125.03 123.499 125.227C123.668 125.449 123.91 125.622 124.056 125.622C124.467 125.622 127.3 127.77 127.3 128.067C127.3 128.215 127.445 128.338 127.663 128.338C128.171 128.338 132.384 132.807 133.57 134.61C134.103 135.4 134.636 136.116 134.732 136.215C134.974 136.388 135.652 137.671 136.403 139.227C136.669 139.795 137.153 140.659 137.444 141.104C137.759 141.523 138.001 142.091 138.001 142.338C138.001 142.585 138.243 143.301 138.558 143.968C141.366 149.918 142.891 161.449 142.141 171.004L141.753 175.819H95.9718H50.2145V174.091V174.14ZM55.2744 75.2771C55.1292 74.6105 54.8386 72.3389 54.6207 70.2155C54.0639 64.1908 54.887 57.5243 56.7028 53.5243C58.2039 50.2157 58.6396 49.4503 59.947 47.5738C60.4796 46.7589 61.0364 46.117 61.1817 46.117C61.3512 46.117 61.4722 45.9688 61.4722 45.8207C61.4722 45.6478 61.1575 45.7219 60.7217 45.9935C60.3101 46.2651 59.9712 46.6602 59.9712 46.9071C59.9712 47.1293 59.7049 47.4503 59.3902 47.6231C59.0754 47.796 58.8091 48.1416 58.8091 48.3886C58.8091 48.6355 58.6881 48.833 58.5428 48.833C57.986 48.833 55.6618 53.0552 54.4513 56.3885C52.7566 60.9563 52.6839 69.1291 54.2092 73.0796C54.5965 74.0179 54.9839 75.2278 55.1049 75.7463C55.226 76.2648 55.3713 76.6351 55.4681 76.5611C55.5165 76.4623 55.4681 75.8944 55.2986 75.2524L55.2744 75.2771ZM137.928 67.7957C138.025 62.3884 137.977 61.9933 137.25 59.1786C136.354 55.8453 135.894 54.4873 135.701 54.7095C135.652 54.7589 135.749 55.549 135.991 56.4378C136.766 59.3514 137.178 64.7834 137.032 70.6352C136.911 75.8944 136.936 76.1413 137.347 74.8574C137.638 73.9191 137.831 71.7216 137.904 67.8204L137.928 67.7957Z" fill="#F7A750"/>
<path d="M94.8344 131.894C91.566 130.956 87.8619 128.635 87.8619 127.573C87.8619 127.4 87.644 127.079 87.3777 126.857C86.5061 126.141 85.2472 122.783 85.1503 120.956L85.0293 119.203L86.2156 118.956C86.8693 118.832 87.9103 118.734 88.564 118.734C89.3871 118.709 89.6534 118.585 89.5324 118.289C89.4355 118.042 89.2661 116.437 89.1692 114.709L88.9513 111.573L87.7893 111.203C87.1598 110.981 86.4577 110.832 86.1914 110.832C85.3682 110.832 78.6378 107.573 78.6378 107.178C78.6378 107.055 78.3715 106.857 78.0083 106.758C76.9189 106.388 73.7473 103.499 71.8347 101.129C69.7526 98.4869 69.4379 98.0424 69.4379 97.6474C69.4379 96.8573 68.8084 96.9313 67.1864 97.8202C65.7337 98.6103 65.1769 98.7338 63.3127 98.7338C60.6738 98.7338 59.4633 98.24 57.7444 96.4375C55.9044 94.561 55.0813 91.845 55.3234 88.4623C55.5412 85.6228 56.1465 83.5241 57.0665 82.5117C57.7444 81.7957 57.7202 81.7216 56.4128 79.5488C55.9286 78.734 55.3718 77.697 55.2023 77.2772C55.0328 76.8575 54.6213 76.018 54.3065 75.3513C53.2897 73.302 52.4666 68.3638 52.4666 64.8823C52.4908 61.4996 53.2655 57.4997 54.4034 54.9318C55.8076 51.722 56.4855 50.5368 58.4949 47.8208C59.6812 46.2159 64.0148 42.1912 64.5717 42.1912C64.6685 42.1912 65.1043 41.9196 65.5885 41.5493L66.4116 40.9073L65.2495 39.7221C64.3053 38.7592 64.0875 38.3641 64.1843 37.5493C64.3053 36.1666 65.1043 36.1172 66.4116 37.5493C67.0653 38.216 67.38 38.4629 67.2832 38.0925C66.92 37.253 66.7022 34.7345 66.8958 34.1913C67.0169 33.9197 67.2832 33.7963 67.5253 33.895C68.1063 34.1419 69.4863 36.537 69.4863 37.3024C69.4863 38.216 69.8011 38.0925 70.9874 36.8086C72.1737 35.4506 75.2242 32.7839 75.5147 32.7839C75.6357 32.7839 75.9262 32.6111 76.1441 32.4136C77.1852 31.4753 77.4757 31.2531 77.8631 31.2531C78.081 31.2531 78.3957 31.1049 78.5409 30.9568C78.7104 30.7839 79.7757 30.2901 80.9135 29.8704C83.7219 28.784 87.5956 28.6111 93.0429 29.3025C98.6112 29.9938 103.889 29.9691 109.53 29.1543C112.387 28.7346 114.711 28.5617 115.776 28.6605C119.965 29.0803 122.894 31.6481 123.911 35.6728C124.444 37.9197 124.54 38.0431 126.066 39.2036C128.002 40.6604 129.939 42.5616 129.939 42.9813C129.939 43.1542 130.06 43.3517 130.181 43.4011C130.496 43.5245 132.602 46.7344 132.602 47.1294C132.602 47.2776 132.869 47.7714 133.183 48.1912C133.498 48.6109 133.764 49.1788 133.764 49.4998C133.764 49.7714 133.861 50.0183 134.007 50.0183C134.128 50.0183 134.491 50.5368 134.781 51.1788C135.072 51.7714 135.435 52.5368 135.58 52.8331C136.476 54.5861 137.711 58.7342 138.098 61.1787C138.97 66.9811 138.485 73.1538 136.766 78.3883C135.847 81.2031 135.629 82.3883 136.089 82.3883C136.21 82.3883 136.67 82.9809 137.13 83.7463C137.88 84.9315 138.025 85.4994 138.146 88.0672C138.437 93.1783 137.372 95.8449 134.321 97.7461C132.893 98.635 132.481 98.7091 130.52 98.7091C128.947 98.7091 127.906 98.5363 126.986 98.1165C126.283 97.7955 125.654 97.5486 125.63 97.5733C125.073 98.24 123.402 100.586 123.402 100.783C123.402 101.055 117.858 106.586 117.616 106.586C117.495 106.586 116.987 106.882 116.478 107.277C114.396 108.758 112.75 109.598 109.893 110.635L108.126 111.302V115.351V119.425L110.45 119.869C111.685 120.116 112.726 120.413 112.726 120.536C112.726 120.659 112.411 121.696 111.975 122.808C109.772 128.709 105.366 131.869 99.0712 132.166C97.207 132.264 95.7544 132.141 94.7618 131.869L94.8344 131.894ZM55.2749 75.2773C55.1297 74.6106 54.8392 72.339 54.6213 70.2156C54.0644 64.191 54.8876 57.5244 56.7033 53.5244C58.2044 50.2158 58.6402 49.4504 59.9475 47.5739C60.4801 46.7591 61.037 46.1171 61.1822 46.1171C61.3517 46.1171 61.4728 45.969 61.4728 45.8208C61.4728 45.648 61.158 45.722 60.7222 45.9936C60.3107 46.2653 59.9717 46.6603 59.9717 46.9072C59.9717 47.1294 59.7054 47.4504 59.3907 47.6233C59.0759 47.7961 58.8096 48.1418 58.8096 48.3887C58.8096 48.6356 58.6886 48.8331 58.5433 48.8331C57.9865 48.8331 55.6623 53.0553 54.4518 56.3886C52.7571 60.9564 52.6844 69.1292 54.2097 73.0798C54.5971 74.018 54.9844 75.2279 55.1055 75.7464C55.2265 76.2649 55.3718 76.6353 55.4686 76.5612C55.517 76.4624 55.4686 75.8945 55.2991 75.2526L55.2749 75.2773ZM137.929 67.7959C138.025 62.3885 137.977 61.9935 137.251 59.1787C136.355 55.8454 135.895 54.4874 135.701 54.7096C135.653 54.759 135.75 55.5491 135.992 56.438C136.767 59.3515 137.178 64.7836 137.033 70.6353C136.912 75.8945 136.936 76.1414 137.348 74.8575C137.638 73.9193 137.832 71.7217 137.904 67.8206L137.929 67.7959Z" fill="#FABD8E"/>
<path d="M94.8341 131.894C91.5657 130.956 87.8616 128.635 87.8616 127.573C87.8616 127.4 87.6437 127.079 87.3774 126.857C86.6027 126.19 85.2953 122.857 85.1016 121.079C84.9321 119.104 84.8595 119.153 87.7405 118.832C89.0963 118.684 89.6289 118.511 89.5079 118.264C89.4595 118.042 89.2658 116.462 89.1932 114.734L88.9753 111.598L87.8132 111.227C87.1837 111.005 86.4816 110.857 86.2153 110.857C85.3922 110.857 78.6617 107.598 78.6617 107.203C78.6617 107.079 78.3954 106.882 78.0323 106.783C76.9428 106.413 73.7713 103.524 71.8586 101.153C69.7766 98.5115 69.4618 98.0671 69.4618 97.672C69.4618 96.8819 68.8324 96.956 67.2103 97.8448C65.7577 98.635 65.2008 98.7584 63.3366 98.7584C60.6977 98.7584 59.4872 98.2646 57.7683 96.4622C55.9283 94.5856 55.1052 91.8696 55.3473 88.4869C55.5652 85.6475 56.1704 83.5487 57.0904 82.5364C57.7683 81.8203 57.7441 81.7463 56.4367 79.5735C55.9525 78.7586 55.3957 77.7216 55.2262 77.3019C55.0568 76.8821 54.6452 76.0426 54.3304 75.376C53.3136 73.3266 52.4905 68.3884 52.4905 64.907C52.5147 61.5243 53.2894 57.5243 54.4273 54.9565C55.8315 51.7466 56.5094 50.5615 58.5188 47.8454C59.7051 46.2405 64.0387 42.2159 64.5956 42.2159C64.6924 42.2159 65.1282 41.9443 65.6124 41.5739L66.4356 40.9319L65.2735 39.7468C64.3293 38.7838 64.1114 38.3888 64.2082 37.574C64.3293 36.1913 65.1282 36.1419 66.4356 37.574C67.0892 38.2406 67.404 38.4875 67.3071 38.1172C66.944 37.2777 66.7261 34.7592 66.9198 34.216C67.0408 33.9444 67.3071 33.8209 67.5492 33.9197C68.1303 34.1666 69.5103 36.5616 69.5103 37.327C69.5103 38.2406 69.825 38.1172 71.0113 36.8332C72.1976 35.4752 75.2481 32.8086 75.5386 32.8086C75.6596 32.8086 75.9502 32.6357 76.1681 32.4382C77.2091 31.5 77.4996 31.2777 77.887 31.2777C78.1049 31.2777 78.4196 31.1296 78.5649 30.9814C78.7343 30.8086 79.7996 30.3148 80.9375 29.895C83.7459 28.8086 87.6195 28.6358 93.0668 29.3271C98.6351 30.0185 103.913 29.9938 109.554 29.179C112.411 28.7592 114.735 28.5864 115.8 28.6852C119.989 29.1049 122.918 31.6728 123.935 35.6974C124.467 37.9443 124.564 38.0678 126.09 39.2283C128.026 40.685 129.963 42.5862 129.963 43.006C129.963 43.1788 130.084 43.3764 130.205 43.4257C130.52 43.5492 132.626 46.759 132.626 47.1541C132.626 47.3022 132.893 47.7961 133.207 48.2158C133.522 48.6356 133.788 49.2034 133.788 49.5244C133.788 49.796 133.885 50.0429 134.03 50.0429C134.151 50.0429 134.515 50.5615 134.805 51.2034C135.096 51.796 135.459 52.5614 135.604 52.8577C136.5 54.6108 137.735 58.7589 138.122 61.2033C138.994 67.0057 138.509 73.1785 136.79 78.413C135.87 81.2278 135.653 82.4129 136.113 82.4129C136.234 82.4129 136.694 83.0055 137.154 83.7709C137.904 84.9561 138.049 85.524 138.17 88.0919C138.461 93.2029 137.396 95.8696 134.345 97.7708C132.917 98.6597 132.505 98.7337 130.544 98.7337C128.971 98.7337 127.929 98.5609 127.009 98.1411C126.307 97.8202 125.678 97.5732 125.654 97.5979C125.097 98.2646 123.426 100.61 123.426 100.808C123.426 101.079 117.882 106.61 117.64 106.61C117.519 106.61 117.011 106.906 116.502 107.302C114.42 108.783 112.774 109.622 109.917 110.66L108.15 111.326L108.053 115.4L107.956 119.474L109.699 119.845C110.643 120.067 111.709 120.215 112.072 120.215C112.895 120.215 112.895 120.363 111.975 122.857C109.772 128.758 105.366 131.919 99.0709 132.215C97.2067 132.314 95.7541 132.19 94.7615 131.919L94.8341 131.894ZM55.2747 75.2772C55.1294 74.6106 54.8389 72.339 54.621 70.2155C54.0641 64.1909 54.8873 57.5243 56.703 53.5244C58.2041 50.2158 58.6399 49.4504 59.9472 47.5738C60.4798 46.759 61.0367 46.1171 61.1819 46.1171C61.3514 46.1171 61.4725 45.9689 61.4725 45.8208C61.4725 45.6479 61.1577 45.722 60.7219 45.9936C60.3104 46.2652 59.9714 46.6603 59.9714 46.9072C59.9714 47.1294 59.7051 47.4504 59.3904 47.6232C59.0757 47.7961 58.8093 48.1417 58.8093 48.3886C58.8093 48.6355 58.6883 48.8331 58.543 48.8331C57.9862 48.8331 55.662 53.0553 54.4515 56.3885C52.7568 60.9564 52.6842 69.1291 54.2094 73.0797C54.5968 74.018 54.9841 75.2278 55.1052 75.7463C55.2262 76.2649 55.3715 76.6352 55.4683 76.5612C55.5168 76.4624 55.4683 75.8945 55.2989 75.2525L55.2747 75.2772ZM137.928 67.7958C138.025 62.3885 137.977 61.9934 137.25 59.1786C136.355 55.8453 135.895 54.4873 135.701 54.7096C135.653 54.7589 135.749 55.549 135.991 56.4379C136.766 59.3515 137.178 64.7835 137.033 70.6353C136.911 75.8945 136.936 76.1414 137.347 74.8575C137.638 73.9192 137.831 71.7217 137.904 67.8205L137.928 67.7958Z" fill="#ECA37A"/>
<path d="M95.1491 131.844C92.6554 131.079 91.4207 130.61 90.8154 130.067C90.5007 129.795 90.1376 129.573 90.0165 129.573C89.387 129.548 86.4092 125.844 86.4092 125.104C86.4092 124.956 86.1671 124.388 85.9008 123.795C85.2229 122.437 84.9324 119.351 85.4166 119.178C85.6345 119.079 86.6997 118.931 87.7649 118.808C89.1207 118.659 89.6534 118.487 89.5323 118.24C89.4839 118.017 89.2902 116.437 89.2176 114.709L88.9997 111.573L87.8376 111.203C87.2081 110.98 86.506 110.832 86.2397 110.832C85.4166 110.832 78.6861 107.573 78.6861 107.178C78.6861 107.055 78.4198 106.857 78.0567 106.758C76.9672 106.388 73.7957 103.499 71.8831 101.129C69.801 98.4868 69.4862 98.0424 69.4862 97.6473C69.4862 96.8572 68.8568 96.9313 67.2347 97.8202C65.7821 98.6103 65.2252 98.7337 63.3611 98.7337C60.7221 98.7337 59.5116 98.2399 57.7927 96.4375C55.9527 94.5609 55.1296 91.8449 55.3717 88.4622C55.5896 85.6228 56.1948 83.524 57.1148 82.5117C57.7927 81.7957 57.7685 81.7216 56.4612 79.5488C55.9769 78.734 55.4201 77.6969 55.2506 77.2772C55.0812 76.8574 54.6696 76.0179 54.3549 75.3513C53.338 73.3019 52.5149 68.3637 52.5149 64.8823C52.5391 61.4996 53.3138 57.4997 54.4517 54.9318C55.8559 51.722 56.5338 50.5368 58.5432 47.8208C59.7295 46.2158 64.0632 42.1912 64.62 42.1912C64.7168 42.1912 65.1526 41.9196 65.6368 41.5492L66.46 40.9073L65.2979 39.7221C64.3537 38.7592 64.1358 38.3641 64.2326 37.5493C64.3537 36.1666 65.1526 36.1172 66.46 37.5493C67.1136 38.2159 67.4284 38.4629 67.3315 38.0925C66.9684 37.253 66.7505 34.7345 66.9442 34.1913C67.0652 33.9197 67.3315 33.7963 67.5736 33.895C68.1547 34.1419 69.5347 36.537 69.5347 37.3024C69.5347 38.2159 69.8494 38.0925 71.0357 36.8086C72.222 35.4505 75.2725 32.7839 75.563 32.7839C75.6841 32.7839 75.9746 32.6111 76.1925 32.4136C77.2335 31.4753 77.524 31.2531 77.9114 31.2531C78.1293 31.2531 78.444 31.1049 78.5893 30.9568C78.7588 30.7839 79.824 30.2901 80.9619 29.8704C83.7703 28.784 87.6439 28.6111 93.0912 29.3025C98.6595 29.9938 103.937 29.9691 109.578 29.1543C112.435 28.7346 114.759 28.5617 115.825 28.6605C120.013 29.0803 122.942 31.6481 123.959 35.6728C124.492 37.9197 124.589 38.0431 126.114 39.2036C128.051 40.6604 129.988 42.5616 129.988 42.9813C129.988 43.1542 130.109 43.3517 130.23 43.4011C130.544 43.5245 132.651 46.7344 132.651 47.1294C132.651 47.2776 132.917 47.7714 133.232 48.1911C133.546 48.6109 133.813 49.1788 133.813 49.4998C133.813 49.7714 133.91 50.0183 134.055 50.0183C134.176 50.0183 134.539 50.5368 134.83 51.1788C135.12 51.7713 135.483 52.5368 135.629 52.833C136.524 54.5861 137.759 58.7342 138.146 61.1786C139.018 66.981 138.534 73.1538 136.815 78.3883C135.895 81.2031 135.677 82.3882 136.137 82.3882C136.258 82.3882 136.718 82.9808 137.178 83.7462C137.928 84.9314 138.074 85.4993 138.195 88.0672C138.485 93.1782 137.42 95.8449 134.37 97.7461C132.941 98.635 132.53 98.709 130.569 98.709C128.995 98.709 127.954 98.5362 127.034 98.1164C126.332 97.7955 125.702 97.5486 125.678 97.5732C125.121 98.2399 123.451 100.586 123.451 100.783C123.451 101.055 117.907 106.585 117.665 106.585C117.543 106.585 117.035 106.882 116.527 107.277C114.445 108.758 112.798 109.598 109.941 110.635L108.174 111.301L108.077 115.375L107.98 119.45L109.724 119.82C110.668 120.042 111.733 120.19 112.096 120.19C112.459 120.19 112.75 120.24 112.75 120.314C112.75 120.363 112.363 121.524 111.878 122.857C110.983 125.425 109.409 127.795 107.763 129.005C107.23 129.4 106.6 129.894 106.407 130.091C106.165 130.314 105.003 130.807 103.816 131.252C101.032 132.215 97.2311 132.486 95.1006 131.844H95.1491ZM55.2991 75.2525C55.1538 74.5859 54.8633 72.3143 54.6454 70.1909C54.0886 64.1662 54.9117 57.4997 56.7275 53.4997C58.2285 50.1911 58.6643 49.4257 59.9716 47.5492C60.5043 46.7344 61.0611 46.0924 61.2064 46.0924C61.3758 46.0924 61.4969 45.9442 61.4969 45.7961C61.4969 45.6233 61.1821 45.6973 60.7464 45.9689C60.3348 46.2405 59.9959 46.6356 59.9959 46.8825C59.9959 47.1047 59.7295 47.4257 59.4148 47.5986C59.1001 47.7714 58.8337 48.1171 58.8337 48.364C58.8337 48.6109 58.7127 48.8084 58.5674 48.8084C58.0106 48.8084 55.6864 53.0306 54.4759 56.3639C52.7812 60.9317 52.7086 69.1045 54.2338 73.055C54.6212 73.9933 55.0085 75.2031 55.1296 75.7217C55.2506 76.2402 55.3959 76.6105 55.4927 76.5365C55.5412 76.4377 55.4927 75.8698 55.3233 75.2278L55.2991 75.2525ZM137.953 67.7711C138.05 62.3638 138.001 61.9687 137.275 59.154C136.379 55.8207 135.919 54.4627 135.725 54.6849C135.677 54.7343 135.774 55.5244 136.016 56.4133C136.791 59.3268 137.202 64.7588 137.057 70.6106C136.936 75.8698 136.96 76.1167 137.372 74.8328C137.662 73.8945 137.856 71.697 137.929 67.7958L137.953 67.7711Z" fill="#F4A17F"/>
<path d="M95.1486 131.844C92.655 131.079 91.4203 130.61 90.815 130.067C90.5003 129.795 90.1371 129.573 90.0161 129.573C89.435 129.548 86.4087 125.845 86.4087 125.129C86.4087 124.98 86.1424 124.289 85.8277 123.598C85.4645 122.882 85.2467 121.746 85.2467 120.882C85.2467 119.178 85.2224 119.227 88.1519 118.832C89.7013 118.61 89.7497 118.585 89.5803 117.771C89.4834 117.326 89.3382 115.721 89.2171 114.24L88.9992 111.524L87.9098 111.203C87.2803 111.03 86.5782 110.882 86.3361 110.882C86.0698 110.882 85.1498 110.561 84.2782 110.166C83.4067 109.771 82.3898 109.277 81.9541 109.104C81.1309 108.734 80.8162 108.561 77.9594 106.66C75.4173 104.956 70.6963 100.314 70.6963 99.4251C70.6963 99.3017 70.43 98.9313 70.1153 98.635C69.8006 98.3387 69.5342 97.919 69.5342 97.6967C69.5342 96.9313 68.9048 96.9313 67.5248 97.7461C65.6848 98.8078 62.4649 99.1041 60.5281 98.3387C59.0512 97.7708 57.4049 96.3387 56.7029 94.9807C55.9523 93.598 55.2987 90.9561 55.2987 89.3758C55.2987 87.4993 56.2671 83.7463 57.066 82.6599C57.7681 81.6969 57.7681 81.7216 56.485 79.5488C56.0008 78.734 55.4439 77.697 55.2745 77.2772C55.105 76.8575 54.6934 76.018 54.3787 75.3513C53.3619 73.302 52.5387 68.3638 52.5387 64.8823C52.5629 61.4996 53.3376 57.4997 54.4755 54.9318C55.8797 51.722 56.5576 50.5368 58.567 47.8208C59.7533 46.2159 64.087 42.1912 64.6438 42.1912C64.7406 42.1912 65.1764 41.9196 65.6606 41.5492L66.4838 40.9073L65.3217 39.7221C64.3775 38.7592 64.1596 38.3641 64.2564 37.5493C64.3775 36.1666 65.1764 36.1172 66.4838 37.5493C67.1374 38.216 67.4522 38.4629 67.3553 38.0925C66.9922 37.253 66.7743 34.7345 66.968 34.1913C67.089 33.9197 67.3553 33.7963 67.5974 33.895C68.1785 34.1419 69.5585 36.537 69.5585 37.3024C69.5585 38.216 69.8732 38.0925 71.0595 36.8086C72.2458 35.4506 75.2963 32.7839 75.5868 32.7839C75.7078 32.7839 75.9984 32.6111 76.2163 32.4136C77.2573 31.4753 77.5478 31.2531 77.9352 31.2531C78.1531 31.2531 78.4678 31.1049 78.6131 30.9568C78.7825 30.7839 79.8478 30.2901 80.9857 29.8704C83.794 28.784 87.6677 28.6111 93.115 29.3025C98.6833 29.9938 103.961 29.9691 109.602 29.1543C112.459 28.7346 114.783 28.5617 115.848 28.6605C120.037 29.0803 122.966 31.6481 123.983 35.6728C124.516 37.9197 124.612 38.0431 126.138 39.2036C128.074 40.6604 130.011 42.5616 130.011 42.9813C130.011 43.1542 130.132 43.3517 130.253 43.4011C130.568 43.5245 132.674 46.7344 132.674 47.1294C132.674 47.2776 132.941 47.7714 133.255 48.1911C133.57 48.6109 133.836 49.1788 133.836 49.4998C133.836 49.7714 133.933 50.0183 134.079 50.0183C134.2 50.0183 134.563 50.5368 134.853 51.1788C135.144 51.7714 135.507 52.5368 135.652 52.8331C136.548 54.5861 137.783 58.7342 138.17 61.1786C139.042 66.9811 138.557 73.1538 136.839 78.3883C135.919 81.2525 135.749 82.2648 136.161 82.4377C136.282 82.487 136.669 82.9562 137.056 83.4994C138.001 84.9315 138.388 87.2524 138.219 90.4623C138.097 92.7091 137.928 93.4746 137.299 94.5363C135.628 97.4005 133.498 98.7091 130.423 98.7091C128.801 98.7091 128.026 98.5609 126.912 97.993L125.508 97.277L124.951 98.3881C124.661 99.0301 124.177 99.6967 123.935 99.8943C123.668 100.141 123.45 100.437 123.45 100.61C123.45 101.129 117.882 106.561 117.374 106.561C117.131 106.561 116.938 106.709 116.938 106.857C116.938 107.03 116.357 107.45 115.606 107.82C114.856 108.19 114.275 108.61 114.275 108.734C114.275 108.857 114.129 108.981 113.911 108.981C113.742 108.981 112.774 109.376 111.781 109.869C110.764 110.363 109.529 110.832 109.021 110.956L108.053 111.178V115.351V119.524L109.36 119.845C110.111 120.017 111.079 120.166 111.563 120.166C112.047 120.166 112.483 120.264 112.604 120.338C112.701 120.437 112.386 121.573 111.926 122.882C111.055 125.4 109.457 127.746 107.835 128.956C107.302 129.351 106.673 129.845 106.479 130.042C106.237 130.264 105.075 130.758 103.888 131.203C101.104 132.165 97.3033 132.437 95.1728 131.795L95.1486 131.844ZM55.2987 75.2526C55.1534 74.5859 54.8629 72.3143 54.645 70.1909C54.0882 64.1663 54.9113 57.4997 56.7271 53.4997C58.2281 50.1911 58.6639 49.4257 59.9712 47.5492C60.5038 46.7344 61.0607 46.0924 61.206 46.0924C61.3754 46.0924 61.4965 45.9443 61.4965 45.7961C61.4965 45.6233 61.1817 45.6973 60.746 45.969C60.3344 46.2406 59.9954 46.6356 59.9954 46.8825C59.9954 47.1047 59.7291 47.4257 59.4144 47.5986C59.0997 47.7714 58.8333 48.1171 58.8333 48.364C58.8333 48.6109 58.7123 48.8084 58.567 48.8084C58.0102 48.8084 55.686 53.0306 54.4755 56.3639C52.7808 60.9317 52.7082 69.1045 54.2334 73.0551C54.6208 73.9933 55.0081 75.2032 55.1292 75.7217C55.2502 76.2402 55.3955 76.6106 55.4923 76.5365C55.5408 76.4377 55.4923 75.8698 55.3229 75.2279L55.2987 75.2526ZM137.952 67.7712C138.049 62.3638 138.001 61.9688 137.274 59.154C136.379 55.8207 135.919 54.4627 135.725 54.6849C135.676 54.7343 135.773 55.5244 136.015 56.4133C136.79 59.3268 137.202 64.7588 137.056 70.6106C136.935 75.8698 136.96 76.1167 137.371 74.8328C137.662 73.8945 137.855 71.697 137.928 67.7959L137.952 67.7712Z" fill="#F18964"/>
<path d="M96.3349 128.363C93.6718 128.116 91.4687 126.709 90.355 124.511C89.9918 123.795 89.7013 121.721 89.5561 118.832C89.5076 117.845 89.3382 115.771 89.2413 114.264L88.9992 111.474L87.9098 111.153C87.2803 110.98 86.5782 110.832 86.3361 110.832C86.0698 110.832 85.1498 110.511 84.2782 110.116C83.4067 109.721 82.3898 109.227 81.9541 109.055C81.1309 108.684 80.8162 108.511 77.9594 106.61C75.4173 104.906 70.6963 100.265 70.6963 99.3756C70.6963 99.2522 70.43 98.8818 70.1153 98.5855C69.8006 98.2892 69.5342 97.8695 69.5342 97.6473C69.5342 96.8818 68.9048 96.8818 67.5248 97.6966C65.6848 98.7584 62.4649 99.0547 60.5281 98.2892C59.0512 97.7213 57.4049 96.2893 56.7029 94.9312C55.9523 93.5485 55.2987 90.9066 55.2987 89.3264C55.2987 87.4498 56.2671 83.6968 57.066 82.6104C57.7681 81.6475 57.7681 81.6721 56.485 79.4993C56.0008 78.6845 55.4439 77.6475 55.2745 77.2277C55.105 76.808 54.6934 75.9685 54.3787 75.3018C53.3619 73.2525 52.5387 68.3143 52.5387 64.8328C52.5629 61.4502 53.3376 57.4502 54.4755 54.8823C55.8797 51.6725 56.5576 50.4873 58.567 47.7713C59.7533 46.1664 64.087 42.1417 64.6438 42.1417C64.7406 42.1417 65.1764 41.8701 65.6606 41.4998L66.4838 40.8578L65.3217 39.6726C64.3775 38.7097 64.1596 38.3146 64.2564 37.4998C64.3775 36.1171 65.1764 36.0677 66.4838 37.4998C67.1374 38.1665 67.4522 38.4134 67.3553 38.043C66.9922 37.2035 66.7743 34.685 66.968 34.1418C67.089 33.8702 67.3553 33.7468 67.5974 33.8455C68.1785 34.0925 69.5585 36.4875 69.5585 37.2529C69.5585 38.1665 69.8732 38.043 71.0595 36.7591C72.2458 35.4011 75.2963 32.7344 75.5868 32.7344C75.7078 32.7344 75.9984 32.5616 76.2163 32.3394C77.2573 31.4258 77.5478 31.2283 77.9352 31.2283C78.1531 31.2283 78.4678 31.0801 78.6131 30.932C78.7825 30.7592 79.8478 30.2653 80.9857 29.8456C83.794 28.7592 87.6677 28.5863 93.115 29.2777C98.6833 29.969 103.961 29.9444 109.602 29.1295C112.459 28.7098 114.783 28.537 115.848 28.6357C120.037 29.0555 122.966 31.6234 123.983 35.648C124.516 37.8949 124.612 38.0183 126.138 39.1788C128.074 40.6356 130.011 42.5368 130.011 42.9565C130.011 43.1294 130.132 43.3269 130.253 43.3763C130.568 43.4998 132.674 46.7096 132.674 47.1047C132.674 47.2528 132.941 47.7466 133.255 48.1664C133.57 48.5861 133.836 49.154 133.836 49.475C133.836 49.7466 133.933 49.9935 134.079 49.9935C134.2 49.9935 134.563 50.512 134.853 51.154C135.144 51.7466 135.507 52.512 135.652 52.8083C136.548 54.5614 137.783 58.7094 138.17 61.1539C139.042 66.9563 138.557 73.129 136.839 78.3635C135.919 81.2277 135.749 82.24 136.161 82.4129C136.282 82.4622 136.669 82.9314 137.056 83.4746C138.001 84.9067 138.388 87.2276 138.219 90.4375C138.097 92.6844 137.928 93.4498 137.299 94.5115C135.628 97.3757 133.498 98.6843 130.423 98.6843C128.801 98.6843 128.026 98.5361 126.912 97.9682L125.508 97.2522L124.951 98.3633C124.661 99.0053 124.177 99.6719 123.935 99.8695C123.668 100.116 123.45 100.413 123.45 100.586C123.45 101.104 117.882 106.536 117.374 106.536C117.131 106.536 116.938 106.684 116.938 106.832C116.938 107.005 116.357 107.425 115.606 107.795C114.856 108.166 114.275 108.585 114.275 108.709C114.275 108.832 114.129 108.956 113.911 108.956C113.742 108.956 112.774 109.351 111.781 109.845C110.764 110.338 109.529 110.808 109.021 110.931L108.053 111.153V117.449C108.053 121.919 107.932 123.919 107.665 124.437C106.067 127.499 102.024 128.906 96.3349 128.338V128.363ZM55.2987 75.2525C55.1534 74.5858 54.8629 72.3142 54.645 70.1908C54.0882 64.1662 54.9113 57.4996 56.7271 53.4996C58.2281 50.191 58.6639 49.4256 59.9712 47.5491C60.5038 46.7343 61.0607 46.0923 61.206 46.0923C61.3754 46.0923 61.4965 45.9442 61.4965 45.796C61.4965 45.6232 61.1817 45.6973 60.746 45.9689C60.3344 46.2405 59.9954 46.6355 59.9954 46.8824C59.9954 47.1047 59.7291 47.4256 59.4144 47.5985C59.0997 47.7713 58.8333 48.117 58.8333 48.3639C58.8333 48.6108 58.7123 48.8083 58.567 48.8083C58.0102 48.8083 55.686 53.0305 54.4755 56.3638C52.7808 60.9316 52.7082 69.1044 54.2334 73.055C54.6208 73.9932 55.0081 75.2031 55.1292 75.7216C55.2502 76.2401 55.3955 76.6105 55.4923 76.5364C55.5408 76.4376 55.4923 75.8697 55.3229 75.2278L55.2987 75.2525ZM137.952 67.7711C138.049 62.3637 138.001 61.9687 137.274 59.1539C136.379 55.8206 135.919 54.4626 135.725 54.6848C135.676 54.7342 135.773 55.5243 136.015 56.4132C136.79 59.3267 137.202 64.7588 137.056 70.6105C136.935 75.8697 136.96 76.1166 137.371 74.8327C137.662 73.8945 137.855 71.6969 137.928 67.7958L137.952 67.7711Z" fill="#E67B5B"/>
<path d="M93.6479 127.523C91.8079 126.486 90.7427 125.474 90.3069 124.289C90.0164 123.474 89.6774 120.437 89.1448 113.672L88.9753 111.499L87.8859 111.178C87.2564 111.005 86.5543 110.857 86.3122 110.857C86.0459 110.857 85.1259 110.536 84.2543 110.141C83.3828 109.746 82.3659 109.252 81.9302 109.079C81.107 108.709 80.7923 108.536 77.9355 106.635C75.3934 104.931 70.6724 100.289 70.6724 99.4003C70.6724 99.2768 70.4061 98.9065 70.0914 98.6102C69.7766 98.3139 69.5103 97.8941 69.5103 97.6719C69.5103 96.9065 68.8809 96.9065 67.5009 97.7213C65.6609 98.783 62.441 99.0793 60.5041 98.3139C59.0273 97.746 57.381 96.3139 56.6789 94.9559C55.9284 93.5732 55.2747 90.9313 55.2747 89.351C55.2747 87.4745 56.2431 83.7215 57.0421 82.6351C57.7442 81.6721 57.7442 81.6968 56.461 79.524C55.9768 78.7092 55.42 77.6722 55.2505 77.2524C55.081 76.8327 54.6695 75.9932 54.3547 75.3265C53.3379 73.2771 52.5148 68.3389 52.5148 64.8575C52.539 61.4748 53.3137 57.4749 54.4516 54.907C55.8558 51.6972 56.5337 50.512 58.5431 47.796C59.7294 46.1911 64.063 42.1664 64.6199 42.1664C64.7167 42.1664 65.1525 41.8948 65.6367 41.5245L66.4598 40.8825L65.2978 39.6973C64.3536 38.7344 64.1357 38.3393 64.2325 37.5245C64.3536 36.1418 65.1525 36.0924 66.4598 37.5245C67.1135 38.1912 67.4283 38.4381 67.3314 38.0677C66.9683 37.2282 66.7504 34.7097 66.944 34.1665C67.0651 33.8949 67.3314 33.7715 67.5735 33.8702C68.1546 34.1171 69.5345 36.5122 69.5345 37.2776C69.5345 38.1912 69.8493 38.0677 71.0356 36.7838C72.2219 35.4258 75.2724 32.7591 75.5629 32.7591C75.6839 32.7591 75.9744 32.5863 76.1923 32.3888C77.2334 31.4505 77.5239 31.2283 77.9113 31.2283C78.1292 31.2283 78.4439 31.0801 78.5892 30.932C78.7586 30.7592 79.8239 30.2653 80.9618 29.8456C83.7701 28.7592 87.6438 28.5863 93.0911 29.2777C98.6594 29.969 103.937 29.9444 109.578 29.1295C112.435 28.7098 114.759 28.537 115.824 28.6357C120.013 29.0555 122.942 31.6234 123.959 35.648C124.492 37.8949 124.589 38.0183 126.114 39.1788C128.051 40.6356 129.987 42.5368 129.987 42.9565C129.987 43.1294 130.108 43.3269 130.23 43.3763C130.544 43.4997 132.651 46.7096 132.651 47.1046C132.651 47.2528 132.917 47.7466 133.232 48.1664C133.546 48.5861 133.813 49.154 133.813 49.475C133.813 49.7466 133.909 49.9935 134.055 49.9935C134.176 49.9935 134.539 50.512 134.829 51.154C135.12 51.7466 135.483 52.512 135.628 52.8083C136.524 54.5613 137.759 58.7094 138.146 61.1538C139.018 66.9562 138.534 73.129 136.815 78.3635C135.895 81.2277 135.725 82.24 136.137 82.4128C136.258 82.4622 136.645 82.9314 137.033 83.4746C137.977 84.9066 138.364 87.2276 138.195 90.4374C138.074 92.6843 137.904 93.4497 137.275 94.5115C135.604 97.3756 133.474 98.6842 130.399 98.6842C128.777 98.6842 128.002 98.5361 126.888 97.9682L125.484 97.2522L124.927 98.3633C124.637 99.0052 124.153 99.6719 123.911 99.8694C123.644 100.116 123.426 100.413 123.426 100.585C123.426 101.104 117.858 106.536 117.35 106.536C117.108 106.536 116.914 106.684 116.914 106.832C116.914 107.005 116.333 107.425 115.582 107.795C114.832 108.166 114.251 108.585 114.251 108.709C114.251 108.832 114.106 108.956 113.888 108.956C113.718 108.956 112.75 109.351 111.757 109.845C110.74 110.338 109.506 110.808 108.997 110.931L108.029 111.153V117.252C108.029 125.054 107.811 125.622 104.082 127.449C102.364 128.264 102 128.338 98.6836 128.338C95.391 128.314 95.0037 128.239 93.6479 127.499V127.523ZM55.2747 75.2524C55.1295 74.5858 54.839 72.3142 54.6211 70.1908C54.0642 64.1662 54.8874 57.4996 56.7031 53.4996C58.2042 50.191 58.64 49.4256 59.9473 47.5491C60.4799 46.7343 61.0368 46.0923 61.182 46.0923C61.3515 46.0923 61.4725 45.9442 61.4725 45.796C61.4725 45.6232 61.1578 45.6972 60.722 45.9689C60.3105 46.2405 59.9715 46.6355 59.9715 46.8824C59.9715 47.1046 59.7052 47.4256 59.3905 47.5985C59.0757 47.7713 58.8094 48.117 58.8094 48.3639C58.8094 48.6108 58.6884 48.8083 58.5431 48.8083C57.9863 48.8083 55.6621 53.0305 54.4516 56.3638C52.7569 60.9316 52.6842 69.1044 54.2095 73.0549C54.5968 73.9932 54.9842 75.2031 55.1053 75.7216C55.2263 76.2401 55.3716 76.6104 55.4684 76.5364C55.5168 76.4376 55.4684 75.8697 55.2989 75.2277L55.2747 75.2524ZM137.928 67.771C138.025 62.3637 137.977 61.9687 137.25 59.1539C136.355 55.8206 135.895 54.4626 135.701 54.6848C135.653 54.7342 135.749 55.5243 135.992 56.4132C136.766 59.3267 137.178 64.7587 137.033 70.6105C136.912 75.8697 136.936 76.1166 137.347 74.8327C137.638 73.8944 137.831 71.6969 137.904 67.7957L137.928 67.771Z" fill="#CD7768"/>
<path d="M93.963 115.227C92.8251 115.005 91.2756 114.733 90.5009 114.659L89.0725 114.437V113.079V111.696L90.2104 111.869C94.1325 112.511 98.9261 112.635 102.872 112.24C105.148 111.993 107.254 111.721 107.569 111.598C108.005 111.425 108.078 111.573 108.078 113.054C108.078 114.388 107.957 114.783 107.569 114.906C104.882 115.721 97.5945 115.894 93.9872 115.227H93.963Z" fill="#CA6962"/>
<path d="M80.2112 97.6966C78.8555 97.2769 77.4755 96.7336 77.2092 96.4867C76.9187 96.2151 76.5797 95.9929 76.4344 95.9929C76.3134 95.9929 75.7808 95.5732 75.2966 95.03C74.546 94.2399 74.3766 93.8201 74.3766 92.5855C74.3524 91.4251 74.4734 91.0053 74.9334 90.709C75.2481 90.4621 75.7081 90.1164 75.9018 89.9189C76.4829 89.4004 79.9691 89.1041 82.1965 89.3757C84.2059 89.6226 86.6269 90.4374 87.4985 91.1782C87.7648 91.4498 88.249 91.7214 88.5153 91.8448C88.7817 91.9436 89.0238 92.2152 89.0238 92.388C89.0238 92.6102 89.2417 93.03 89.5322 93.3263C90.1132 93.9929 90.1132 95.5238 89.508 96.1658C89.2416 96.4127 89.0238 96.7583 89.0238 96.9312C89.0238 97.0793 88.8543 97.2028 88.6364 97.2028C88.3943 97.2028 87.7648 97.425 87.2806 97.6966C85.6585 98.5114 82.9712 98.5114 80.187 97.6966H80.2112Z" fill="#CA6962"/>
<path d="M109.457 98.0176C105.632 96.9559 104.857 94.2645 107.714 91.7954C108.465 91.1288 109.215 90.5856 109.409 90.5856C109.578 90.5856 110.377 90.314 111.128 89.9436C112.266 89.4498 113.137 89.3016 115.728 89.3016C118.633 89.3016 119.02 89.351 120.085 90.0177C122.192 91.3757 122.458 92.8325 120.909 94.709C119.771 96.1411 118.003 97.104 115.243 97.7954C112.508 98.5114 111.442 98.5608 109.457 98.0176V98.0176Z" fill="#CA6962"/>
<path d="M97.6184 95.7707C96.7469 95.3756 95.73 94.3386 95.3427 93.4991C94.7858 92.1658 95.2942 91.8448 95.9237 93.1041C96.5532 94.3386 97.8848 95.104 99.4342 95.104C100.015 95.104 100.33 95.2522 100.33 95.5485C100.33 95.8695 100.015 95.9929 99.2405 95.9682C98.6111 95.9682 97.909 95.8694 97.6427 95.746L97.6184 95.7707Z" fill="#CA6962"/>
<path d="M66.8229 94.067C66.8229 93.8201 66.9439 93.5485 67.0892 93.4744C67.3313 93.3263 68.1544 89.672 67.9607 89.5485C65.5397 87.9436 64.5471 87.9436 61.4482 89.5732C61.3272 89.6226 61.1819 89.5485 61.0609 89.351C60.7945 88.9313 62.5619 87.9189 63.9903 87.7214C64.644 87.6226 65.7334 87.672 66.3871 87.8449C67.0408 87.993 67.5734 88.0918 67.5976 88.0671C67.6218 88.0424 67.3071 87.4745 66.8955 86.8325C65.9755 85.4498 63.8934 84.24 62.465 84.24C61.1819 84.24 59.3177 85.2029 58.2525 86.4128C57.7441 87.0054 57.3567 87.2276 57.2115 87.0054C57.1146 86.8325 57.5262 86.1165 58.1799 85.4745C60.6977 82.8326 65.0797 83.1042 67.3555 86.0671C68.5418 87.5733 68.7112 90.8572 67.8397 93.9929C67.6702 94.6349 66.8229 94.6843 66.8229 94.0917V94.067Z" fill="#CA6962"/>
<path d="M125.75 92.9559C124.661 89.4744 125.436 86.388 127.857 84.6597C129.019 83.8449 129.406 83.7461 131.295 83.7461C133.28 83.7461 133.546 83.8449 134.829 84.8078C136.137 85.7954 136.79 86.7831 136.403 87.1782C136.282 87.2769 135.87 86.9065 135.435 86.3633C133.716 84.2399 131.198 83.6967 128.922 84.9066C127.833 85.4745 126.162 87.2769 126.162 87.8695C126.162 87.993 126.695 87.9683 127.373 87.8201C129.309 87.3757 132.675 88.2399 132.675 89.2028C132.675 89.6473 131.73 89.4991 130.738 88.9065C129.648 88.2152 128.583 88.1164 127.324 88.6349L126.089 89.1534L126.235 91.0053C126.331 92.0423 126.477 93.2028 126.598 93.6966C126.985 95.1781 126.283 94.5855 125.775 92.9806L125.75 92.9559Z" fill="#CA6962"/>
<path d="M99.7246 89.7462C99.7488 89.598 100.354 89.0301 101.056 88.4375C101.807 87.8696 102.388 87.203 102.388 87.0055C102.388 86.7832 102.509 86.6104 102.654 86.6104C103.187 86.6104 103.332 84.3141 102.896 83.203C102.315 81.7463 101.613 81.6228 99.6035 82.5364C94.8583 84.6845 94.0352 82.7092 94.6404 70.8822C95.173 61.2527 95.5846 62.0428 95.512 72.3883C95.4636 77.129 95.5362 81.3512 95.6815 81.7463C95.8993 82.3882 96.0446 82.4376 97.5214 82.3142C98.4414 82.2154 99.3614 81.9438 99.6519 81.6722C100.523 80.8821 102.146 81.0055 102.969 81.9191C103.598 82.5857 103.671 83.0055 103.671 84.7586C103.671 86.561 103.574 86.9314 102.848 87.845C101.661 89.277 99.6762 90.4375 99.7004 89.7215L99.7246 89.7462Z" fill="#CA6962"/>
<path d="M82.4144 85.6968C81.5429 83.9684 82.0513 81.2524 83.286 80.7586C85.9491 79.7216 87.8617 82.5117 86.4575 85.4252C85.9733 86.3881 85.8281 86.4869 84.3997 86.5857C82.9471 86.6844 82.8502 86.6351 82.4144 85.6968Z" fill="#CA6962"/>
<path d="M108.392 85.4499C107.617 84.0672 107.593 83.3017 108.174 82.0919C108.973 80.5117 110.789 80.0919 112.144 81.1536C112.774 81.6475 112.847 81.9684 112.847 83.5733C112.847 85.9684 112.314 86.635 110.377 86.635C109.094 86.635 108.949 86.5857 108.368 85.4499H108.392Z" fill="#CA6962"/>
<path d="M56.994 80.4624C56.6066 79.7957 56.1224 78.9562 55.9287 78.6106C55.7108 78.2896 55.4203 77.6723 55.2267 77.2526C55.0572 76.8328 54.6456 75.9439 54.3309 75.2773C52.5151 71.3267 52.0067 64.2157 53.1446 59.154C53.9193 55.6726 55.6382 51.6232 57.1392 49.6973C57.5024 49.2529 58.035 48.5122 58.3498 48.043C59.4392 46.4134 63.9665 42.1666 64.5718 42.1666C64.6686 42.1666 65.1286 41.8703 65.6128 41.5246L66.4844 40.8579L65.2981 39.6974C64.3297 38.7345 64.1118 38.3641 64.2086 37.5493C64.3297 36.1172 65.1286 36.0926 66.436 37.5246C67.0896 38.1913 67.4044 38.4382 67.3075 38.0678C66.9444 37.179 66.7265 34.7099 66.9444 34.142C67.0654 33.7716 67.2349 33.7469 67.6465 33.9691C68.2033 34.2654 69.4865 36.6604 69.4865 37.4506C69.4865 38.216 69.8738 38.0185 70.9875 36.8086C72.1738 35.4506 75.2243 32.784 75.5148 32.784C75.6358 32.784 75.9264 32.6111 76.1443 32.4136C77.1853 31.4753 77.4758 31.2531 77.8632 31.2531C78.0811 31.2531 78.3958 31.105 78.5411 30.9568C78.7105 30.784 79.7758 30.2902 80.9137 29.8704C83.7221 28.784 87.5957 28.6112 93.043 29.3025C98.6598 29.9939 103.841 29.9692 109.772 29.1297C113.743 28.5865 114.905 28.5371 116.333 28.8087C120.57 29.5988 122.943 31.7716 123.935 35.6975C124.468 37.895 124.589 38.1172 125.896 39.0802C126.695 39.6481 127.325 40.2406 127.325 40.3888C127.325 40.5369 127.494 40.6604 127.712 40.6604C127.954 40.6604 128.511 41.1542 128.995 41.7468C129.479 42.3394 130.012 42.9814 130.181 43.2036C130.762 43.8702 132.675 46.8579 132.675 47.1541C132.675 47.3023 132.941 47.7961 133.256 48.2159C133.571 48.6356 133.837 49.2035 133.837 49.5245C133.837 49.7961 133.934 50.043 134.079 50.043C134.2 50.043 134.563 50.5615 134.854 51.2035C135.145 51.7961 135.532 52.5862 135.677 52.9072C136.476 54.438 137.808 58.9565 138.171 61.2527C138.946 66.265 138.461 74.1415 137.251 77.1291C136.96 77.7958 136.549 79.1044 136.307 79.9933C135.822 81.8945 135.774 81.9932 135.266 81.5982C135.048 81.45 134.079 80.9562 133.111 80.5611C131.561 79.9192 130.884 79.8451 128.051 79.8698L124.783 79.8945L124.226 78.9562C122.725 76.3884 120.812 72.6106 120.812 72.1415C120.812 71.9687 120.497 71.1045 120.134 70.2403C119.747 69.3514 119.117 67.5983 118.73 66.3638C118.052 64.1169 116.89 60.5367 116.793 60.3639C116.769 60.3392 115.752 60.7342 114.566 61.2527C113.355 61.7713 111.104 62.5614 109.554 62.9811C106.915 63.6725 106.238 63.7465 100.185 63.7465C94.6167 63.7712 93.1882 63.6478 90.4041 63.0799C86.9904 62.3885 82.8021 61.2281 80.3326 60.2898C77.3064 59.1787 77.4516 59.1046 76.6769 61.5984C75.6116 64.9811 72.198 72.1168 71.1085 73.2773C70.8664 73.4995 70.697 73.8205 70.697 73.9933C70.697 74.1415 70.4065 74.66 70.0433 75.1044C69.6559 75.5489 69.0991 76.3143 68.7601 76.7587C68.4454 77.2032 67.7917 78.092 67.3318 78.6846L66.5086 79.771L63.6034 79.7957C60.8676 79.7957 60.6013 79.8451 59.2213 80.734L57.7203 81.6969L57.0424 80.4377L56.994 80.4624ZM55.2751 75.2526C55.1298 74.5859 54.8393 72.3143 54.6214 70.1909C54.1856 65.6724 54.573 60.4132 55.5898 56.833C56.6066 53.3022 60.335 46.0924 61.2066 46.0924C61.3518 46.0924 61.4729 45.9443 61.4729 45.7961C61.4729 45.6233 61.1582 45.6974 60.7224 45.969C60.3108 46.2406 59.9718 46.6356 59.9718 46.8825C59.9718 47.1048 59.7055 47.4258 59.3908 47.5986C59.0761 47.7714 58.8098 48.1171 58.8098 48.364C58.8098 48.6109 58.6887 48.8084 58.5435 48.8084C58.2287 48.8084 56.6551 51.3269 55.6624 53.3516C53.5561 57.796 52.7088 62.9317 53.193 68.1169C53.4835 70.8329 54.1372 73.6723 54.6456 74.3884C54.7667 74.5612 54.9603 75.1538 55.0814 75.697C55.2024 76.2402 55.3477 76.6353 55.4445 76.5859C55.493 76.4871 55.4445 75.9192 55.2751 75.2773V75.2526ZM137.929 67.7712C138.026 62.3638 137.977 61.9688 137.251 59.154C136.355 55.8207 135.895 54.4627 135.701 54.6849C135.653 54.7343 135.75 55.5244 136.016 56.4133C136.718 59.154 137.178 65.2774 137.033 70.9069C136.912 75.8945 136.936 76.1168 137.348 74.8328C137.638 73.8946 137.832 71.7218 137.904 67.7959L137.929 67.7712Z" fill="#CA6962"/>
<path d="M115.51 75.845C114.953 75.7463 114.057 75.45 113.5 75.129C112.943 74.8327 112.338 74.5611 112.169 74.5611C111.539 74.5611 109.215 72.6352 108.61 71.6229C108.222 71.0303 108.053 70.3636 108.174 69.9192C108.343 69.1537 109.772 68.1908 110.692 68.1908C112.169 68.1908 117.761 70.6352 118.052 71.4253C118.148 71.6476 118.366 71.8204 118.584 71.8204C119.117 71.8204 119.674 73.6969 119.48 74.6352C119.262 75.4253 118.003 76.1166 116.986 75.9932C116.72 75.9932 116.066 75.8944 115.534 75.845H115.51Z" fill="#CA6962"/>
<path d="M97.618 95.7707C96.7464 95.3757 95.5601 94.2645 95.5601 93.8448C95.5601 93.5979 95.4148 93.2769 95.2454 93.0794C95.0759 92.9065 95.0033 92.5609 95.1243 92.3633C95.2938 92.1164 95.5359 92.3633 95.9232 93.1287C96.5527 94.3633 97.8843 95.1287 99.4337 95.1287C100.015 95.1287 100.329 95.2769 100.329 95.5732C100.329 95.8942 100.015 96.0176 99.24 95.9929C98.6106 95.9929 97.9085 95.8942 97.6422 95.7707H97.618Z" fill="#BE6856"/>
<path d="M66.8229 94.1164C66.8229 93.8941 66.9439 93.5978 67.0892 93.4497C67.3313 93.1781 68.0092 90.388 68.0092 89.6967C68.0092 89.5732 67.3797 89.1535 66.6534 88.7831C65.4187 88.1411 65.1766 88.1164 64.0387 88.4621C63.385 88.6843 62.7072 88.9066 62.5377 89.03C61.8598 89.5485 61.2061 89.6226 61.2061 89.2028C61.2061 88.1658 64.2566 87.351 66.266 87.8201C66.9681 87.993 67.5734 88.0917 67.5976 88.0671C67.6218 88.0424 67.3071 87.4745 66.8955 86.8325C65.9755 85.4498 63.8934 84.2399 62.465 84.2399C61.1819 84.2399 59.3177 85.2029 58.2525 86.4128C57.7441 87.0053 57.3567 87.2276 57.2115 87.0053C57.1146 86.8325 57.5262 86.1165 58.1799 85.4745C60.6977 82.8326 65.0797 83.1042 67.3555 86.0671C68.5418 87.5732 68.7112 90.8571 67.8397 93.9929C67.6702 94.5855 66.8229 94.6842 66.8229 94.1164V94.1164Z" fill="#BE6856"/>
<path d="M125.751 92.956C123.984 87.4252 127.252 82.9561 132.506 83.7215C133.861 83.9437 136.5 85.9684 136.5 86.8079C136.5 87.4746 136.113 87.3264 135.338 86.2894C133.765 84.2647 131.126 83.6968 128.874 84.9067C127.785 85.4746 126.114 87.277 126.114 87.8696C126.114 87.9931 126.647 87.9684 127.325 87.8202C128.753 87.4992 130.327 87.6968 131.682 88.3881C132.82 88.9807 132.966 89.6227 131.9 89.4251C131.489 89.3758 131.15 89.1782 131.15 89.0548C131.15 88.9313 130.569 88.6597 129.818 88.4869C128.729 88.2153 128.317 88.24 127.3 88.635L126.066 89.1535L126.211 91.0054C126.308 92.0424 126.453 93.2029 126.574 93.6967C126.961 95.1781 126.259 94.5856 125.751 92.9807V92.956Z" fill="#BE6856"/>
<path d="M99.9425 89.7215C99.8456 89.598 100.378 89.0301 101.105 88.4622C101.807 87.8943 102.412 87.2277 102.412 87.0301C102.412 86.8079 102.533 86.6351 102.678 86.6351C103.211 86.6351 103.356 84.3388 102.92 83.2277C102.291 81.7709 101.613 81.6228 99.6035 82.5611C97.0614 83.7215 95.8993 83.524 95.0278 81.8697C94.4951 80.808 94.3499 76.3636 94.713 70.4624C95.2214 61.3267 95.633 62.2897 95.5362 72.4377C95.4878 77.1784 95.5604 81.4006 95.7057 81.7956C95.9235 82.4376 96.0688 82.487 97.5456 82.3635C98.4656 82.2648 99.3856 81.9932 99.6762 81.7215C100.499 80.9314 102.17 81.0549 102.993 81.9685C104.034 83.0796 104.034 86.1166 102.993 87.6968C102.242 88.8079 100.185 90.2153 99.9425 89.7461V89.7215Z" fill="#BE6856"/>
<path d="M82.4144 85.672C81.5429 83.9683 82.0513 81.2523 83.286 80.7832C85.6102 79.8696 87.5954 82.24 86.7238 84.7831C86.1428 86.4374 85.8523 86.6596 84.327 86.6596C83.0197 86.6596 82.8502 86.5609 82.4386 85.6967L82.4144 85.672Z" fill="#BE6856"/>
<path d="M108.392 85.4499C107.617 84.0672 107.593 83.3017 108.174 82.0919C108.973 80.5117 110.789 80.0919 112.144 81.1536C112.725 81.5981 112.846 81.9931 112.895 83.3511C112.919 85.7708 112.314 86.6103 110.474 86.6103C109.118 86.6103 108.997 86.5609 108.392 85.4252V85.4499Z" fill="#BE6856"/>
<path d="M56.994 80.4624C56.6066 79.7957 56.1224 78.9562 55.9287 78.6106C55.7108 78.2896 55.4203 77.6723 55.2267 77.2526C55.0572 76.8328 54.6456 75.9439 54.3309 75.2773C52.5151 71.3267 52.0067 64.2157 53.1446 59.154C53.9193 55.6726 55.6382 51.6232 57.1392 49.6973C57.5024 49.2529 58.035 48.5122 58.3498 48.043C59.4392 46.4134 63.9665 42.1666 64.5718 42.1666C64.6686 42.1666 65.1286 41.8703 65.6128 41.5246L66.4844 40.8579L65.2981 39.6974C64.3297 38.7345 64.1118 38.3641 64.2086 37.5493C64.3297 36.1172 65.1286 36.0926 66.436 37.5246C67.0896 38.1913 67.4044 38.4382 67.3075 38.0678C66.9444 37.179 66.7265 34.7099 66.9444 34.142C67.0654 33.7716 67.2349 33.7469 67.6465 33.9691C68.2033 34.2654 69.4865 36.6604 69.4865 37.4506C69.4865 38.216 69.8738 38.0185 70.9875 36.8086C72.1738 35.4506 75.2243 32.784 75.5148 32.784C75.6358 32.784 75.9264 32.6111 76.1443 32.4136C77.1853 31.4753 77.4758 31.2531 77.8632 31.2531C78.0811 31.2531 78.3958 31.105 78.5411 30.9568C78.7105 30.784 79.7758 30.2902 80.9137 29.8704C83.7221 28.784 87.5957 28.6112 93.043 29.3025C98.6598 29.9939 103.841 29.9692 109.772 29.1297C113.743 28.5865 114.905 28.5371 116.333 28.8087C120.57 29.5988 122.943 31.7716 123.935 35.6975C124.468 37.895 124.589 38.1172 125.896 39.0802C126.695 39.6481 127.325 40.2406 127.325 40.3888C127.325 40.5369 127.494 40.6604 127.712 40.6604C127.954 40.6604 128.511 41.1542 128.995 41.7468C129.479 42.3394 130.012 42.9814 130.181 43.2036C130.762 43.8702 132.675 46.8579 132.675 47.1541C132.675 47.3023 132.941 47.7961 133.256 48.2159C133.571 48.6356 133.837 49.2035 133.837 49.5245C133.837 49.7961 133.934 50.043 134.079 50.043C134.2 50.043 134.563 50.5615 134.854 51.2035C135.145 51.7961 135.532 52.5862 135.677 52.9072C136.476 54.438 137.808 58.9565 138.171 61.2527C138.946 66.265 138.461 74.1415 137.251 77.1291C136.96 77.7958 136.549 79.1044 136.307 79.9933C135.822 81.8945 135.774 81.9932 135.266 81.5982C135.048 81.45 134.079 80.9562 133.111 80.5611C131.561 79.9192 130.884 79.8451 128.051 79.8698L124.783 79.8945L124.226 78.9562C122.725 76.3884 120.812 72.6106 120.812 72.1415C120.812 71.9687 120.497 71.1045 120.134 70.2403C119.747 69.3514 119.117 67.5983 118.73 66.3638C118.052 64.1169 116.89 60.5367 116.793 60.3639C116.769 60.3392 115.752 60.7342 114.566 61.2527C113.355 61.7713 111.104 62.5614 109.554 62.9811C106.915 63.6725 106.238 63.7465 100.185 63.7465C94.6167 63.7712 93.1882 63.6478 90.4041 63.0799C86.9904 62.3885 82.8021 61.2281 80.3326 60.2898C77.3064 59.1787 77.4516 59.1046 76.6769 61.5984C75.6116 64.9811 72.198 72.1168 71.1085 73.2773C70.8664 73.4995 70.697 73.8699 70.697 74.1168C70.697 74.3637 70.5759 74.5365 70.4549 74.5365C70.3338 74.5365 70.0191 74.9069 69.7528 75.376C69.4865 75.8205 69.0507 76.4624 68.8086 76.8081C68.5423 77.1291 67.9128 77.9686 67.4528 78.6106L66.5328 79.7957L63.6276 79.8204C60.8918 79.8204 60.6255 79.8698 59.2455 80.7587L57.7445 81.7216L57.0666 80.4624H56.994ZM55.2751 75.2526C55.1298 74.5859 54.8393 72.3143 54.6214 70.1909C54.1856 65.6724 54.573 60.4132 55.5898 56.833C56.6066 53.3022 60.335 46.0924 61.2066 46.0924C61.3518 46.0924 61.4729 45.9443 61.4729 45.7961C61.4729 45.6233 61.1582 45.6974 60.7224 45.969C60.3108 46.2406 59.9718 46.6356 59.9718 46.8825C59.9718 47.1048 59.7055 47.4258 59.3908 47.5986C59.0761 47.7714 58.8098 48.1171 58.8098 48.364C58.8098 48.6109 58.6887 48.8084 58.5435 48.8084C58.2287 48.8084 56.6551 51.3269 55.6624 53.3516C53.5561 57.796 52.7088 62.9317 53.193 68.1169C53.4835 70.8329 54.1372 73.6723 54.6456 74.3884C54.7667 74.5612 54.9603 75.1538 55.0814 75.697C55.2024 76.2402 55.3477 76.6353 55.4445 76.5859C55.493 76.4871 55.4445 75.9192 55.2751 75.2773V75.2526ZM137.929 67.7712C138.026 62.3638 137.977 61.9688 137.251 59.154C136.355 55.8207 135.895 54.4627 135.701 54.6849C135.653 54.7343 135.75 55.5244 136.016 56.4133C136.718 59.154 137.178 65.2774 137.033 70.9069C136.912 75.8945 136.936 76.1168 137.348 74.8328C137.638 73.8946 137.832 71.7218 137.904 67.7959L137.929 67.7712Z" fill="#BE6856"/>
<path d="M77.8873 75.845C77.0641 75.6968 76.3136 74.6598 76.3136 73.7216C76.3136 72.2154 79.3883 69.9192 82.9956 68.7587C85.2714 68.0426 85.9251 68.0426 86.9903 68.8574C88.4187 69.9192 88.225 71.1537 86.4819 72.7092C85.7072 73.3759 84.8114 74.0425 84.4966 74.1907C84.1335 74.3388 83.2861 74.7586 82.5356 75.1043C81.1314 75.7709 78.9767 76.0919 77.8873 75.8697V75.845Z" fill="#BE6856"/>
<path d="M115.51 75.845C114.953 75.7463 114.057 75.45 113.5 75.129C112.943 74.8327 112.338 74.5611 112.169 74.5611C111.539 74.5611 109.215 72.6352 108.61 71.6229C107.835 70.3636 108.029 69.45 109.191 68.7093C110.28 68.0426 110.813 68.0673 112.968 68.7587C117.495 70.2648 119.916 72.413 119.456 74.5611C119.286 75.4006 118.028 76.0919 116.962 75.9932C116.696 75.9932 116.042 75.8944 115.51 75.845Z" fill="#BE6856"/>
<path d="M97.8115 95.6966C96.5769 95.1534 95.5843 94.0423 95.4148 92.9806L95.2695 91.9188L95.7053 92.8818C96.2379 94.0916 97.4 94.8571 98.9736 95.0793C99.6273 95.1781 100.184 95.3756 100.184 95.5237C100.184 95.9188 98.5863 96.0422 97.8115 95.6719V95.6966Z" fill="#87433A"/>
<path d="M67.2103 93.8448C68.2271 89.4004 68.2271 89.672 67.4282 89.03C66.1935 88.0671 64.8861 87.993 63.0703 88.7584C61.2304 89.5485 60.7462 89.4251 62.0293 88.4868C62.7314 87.993 63.3609 87.8448 64.9587 87.8448C66.145 87.8448 67.1619 87.993 67.3555 88.2152C67.864 88.7337 67.7913 88.314 67.1134 86.9806C66.3629 85.4745 64.3051 84.2399 62.4893 84.2399C60.9398 84.2399 59.6083 84.9066 58.2767 86.3387C57.7683 86.9066 57.3325 87.2769 57.3325 87.1782C57.3325 86.5115 58.2041 85.3757 59.2209 84.635C60.262 83.9436 60.7219 83.8202 62.5135 83.8202C64.2324 83.8202 64.7651 83.9437 65.6366 84.5362C66.1935 84.956 66.7745 85.4498 66.9198 85.6473C67.0408 85.8696 67.3555 86.2399 67.6703 86.5362C68.5418 87.4251 68.2513 94.5114 67.3798 94.5114C67.2103 94.5114 67.1377 94.2151 67.2345 93.8448H67.2103Z" fill="#87433A"/>
<path d="M125.751 92.7338C125.073 90.3634 125.121 89.0795 125.92 87.1783C127.058 84.5857 129.503 83.3018 132.505 83.7956C133.474 83.9437 134.176 84.3141 135.169 85.2523C136.573 86.5857 137.033 87.5733 135.919 86.882C135.604 86.6597 135.338 86.3635 135.338 86.1906C135.338 85.6227 133.111 84.4375 131.755 84.2894C130.036 84.1413 128.075 85.0054 126.985 86.4622C126.501 87.0301 126.162 87.6474 126.162 87.7708C126.162 87.8943 127.203 87.9931 128.487 87.919C130.423 87.8202 130.908 87.919 131.803 88.4869C133.208 89.3758 132.457 89.598 130.835 88.7832C129.237 87.9931 128.075 87.9684 126.864 88.7585C125.896 89.3264 125.896 89.3511 126.09 91.2276C126.187 92.2893 126.38 93.3757 126.501 93.6473C126.816 94.2893 126.816 94.4868 126.525 94.4868C126.404 94.4868 126.09 93.6967 125.775 92.7338H125.751Z" fill="#87433A"/>
<path d="M100.185 89.3017C100.499 89.1289 101.056 88.7091 101.347 88.3881C101.661 88.0918 102 87.8449 102.097 87.8449C102.194 87.8449 102.509 87.3017 102.848 86.6351C103.526 85.1783 103.356 83.2277 102.46 82.2894L101.831 81.6968L99.9909 82.3882C97.1826 83.4746 96.6984 83.4746 95.73 82.6351L94.8584 81.8697L94.8826 73.5735C94.8826 67.5735 95.0037 65.1291 95.2458 64.7094C95.5363 64.2155 95.6089 65.6476 95.4637 71.8204C95.3668 76.0426 95.4152 80.1413 95.5121 80.882L95.7542 82.24L97.3278 82.3388C98.5383 82.3882 99.0468 82.3141 99.6762 81.8203C100.717 80.9808 102.17 81.0055 102.945 81.8697C103.574 82.5116 103.816 83.7956 103.695 85.8943C103.598 87.1536 101.371 89.6474 100.354 89.6474C99.6762 89.6227 99.6762 89.6227 100.233 89.277L100.185 89.3017Z" fill="#87433A"/>
<path d="M82.5598 85.7461C81.2041 83.8202 82.2451 80.6104 84.2303 80.5857C86.2156 80.561 87.4261 82.635 86.724 84.7584C86.143 86.388 85.8524 86.635 84.4482 86.635C83.383 86.635 83.0925 86.4868 82.584 85.7461H82.5598Z" fill="#87433A"/>
<path d="M108.658 85.7955C107.714 84.4375 107.617 83.5239 108.295 82.1659C109.191 80.3881 110.716 80.0425 112.096 81.3264C113.137 82.314 113.185 84.8078 112.144 85.9189C111.176 86.9806 109.457 86.9559 108.634 85.7955H108.658Z" fill="#87433A"/>
<path d="M135.314 81.4991C135.314 81.351 135.144 81.2028 134.926 81.2028C134.709 81.2028 133.958 80.9065 133.207 80.5362C132.07 79.9436 131.44 79.8448 128.438 79.8201H125L124.225 78.8819C123.814 78.3633 123.451 77.7214 123.451 77.4498C123.451 77.1782 123.354 76.956 123.209 76.956C123.088 76.956 122.773 76.5115 122.507 75.993C121.635 74.2152 120.788 72.24 120.788 71.993C120.788 71.8696 120.473 71.0301 120.037 70.1165C119.626 69.2029 119.287 68.3141 119.287 68.1165C119.287 67.8203 118.197 64.2647 117.229 61.4993L116.745 60.1166L114.662 61.0796C113.525 61.6228 111.2 62.4376 109.481 62.882C106.552 63.6722 105.971 63.6968 100.136 63.6968C95.4153 63.6968 93.3817 63.5734 91.687 63.1783C90.4765 62.9067 88.927 62.6104 88.2733 62.5117C87.0386 62.3635 82.8745 61.1537 80.865 60.3882C80.2113 60.1413 79.1219 59.7463 78.444 59.5487L77.2093 59.1537L76.6282 61.203C76.2651 62.3635 75.9988 63.3512 75.9988 63.4993C75.9988 63.9931 73.2388 69.6721 72.3914 70.9313C72.1009 71.3511 71.8588 71.8449 71.8588 71.993C71.8588 72.1659 71.5925 72.5362 71.2778 72.8325C70.963 73.1288 70.6967 73.4992 70.6967 73.6227C70.6967 73.9436 69.002 76.4621 68.4694 76.9313C68.2273 77.1535 68.0336 77.4745 68.0336 77.6473C68.0336 77.8201 67.7915 78.2152 67.4768 78.4868C67.1862 78.7337 66.8957 79.1288 66.8231 79.3016C66.7262 79.5238 65.5884 79.672 63.5789 79.7214C60.9642 79.7707 60.3105 79.8695 59.5842 80.4127C57.9864 81.5238 57.7201 81.5238 56.9695 80.2892C50.5538 69.8943 51.0865 57.6722 58.4222 48.018C60.48 45.3267 61.1095 44.66 61.4242 44.9563C61.5453 45.0798 61.2547 45.5242 60.7463 46.018C56.6548 50.0427 53.8948 55.9685 53.2412 62.2401C52.8538 65.919 53.3864 71.4005 54.379 73.672C54.7422 74.4868 55.0085 75.3017 55.0085 75.5239C55.0085 75.7461 55.2264 76.1658 55.4443 76.4868C55.8074 77.0053 55.8317 76.9066 55.4685 75.6967C55.2506 74.9313 54.9117 72.4869 54.6938 70.2153C54.258 65.4252 54.5969 60.4376 55.638 56.7833C56.8001 52.8575 59.2453 48.1415 61.4726 45.7217C61.86 45.302 61.981 44.9563 61.7632 44.8329C61.4968 44.66 64.1115 42.1168 64.5715 42.1168C64.6926 42.1168 65.1526 41.8205 65.6368 41.4749L66.4599 40.8082L65.2978 39.623C64.4989 38.8082 64.1358 38.1663 64.1358 37.5737C64.1358 36.0428 65.5399 36.1169 66.7989 37.7959C67.2831 38.3885 67.3799 38.4873 67.2347 38.0428C67.1136 37.7218 66.9683 36.6601 66.8715 35.7219C66.7262 34.1169 66.7505 33.9688 67.3073 33.9688C67.961 33.9688 69.0504 35.6231 69.3652 37.0552C69.462 37.4996 69.6073 37.8947 69.7283 37.8947C69.8494 37.8947 70.382 37.3762 70.963 36.7836C72.2704 35.3268 75.1998 32.7589 75.563 32.7589C75.7082 32.7589 76.1924 32.4379 76.6282 31.9935C77.064 31.5737 77.5966 31.2281 77.8387 31.2281C78.0566 31.2281 78.3714 31.0799 78.5166 30.9318C78.6861 30.7589 79.7513 30.2651 80.8892 29.8454C83.4313 28.8824 87.5712 28.6108 91.4449 29.08C99.2406 30.0676 103.865 30.0429 111.079 28.9071C114.735 28.3639 116.89 28.5367 119.262 29.6725C120.497 30.2404 120.933 30.6108 122.555 32.4132C122.918 32.8083 123.499 34.2898 123.887 35.7219C124.274 37.1046 124.637 38.2897 124.661 38.3144C125.799 38.9564 127.276 40.0922 127.276 40.3144C127.276 40.4872 127.445 40.6107 127.688 40.6107C127.905 40.6107 128.438 41.0551 128.874 41.6477C129.285 42.2156 129.818 42.8576 130.036 43.1045C130.665 43.7464 132.626 46.7835 132.626 47.1291C132.626 47.2773 132.893 47.7711 133.207 48.1908C133.522 48.6106 133.789 49.1291 133.789 49.3513C133.789 49.5735 134.103 50.1908 134.539 50.734C134.951 51.2772 135.29 51.8451 135.29 52.0427C135.29 52.1908 135.532 52.8575 135.846 53.5241C136.815 55.6476 137.686 58.5858 138.122 61.203C138.921 66.1906 138.437 73.4745 137.081 77.2275C136.766 78.1411 136.331 79.5238 136.137 80.3386C135.967 81.1287 135.701 81.7707 135.556 81.7707C135.411 81.7707 135.29 81.6473 135.29 81.4744L135.314 81.4991ZM137.832 67.4252C137.832 60.8821 137.686 59.7216 136.113 55.376C135.604 53.9439 135.556 54.6846 136.016 56.5611C136.791 59.6969 137.178 65.0795 137.033 70.7832C136.887 75.9189 136.912 76.1411 137.347 74.9807C137.711 74.0177 137.783 72.4375 137.832 67.4252Z" fill="#87433A"/>
<path d="M76.7732 74.9809C76.0227 73.8204 76.2164 73.2031 77.5722 71.8451C78.9764 70.4624 80.9858 69.376 83.4795 68.6353C85.3194 68.0921 86.2878 68.2402 87.2562 69.1291C88.1762 70.018 88.031 71.0056 86.8689 72.1908C85.3194 73.697 85.15 73.8204 82.9952 74.8327C81.4458 75.5488 80.5742 75.771 79.1458 75.771C77.4753 75.771 77.209 75.6722 76.7974 75.0056L76.7732 74.9809Z" fill="#87433A"/>
<path d="M112.701 74.6845C109.893 73.2277 109.094 72.5857 108.489 71.3265C108.005 70.2648 108.005 70.2154 108.537 69.45C109.457 68.1907 110.401 68.0179 112.75 68.7833C115.243 69.5734 116.623 70.2648 118.149 71.524C119.165 72.3635 119.311 72.6351 119.311 73.7215C119.311 74.4129 119.165 75.1536 118.948 75.3511C118.73 75.5734 117.785 75.7215 116.672 75.7215C115.05 75.6968 114.348 75.4993 112.701 74.6598V74.6845Z" fill="#87433A"/>
<path d="M97.5216 95.4004C96.4321 94.8818 95.6332 94.0423 95.4395 93.1288L95.27 92.2152L95.7784 93.2029C96.3353 94.3139 97.5942 95.1041 99.3132 95.4004L100.499 95.5732L99.3132 95.5979C98.6595 95.5979 97.8605 95.4991 97.5458 95.351L97.5216 95.4004Z" fill="#713532"/>
<path d="M67.1133 94.3386C67.1133 94.1657 67.3312 93.4991 67.5975 92.8324L68.0333 91.6226L67.888 92.8077C67.7427 93.8447 67.1133 95.1287 67.1133 94.3386V94.3386Z" fill="#713532"/>
<path d="M125.75 92.1657C125.387 90.462 125.339 89.4744 125.508 88.6596C125.823 87.2769 126.138 86.8818 126.138 87.8201C126.138 88.3633 126.235 88.4127 126.695 88.1411C127.784 87.5732 130.35 87.8201 131.609 88.5855C133.038 89.4991 132.529 89.5732 130.956 88.7337C129.406 87.8942 127.542 87.9436 126.525 88.8571L125.702 89.5485L126.065 91.9188C126.283 93.2274 126.38 94.3385 126.332 94.3879C126.283 94.4373 126.017 93.425 125.75 92.141V92.1657Z" fill="#713532"/>
<path d="M68.0094 90.2892C68.0094 88.314 64.9347 87.4745 62.5621 88.7831C61.1095 89.5732 60.8431 89.3263 62.2473 88.4868C63.5547 87.7214 66.1694 87.6473 67.4283 88.314C68.2031 88.709 68.3241 88.9559 68.3241 89.9683C68.3241 90.6349 68.2757 91.1781 68.1789 91.1781C68.082 91.1781 68.0336 90.7831 68.0336 90.2892H68.0094Z" fill="#713532"/>
<path d="M101.154 88.6843C102.291 87.7214 102.872 86.9066 103.308 85.5732C103.478 85.03 103.526 85.0547 103.55 85.7461C103.575 86.6349 102.461 88.2893 101.299 89.1041C99.9672 89.993 99.8704 89.746 101.154 88.6843V88.6843Z" fill="#713532"/>
<path d="M67.0409 86.7584C66.5325 85.9436 65.7335 85.1782 64.8136 84.6597C63.7483 84.0671 63.603 83.9437 64.2567 84.0671C64.6925 84.1659 65.2978 84.4622 65.5399 84.6597C65.782 84.9066 66.1693 85.1041 66.4114 85.1041C66.6535 85.1041 66.823 85.2523 66.823 85.4745C66.823 85.6473 67.0893 86.1412 67.4525 86.5115C67.7672 86.8819 68.0093 87.4004 67.9609 87.6226C67.9125 87.8942 67.5735 87.5732 67.0651 86.7337L67.0409 86.7584Z" fill="#713532"/>
<path d="M57.599 86.4128C58.0832 85.4745 60.1168 83.8943 60.9157 83.8943C61.4726 83.8943 61.3273 84.0424 60.3347 84.561C59.5842 84.9313 58.6158 85.6474 58.1316 86.1412C57.5505 86.8325 57.3811 86.9066 57.599 86.4128Z" fill="#713532"/>
<path d="M126.138 86.7585C126.138 86.0671 128.995 83.919 129.915 83.9437C130.205 83.9437 129.818 84.24 129.092 84.6104C128.341 84.9807 127.373 85.6968 126.961 86.1906C126.525 86.7091 126.162 86.956 126.162 86.7585H126.138Z" fill="#713532"/>
<path d="M135.313 86.0177C134.95 85.5239 134.49 85.1041 134.248 85.1041C134.006 85.1041 133.837 84.9807 133.837 84.8325C133.837 84.6844 133.473 84.4622 133.038 84.314C132.457 84.1659 132.36 84.0671 132.723 83.993C132.989 83.9437 133.643 84.1659 134.2 84.5362C135.289 85.3017 136.718 86.9313 136.258 86.9313C136.112 86.9313 135.701 86.5362 135.338 86.0177H135.313Z" fill="#713532"/>
<path d="M82.923 86.2647C81.8577 84.561 81.6883 83.203 82.3419 81.9931C83.0198 80.7339 84.1819 80.3388 85.465 80.9067C87.0144 81.5981 87.2807 84.561 85.9492 86.0425C85.3682 86.7091 83.3345 86.8326 82.9472 86.2647H82.923Z" fill="#713532"/>
<path d="M108.682 85.7215C107.714 84.3881 107.786 82.5857 108.9 81.4499C109.941 80.4129 110.74 80.3388 111.926 81.203C112.701 81.7462 112.798 81.9931 112.798 83.5733C112.798 85.0054 112.677 85.4252 112.12 85.9684C111.079 86.956 109.505 86.8819 108.706 85.7215H108.682Z" fill="#713532"/>
<path d="M103.332 83.7214C103.308 82.8819 102.315 81.7955 101.637 81.7955C101.322 81.7955 100.354 82.0671 99.5065 82.3881C95.0519 84.1165 94.4466 82.7091 94.8582 72.2895C95.2214 63.2279 95.4877 63.5488 95.4877 73.0796C95.4634 78.0178 95.5845 82.1412 95.7056 82.314C96.214 82.8079 98.756 82.5363 99.8213 81.8696C100.378 81.4992 101.129 81.2029 101.443 81.2029C102.339 81.2029 103.695 82.8078 103.525 83.6473C103.404 84.2893 103.404 84.314 103.356 83.7461L103.332 83.7214Z" fill="#713532"/>
<path d="M135.266 81.5733C135.241 81.4252 134.515 81.0054 133.692 80.5857C132.385 79.919 131.803 79.8202 128.559 79.7709C125.121 79.7462 124.879 79.6721 124.371 79.0054C123.572 77.9437 121.369 73.524 120.667 71.5981C119.48 68.2401 118.512 65.3266 117.519 62.2155L116.842 60.0674L115.776 60.5118C115.195 60.7834 114.178 61.2279 113.525 61.5488C112.871 61.8451 110.934 62.4624 109.215 62.8822C106.407 63.5488 105.511 63.6476 100.088 63.6476C93.624 63.6476 90.2103 63.2031 85.3199 61.6723C84.0125 61.2525 82.7294 60.9069 82.4631 60.9069C82.221 60.9069 81.5673 60.6846 81.0347 60.413C80.502 60.1414 79.6789 59.8205 79.1463 59.697C78.6378 59.5736 77.9842 59.376 77.7179 59.2526C77.3063 59.0797 77.0642 59.5242 76.3621 61.8945C75.5632 64.4624 73.1906 69.9438 72.7064 70.3142C72.6095 70.4129 72.2221 71.0055 71.8832 71.6722C71.2053 72.9314 70.7453 73.6722 69.4138 75.6227C68.978 76.2647 68.3485 77.1289 68.0822 77.5487C67.7917 77.9684 67.4043 78.4375 67.1864 78.5363C66.9685 78.6598 66.7991 78.9807 66.7991 79.2029C66.7991 79.5733 66.2422 79.6474 63.9907 79.6474C61.3033 79.6474 59.2455 80.1412 58.8097 80.8326C58.4223 81.4992 57.5023 81.277 56.9939 80.4128C55.7834 78.3635 53.7013 73.6968 53.5561 72.7092C53.4592 71.7956 53.5561 71.9191 54.2097 73.4252C54.6213 74.4129 54.9603 75.4005 54.9603 75.5734C54.9603 75.7462 55.1782 76.166 55.3961 76.5116C55.8076 77.0548 55.8076 77.0301 55.5171 76.1906C55.3476 75.6968 55.0087 73.3265 54.7666 70.9068C54.0161 63.697 54.8634 57.6476 57.2602 52.4625C57.8171 51.228 58.4223 50.1663 58.5676 50.0922C58.6886 50.0428 58.8097 49.7218 58.8097 49.4008C58.8097 49.1045 58.9307 48.8329 59.0518 48.8329C59.1728 48.8329 59.536 48.4132 59.8023 47.9194C60.0928 47.4008 60.7223 46.586 61.2065 46.0428C61.7391 45.4503 61.9812 44.9811 61.7633 44.8577C61.497 44.7095 61.7633 44.4132 63.9665 42.5861C64.2328 42.3392 64.5233 42.1663 64.6201 42.1663C64.6686 42.1663 65.2496 41.8454 65.8306 41.4009C66.4117 40.9812 66.7748 40.6355 66.6054 40.6355C65.9275 40.6355 64.1844 38.4627 64.1844 37.6232C64.1844 36.0923 65.5885 36.1911 66.8475 37.8454C67.3317 38.438 67.4285 38.5368 67.2833 38.0923C67.1622 37.7713 67.0169 36.7096 66.9201 35.7714C66.7748 34.1911 66.7991 34.0183 67.3075 34.0183C67.8885 34.0183 69.5106 36.5615 69.5106 37.475C69.5106 38.2405 69.8737 38.0429 71.1811 36.6602C72.6095 35.1788 75.0547 33.0306 75.5632 32.8578C75.7326 32.8084 76.3137 32.4381 76.7737 32.0677C77.8631 31.2529 79.8241 30.3393 81.9546 29.5986C83.9641 28.9319 89.6293 28.8825 93.6724 29.4998C97.7155 30.1418 104.712 30.043 110.038 29.2282C114.832 28.5122 116.769 28.6356 118.827 29.648C119.311 29.8949 119.868 30.0924 120.037 30.0924C121.127 30.1171 123.306 33.2282 123.911 35.6973C124.589 38.4133 124.589 38.3886 125.606 39.0059C127.567 40.1664 129.673 42.3639 131.561 45.2774C132.142 46.2157 132.651 47.0799 132.651 47.2527C132.651 47.4009 132.917 47.8453 133.232 48.2897C133.547 48.7095 133.813 49.228 133.813 49.4749C133.813 49.7218 134.128 50.3638 134.563 50.907C134.975 51.4502 135.314 52.0675 135.314 52.2403C135.314 52.4131 135.58 53.1292 135.943 53.7711C136.258 54.4378 136.476 55.1538 136.428 55.3514C136.331 55.5736 136.137 55.3267 135.943 54.8329C135.362 53.3514 135.314 54.1168 135.895 56.1662C136.718 59.2279 137.227 65.8451 137.033 71.0549C136.936 73.5981 136.791 75.9437 136.67 76.2894C136.5 76.8573 136.5 76.8573 136.839 76.3141C137.009 75.9931 137.372 75.1042 137.59 74.3388C137.904 73.1043 137.953 73.0302 137.977 73.8944C138.001 74.4129 137.614 75.9931 137.154 77.3758C136.67 78.7585 136.21 80.3634 136.089 80.9066C135.919 81.8202 135.532 82.1659 135.29 81.6721L135.266 81.5733Z" fill="#713532"/>
<path d="M76.7977 74.8574C76.3135 74.0179 76.3135 73.8944 76.7977 72.8821C77.064 72.2895 77.3788 71.7957 77.4756 71.7957C77.5724 71.7957 77.9114 71.5488 78.2503 71.2525C78.8798 70.6846 81.4945 69.3513 83.0924 68.8081C86.1186 67.7711 88.806 69.3266 87.4502 71.2772C86.3607 72.8821 86.046 73.0796 82.9471 74.6599C81.2524 75.4994 80.5261 75.7216 79.0977 75.7216C77.4756 75.7216 77.2819 75.6722 76.8219 74.8327L76.7977 74.8574Z" fill="#713532"/>
<path d="M113.525 75.0302C110.256 73.5981 108.344 71.845 108.344 70.3142C108.344 69.2278 109.288 68.5117 110.716 68.5117C111.927 68.5117 114.396 69.2278 115.365 69.8697C115.728 70.1166 116.164 70.3142 116.333 70.3142C116.599 70.3142 117.616 71.1043 118.754 72.2154C119.384 72.808 119.505 74.8079 118.924 75.4005C118.367 75.9684 115.147 75.7956 113.501 75.0302H113.525Z" fill="#713532"/>
<path d="M52.9019 69.8204C52.4903 67.5488 52.5145 62.1168 53.0229 60.1662C53.5071 58.1909 53.5555 59.1292 53.144 62.5365C52.8777 64.66 52.8777 65.8945 53.1682 68.2155C53.604 71.5488 53.4345 72.5117 52.9019 69.8204Z" fill="#713532"/>
<path d="M53.4591 57.9192C53.4591 57.2031 54.4275 54.6106 55.7833 51.9933C56.6548 50.265 60.7463 44.8823 61.1821 44.8823C61.6663 44.8823 61.4968 45.4255 60.9158 45.8453C60.2379 46.3391 58.0348 49.1045 56.9938 50.7835C56.0496 52.3143 55.1538 54.1908 54.2338 56.6846C53.7496 57.8945 53.4833 58.3883 53.4591 57.9192V57.9192Z" fill="#713532"/>
<path d="M83.0197 86.4128C82.6324 85.993 81.9545 84.1412 81.9545 83.4746C81.9545 82.4375 82.6324 81.2277 83.3829 80.882C85.1502 80.0672 86.4334 81.0301 86.6512 83.3264C86.7965 85.4992 86.0218 86.635 84.3755 86.635C83.746 86.635 83.165 86.5362 83.0439 86.4128H83.0197Z" fill="#3E2520"/>
<path d="M108.682 85.7214C107.714 84.3881 107.786 82.5857 108.9 81.4499C109.965 80.3882 110.958 80.3388 112.023 81.3264C113.04 82.2894 113.113 84.5856 112.169 85.8449C111.273 87.0054 109.578 86.956 108.706 85.7214H108.682Z" fill="#3E2520"/>
<path d="M135.265 81.5732C135.241 81.4251 134.515 81.0053 133.691 80.5856C132.384 79.9189 131.803 79.8202 128.535 79.7708C125.339 79.7214 124.806 79.6473 124.54 79.1782C124.395 78.8819 124.177 78.5856 124.056 78.4868C123.935 78.3881 123.668 77.9436 123.402 77.4251C123.16 76.9313 122.748 76.1165 122.482 75.6227C121.901 74.5363 120.787 71.9684 120.787 71.6721C120.787 71.5734 120.473 70.7092 120.085 69.7709C119.698 68.8326 119.068 67.0549 118.681 65.8203C117.664 62.413 116.865 60.0673 116.72 60.0673C116.623 60.0673 116.212 60.2401 115.8 60.4871C113.573 61.6475 111.878 62.2401 108.852 62.9562C105.68 63.6722 105.172 63.7216 99.1193 63.5981C92.4857 63.4747 90.2341 63.1784 85.3194 61.7216C84.0121 61.3266 82.6805 60.9315 82.3658 60.8327C82.051 60.7834 80.7921 60.3389 79.5816 59.8945C78.3711 59.4747 77.3059 59.2278 77.1848 59.3513C77.0638 59.4994 76.749 60.4624 76.4343 61.5488C75.7564 63.9932 73.6743 68.9067 72.8512 70.0178C72.5364 70.4129 72.1733 71.0055 70.8417 73.4993C70.1638 74.7091 68.4691 76.9807 68.227 76.9807C68.106 76.9807 67.9849 77.1535 67.9849 77.3758C67.9849 77.6227 67.7186 78.0424 67.4039 78.3387C67.0891 78.635 66.8228 79.0547 66.8228 79.3017C66.8228 79.5979 66.1449 79.6967 63.7966 79.6967C61.0124 79.6967 60.6734 79.7461 59.2693 80.5856L57.7198 81.4992L56.9451 80.2893C55.7103 78.3634 53.7009 73.9437 53.6041 72.7585C53.4588 71.6968 53.5072 71.8449 55.2988 76.3634C55.783 77.5733 55.8798 76.8819 55.444 75.4498C55.2019 74.7338 54.8872 72.2647 54.6693 70.0425C54.403 66.6598 54.4272 65.3018 54.7904 62.0179C55.0567 59.8698 55.444 57.5488 55.6861 56.8822C55.9282 56.2155 56.1219 55.4995 56.1703 55.3019C56.1703 54.734 58.2766 50.2156 58.5672 50.1415C58.7124 50.0921 58.8335 49.7711 58.8335 49.4502C58.8335 49.1539 58.9545 48.8823 59.0756 48.8823C59.1966 48.8823 59.5114 48.5119 59.7777 48.0675C60.0682 47.5736 60.6976 46.7341 61.1819 46.1662C61.7145 45.5737 61.9566 45.0551 61.7629 44.9317C61.5934 44.8329 61.884 44.3885 62.4408 43.944C64.3292 42.3638 64.4502 42.2404 64.5955 42.2404C64.6439 42.2404 65.225 41.9194 65.806 41.4749C66.3871 41.0552 66.7744 40.7095 66.6291 40.7095C66.4839 40.7095 65.8544 40.2157 65.225 39.6231C64.4744 38.8577 64.1355 38.2651 64.1355 37.6972C64.1355 36.1664 65.5397 36.2651 66.7986 37.9194C67.2828 38.512 67.3797 38.6108 67.2344 38.1663C67.1134 37.8454 66.9681 36.7836 66.8712 35.8454C66.726 34.2652 66.7502 34.0923 67.2586 34.0923C67.8397 34.0923 69.4617 36.6355 69.4617 37.5491C69.4617 38.4379 69.5586 38.3639 73.1417 34.8084C73.5291 34.4133 73.9648 34.117 74.1827 34.117C74.3522 34.117 74.4975 33.9936 74.4975 33.8701C74.4975 33.2281 78.9764 30.685 81.9058 29.6726C83.9152 29.006 89.6046 28.9566 93.6235 29.5739C97.6182 30.2405 104.615 30.1171 110.014 29.3023C114.807 28.6109 116.72 28.7097 118.754 29.722C119.238 29.9689 119.795 30.1664 119.964 30.1664C120.4 30.1911 121.635 31.3516 122.434 32.5368C123.184 33.5738 123.862 35.4009 124.153 37.2034C124.322 38.117 124.637 38.512 125.823 39.3021C126.622 39.8206 127.276 40.3638 127.276 40.4873C127.276 40.6354 127.518 40.8083 127.808 40.9071C128.51 41.154 132.578 46.5119 132.602 47.2773C132.602 47.4502 132.868 47.9193 133.183 48.3391C133.498 48.7588 133.764 49.2773 133.764 49.5242C133.764 49.7711 134.079 50.4131 134.515 50.9563C134.926 51.4995 135.265 52.1168 135.265 52.2896C135.265 52.4625 135.531 53.1785 135.895 53.8205C136.209 54.4871 136.427 55.2032 136.379 55.4007C136.282 55.6229 136.088 55.376 135.895 54.8822C135.314 53.4007 135.265 54.1662 135.846 56.2155C136.669 59.2278 137.178 66.0426 136.984 71.0301C136.887 73.4499 136.718 75.7461 136.597 76.1659C136.451 76.6844 136.476 76.8325 136.718 76.6103C136.887 76.4622 137.226 75.5486 137.468 74.635C137.831 73.3017 137.904 73.1536 137.952 73.8696C137.977 74.3881 137.517 76.1906 136.936 77.919C136.379 79.6226 135.895 81.2276 135.895 81.4498C135.895 81.8942 135.41 82.0424 135.241 81.672L135.265 81.5732Z" fill="#3E2520"/>
<path d="M76.9672 75.129C76.1925 73.8945 76.7009 72.2896 78.1777 71.3513C82.5597 68.5365 85.4649 67.8452 87.1112 69.1785C88.1281 69.9933 88.0312 70.8328 86.8933 72.1167C85.9976 73.0797 85.4892 73.4253 82.8987 74.6846C80.284 75.9932 77.6209 76.1661 76.9672 75.129V75.129Z" fill="#3E2520"/>
<path d="M113.549 74.9561C109.046 72.9808 107.303 70.7586 108.925 69.0796C109.627 68.3636 110.668 68.3142 112.895 68.9068C114.856 69.45 117.035 70.6351 118.342 71.8944C119.505 73.0055 119.698 74.882 118.73 75.4252C117.713 75.9684 115.389 75.7462 113.549 74.9314V74.9561Z" fill="#3E2520"/>
<path d="M52.9021 69.8203C52.4905 67.6228 52.4905 63.2031 52.9021 60.7093C53.4105 57.7464 53.5799 58.7094 53.1684 62.1414C52.8537 64.5858 52.8537 65.7463 53.1684 68.1907C53.5799 71.5734 53.4347 72.487 52.9021 69.8203V69.8203Z" fill="#3E2520"/>
<path d="M53.4587 57.9193C53.4345 56.3391 55.9523 51.2033 58.0828 48.512C60.5038 45.3762 61.1333 44.7343 61.3754 45.0059C61.4965 45.1293 61.2786 45.5491 60.867 45.8948C58.4944 47.9441 55.9765 52.0428 54.2334 56.6847C53.7492 57.8946 53.4829 58.3884 53.4587 57.9193Z" fill="#3E2520"/>
<path d="M77.1124 96.9141C75.4177 96.5931 71.0357 93.803 71.0357 93.0376C71.0357 92.8647 70.8178 92.6178 70.6241 92.5191C70.382 92.4203 69.9462 91.8771 69.6799 91.3339C69.4136 90.7907 69.0989 90.2722 68.9778 90.1734C68.3968 89.7537 67.6462 86.2229 67.6462 83.8278C67.6705 81.1365 68.082 79.4328 69.3167 77.2847C70.2125 75.7538 72.4399 73.3588 73.5777 72.7662C74.0619 72.4946 74.9335 71.9761 75.5145 71.6551C76.4345 71.0872 76.9914 70.9885 80.405 70.9885C84.1818 70.9638 84.2786 70.9885 85.9007 71.902C88.8544 73.5563 89.3143 73.9267 90.5491 75.5316C91.7111 76.9884 93.309 80.0501 93.309 80.7414C93.309 80.9143 93.9627 80.7908 94.7617 80.4945C96.8437 79.7291 98.5868 79.5316 100.282 79.9019C103.961 80.6674 103.598 80.7167 103.84 79.26C104.325 76.3217 107.302 72.3959 110.208 70.8403C114.59 68.5194 120.521 68.9391 124.129 71.8773C125.581 73.0625 127.712 75.5069 127.712 76.0008C127.712 76.1736 127.93 76.6427 128.22 77.0625C128.486 77.4822 128.874 78.8649 129.116 80.1488C129.6 83.013 129.213 86.2229 128.075 88.5191C127.373 89.9512 123.596 94.124 122.967 94.124C122.821 94.124 122.264 94.3709 121.732 94.6919C120.061 95.6301 116.841 96.0499 114.178 95.6054C112.895 95.4326 111.515 95.0129 111.055 94.6672C110.643 94.3709 110.087 94.124 109.845 94.124C109.191 94.124 105.705 90.4944 104.93 88.9882C104.058 87.2846 103.453 84.7661 103.429 82.8402C103.429 81.4822 103.38 81.3587 102.388 80.939C101.758 80.6921 100.378 80.5192 98.7805 80.5192C96.6742 80.5192 95.9237 80.6427 94.8585 81.2106L93.5511 81.8772L93.4543 84.6673C93.4059 86.692 93.188 87.8525 92.7522 88.8154C92.4375 89.5808 92.1711 90.2722 92.1711 90.3463C92.1711 90.6179 89.4112 93.9512 89.0964 94.0993C88.9512 94.1487 88.588 94.4697 88.2975 94.766C87.9828 95.0869 87.6196 95.3339 87.4744 95.3339C87.3291 95.3339 86.6028 95.7042 85.8523 96.124C84.666 96.8153 84.0365 96.9388 81.4218 97.0375C79.7513 97.0622 77.8629 97.0375 77.2093 96.9141H77.1124ZM83.5281 96.3709C84.4239 96.0993 85.247 95.7783 85.4165 95.6054C85.5618 95.4573 85.8523 95.3339 86.0944 95.3339C86.5302 95.3339 88.5154 93.8524 89.5565 92.766C93.4301 88.692 94.0353 81.7044 90.9122 77.0872C89.7743 75.3835 87.0628 72.9144 85.9491 72.544C85.6586 72.4452 84.6418 72.0996 83.746 71.7539C80.5987 70.5687 77.2335 71.186 73.2146 73.6304C72.4156 74.1242 70.9873 75.6304 70.9873 75.9514C70.9873 76.0995 70.7451 76.3711 70.4546 76.5193C70.1641 76.6674 69.5346 77.7785 69.0504 78.9884C68.2757 80.8896 68.1789 81.5069 68.1789 84.2229C68.2031 87.013 68.2999 87.4574 69.1231 89.1611C69.6073 90.1981 70.1883 91.2598 70.4304 91.4821C70.6483 91.729 71.2294 92.3956 71.7136 92.9882C72.222 93.5561 72.7788 94.0746 72.9967 94.0746C73.1662 94.0746 73.3598 94.1981 73.3598 94.3462C73.3598 94.6178 75.8777 95.8277 77.6693 96.3709C79.364 96.8894 81.6155 96.8894 83.4797 96.3215L83.5281 96.3709ZM119.238 95.0129C120.739 94.5931 123.548 93.2104 123.548 92.8647C123.548 92.7413 123.717 92.6178 123.935 92.6178C124.346 92.6178 125.484 91.4327 126.525 89.9018C126.913 89.3339 127.324 88.7907 127.421 88.692C127.954 88.2475 128.898 84.2476 128.898 82.5439C128.874 80.3711 127.857 76.9884 126.889 75.8526C126.525 75.4082 126.235 74.9637 126.235 74.8156C126.235 74.5687 124.346 72.6428 124.08 72.6428C123.983 72.6428 123.548 72.3218 123.112 71.8773C122.676 71.4576 122.168 71.1119 121.95 71.1119C121.732 71.1119 121.151 70.865 120.594 70.5934C119.916 70.223 118.705 70.0255 116.817 69.9514C114.469 69.8527 113.791 69.9514 112.362 70.5193C109.36 71.7292 107.835 72.9638 106.189 75.3341C104.47 77.902 103.937 79.8032 104.058 82.9636C104.155 85.655 104.3 86.1488 105.559 88.9142C105.995 89.8524 108.61 92.5931 109.748 93.3586C112.29 95.0129 116.502 95.7289 119.262 94.9635L119.238 95.0129Z" fill="#040507"/>
<path d="M83.0677 86.2646C81.5909 85.0547 81.8572 81.6473 83.4793 80.9066C84.8108 80.314 86.2876 81.0547 86.5539 82.5362C86.796 83.8942 86.5297 85.351 85.876 86.067C85.3192 86.709 83.7456 86.7831 83.0677 86.2399V86.2646Z" fill="#040507"/>
<path d="M109.336 86.388C108.804 86.0177 108.029 84.2893 108.029 83.4498C108.029 82.3881 109.046 81.0054 109.966 80.7585C110.838 80.5363 112.314 81.2029 112.605 81.9437C112.992 83.0301 112.774 85.03 112.169 85.8448C111.588 86.6349 110.111 86.9312 109.361 86.388H109.336Z" fill="#040507"/>
</svg>
