<svg width="232" height="315" viewBox="0 0 232 315" fill="none" xmlns="http://www.w3.org/2000/svg">
<path d="M20.9781 225.467C21.0021 224.068 21.0488 222.675 21.1022 221.294C21.4368 212.755 21.9968 204.167 24.1075 195.888C27.6462 182.005 35.3582 169.627 41.5315 156.699C47.7062 143.772 52.4661 129.284 49.5168 115.266C47.8835 107.491 43.9662 100.366 42.0569 92.6549C34.8729 63.6389 52.2088 35.4722 76.2861 20.3482C95.9715 7.98284 120.117 3.6602 143.241 6.04954C163.48 8.14287 184.948 16.7282 194.121 34.8882C208.458 63.2709 186.424 99.4829 198.86 128.748C201.538 135.05 205.687 140.608 208.83 146.692C213.834 156.378 216.189 167.178 218.458 177.84C222.554 197.091 226.558 216.749 224.446 236.319C223.341 246.563 220.266 257.123 212.888 264.316C202.658 274.29 186.909 275.456 172.625 275.132C154.499 274.722 136.408 272.843 118.585 269.523C110.206 267.961 101.741 266.072 93.2475 266.788C81.0155 267.817 66.8662 276.749 54.4902 273.391C45.2235 270.876 30.5448 258.409 25.7715 250.253C21.4608 242.888 20.8235 234.092 20.9781 225.467" fill="#F7F8F8"/>
<path d="M0.00219422 270.423C-0.536472 285.78 98.2409 301.825 145.666 295.059C162.457 292.663 174.42 282.433 187.138 280.957C210.345 278.267 228.673 283.808 231.092 271.31C234.833 251.962 123.442 252.067 95.3489 252.26C67.2555 252.452 0.743527 249.312 0.00219422 270.423" fill="#F7F8F8"/>
<path d="M122.609 55.2348C122.609 55.2348 123.33 62.6121 124.257 65.3121C124.257 65.3121 114.772 66.3908 111.764 65.4668C111.764 65.4668 112.92 60.6068 111.301 51.7388L122.609 55.2348Z" fill="#F46B6C"/>
<path d="M112.042 57.4362C112.042 57.4362 112.041 57.4361 112.041 57.4348C111.922 55.8441 111.709 54.0335 111.349 52.0041C111.709 54.0321 111.925 55.8468 112.042 57.4362Z" fill="#DBAB95"/>
<path d="M113.12 58.3388C113.034 58.2748 112.95 58.2094 112.868 58.1428C112.581 57.9174 112.308 57.6815 112.042 57.4361C111.925 55.8468 111.709 54.0321 111.349 52.0041C111.546 52.0961 111.737 52.1761 111.914 52.2454C111.9 54.3588 112.278 56.4321 113.12 58.3388Z" fill="#F14A3F"/>
<path d="M133.802 279.276C133.832 279.514 133.865 279.751 133.9 279.988C134.018 280.779 134.141 281.588 134.514 282.295C135.493 284.152 137.821 284.762 139.894 285.08C141.969 285.398 144.276 285.727 145.601 287.355C145.961 287.798 146.233 288.368 146.12 288.928C146.058 289.231 145.892 289.5 145.728 289.76C145.185 290.622 144.586 291.522 143.661 291.947C143.028 292.242 142.308 292.278 141.608 292.307C137.589 292.484 134.198 293.159 130.238 291.971C128.972 291.612 127.704 291.191 126.608 290.459C123.149 288.143 123.373 284.683 124.072 281.175C124.71 277.967 124.577 274.158 124.428 270.896C124.364 269.526 124.238 268.139 124.466 266.786C124.628 265.834 124.964 264.911 125.453 264.078C125.702 263.656 125.997 263.248 126.405 262.975C126.857 262.672 127.409 262.56 127.95 262.5C129.356 262.344 130.816 262.503 132.093 263.107C133.137 263.6 134.25 264.51 134.744 265.586C135.189 266.56 134.56 267.69 134.336 268.666C133.526 272.187 133.354 275.723 133.802 279.276Z" fill="#F46B6C"/>
<path d="M119.054 248.658C119.214 253.578 120.382 268.984 120.382 268.984C120.382 268.984 128.893 272.21 137.908 269.458C137.908 269.458 140.396 256.707 140.837 249.53C141.13 244.755 144.389 225.91 144.549 205.671L114.261 206.646C115.853 219.587 118.938 245.014 119.054 248.658Z" fill="#73203B"/>
<path d="M120.801 262.557C126.537 264.34 132.406 264.39 138.171 262.71C138.534 262.604 138.381 262.036 138.015 262.143C132.326 263.802 126.613 263.748 120.957 261.991C120.596 261.879 120.44 262.445 120.801 262.557Z" fill="black"/>
<path d="M140.022 164.704C141.58 162.016 141.999 160.42 142.078 159.878L142.089 159.77C142.117 159.234 141.95 155.627 142.796 152.51C142.898 151.45 143.002 150.39 143.105 149.328C143.281 147.526 143.494 145.623 144.573 144.168C145.654 142.714 147.922 141.98 149.317 143.138C149.873 143.599 150.192 144.264 150.422 144.96C151.798 145.388 152.548 145.948 152.484 147.743C152.352 151.395 153.656 155.158 153.64 158.934C153.622 163.291 153.032 167.802 151.634 171.943C151.045 173.69 150.469 174.356 149 175.292C147.546 176.219 146.414 177.53 144.926 178.428C144.321 178.794 143.644 179.116 142.94 179.056C141.916 178.97 141.109 178.068 140.808 177.086C140.504 176.104 140.602 175.05 140.701 174.026C140.925 171.724 141.149 169.422 141.373 167.12C140.649 168.22 139.963 169.01 139.511 168.918C139.013 168.758 138.426 167.46 140.022 164.704" fill="#F46B6C"/>
<path d="M154.705 158.847C154.682 159.352 154.631 159.918 154.25 160.248C154.078 160.398 153.858 160.479 153.64 160.544C150.121 161.598 146.35 159.032 144.718 155.742C143.089 152.451 143.045 148.633 142.924 144.963C142.674 137.479 141.966 130.011 140.801 122.614C140.617 121.444 140.397 120.221 139.664 119.291C138.933 118.36 137.512 117.859 136.529 118.519C136.384 114.601 138.874 110.72 142.494 109.219C145.176 108.107 147.048 109.03 149.676 109.182C151.342 109.279 152.957 108.195 154.424 109.775C155.141 110.55 155.42 111.622 155.661 112.65C157.188 119.164 155.59 125.264 155.497 131.843C155.372 140.847 155.106 149.85 154.705 158.847" fill="#C04B43"/>
<path d="M99.9942 164.704C98.4369 162.016 98.0156 160.42 97.9382 159.878L97.9276 159.77C97.8982 159.234 98.0636 155.627 97.2196 152.51C97.1169 151.45 97.0129 150.39 96.9102 149.328C96.7342 147.526 96.5222 145.623 95.4409 144.168C94.3622 142.714 92.0942 141.98 90.6996 143.138C90.1436 143.599 89.8236 144.264 89.5942 144.96C88.2169 145.388 87.4689 145.948 87.5329 147.743C87.6622 151.395 86.3609 155.158 86.3756 158.934C86.3929 163.291 86.9849 167.802 88.3823 171.943C88.9716 173.69 89.5476 174.356 91.0156 175.292C92.4703 176.219 93.6009 177.53 95.0903 178.428C95.6943 178.794 96.3729 179.116 97.0756 179.056C98.1009 178.97 98.9063 178.068 99.2089 177.086C99.5103 176.104 99.4143 175.05 99.3156 174.026C99.0916 171.724 98.8676 169.422 98.6423 167.12C99.3676 168.22 100.052 169.01 100.504 168.918C101.002 168.758 101.59 167.46 99.9942 164.704" fill="#F46B6C"/>
<path d="M85.3102 154.18C85.3328 154.685 85.3822 155.251 85.7662 155.581C85.9382 155.731 86.1582 155.812 86.3768 155.877C89.8942 156.931 93.6648 154.365 95.2968 151.075C96.9275 147.784 96.9715 143.967 97.0929 140.296C97.3409 132.812 98.0488 125.344 99.2155 117.948C100.006 112.915 102.29 106.124 100.529 101.156C98.8795 96.5028 94.0395 92.5628 89.4688 91.0962C88.9462 90.9282 88.3902 90.7842 87.8542 90.8988C86.4782 91.1948 86.0168 92.8935 85.8328 94.2882C85.0768 100.056 84.5182 105.849 84.1595 111.656C83.8329 116.911 84.4435 121.937 84.5182 127.176C84.6449 136.18 84.9088 145.183 85.3102 154.18" fill="#C04B43"/>
<path d="M144.157 212.259C142.172 212.454 138.269 211.932 136.985 213.922C136.329 214.936 136.433 217.056 136.325 218.163C136.105 220.418 135.882 222.674 135.662 224.928C135.372 227.911 134.002 232.522 135.802 235.22C137.086 237.146 139.505 237.547 141.658 237.543C142.035 237.542 142.037 236.954 141.658 236.954C138.118 236.962 135.429 234.812 135.663 231.012C135.803 228.778 136.093 226.543 136.311 224.314C136.511 222.263 136.705 220.212 136.913 218.163C137.204 215.303 136.682 214.239 140.468 213.21C141.608 212.9 142.99 212.963 144.157 212.848C144.53 212.811 144.534 212.223 144.157 212.259" fill="black"/>
<path d="M106.157 277.866C106.186 278.103 106.218 278.34 106.254 278.578C106.373 279.368 106.496 280.177 106.869 280.885C107.848 282.741 110.174 283.352 112.249 283.668C114.324 283.987 116.63 284.316 117.954 285.944C118.316 286.387 118.588 286.959 118.474 287.519C118.414 287.82 118.248 288.089 118.082 288.351C117.54 289.211 116.94 290.111 116.017 290.538C115.382 290.831 114.662 290.866 113.964 290.898C109.944 291.075 106.552 291.748 102.594 290.56C101.328 290.201 100.057 289.78 98.9636 289.048C95.5023 286.734 95.7263 283.272 96.4263 279.764C97.065 276.556 96.933 272.747 96.7823 269.487C96.7183 268.113 96.593 266.73 96.8223 265.375C96.9823 264.422 97.3184 263.5 97.809 262.667C98.0557 262.246 98.353 261.838 98.7597 261.564C99.213 261.262 99.765 261.149 100.305 261.089C101.71 260.933 103.169 261.092 104.448 261.696C105.492 262.189 106.605 263.099 107.098 264.175C107.545 265.15 106.916 266.279 106.69 267.255C105.882 270.777 105.709 274.312 106.157 277.866" fill="#F46B6C"/>
<path d="M90.4903 248.488C90.649 253.408 90.2076 266.543 90.2076 266.543C90.2076 266.543 106.045 269.952 115.057 267.201C115.057 267.201 117.548 254.451 117.988 247.274C118.28 242.499 121.54 223.652 121.701 203.414L92.7463 196.583C90.4903 210.406 90.373 244.844 90.4903 248.488Z" fill="#73203B"/>
<path d="M94.6555 260.402C100.391 262.184 106.262 262.233 112.026 260.553C112.388 260.447 112.234 259.88 111.87 259.985C106.18 261.644 100.469 261.592 94.8115 259.835C94.4488 259.723 94.2941 260.29 94.6555 260.402" fill="black"/>
<path d="M121.308 210.003C119.324 210.198 115.42 209.675 114.134 211.666C113.48 212.679 113.584 214.8 113.474 215.906C113.254 218.162 113.034 220.416 112.813 222.672C112.521 225.654 111.153 230.266 112.952 232.964C114.236 234.89 116.656 235.289 118.808 235.285C119.186 235.284 119.186 234.696 118.808 234.698C115.269 234.704 112.578 232.556 112.816 228.755C112.953 226.52 113.244 224.285 113.461 222.056C113.661 220.007 113.854 217.955 114.062 215.906C114.353 213.047 113.832 211.981 117.618 210.953C118.758 210.643 120.14 210.705 121.308 210.591C121.681 210.555 121.684 209.966 121.308 210.003" fill="black"/>
<path d="M140.377 91.1362L137.609 71.3855C134.988 70.5362 132.325 69.8068 129.632 69.2162C128.309 68.9255 126.872 69.1308 126.13 67.9975C125.658 67.2735 125.793 66.3308 125.905 65.4735C126.016 64.6175 126.049 63.6361 125.448 63.0148C124.996 62.5481 124.308 62.4189 123.664 62.3269C119.642 61.7469 115.552 61.6388 111.505 62.0095C111.025 62.0535 110.498 62.1281 110.181 62.4895C109.953 62.7495 109.882 63.1068 109.818 63.4455C109.65 64.3468 109.984 66.1495 109.814 67.0495C107.485 68.3788 104.145 68.2735 101.508 68.7629C99.0022 69.2269 96.3609 69.3121 94.0956 70.4788C92.0156 71.5495 90.4529 73.4535 89.4262 75.5548C88.8062 76.8242 88.3768 78.1655 88.0168 79.5282C87.6795 80.8055 87.0395 81.8615 86.8382 83.1948C86.0129 88.6882 85.4636 94.2242 85.1956 99.7735C85.0742 102.283 85.0102 104.815 85.4235 107.292C85.8355 109.771 86.7542 112.215 88.3982 114.115C92.0369 118.318 97.9649 119.121 103.157 119.236C115.75 119.511 128.362 119.775 140.936 119.032C140.601 109.563 140.49 101.599 140.377 91.1362" fill="#C04B43"/>
<path d="M101.801 94.1362L104.568 74.3855C107.19 73.5362 109.852 72.8068 112.545 72.2162C113.868 71.9255 115.306 72.1308 116.048 70.9975C116.52 70.2735 116.384 69.3308 116.272 68.4735C116.13 67.3868 116.497 67.1455 116.78 66.3255C117.125 65.3202 116.946 64.2295 117.417 63.2242C117.836 62.3269 118.685 61.5602 119.674 61.5362C122.994 61.4508 126.32 61.6068 129.614 62.0002C129.59 62.5842 129.564 63.1668 129.54 63.7495C129.486 64.9535 129.438 66.1949 129.86 67.3242C131.405 71.4829 137.16 71.1122 140.669 71.7629C143.174 72.2269 145.817 72.3121 148.082 73.4788C150.161 74.5495 151.722 76.4535 152.75 78.5549C153.777 80.6562 154.316 82.9602 154.756 85.2575C155.605 89.6949 156.117 94.1962 156.289 98.7108C156.378 101.03 156.376 103.351 156.374 105.672C156.37 110.784 156.102 115.93 156.098 121.042C156.508 121.195 156.104 121.862 155.666 121.872C150.117 121.994 144.569 122.113 139.021 122.236C126.428 122.511 113.816 122.775 101.242 122.032C101.577 112.563 101.688 104.599 101.801 94.1362" fill="#C04B43"/>
<path d="M145.254 170.938C145.376 161.004 145.421 150.972 143.297 141.268C137.949 138.931 131.822 140.265 125.998 140.66C120.781 141.012 115.566 140.564 110.358 140.292C106.674 140.1 98.6077 138.663 96.4424 141.667C93.9784 145.087 94.185 153.472 93.8276 157.572C93.3583 162.946 93.2063 168.34 93.053 173.729C92.945 177.551 92.837 181.371 92.729 185.193C92.6103 189.395 92.4917 193.596 92.373 197.799C92.3117 199.963 90.8863 207.737 92.701 209.127C93.141 209.463 96.3197 209.208 96.9797 209.283C99.021 209.512 101.052 209.846 103.096 210.075C107.177 210.532 111.277 210.841 115.386 210.857C121.822 210.881 128.23 210.189 134.592 209.265C138.465 208.703 143.349 208.964 144.548 204.517C145.721 200.161 144.854 194.4 144.945 189.936C145.074 183.604 145.177 177.271 145.254 170.938" fill="#73203B"/>
<path d="M123.026 165.844C121.798 179.563 121.43 193.422 120.76 207.179C120.086 221.028 119.36 234.914 119.228 248.78C119.224 249.074 119.67 249.072 119.681 248.78C120.204 234.912 120.594 221.044 121.249 207.179C121.898 193.419 123.038 179.618 123.262 165.844C123.265 165.691 123.04 165.695 123.026 165.844Z" fill="black"/>
<path d="M126.766 142.983C126.589 147.104 126.693 151.245 126.69 155.369C126.689 157.36 126.814 159.38 126.52 161.351C126.152 163.821 124.866 165.736 123.716 167.892C123.625 168.06 123.858 168.189 123.968 168.039C126.328 164.807 127.065 161.799 127.072 157.847C127.081 152.901 127.21 147.924 126.997 142.983C126.992 142.834 126.772 142.834 126.766 142.983" fill="black"/>
<path d="M123.133 167.23C122.59 158.776 121.686 150.178 120.481 141.794C120.458 141.635 120.187 141.671 120.199 141.832C120.805 150.279 121.759 158.87 123.027 167.244L123.133 167.23Z" fill="black"/>
<path d="M148.12 101.26C147.63 99.7335 146.47 98.3202 144.9 97.9909C143.018 97.5949 141.216 98.7962 139.622 99.8708C134.774 103.14 129.472 105.803 123.808 107.251C117.296 108.915 110.158 109.053 104.26 112.028C101.584 112.484 99.1142 113.224 97.2809 114.452C94.7089 116.177 94.6383 118.871 94.7543 121.696C94.8823 124.835 95.3996 127.963 95.1703 131.111C94.9089 134.715 94.4196 138.296 94.0343 141.888C93.9103 143.043 93.2876 144.979 94.2063 145.915C95.0823 146.807 96.8956 147.304 98.0529 147.632C105.384 149.716 113.196 146.788 120.796 147.35C122.668 147.488 124.518 147.838 126.389 147.975C128.722 148.144 131.07 147.979 133.376 147.595C135.412 147.253 137.669 146.407 139.729 146.4C140.518 146.398 141.308 146.395 142.097 146.393C142.57 146.391 143.11 146.361 143.408 146.024C143.521 145.895 143.577 145.739 143.605 145.575C143.852 145.519 144.1 145.466 144.345 145.41C144.812 145.306 145.302 145.189 145.65 144.861C146.037 144.499 146.173 143.949 146.281 143.431C147.122 139.368 147.294 135.203 147.462 131.057C147.804 122.716 148.144 114.373 148.484 106.031C148.549 104.428 148.609 102.787 148.12 101.26" fill="#C04B43"/>
<path d="M137.718 45.4962C139.656 45.3095 143.173 42.2295 143.652 37.0481C144.129 31.8681 138.181 33.0788 137.556 34.7041C137.369 32.7655 128.406 23.0202 118.02 29.4028C118.552 28.3255 117.653 27.6295 116.098 29.2468C115.192 27.9655 113.277 29.2108 114.313 30.6588C111.393 31.1695 106.689 34.6068 108.828 45.1095C117.345 53.2841 121.597 53.7535 121.597 53.7535C121.597 53.7535 128.638 51.2148 129.38 50.8002C130.122 50.3868 137.718 45.4962 137.718 45.4962" fill="#191821"/>
<path d="M137.575 45.2936C137.575 45.2936 134.354 60.0309 130.814 62.8682C128.159 64.9949 124.971 66.4589 120.807 65.2162C117.813 64.3242 115.315 62.2535 113.715 59.5682C112.355 57.2909 111.753 54.6975 111.771 52.0429C109.842 51.3002 106.355 49.1415 108.685 44.9069C110.03 42.6255 113.843 43.6256 114.53 46.6896C115.131 47.8549 116.335 47.1509 117.798 44.5642C119.259 41.9776 120.525 39.8989 120.846 39.6722C120.997 39.5656 122.778 41.0496 125.545 42.5336C128.629 44.1896 132.937 45.8456 137.575 45.2936" fill="#F46B6C"/>
<path d="M125.47 44.5136C125.47 44.5136 123.056 45.3335 121.742 44.9069C120.43 44.4789 120.381 45.8202 122.554 46.2296C124.73 46.6389 125.822 46.1255 126.178 45.6029C126.536 45.0789 126.213 44.3002 125.47 44.5136Z" fill="#191821"/>
<path d="M132.733 47.1148C132.733 47.1148 133.929 49.0242 135.038 49.4028C136.149 49.7815 135.476 50.8202 133.794 49.9668C132.112 49.1135 131.648 48.1429 131.682 47.5575C131.717 46.9722 132.345 46.5575 132.733 47.1148Z" fill="#191821"/>
<path d="M129.609 49.8002C129.406 51.4722 128.996 53.0788 128.604 54.6922C128.481 55.1042 128.392 55.4628 128.24 55.9175C128.097 56.3935 127.608 56.7815 127.13 56.8002C126.194 56.8829 125.382 56.5002 124.712 56.0029C125.474 56.2989 126.328 56.5309 127.053 56.3749C127.409 56.2855 127.664 56.0855 127.758 55.7469C127.858 55.4082 127.954 54.9549 128.054 54.5642C128.516 52.9602 128.958 51.3482 129.609 49.8002" fill="#592A21"/>
<path d="M112.514 50.3815C112.633 49.6761 112.728 48.9721 112.644 48.3148C112.578 47.6548 112.294 47.0842 111.757 46.8162C111.49 46.6708 111.188 46.5935 110.878 46.5348C110.842 46.5308 110.806 46.5281 110.772 46.5281C110.542 46.5281 110.321 46.6201 110.144 46.7788C109.93 46.9668 109.801 47.2775 109.761 47.5948C109.709 47.9055 109.732 48.2841 110.036 48.4895C109.642 48.4201 109.478 47.9508 109.44 47.5895C109.418 47.2028 109.5 46.7908 109.764 46.4455C110.008 46.1028 110.448 45.9135 110.874 45.9135C110.892 45.9135 110.91 45.9148 110.928 45.9148C111.32 45.9615 111.709 46.0535 112.074 46.2415C112.81 46.6615 113.201 47.5388 113.146 48.2921C113.128 49.0548 112.886 49.7628 112.514 50.3815" fill="#F2534F"/>
<path d="M138.412 35.1855C140.482 38.1695 140.226 39.9402 137.648 40.5002C136.652 40.8268 135.626 41.0295 134.574 41.1068C132.874 41.2535 131.165 41.0801 129.493 40.7788C126.248 40.1935 122.808 39.2842 120.345 36.9909L120.173 37.1615C124.026 41.3028 132.992 42.6962 138.152 40.6388C139.6 40.0615 141.66 38.8055 141.316 36.9428C141.049 35.4988 139.71 35.0362 138.412 35.0882V35.1855" fill="#313050"/>
<path d="M140.281 34.8281C141.498 34.9948 142.405 36.2508 142.384 37.4588C142.361 38.8001 141.438 40.0455 140.542 40.9588C138.684 42.8495 136.509 43.2268 133.966 42.8281C133.825 42.8068 133.76 43.0135 133.906 43.0495C137.148 43.8588 140.03 42.6668 141.848 39.8481C143.034 38.0068 142.957 35.0508 140.32 34.6908L140.281 34.8281" fill="#313050"/>
<path d="M140.889 33.6935C148.757 35.0135 143.082 48.1961 136.473 45.1588C136.313 45.0855 136.176 45.3055 136.332 45.4001C139.532 47.3481 143.492 43.9774 144.668 41.0401C145.898 37.9734 144.513 33.8882 140.913 33.5188L140.889 33.6935" fill="#313050"/>
<path d="M115.182 31.1215C107.828 29.5748 103.914 41.9681 110.811 44.8308L110.896 44.6281C104.909 41.2721 107.826 29.8815 115.14 31.2775L115.182 31.1215" fill="#313050"/>
<path d="M126.907 59.5177C126.981 58.8623 125.629 58.6033 125.013 58.6798C124.873 58.6961 124.892 58.8366 124.977 58.888C125.21 59.0273 125.532 59.0781 125.81 59.1445C125.937 59.1746 126.087 59.2003 126.202 59.2518C126.381 59.3314 126.443 59.4669 126.548 59.5942C126.657 59.7253 126.891 59.6663 126.907 59.5177Z" fill="#1B1B1A"/>
<path d="M97.6916 93.8855C96.0476 102.115 95.1276 110.409 94.8529 118.8C94.7129 123.08 94.7289 127.365 94.9049 131.644C95.0982 136.375 95.8622 141.16 94.8142 145.836C94.7542 146.107 95.1636 146.223 95.2316 145.951C96.1463 142.267 95.7903 138.607 95.5796 134.853C95.3263 130.363 95.2436 125.864 95.3369 121.368C95.5263 112.181 96.4756 103.011 97.8569 93.9308L97.6916 93.8855Z" fill="#1D1C1B"/>
<path d="M147.797 92.2215C149.193 110.404 147.404 128.325 145.425 146.385C145.401 146.6 145.736 146.597 145.761 146.385C147.822 128.483 149.924 110.236 148.193 92.2215C148.168 91.9722 147.777 91.9668 147.797 92.2215Z" fill="#1D1C1B"/>
<path d="M111.716 68.8615C113.916 71.0002 116.694 71.5629 119.682 71.6629C122.264 71.7495 125.61 72.0108 127.433 69.8375C127.521 69.7322 127.404 69.5415 127.273 69.6322C123.433 72.3389 115.445 71.5762 112.032 68.5455C111.817 68.3548 111.506 68.6602 111.716 68.8615" fill="#1D1C1B"/>
<path d="M147.894 106.569C146.224 111.179 144.084 115.124 141.29 119.139C141.157 119.332 141.453 119.552 141.613 119.387C144.92 115.961 147.357 111.353 148.47 106.728C148.56 106.349 148.024 106.212 147.894 106.569" fill="#1D1C1B"/>
<path d="M112.341 146.882C109.682 145.74 107.974 143.468 107.572 140.607C107.538 140.374 107.169 140.438 107.168 140.662C107.153 143.7 109.234 146.475 112.134 147.372C112.418 147.46 112.625 147.003 112.341 146.882Z" fill="#1D1C1B"/>
<path d="M130.508 147.372C131.538 146.683 132.524 145.295 132.421 143.996C132.406 143.806 132.152 143.71 132.046 143.894C131.757 144.396 131.585 144.947 131.304 145.458C131.004 146 130.6 146.504 130.21 146.986C130.048 147.186 130.257 147.54 130.508 147.372Z" fill="#1D1C1B"/>
<path d="M98.1448 94.1362C99.0568 92.6268 100.257 91.3962 101.311 90.0028C101.411 89.8722 101.217 89.6922 101.088 89.7788C99.6342 90.7522 98.5715 92.3975 97.7715 93.9175C97.6422 94.1642 97.9995 94.3748 98.1448 94.1362Z" fill="#1D1C1B"/>
<path d="M92.9609 18.1668C91.9916 20.1335 90.9943 22.1575 90.3569 24.2602C90.3049 24.4348 90.5489 24.5268 90.6436 24.3815C91.8169 22.5521 92.7009 20.5082 93.5596 18.5162C93.7316 18.1162 93.1609 17.7588 92.9609 18.1668Z" fill="#100F0D"/>
<path d="M109.865 15.6215C109.157 17.1762 108.452 18.7269 107.826 20.3162C107.774 20.4482 107.989 20.5362 108.052 20.4122C108.834 18.9135 109.536 17.3775 110.236 15.8389C110.35 15.5895 109.98 15.3709 109.865 15.6215Z" fill="#100F0D"/>
<path d="M88.2089 31.5628C87.7583 33.1175 87.3182 34.6721 86.9436 36.2481C86.9022 36.4268 87.1583 36.4935 87.2183 36.3228C87.7703 34.7988 88.2529 33.2548 88.7276 31.7055C88.8302 31.3735 88.3049 31.2282 88.2089 31.5628" fill="#100F0D"/>
<path d="M79.0609 18.9495C78.8569 19.6215 78.6542 20.2935 78.4502 20.9641C78.4009 21.1281 78.6463 21.1921 78.7036 21.0361C78.9436 20.3735 79.1849 19.7122 79.4263 19.0495C79.5089 18.8228 79.1316 18.7148 79.0609 18.9495Z" fill="#100F0D"/>
<path d="M166.968 35.5922C166.35 37.3708 165.605 39.1575 165.182 40.9948C165.13 41.2242 165.472 41.3962 165.582 41.1629C166.4 39.4389 166.933 37.5549 167.558 35.7549C167.689 35.3829 167.097 35.2215 166.968 35.5922" fill="#100F0D"/>
<path d="M180.756 37.5428C180.374 39.3415 179.996 41.1335 179.752 42.9588C179.729 43.1161 179.946 43.1882 179.997 43.0268C180.537 41.2735 180.941 39.4935 181.346 37.7055C181.434 37.3215 180.837 37.1588 180.756 37.5428Z" fill="#100F0D"/>
<path d="M158.964 31.5868C158.284 33.5775 157.557 35.5602 156.994 37.5868C156.961 37.7108 157.154 37.8015 157.209 37.6775C158.052 35.7309 158.741 33.7189 159.47 31.7269C159.586 31.4109 159.073 31.2682 158.964 31.5868" fill="#100F0D"/>
<path d="M164.376 61.6135C163.721 63.3842 162.97 65.1535 162.453 66.9695C162.405 67.1389 162.668 67.2615 162.746 67.0922C163.552 65.3642 164.152 63.5202 164.825 61.7375C164.93 61.4562 164.478 61.3335 164.376 61.6135Z" fill="#100F0D"/>
<path d="M155.717 53.6135C155.514 54.2855 155.313 54.9575 155.109 55.6295C155.057 55.8028 155.317 55.8694 155.378 55.7041C155.62 55.0428 155.862 54.3815 156.104 53.7201C156.192 53.4801 155.792 53.3642 155.717 53.6135Z" fill="#100F0D"/>
<path d="M81.6596 44.9309C81.2182 46.4882 80.7462 48.0375 80.4169 49.6229C80.3849 49.7762 80.5955 49.8309 80.6502 49.6856C81.2129 48.1669 81.6342 46.6029 82.0876 45.0496C82.1676 44.7736 81.7369 44.6549 81.6596 44.9309" fill="#100F0D"/>
<path d="M75.0343 32.8788C73.9503 34.7308 73.4129 36.8962 73.7809 39.0362C73.8076 39.1829 74.041 39.1455 74.0396 39.0002C74.029 36.8869 74.3983 34.9828 75.4943 33.1482C75.6689 32.8522 75.2076 32.5815 75.0343 32.8788" fill="#100F0D"/>
<path d="M103.449 0.633473C109.837 1.16014 116.123 2.87083 122.534 2.85483C127.754 2.84283 132.893 1.68412 138.061 0.95079C145.477 -0.102543 153.015 -0.28121 160.474 0.417457C165.935 0.929457 171.706 2.08411 175.645 5.90144C177.725 7.91744 179.058 11.5121 177.026 13.5788C174.873 15.7695 171.257 14.2788 168.33 13.3388C160.79 10.9175 152.671 13.2855 144.783 13.9855C130.262 15.2722 115.685 10.7975 101.163 12.0921C95.6048 12.5868 89.8755 13.9082 84.5541 12.2268C83.3288 11.8402 82.1021 11.2575 81.3301 10.2281C80.5608 9.1988 80.3955 7.63214 81.2435 6.66681C82.6208 5.09881 85.2901 4.86147 87.1768 4.36681C87.7448 4.21881 88.3141 4.06945 88.8554 3.84278C90.0234 3.35612 91.0155 2.53614 92.0661 1.8308C95.0821 -0.18653 99.9528 0.345473 103.449 0.633473" fill="#322D2D"/>
<path d="M133.671 91.8794C133.351 92.5951 133.156 93.3758 132.916 94.1189C132.9 94.1697 132.941 94.3334 133.02 94.3296C133.847 94.2892 134.673 94.2487 135.498 94.2083L135.532 94.0982C135.367 93.5611 135.129 93.0507 134.801 92.5822C134.603 92.2993 134.241 91.6849 133.836 91.6797L133.786 91.7272C133.768 91.8305 133.75 91.972 133.854 92.0416L133.953 91.9842L133.996 91.9331C134.027 91.8952 134.068 91.7377 133.964 91.8L133.862 91.7404C133.864 91.8134 133.868 91.8858 133.871 91.9589C134.075 91.7272 134.801 92.8134 134.852 92.8935C135.089 93.2692 135.26 93.6652 135.389 94.0826L135.424 93.9725C134.601 94.0116 133.779 94.0514 132.957 94.0904C132.992 94.1604 133.027 94.2304 133.062 94.3004C133.313 93.5497 133.616 92.7933 133.788 92.0222C133.801 91.9642 133.729 91.7498 133.671 91.8794" fill="#81312E"/>
<path d="M118.671 122.879C118.351 123.595 118.156 124.376 117.916 125.119C117.9 125.17 117.941 125.333 118.02 125.33C118.847 125.289 119.673 125.249 120.498 125.208L120.532 125.098C120.367 124.561 120.129 124.051 119.801 123.582C119.603 123.299 119.241 122.685 118.836 122.68L118.786 122.727C118.768 122.83 118.75 122.972 118.854 123.042L118.953 122.984L118.996 122.933C119.027 122.895 119.068 122.738 118.964 122.8L118.862 122.74C118.864 122.813 118.868 122.886 118.871 122.959C119.075 122.727 119.801 123.813 119.852 123.894C120.089 124.269 120.26 124.665 120.389 125.083L120.424 124.973C119.601 125.012 118.779 125.051 117.957 125.09C117.992 125.16 118.027 125.23 118.062 125.3C118.313 124.55 118.616 123.793 118.788 123.022C118.801 122.964 118.729 122.75 118.671 122.879" fill="#81312E"/>
<path d="M106.671 127.879C106.351 128.595 106.156 129.376 105.916 130.119C105.9 130.17 105.941 130.333 106.02 130.33C106.847 130.289 107.673 130.249 108.498 130.208L108.532 130.098C108.367 129.561 108.129 129.051 107.801 128.582C107.603 128.299 107.241 127.685 106.836 127.68L106.786 127.727C106.768 127.83 106.75 127.972 106.854 128.042L106.953 127.984L106.996 127.933C107.027 127.895 107.068 127.738 106.964 127.8L106.862 127.74C106.864 127.813 106.868 127.886 106.871 127.959C107.075 127.727 107.801 128.813 107.852 128.894C108.089 129.269 108.26 129.665 108.389 130.083L108.424 129.973C107.601 130.012 106.779 130.051 105.957 130.09C105.992 130.16 106.027 130.23 106.062 130.3C106.313 129.55 106.616 128.793 106.788 128.022C106.801 127.964 106.729 127.75 106.671 127.879" fill="#81312E"/>
<path d="M119.671 110.879C119.351 111.595 119.156 112.376 118.916 113.119C118.9 113.17 118.941 113.333 119.02 113.33C119.847 113.289 120.673 113.249 121.498 113.208L121.532 113.098C121.367 112.561 121.129 112.051 120.801 111.582C120.603 111.299 120.241 110.685 119.836 110.68L119.786 110.727C119.768 110.83 119.75 110.972 119.854 111.042L119.953 110.984L119.996 110.933C120.027 110.895 120.068 110.738 119.964 110.8L119.862 110.74C119.864 110.813 119.868 110.886 119.871 110.959C120.075 110.727 120.801 111.813 120.852 111.894C121.089 112.269 121.26 112.665 121.389 113.083L121.424 112.973C120.601 113.012 119.779 113.051 118.957 113.09C118.992 113.16 119.027 113.23 119.062 113.3C119.313 112.55 119.616 111.793 119.788 111.022C119.801 110.964 119.729 110.75 119.671 110.879" fill="#81312E"/>
<path d="M112.69 117.213C111.406 117.019 110.101 116.877 108.795 116.727L108.601 116.886C108.445 117.686 107.845 119.416 109.392 119.553C110.038 119.61 110.947 119.198 111.573 119.005C112.135 118.834 113.304 118.682 113.371 118.166C113.411 117.849 113.119 117.41 112.677 117.357L112.646 117.353L112.509 117.418L112.407 117.553C112.291 117.795 112.549 118.091 112.811 118.185L112.825 118.189L112.986 118.153L113.019 118.216C112.862 118.076 112.706 117.937 112.548 117.796L112.569 117.843C112.577 117.687 112.584 117.531 112.59 117.376C112.17 117.712 111.37 117.839 110.827 118.003C110.429 118.124 109.168 118.661 108.845 118.479C109.013 118.675 109.181 118.871 109.348 119.068C109.192 118.701 109.466 117.991 109.526 117.583L109.332 117.741C110.561 117.838 111.781 117.943 113.027 117.992C113.368 118.006 112.953 117.252 112.69 117.213" fill="#81312E"/>
<path d="M108.69 94.2126C107.406 94.0186 106.101 93.8766 104.795 93.7273L104.601 93.8856C104.445 94.6861 103.845 96.4158 105.392 96.553C106.038 96.61 106.947 96.1979 107.573 96.0053C108.135 95.8335 109.304 95.6817 109.371 95.1661C109.411 94.8487 109.119 94.4105 108.677 94.3571L108.646 94.3534L108.509 94.4183L108.407 94.5532C108.291 94.795 108.549 95.0909 108.811 95.1849L108.825 95.1888L108.986 95.153L109.019 95.2155C108.862 95.0761 108.706 94.9367 108.548 94.7964L108.569 94.8425C108.577 94.687 108.584 94.5309 108.59 94.376C108.17 94.7117 107.37 94.8385 106.827 95.0033C106.429 95.1243 105.168 95.6612 104.845 95.4789C105.013 95.6755 105.181 95.8712 105.348 96.0682C105.192 95.7008 105.466 94.991 105.526 94.5826L105.332 94.7409C106.561 94.8379 107.781 94.9433 109.027 94.9922C109.368 95.0059 108.953 94.2519 108.69 94.2126" fill="#81312E"/>
<path d="M135.715 104.986C136.34 105.741 137.004 106.472 137.665 107.208L137.854 107.194C138.345 106.727 139.552 105.844 138.75 105C138.415 104.647 137.695 104.485 137.246 104.312C136.843 104.156 136.108 103.691 135.811 104.008C135.629 104.204 135.573 104.643 135.795 104.894L135.811 104.912L135.92 104.934L136.046 104.892C136.232 104.784 136.236 104.459 136.136 104.267L136.13 104.258L136.021 104.204L136.034 104.145C136.052 104.316 136.07 104.487 136.088 104.659L136.1 104.617C136.017 104.719 135.935 104.822 135.854 104.924C136.259 104.9 136.773 105.202 137.162 105.354C137.447 105.465 138.428 105.714 138.518 105.994C138.522 105.779 138.526 105.565 138.531 105.35C138.434 105.675 137.922 106.024 137.683 106.272L137.872 106.258C137.229 105.596 136.594 104.931 135.917 104.293C135.732 104.118 135.587 104.831 135.715 104.986" fill="#81312E"/>
<path d="M135.69 83.2126C134.406 83.0186 133.101 82.8766 131.795 82.7273L131.601 82.8856C131.445 83.6861 130.845 85.4158 132.392 85.553C133.038 85.61 133.947 85.1979 134.573 85.0053C135.135 84.8335 136.304 84.6817 136.371 84.1661C136.411 83.8487 136.119 83.4105 135.677 83.3571L135.646 83.3534L135.509 83.4183L135.407 83.5532C135.291 83.795 135.549 84.0909 135.811 84.1849L135.825 84.1888L135.986 84.153L136.019 84.2155C135.862 84.0761 135.706 83.9367 135.548 83.7964L135.569 83.8425C135.577 83.687 135.584 83.5309 135.59 83.376C135.17 83.7117 134.37 83.8385 133.827 84.0033C133.429 84.1243 132.168 84.6612 131.845 84.4789C132.013 84.6755 132.181 84.8712 132.348 85.0682C132.192 84.7008 132.466 83.991 132.526 83.5826L132.332 83.7409C133.561 83.8379 134.781 83.9433 136.027 83.9922C136.368 84.0059 135.953 83.2519 135.69 83.2126" fill="#81312E"/>
<path d="M111.39 104.115C110.87 105.304 110.394 106.528 109.91 107.751L110.013 107.979C110.745 108.338 112.26 109.366 112.794 107.908C113.017 107.299 112.855 106.314 112.831 105.66C112.811 105.073 112.969 103.904 112.488 103.705C112.192 103.585 111.693 103.752 111.527 104.165L111.515 104.194L111.542 104.343L111.646 104.477C111.849 104.652 112.202 104.48 112.361 104.251L112.368 104.239L112.375 104.074L112.444 104.058C112.269 104.173 112.094 104.288 111.917 104.404L111.967 104.396C111.819 104.347 111.67 104.3 111.522 104.255C111.737 104.747 111.652 105.552 111.67 106.12C111.684 106.535 111.875 107.893 111.615 108.157C111.848 108.046 112.081 107.935 112.314 107.825C111.919 107.88 111.305 107.431 110.926 107.267L111.029 107.495C111.441 106.334 111.86 105.182 112.231 103.992C112.333 103.666 111.497 103.871 111.39 104.115" fill="#81312E"/>
<path d="M130.226 128.84C129.888 130.041 129.627 131.23 129.354 132.425L129.585 132.5C130.779 132.184 133.35 131.723 133.613 130.33C133.722 129.749 133.138 129.207 132.872 128.784C132.636 128.402 132.451 127.493 131.681 127.726C131.206 127.87 130.539 128.364 130.442 128.77L130.435 128.799L130.528 128.878L130.726 128.89C131.084 128.852 131.538 128.467 131.688 128.191L131.695 128.178L131.647 128.061L131.742 127.997C131.527 128.209 131.312 128.42 131.096 128.633L131.166 128.589C130.933 128.67 130.699 128.752 130.467 128.834C130.955 129.002 131.116 129.611 131.343 129.98C131.509 130.25 132.268 131.022 131.982 131.399C132.283 131.145 132.583 130.893 132.884 130.64C132.328 130.979 131.274 131.144 130.664 131.323L130.894 131.399C131.085 130.3 131.288 129.202 131.407 128.116C131.441 127.818 130.295 128.594 130.226 128.84" fill="#81312E"/>
<path d="M131.216 114.603C130.097 115.54 129.117 116.687 128.101 117.735C128.032 117.807 127.954 118.114 128.081 118.171C129.405 118.768 130.729 119.365 132.053 119.961L132.2 119.804C132.407 118.775 132.477 117.731 132.371 116.685C132.307 116.054 132.273 114.736 131.646 114.402L131.526 114.441C131.41 114.599 131.258 114.821 131.36 115.02L131.565 115.004L131.676 114.953C131.757 114.915 131.957 114.685 131.742 114.706L131.633 114.524C131.574 114.648 131.517 114.772 131.458 114.896C131.978 114.674 132.171 117.071 132.181 117.246C132.226 118.064 132.151 118.863 131.991 119.664L132.14 119.507C130.823 118.911 129.506 118.317 128.189 117.721C128.184 117.866 128.177 118.011 128.171 118.156C129.212 117.104 130.339 116.085 131.275 114.936C131.346 114.849 131.419 114.433 131.216 114.603" fill="#81312E"/>
<path d="M112.216 81.6027C111.097 82.5403 110.117 83.6869 109.101 84.7353C109.032 84.8074 108.954 85.1137 109.081 85.1709C110.405 85.7679 111.729 86.3649 113.053 86.9613L113.2 86.8044C113.407 85.7746 113.477 84.7308 113.371 83.6852C113.307 83.0535 113.273 81.736 112.646 81.4018L112.526 81.4408C112.41 81.5992 112.258 81.8205 112.36 82.0202L112.565 82.0044L112.676 81.9532C112.757 81.9149 112.957 81.6848 112.742 81.7057L112.633 81.5237C112.574 81.6479 112.517 81.7716 112.458 81.8958C112.978 81.6735 113.171 84.0709 113.181 84.246C113.226 85.0638 113.151 85.8629 112.991 86.6637L113.14 86.5074C111.823 85.9112 110.506 85.3167 109.189 84.7205C109.184 84.8659 109.177 85.0107 109.171 85.1555C110.212 84.1036 111.339 83.0845 112.275 81.9355C112.346 81.8491 112.419 81.433 112.216 81.6027" fill="#81312E"/>
<path d="M125.239 92.9414C125.086 94.3932 125.179 95.8986 125.177 97.3588C125.178 97.4585 125.335 97.7327 125.466 97.6858C126.833 97.1943 128.2 96.7028 129.566 96.2118L129.562 95.9964C128.995 95.1126 128.32 94.3135 127.517 93.6353C127.032 93.2257 126.091 92.3025 125.408 92.4982L125.35 92.6091C125.376 92.804 125.421 93.0685 125.633 93.1413L125.769 92.9875L125.813 92.8738C125.845 92.7899 125.829 92.4853 125.688 92.65L125.484 92.5944C125.528 92.7247 125.573 92.8533 125.617 92.9836C125.836 92.4624 127.641 94.0519 127.77 94.1703C128.371 94.7273 128.872 95.354 129.314 96.0406L129.313 95.8249C127.951 96.3119 126.592 96.7999 125.23 97.2869C125.328 97.3951 125.424 97.5036 125.52 97.6122C125.537 96.1324 125.639 94.6158 125.513 93.1393C125.504 93.0283 125.267 92.6784 125.239 92.9414" fill="#81312E"/>
<path d="M123.762 50.0906C123.391 50.7884 122.601 51.093 122 50.7726C121.397 50.4516 121.211 49.6272 121.583 48.9294C121.955 48.2316 122.743 47.9264 123.345 48.2474C123.947 48.5678 124.134 49.3928 123.762 50.0906Z" fill="#100F0D"/>
<path d="M132.764 53.1254C132.376 53.8143 131.58 54.1002 130.986 53.7657C130.391 53.4306 130.224 52.6021 130.613 51.9132C131.001 51.2244 131.796 50.9378 132.391 51.2729C132.984 51.6074 133.152 52.4366 132.764 53.1254Z" fill="#100F0D"/>
</svg>
