<svg width="20" height="20" viewBox="0 0 20 20" fill="none" xmlns="http://www.w3.org/2000/svg">
<g clip-path="url(#clip0)">
<path d="M10.0005 0.794864L11.4719 10.0006L10.0005 19.2063C9.21382 19.2063 8.45757 19.4446 7.81386 19.8946C7.51722 20.1022 7.1023 19.9937 6.94707 19.6626C6.27066 18.2136 4.7593 17.337 3.15961 17.4759C2.79766 17.5071 2.49403 17.2041 2.52524 16.8415C2.66414 15.2419 1.78758 13.7305 0.33856 13.0541C0.00981002 12.8999 -0.10269 12.4863 0.106529 12.1873C1.00836 10.8971 1.04067 9.15026 0.106529 7.81389C-0.102494 7.51514 0.00945846 7.10139 0.33856 6.94709C1.78754 6.27068 2.66414 4.75932 2.52524 3.15963C2.49403 2.7976 2.79715 2.49404 3.15961 2.52526C4.75437 2.66443 6.26898 1.79111 6.94707 0.338575C7.10121 0.00982529 7.51484 -0.102675 7.81386 0.106544C8.45757 0.556583 9.21382 0.794864 10.0005 0.794864V0.794864Z" fill="#FFE65A"/>
<path d="M19.8941 12.1867C20.103 12.4861 19.991 12.8993 19.662 13.0535C18.2131 13.7299 17.3365 15.2413 17.4754 16.8409C17.5066 17.203 17.2035 17.5065 16.841 17.4753C15.2414 17.3364 13.73 18.213 13.0535 19.662C12.8987 19.9923 12.4848 20.1021 12.1867 19.894C11.543 19.444 10.7867 19.2058 10.0001 19.2058V0.794268C10.7868 0.794268 11.543 0.555987 12.1867 0.105987C12.4842 -0.101669 12.8984 0.00711997 13.0535 0.338018C13.7299 1.787 15.2413 2.6636 16.841 2.5247C17.2029 2.49353 17.5066 2.79653 17.4754 3.15907C17.3365 4.75868 18.213 6.27009 19.662 6.94653C19.8187 7.01997 19.9351 7.15864 19.98 7.32583C19.9933 7.37583 19.9999 7.42661 19.9999 7.47739C19.9999 7.59653 19.9636 7.71372 19.8941 7.81333C18.9922 9.10345 18.9599 10.8503 19.8941 12.1867Z" fill="#FFE65A"/>
<path d="M10 4.02359L10.8985 10.0001L10 15.9766C6.70477 15.9766 4.02356 13.2954 4.02356 10.0001C4.02356 6.70481 6.70477 4.02359 10 4.02359V4.02359Z" fill="#FFC800"/>
<path d="M15.9765 10.0001C15.9765 13.2953 13.2953 15.9765 10.0001 15.9765C10.0001 15.4522 10.0001 4.54794 10.0001 4.02353C13.2953 4.02357 15.9765 6.70478 15.9765 10.0001V10.0001Z" fill="#FFC800"/>
<path d="M10 11.289L10.3776 11.8098L10 12.4609C9.4293 12.4609 8.89258 12.2382 8.48945 11.8347C8.21601 11.5617 8.02187 11.2195 7.92812 10.8453C7.84961 10.5316 8.04023 10.2132 8.3539 10.1347C8.66797 10.0558 8.98633 10.2464 9.06484 10.5605C9.10703 10.7285 9.19453 10.8828 9.31797 11.0062C9.50039 11.1886 9.74258 11.289 10 11.289V11.289Z" fill="#8E572E"/>
<path d="M12.0719 10.8453C11.8336 11.7964 10.9816 12.4609 10 12.4609V11.289C10.443 11.289 10.8277 10.9894 10.9352 10.5605C11.0137 10.2464 11.332 10.0558 11.6461 10.1347C11.9598 10.2132 12.1504 10.5316 12.0719 10.8453V10.8453Z" fill="#8E572E"/>
<path d="M7.40234 9.16643C7.81224 9.16643 8.14453 8.83414 8.14453 8.42424C8.14453 8.01434 7.81224 7.68205 7.40234 7.68205C6.99244 7.68205 6.66016 8.01434 6.66016 8.42424C6.66016 8.83414 6.99244 9.16643 7.40234 9.16643Z" fill="#8E572E"/>
<path d="M12.5976 9.16643C13.0075 9.16643 13.3398 8.83414 13.3398 8.42424C13.3398 8.01434 13.0075 7.68205 12.5976 7.68205C12.1877 7.68205 11.8555 8.01434 11.8555 8.42424C11.8555 8.83414 12.1877 9.16643 12.5976 9.16643Z" fill="#8E572E"/>
</g>
<defs>
<clipPath id="clip0">
<rect width="20" height="20" fill="white"/>
</clipPath>
</defs>
</svg>
