<svg width="216" height="253" viewBox="0 0 216 253" fill="none" xmlns="http://www.w3.org/2000/svg">
<path d="M152.582 159.564C148.346 156.703 143.746 153.052 141.771 145.311C139.163 135.086 142.4 122.915 146.297 114.331C150.195 105.748 155.044 97.7399 156.326 86.6239C158.162 70.6999 151.895 55.5454 145.149 45.6296C130.423 23.9883 111.575 14.1201 93.0279 14.0012C74.4801 13.8822 56.1737 23.0087 38.9669 36.2928C27.1092 45.4471 15.1065 57.5388 8.2198 78.2005C2.99079 93.8918 1.27704 112.906 0.397694 131.454C-0.628617 153.11 -0.161446 177.513 7.84378 192.902C13.2166 203.23 21.1735 207.666 26.2138 218.593C28.2353 222.975 29.7728 228.369 32.3483 231.503C35.0423 234.78 38.4096 235.025 41.5983 235.171C60.1581 236.019 78.7181 236.867 97.2786 237.716C114.474 238.501 133.539 239.037 148.29 219.373C161.206 202.158 173.879 173.954 152.582 159.564" fill="#F7F8F8"/>
<path d="M215.67 222.806C216.202 239.942 134.549 258.607 95.2641 251.417C81.3549 248.872 71.3972 237.546 60.8628 235.998C41.6422 233.172 26.5063 239.497 24.4348 225.566C21.2275 204 113.411 203.265 136.661 203.265C159.911 203.265 214.936 199.251 215.67 222.806Z" fill="#F7F8F8"/>
<path d="M140.693 216.946C141.225 219.291 141.813 221.624 142.458 223.935C143.59 227.967 144.882 231.954 146.293 235.877C146.614 236.762 146.973 237.697 147.66 238.281C148.261 238.782 149.023 238.958 149.758 239.124C156.417 240.575 163.093 241.911 169.785 243.121C170.857 243.318 171.964 243.505 172.995 243.142C174.025 242.78 174.936 241.683 174.805 240.49C174.699 239.568 174.018 238.87 173.368 238.275C170.882 235.997 168.131 234.079 165.196 232.594C162.733 231.346 160.171 230.193 157.948 228.427C156.012 226.88 154.612 223.832 153.825 221.39C153.683 220.948 153.542 220.515 153.391 220.083C152.358 217.118 151.065 214.275 149.505 211.595C149.203 211.073 148.882 210.553 148.451 210.149C147.332 209.111 145.897 209.412 144.605 209.772C143.499 210.075 142.276 211.389 141.181 211.421C139.707 212.835 140.275 215.117 140.693 216.946" fill="#181D3B"/>
<path d="M157.18 206.829C157.73 210.775 159.28 214.589 160.764 218.371C161.569 220.418 162.356 222.444 162.966 224.485C163.311 225.619 163.693 226.804 164.534 227.54C165.223 228.143 166.107 228.366 166.963 228.571C170.229 229.34 173.495 230.108 176.76 230.877C180.392 231.738 184.203 232.586 187.79 231.494C188.477 231.286 189.219 230.932 189.51 230.206C189.96 229.049 189.005 227.819 188.061 227.108C185.251 224.984 181.888 224.042 178.791 222.499C177.57 221.89 176.009 221.207 175.023 220.206C173.814 218.983 172.836 217.191 171.922 215.698C171.737 215.392 171.552 215.086 171.376 214.779C169.669 211.864 168.241 208.756 167.107 205.501C167.036 205.286 166.956 205.07 166.867 204.853C166.778 204.648 166.661 204.454 166.526 204.281C165.746 203.346 163.933 204.273 163.023 204.601C161.641 205.088 158.423 205.993 157.18 206.829" fill="#181D3B"/>
<path d="M157.18 206.829C157.73 210.775 159.28 214.589 160.764 218.371C163.895 218.239 168.484 217.203 171.376 214.779C169.669 211.864 168.907 208.201 167.802 204.936C167.009 202.597 163.933 204.273 163.023 204.601C161.641 205.088 158.423 205.993 157.18 206.829Z" fill="#F46B6C"/>
<path d="M138.955 214.868C139.486 217.213 141.813 221.624 142.458 223.935C145.692 223.799 150.523 222.693 153.391 220.083C152.358 217.118 151.608 213.641 150.048 210.961C149.746 210.439 148.882 210.553 148.451 210.149C147.332 209.111 145.897 209.412 144.605 209.772C143.499 210.075 142.276 211.389 141.181 211.421C139.707 212.835 138.537 213.04 138.955 214.868" fill="#F46B6C"/>
<path d="M69.826 71.9402C69.826 71.9402 70.5531 72.5794 71.1952 74.8972C72.1181 70.8137 73.4535 65.0529 73.6744 63.0838C77.3789 63.4152 85.1067 63.9184 86.5906 62.7324C90.4853 63.6199 94.4107 63.4945 95.7466 59.2604C96.7034 56.2281 96.3576 52.4616 95.3128 49.5138C94.7875 48.0333 93.908 46.4604 92.432 45.9995C91.4497 45.6918 90.3846 45.8608 89.9468 46.9966C89.891 47.1419 89.8414 47.299 89.8214 47.4562C89.8214 47.4562 92.303 47.7507 91.5226 49.2378C91.0963 50.0487 88.5729 48.6554 89.2726 46.5819C88.5953 47.7731 88.652 48.4057 89.1469 49.4464C88.3153 49.9073 86.5994 48.5484 85.2552 47.7996C83.9117 47.0508 81.1571 46.648 78.1268 47.9198C76.7958 45.9044 67.9967 44.5983 64.6122 52.3863C63.8736 53.8166 60.1399 52.628 58.4954 59.2802C56.8514 65.9325 57.389 82.9335 68.3343 84.6239C71.4269 84.8828 73.9869 82.1437 73.9869 82.1437L71.309 78.459L69.826 71.9402" fill="#181D3B"/>
<path d="M65.6471 98.9189C67.9123 102.46 71.6432 104.974 76.0381 105.44C80.7239 105.938 85.0635 103.989 87.8938 100.608L87.8831 100.583C87.4141 100.442 86.9369 100.302 86.468 100.16C86.2952 100.102 86.131 100.053 85.9796 99.9583C85.7684 99.813 85.6086 99.5938 85.4647 99.3627C84.7725 98.2731 84.2395 97.0436 83.8973 95.7546C83.8212 95.4548 83.7539 95.1656 83.7102 94.8737C83.6039 94.2372 83.5793 93.6112 83.5932 92.9654L83.5983 92.6695C83.5964 92.5256 83.6034 92.3816 83.6168 92.2192C83.635 91.8784 83.6731 91.4809 83.7157 91.0292C80.6822 87.923 69.4128 81.5877 69.4128 81.5877C69.4128 81.5877 69.7443 97.6247 65.6471 98.9189" fill="#F46B6C"/>
<path d="M69.4138 81.5838C69.659 81.7739 77.4949 93.454 84.4298 92.1267C88.7215 90.9473 90.9705 86.3791 92.0881 81.1255C92.2825 80.2195 92.4502 79.2845 92.5806 78.3666C92.842 76.5295 93.0008 74.6674 93.0858 72.8911C93.0923 72.6098 93.0979 72.3284 93.1043 72.0471C93.1498 70.7357 93.1703 69.4692 93.1434 68.3149L93.1388 68.1036C93.1188 67.2742 93.1006 66.5148 93.0723 65.8254C92.966 63.4509 92.791 61.9229 92.791 61.9229L79.3493 56.3707L69.15 63.8299C69.15 63.8299 69.3526 71.9309 69.6997 74.3134C69.6997 74.3134 68.6227 73.7403 67.456 73.6888C66.3018 73.624 65.0459 74.0823 64.6883 76.1333C63.848 80.8019 68.4768 82.1318 69.4138 81.5838" fill="#F46B6C"/>
<path d="M69.7383 79.9092L69.7749 79.7216C69.7875 78.7919 69.7722 77.8423 69.6022 76.9297C69.4965 76.3605 69.3005 75.7662 68.8692 75.4374C68.5613 75.2036 68.176 75.1376 67.8036 75.1151C67.4229 75.0927 67.032 75.1125 66.6732 75.2564C65.1188 75.8771 65.6959 78.1712 66.6443 79.1207C67.3557 79.8339 68.6543 80.3384 69.6069 79.9977L69.7383 79.9092Z" fill="#D5514F"/>
<path d="M84.538 79.6913C84.1899 79.6913 83.8485 79.5764 83.5718 79.4403C83.583 79.4403 83.5942 79.4417 83.6049 79.4417C84.2603 79.4417 84.9675 79.1934 85.1556 78.7457C85.2163 78.5409 85.1648 78.3944 84.9776 78.2108L84.8203 78.0801L84.5687 77.8357C84.4127 77.6574 84.31 77.4527 84.225 77.2493C83.9289 76.4186 83.961 75.617 84.0417 74.8536C84.1151 74.0956 84.3324 73.352 84.5599 72.6402C84.63 73.4128 84.6183 74.1457 84.6495 74.884C84.6856 75.6038 84.7196 76.3434 84.942 76.9046C84.9958 77.0393 85.0538 77.1701 85.1332 77.2625L85.2548 77.3933L85.4888 77.6152C85.6323 77.7988 85.7799 78.0061 85.8278 78.294C85.8821 78.5753 85.8157 78.8817 85.6778 79.097C85.3454 79.5407 84.9369 79.6913 84.538 79.6913" fill="#F14A3F"/>
<path d="M80.3902 66.4475C80.3902 66.4475 78.2211 68.0957 76.7995 68.0284C76.1216 67.9954 75.8403 68.3189 75.9782 68.6425C76.129 68.9964 76.7841 69.3517 77.9727 69.2368C80.2443 69.0189 81.1859 68.1182 81.3949 67.4301C81.6043 66.7434 81.068 65.9839 80.3902 66.4475Z" fill="#1E1B19"/>
<path d="M88.3181 67.0828C88.3181 67.0828 90.0332 68.8181 91.2398 68.896C92.4464 68.9726 92.0657 70.3237 90.1608 69.9011C88.2555 69.4772 87.5256 68.5501 87.398 67.8937C87.2707 67.2373 87.7791 66.5862 88.3181 67.0828" fill="#1E1B19"/>
<path d="M80.5127 73.4075C80.4435 74.1365 80.0517 74.8404 79.4588 75.2446C79.1561 75.4242 78.819 75.5575 78.4773 75.5536C78.1366 75.5747 77.8074 75.4796 77.5005 75.3568C78.1529 75.3779 78.7949 75.3344 79.3112 74.9672C79.5795 74.8087 79.8028 74.571 80.0015 74.3042C80.1956 74.0348 80.3734 73.7363 80.5127 73.4075" fill="#AE512E"/>
<path d="M87.5544 75.1666C88.0173 75.5787 88.4709 75.9643 88.9838 76.2337C89.4825 76.5388 90.0289 76.6854 90.6153 76.799C89.4249 77.0935 88.1338 76.309 87.5544 75.1666Z" fill="#AE512E"/>
<path d="M80.1794 72.7947C79.9506 73.7244 79.3001 74.3372 78.728 74.1642C78.1551 73.9886 77.8761 73.0945 78.105 72.1647C78.3339 71.2336 78.9839 70.6209 79.5568 70.7952C80.1292 70.9695 80.4083 71.8636 80.1794 72.7947" fill="#1B1B1A"/>
<path d="M90.5978 74.0203C90.393 74.9566 89.7806 75.5958 89.23 75.4479C88.6793 75.2987 88.3985 74.4178 88.6031 73.4814C88.8079 72.5437 89.4203 71.9045 89.9719 72.0538C90.5225 72.2017 90.8024 73.0826 90.5978 74.0203" fill="#1B1B1A"/>
<path d="M85.3909 86.502C84.4944 86.1705 82.8852 85.6528 80.6567 85.2407C79.9435 85.11 79.6102 84.344 80.0359 83.7999C81.3475 82.1226 84.5078 82.0354 86.5376 82.4541C88.5052 82.8609 87.1667 84.4391 86.715 85.9103C86.5548 86.4306 85.9355 86.7041 85.3909 86.502" fill="white"/>
<path d="M94.4416 61.5703C92.2036 64.8337 84.7674 64.7583 79.6241 61.5636C77.3125 60.2469 73.8188 59.6275 73.285 63.3571C73.108 64.7808 73.5124 75.9511 69.6933 74.3174C65.8741 72.6838 66.2158 65.5099 66.2158 65.5099C66.2158 65.5099 67.3343 59.8521 67.4295 59.2419C67.5252 58.6331 73.4414 53.8655 73.4414 53.8655L79.8344 52.4444L84.9401 52.2555L94.0791 60.9205C94.0791 60.9205 94.5462 61.4184 94.4416 61.5703" fill="#181D3B"/>
<path d="M83.5895 93.2968C83.5895 93.1872 83.5906 93.0763 83.5927 92.9653L83.5973 92.6695L83.5927 92.9653C83.5906 93.0763 83.5895 93.1872 83.5895 93.2968Z" fill="#DBAB95"/>
<path d="M83.7101 94.8738C82.1804 94.6492 80.8646 94.3125 79.7243 93.8595C79.7569 93.1397 79.7884 92.412 79.8261 91.6724C80.7453 91.9405 81.5912 92.0792 82.2636 92.1492C82.6112 92.2034 82.959 92.2324 83.3053 92.2324C83.4093 92.2324 83.5128 92.2298 83.6164 92.2245C83.6048 92.3697 83.5978 92.5005 83.5978 92.6286C83.5978 92.6418 83.5983 92.6564 83.5983 92.6696L83.5932 92.9654C83.5908 93.0763 83.5895 93.1873 83.5895 93.2969C83.59 93.8265 83.6219 94.3455 83.7101 94.8738" fill="#F14A3F"/>
<path d="M83.3053 92.2324C82.959 92.2324 82.6112 92.2031 82.2636 92.1485C82.8183 92.2084 83.2552 92.2204 83.518 92.2204C83.5547 92.2204 83.5871 92.2204 83.6168 92.2191C83.6168 92.2217 83.6164 92.2231 83.6164 92.2244C83.5128 92.2297 83.4093 92.2324 83.3053 92.2324" fill="#F14A3F"/>
<path d="M93.0714 65.8255C93.0695 65.7819 93.0678 65.737 93.0654 65.6934C93.0678 65.737 93.0695 65.7819 93.0714 65.8255ZM92.9568 63.8273C92.9333 63.4945 92.9102 63.1999 92.8889 62.9477C92.8894 62.9464 92.8903 62.9464 92.8908 62.9464C92.9107 63.1973 92.9337 63.4932 92.9568 63.8273Z" fill="#DBAB95"/>
<path d="M74.7743 77.2691C73.7241 74.7968 73.265 72.0115 72.9589 69.1681C73.0602 68.2687 73.1206 67.3575 73.1595 66.5281C73.231 65.0146 73.2333 63.7718 73.2849 63.3571C73.5597 61.4382 74.6173 60.6709 75.895 60.5573C76.0088 60.5468 76.1234 60.5427 76.2405 60.5427C77.3616 60.5427 78.6069 60.9878 79.6227 61.5716C82.2078 63.1762 85.3741 63.995 88.1691 63.995C89.9867 63.995 91.6475 63.649 92.8889 62.9477C92.9103 63.1999 92.9335 63.4945 92.9571 63.8273C92.9948 64.3595 93.0338 64.9881 93.0662 65.6934C93.0686 65.737 93.0704 65.7819 93.0723 65.8254C93.1006 66.5148 93.1188 67.2742 93.1387 68.1036L93.1434 68.3149C92.4422 68.1248 91.7184 68.0468 90.9709 68.0402C90.9408 68.0402 90.911 68.0402 90.8809 68.0402C90.4351 68.0402 89.9899 68.0693 89.5484 68.1248C88.86 67.6308 88.3181 67.0827 88.3181 67.0827C88.1854 66.9599 88.0544 66.9071 87.9341 66.9071C87.567 66.9071 87.3018 67.3984 87.3979 67.8936C87.436 68.0904 87.5288 68.3123 87.6913 68.5368C86.9467 68.7745 86.2233 69.0981 85.5338 69.5075C83.6619 70.609 82.12 72.2532 80.4611 73.7284C80.4849 73.6227 80.5025 73.5158 80.5127 73.4075C80.4389 73.5818 80.3549 73.7469 80.2629 73.904C79.9152 74.2078 79.5614 74.5049 79.1975 74.7849C78.9681 74.9632 78.7345 75.1349 78.4978 75.3C78.2582 75.3462 78.008 75.3607 77.7535 75.3607C77.6695 75.3607 77.585 75.3594 77.5005 75.3568C77.7067 75.4387 77.9225 75.5087 78.1449 75.5404C77.0798 76.2456 75.9485 76.824 74.7743 77.2691V77.2691ZM79.358 70.7648C78.8409 70.7648 78.3078 71.3406 78.1049 72.1647C77.876 73.0945 78.1551 73.9886 78.728 74.1642C78.7935 74.184 78.8599 74.1933 78.9262 74.1933C79.4435 74.1933 79.9764 73.6188 80.1793 72.7947C80.4082 71.8636 80.1292 70.9695 79.5568 70.7952C79.4913 70.7754 79.425 70.7648 79.358 70.7648V70.7648ZM76.7071 68.0257C76.0961 68.0257 75.8467 68.3347 75.9782 68.6425C76.1095 68.9502 76.6226 69.2592 77.5358 69.2592C77.6728 69.2592 77.818 69.2526 77.9727 69.2368C80.2443 69.0188 81.1859 68.1182 81.3948 67.4301C81.5597 66.89 81.263 66.3049 80.7996 66.3049C80.6734 66.3049 80.5351 66.3484 80.3902 66.4475C80.3902 66.4475 78.3065 68.0297 76.8857 68.0297C76.8565 68.0297 76.8277 68.0297 76.7995 68.0284C76.7678 68.027 76.7368 68.0257 76.7071 68.0257" fill="#F14A3F"/>
<path d="M77.5358 69.2592C76.6226 69.2592 76.1095 68.9502 75.9782 68.6425C75.8467 68.3348 76.0961 68.0257 76.7071 68.0257C76.7368 68.0257 76.7679 68.027 76.7995 68.0284C76.8278 68.0297 76.8565 68.0297 76.8857 68.0297C78.3065 68.0297 80.3902 66.4475 80.3902 66.4475C80.5351 66.3484 80.6734 66.3049 80.7996 66.3049C81.263 66.3049 81.5597 66.89 81.3949 67.4301C81.1859 68.1182 80.2443 69.0189 77.9727 69.2368C77.818 69.2526 77.6728 69.2592 77.5358 69.2592" fill="#1C1613"/>
<path d="M87.6913 68.5368C87.5288 68.3123 87.436 68.0904 87.398 67.8937C87.3018 67.3984 87.567 66.9071 87.9341 66.9071C88.0544 66.9071 88.1854 66.9599 88.3182 67.0827C88.3182 67.0827 88.86 67.6308 89.5484 68.1248C88.9203 68.2053 88.2987 68.3427 87.6913 68.5368Z" fill="#1C1613"/>
<path d="M78.1449 75.5404C77.9225 75.5087 77.7067 75.4387 77.5005 75.3568C77.585 75.3594 77.6695 75.3608 77.7535 75.3608C78.008 75.3608 78.2582 75.3462 78.4978 75.3C78.3808 75.3819 78.2633 75.4611 78.1449 75.5404V75.5404ZM80.2629 73.904C80.3549 73.7469 80.4389 73.5818 80.5127 73.4075C80.5025 73.5158 80.4849 73.6227 80.4611 73.7284C80.3953 73.7878 80.3293 73.8459 80.2629 73.904" fill="#96381D"/>
<path d="M78.9263 74.1933C78.86 74.1933 78.7935 74.184 78.728 74.1642C78.1551 73.9886 77.8761 73.0945 78.105 72.1647C78.3079 71.3406 78.8409 70.7648 79.3581 70.7648C79.425 70.7648 79.4913 70.7754 79.5568 70.7952C80.1292 70.9695 80.4083 71.8636 80.1794 72.7947C79.9765 73.6188 79.4435 74.1933 78.9263 74.1933" fill="#191614"/>
<path d="M73.1596 66.5281C73.2307 65.0173 73.2315 63.7745 73.2807 63.3585C73.5556 61.4382 74.6155 60.6696 75.895 60.5574C74.6173 60.6709 73.5598 61.4382 73.285 63.3572C73.2334 63.7718 73.231 65.0146 73.1596 66.5281Z" fill="#161723"/>
<path d="M106.832 132.936C107.877 132.628 114 136 114.96 136.434C120.422 138.905 126.032 141.413 131.927 141.591C132.896 141.62 133.882 141.582 134.797 141.235C135.885 140.821 136.812 139.988 137.563 139.02C140.037 135.837 140.661 131.254 139.968 127.121C139.275 122.987 137.415 119.212 135.378 115.669C132.786 111.162 129.863 106.891 126.645 102.911C119.504 94.0813 110.889 86.2801 104.853 76.4846C101.176 75.8164 97.35 76.1769 93.8272 77.5253C93.6201 77.6045 93.3922 77.7102 93.3072 77.9347C93.2158 78.1764 93.33 78.4485 93.4447 78.6783C95.257 82.3088 97.7625 85.4454 99.8923 88.8593C102.021 92.272 103.82 96.1455 103.91 100.298C103.596 99.6902 102.841 99.5819 102.223 99.4459C96.4562 98.178 90.5253 97.8294 84.6699 98.4144C83.9238 98.4884 83.0769 98.8199 82.3309 98.7565C80.0276 98.5637 77.8093 97.7462 75.6058 96.9749C71.7793 95.6384 67.9059 94.4207 63.9414 93.7392C60.4704 93.1436 55.7297 92.1095 52.5829 94.0232C49.7178 95.7652 47.6519 99.191 46.5282 102.511C45.2353 106.331 44.9614 110.488 45.0858 114.566C45.3881 124.474 47.9462 134.042 50.417 143.496C52.8949 152.974 54.6605 162.607 56.6987 172.142C57.0901 173.972 57.4801 175.821 57.4959 177.701C57.5107 179.501 57.1829 181.28 56.8561 183.045C56.2511 186.308 56.4722 189.694 57.04 192.967C57.1527 193.615 57.3218 194.323 57.8157 194.69C58.6872 195.335 59.7907 194.507 60.6915 193.915C64.3035 191.539 68.9997 192.984 72.9957 191.556C74.5069 191.015 75.8909 190.071 77.4309 189.644C78.9598 189.22 80.5601 189.328 82.1312 189.199C83.8555 189.058 85.5524 188.627 87.2758 188.477C94.4583 187.849 101.462 192.074 108.64 191.378C109.157 191.328 109.756 191.191 109.984 190.672C110.107 190.392 110.088 190.065 110.064 189.756C109.722 185.281 108.945 180.827 108.527 176.39C108.301 173.986 107.908 171.745 107.965 169.299C108.024 166.784 108.278 164.283 108.45 161.776C108.89 155.374 108.77 148.925 108.098 142.547C107.933 140.976 107.733 139.409 107.501 137.848C107.396 137.139 106.357 133.485 106.716 133.01L106.832 132.936" fill="#100F0D"/>
<path d="M79.4036 90.8114C79.4857 89.3665 79.566 87.8927 79.2536 86.4862C78.6143 83.6058 76.4694 81.4914 75.0691 78.9649C72.9084 75.0663 72.5769 70.3 72.1674 65.7437C72.094 64.9328 71.8359 63.9092 71.1052 63.8326C70.2299 67.9769 70.8302 72.3087 71.433 76.5124C70.0832 74.3557 69.5623 71.6801 69.443 69.0572C69.3241 66.4343 69.5767 63.8088 69.6259 61.1833C69.6361 60.6088 69.5433 59.8851 69.0484 59.7214C68.4587 59.5272 68.0214 60.3289 67.8603 60.9892C67.8311 60.5098 67.2025 60.3408 66.8477 60.6155C66.493 60.8902 66.3593 61.392 66.2483 61.8569C66.1601 61.532 65.7288 61.4752 65.4832 61.6773C65.2385 61.8794 65.1364 62.2267 65.0514 62.5529C64.6438 64.1152 64.3003 65.6988 64.0217 67.2954C64.0728 66.9177 63.5806 66.6892 63.2816 66.8794C62.9836 67.0696 62.8609 67.4724 62.7756 67.8435C62.0151 71.1637 62.3786 74.7335 63.4934 77.9295C64.6086 81.1229 66.4433 83.965 68.5846 86.4307C69.2485 87.1967 69.9617 87.9574 70.328 88.94C70.6561 89.8195 70.6766 90.7982 70.6914 91.7504C70.7309 94.1778 70.7699 96.6065 70.8093 99.0339C70.8149 99.3931 70.8242 99.7695 70.9817 100.085C71.1553 100.434 71.4803 100.649 71.7945 100.841C73.6145 101.945 75.5826 102.746 77.6137 103.214C77.7396 103.242 77.8738 103.269 77.9941 103.218C78.1997 103.129 78.2777 102.856 78.3283 102.617C79.189 98.5333 79.1696 94.9173 79.4036 90.8114" fill="#F46B6C"/>
<path d="M79.4036 90.8113L79.8707 90.8443C79.9078 90.188 79.9454 89.5157 79.9454 88.8356C79.9454 88.0168 79.8911 87.1861 79.7082 86.362C79.0066 83.2742 76.8051 81.136 75.4675 78.6928C73.3829 74.9421 73.0393 70.259 72.6326 65.6921C72.5913 65.247 72.5059 64.7399 72.3011 64.2803C72.198 64.0505 72.0616 63.8299 71.8697 63.6516C71.6799 63.472 71.4274 63.3426 71.1493 63.3149L70.743 63.2713L70.6497 63.7137C70.3233 65.2615 70.197 66.8265 70.197 68.3915C70.1975 71.1504 70.5865 73.9106 70.9714 76.5943L71.433 76.5124L71.8173 76.2152C70.5387 74.1774 70.0257 71.5981 69.9106 69.0307C69.8882 68.55 69.8794 68.0666 69.8794 67.5833C69.8789 65.4821 70.0526 63.3518 70.0935 61.1939L70.0944 61.1001C70.0935 60.7844 70.0679 60.4279 69.9527 60.0792C69.8441 59.7372 69.5957 59.3568 69.1816 59.2234L68.8701 59.1719C68.4072 59.1772 68.0762 59.4889 67.8603 59.8032C67.6394 60.1281 67.4959 60.5005 67.409 60.8531L67.8603 60.9892L68.3274 60.9535C68.3097 60.6181 68.1296 60.3367 67.9239 60.1862C67.7169 60.0304 67.4847 59.9656 67.2507 59.963C67.0255 59.9643 66.7911 60.0277 66.5807 60.1888H66.5803C66.0468 60.6181 65.9146 61.2573 65.7962 61.7235L66.2483 61.8568L66.6964 61.7063C66.6342 61.4712 66.4828 61.2863 66.3222 61.1846C66.1601 61.0803 65.9893 61.0407 65.8221 61.0393C65.6109 61.0407 65.3963 61.104 65.2051 61.2599L65.2014 61.2625L65.2042 61.2599C64.8003 61.6072 64.6939 62.0787 64.602 62.4089H64.6025C64.1907 63.9858 63.8439 65.5838 63.5625 67.1963L64.0217 67.2954L64.4841 67.3719L64.4929 67.2412C64.4939 66.9137 64.3244 66.6509 64.1433 66.5096C63.959 66.363 63.7496 66.293 63.5277 66.2917C63.3721 66.2917 63.206 66.33 63.049 66.429C62.7974 66.5888 62.6363 66.8305 62.5323 67.0563C62.4269 67.2861 62.3689 67.5146 62.3224 67.7153H62.3219C62.0387 68.9541 61.9059 70.2246 61.9059 71.4951C61.9064 73.7548 62.3243 76.0158 63.0574 78.117C64.2019 81.3936 66.0751 84.2885 68.248 86.7925C68.9239 87.5651 69.5837 88.2902 69.8962 89.1393C70.1812 89.8961 70.2109 90.8073 70.2235 91.7595C70.263 94.1869 70.3024 96.6157 70.3414 99.0431C70.3512 99.4036 70.3441 99.8685 70.5726 100.337C70.8344 100.85 71.2496 101.097 71.5704 101.296C73.4311 102.425 75.4424 103.245 77.5191 103.722H77.5209C77.5994 103.739 77.7053 103.766 77.8412 103.766C77.9347 103.766 78.0455 103.753 78.1602 103.704L78.1626 103.702C78.4045 103.599 78.5531 103.389 78.6338 103.215C78.717 103.037 78.7545 102.87 78.7837 102.736C79.6589 98.5808 79.6367 94.9265 79.8707 90.8443L79.4036 90.8113L78.9365 90.7796C78.7026 94.9094 78.7197 98.4858 77.8728 102.499L77.8051 102.733L77.793 102.755L77.858 102.827L77.8256 102.733L77.793 102.755L77.858 102.827L77.8256 102.733L77.8273 102.732L77.8585 102.823L77.8446 102.726L77.8273 102.732L77.8585 102.823L77.8446 102.726H77.8412L77.7067 102.704H77.7085C75.7228 102.248 73.7979 101.463 72.0188 100.384C71.7105 100.201 71.4756 100.018 71.3906 99.8328C71.3042 99.6704 71.2788 99.3838 71.2769 99.0246C71.2374 96.5972 71.1985 94.1685 71.159 91.7411C71.1418 90.7875 71.1311 89.7429 70.7601 88.7405C70.339 87.6245 69.5735 86.8282 68.9217 86.0701C66.8115 83.6401 65.0148 80.8521 63.9298 77.7406C63.2347 75.7503 62.8414 73.6122 62.8414 71.4951C62.8414 70.3039 62.9659 69.1205 63.2287 67.9715C63.2677 67.8012 63.3132 67.6414 63.3652 67.5304L63.5146 67.3311L63.5077 67.3178L63.511 67.3323L63.5143 67.3311L63.5077 67.3178L63.511 67.3323L63.5277 67.3311L63.594 67.3509L63.6317 67.2928L63.5783 67.3284L63.594 67.3509L63.6317 67.2928L63.5783 67.3284L63.7121 67.2412H63.5574L63.5783 67.3284L63.7121 67.2412H63.5574H63.6972L63.5589 67.2174L63.5574 67.2412H63.6972L63.5589 67.2174L64.4808 67.3944C64.7567 65.8123 65.0969 64.2446 65.5008 62.6981C65.5789 62.3759 65.6768 62.1526 65.7627 62.0945H65.7618L65.8221 62.0787L65.8486 62.0827H65.8523L65.9011 61.973L65.8003 62.0061L65.8523 62.0827L65.9011 61.973L65.8003 62.0061L66.2772 63.7626L66.7005 61.9889C66.8036 61.5253 66.9397 61.1608 67.1151 61.0406V61.042L67.2507 61.0037L67.3951 61.0433L67.403 61.0512L67.4299 61.0222L67.3937 61.0248L67.403 61.0512L67.4299 61.0222L67.3937 61.0248L67.5846 64.1112L68.3121 61.1252C68.3691 60.8848 68.4811 60.6101 68.6041 60.4345C68.7322 60.2482 68.8339 60.2073 68.8701 60.2113L68.9156 60.2205C68.9727 60.2416 69.0136 60.272 69.0762 60.441C69.1319 60.6022 69.1602 60.8584 69.1589 61.1001L69.1584 61.1727C69.119 63.2818 68.9444 65.4187 68.9439 67.5833C68.9439 68.0812 68.9532 68.5817 68.976 69.0822C69.0985 71.7619 69.6278 74.5353 71.0489 76.8082L72.2166 78.6743L71.8948 76.4305C71.51 73.7495 71.1325 71.0408 71.1325 68.3915C71.1325 66.8886 71.2537 65.4041 71.5606 63.9514L71.1052 63.8326L71.0611 64.349L71.2686 64.4467C71.3656 64.5338 71.4733 64.7227 71.5499 64.9736C71.6279 65.2219 71.6771 65.5204 71.7017 65.7951C72.1149 70.3395 72.4338 75.1904 74.6708 79.2383C76.1337 81.8466 78.222 83.9385 78.7996 86.6102C78.9579 87.3234 79.0103 88.0683 79.0103 88.8356C79.0103 89.4722 78.9742 90.1232 78.9365 90.7796L79.4036 90.8113" fill="#F25358"/>
<path d="M99.2481 70.7767C98.6277 66.8424 97.7624 62.9543 96.6607 59.1508C96.4681 58.4865 96.2637 57.8143 95.9071 57.2398C95.585 56.7221 95.15 56.3048 94.7091 55.9085C93.576 54.8956 92.3653 53.9962 91.0935 53.2117C90.4761 52.8314 89.6009 51.9254 88.8316 52.1367C88.1881 52.3123 88.4611 52.8935 87.7234 52.6769C86.8841 52.4299 86.059 52.0535 85.2353 51.7471C84.9127 51.6256 84.564 51.5041 84.2386 51.6164C83.6648 51.8145 83.4725 52.6874 83.7293 53.291C83.9865 53.8959 84.5413 54.2683 85.0905 54.5416C85.6388 54.8163 86.2256 55.0369 86.6783 55.4767C86.2261 56.0644 86.4021 57.0153 86.8734 57.5845C87.345 58.1524 88.0276 58.431 88.6826 58.6899C90.6131 59.4519 92.083 59.8481 92.7813 62.2293C93.1076 63.3426 93.181 64.5246 93.2516 65.6934C93.4447 68.8762 93.2571 72.2057 92.8234 75.3714C92.7812 75.683 92.7385 76.0224 92.8806 76.2945C93.0059 76.5349 93.2474 76.6656 93.4206 76.865C93.7292 77.219 93.7984 77.7486 94.0197 78.1765C94.5165 79.134 95.6433 79.3888 96.6369 79.476C98.0037 79.5975 103.804 80.2446 102.336 76.9865C101.976 76.1888 101.024 75.7226 100.532 75.0187C99.6915 73.8156 99.4787 72.2387 99.2481 70.7767" fill="#F46B6C"/>
<path d="M53.9256 133.861C54.6777 132.075 55.4298 130.286 56.1814 128.499C57.0604 126.41 57.9406 124.318 58.6272 122.143C59.9681 117.892 60.5517 113.376 61.9831 109.162C62.6855 107.094 63.5871 105.116 64.5314 103.17C65.2056 101.784 65.9019 100.41 66.6216 99.051C67.0371 98.2665 67.8241 95.9699 68.5238 95.5473C69.2931 95.0824 71.405 95.9052 72.2282 96.1165C73.4423 96.4282 74.6416 96.8231 75.8031 97.3236C76.2999 97.5376 76.7864 97.7832 77.2963 97.9549C78.1347 98.2349 80.4138 98.3617 80.7472 99.5107C80.9956 100.369 79.8744 102.61 79.7332 103.602C79.2857 106.751 79.7258 109.985 80.3066 113.074C81.1484 117.551 82.2765 122.154 81.4278 126.631C80.9687 129.054 79.9467 131.307 79.4259 133.715C78.944 135.944 78.8999 138.265 78.4741 140.507C77.9221 143.414 76.7452 146.119 75.5784 148.79C74.7566 150.672 73.9136 152.589 72.6047 154.091C69.8492 157.258 65.3272 158.027 61.5633 156.646C58.5441 155.538 55.9832 153.336 54.1804 150.436C53.2783 148.984 52.5708 147.392 52.0281 145.737C51.7495 144.888 51.5754 144.009 51.3247 143.152C51.0396 142.178 50.5419 141.294 50.2587 140.292" fill="#100F0D"/>
<path d="M80.652 99.5502C79.0034 103.026 79.2833 106.342 79.6617 110.128C80.0772 114.288 80.4416 118.468 80.3066 122.658C80.2375 124.796 80.0689 126.953 79.6028 129.033C79.1873 130.886 78.5098 132.644 78.138 134.511C77.3552 138.44 77.2386 142.312 75.6485 146.008C75.4948 146.366 75.9456 146.673 76.1332 146.323C77.7763 143.247 77.9652 139.629 78.5187 136.186C79.0948 132.599 80.4213 129.276 80.7587 125.63C81.152 121.366 80.912 117.058 80.5137 112.808C80.3186 110.727 79.9788 108.643 79.8525 106.555C79.7034 104.075 80.3191 102.017 80.9747 99.7021C81.0337 99.4908 80.7453 99.3534 80.652 99.5502" fill="#909191"/>
<path d="M80.7918 98.6469C79.6357 97.6564 78.3083 97.0846 76.838 97.0317C75.5788 96.9855 74.6428 96.2486 73.3866 96.1059C72.0025 95.9501 71.1417 95.5697 69.8947 94.8671C69.5401 94.6677 69.249 94.3296 68.8065 94.3653C67.8686 94.4419 67.4169 95.8008 67.0483 96.5299C63.1846 104.177 60.0729 112.324 59.3408 121.153C59.3237 121.361 59.5883 121.365 59.6472 121.197C60.9398 117.556 61.0303 113.419 62.2361 109.685C63.3787 106.147 64.8712 102.759 66.4526 99.442C67.1842 97.9073 67.89 95.0256 69.8 95.7084C70.7323 96.0425 71.4775 96.6276 72.5003 96.7781C73.5476 96.93 73.751 97.0106 74.8559 97.4464C75.0603 97.527 75.1972 97.7396 75.4192 97.7779C75.9661 97.8756 76.6007 97.6855 77.156 97.7198C78.4257 97.803 79.5002 98.3445 80.568 99.0722C80.8182 99.2425 81.01 98.8344 80.7918 98.6469" fill="#909191"/>
<path d="M70.1984 79.3651C67.8338 74.6872 67.6068 69.1958 67.6314 63.9184L67.8282 63.1115C67.8092 68.7627 68.0744 74.0771 70.2732 79.3162L70.1984 79.3651" fill="#F14A3F"/>
<path d="M67.6314 63.9184C67.6342 63.3505 67.6397 62.7853 67.6457 62.2227C67.6462 62.1566 67.6934 62.1222 67.7395 62.1222C67.7867 62.1222 67.8329 62.1566 67.8324 62.2227C67.8301 62.5198 67.8283 62.817 67.8273 63.1115L67.6314 63.9184" fill="#ED3B34"/>
<path d="M67.4341 78.1975C65.9053 73.3625 65.4549 68.0112 66.0515 62.9305L66.1503 63.2963C65.792 68.4179 66.2609 73.1737 67.5223 78.1698L67.4341 78.1975" fill="#F14A3F"/>
<path d="M66.1499 63.2964L66.0515 62.9306C66.0699 62.7708 66.0898 62.611 66.1106 62.4525L66.2146 62.4671C66.1906 62.7444 66.1693 63.0204 66.1499 63.2964" fill="#ED3B34"/>
<path d="M65.1847 75.4215C64.4298 72.8964 63.8002 70.0002 64.0955 67.3205L64.2469 67.3495C64.2477 70.1428 64.7204 72.6758 65.292 75.3885L65.1847 75.4215Z" fill="#F14A3F"/>
<path d="M64.2462 67.3495L64.0955 67.3205C64.0996 67.2808 64.1042 67.2412 64.1089 67.2029H64.2466C64.2462 67.2518 64.2462 67.3006 64.2462 67.3495" fill="#ED3B34"/>
<path d="M94.9194 63.8128C94.2384 61.4461 93.7167 59.3621 91.7167 57.941C90.1724 56.8449 88.3934 56.0987 86.6904 55.3816L86.7294 55.2257C88.6723 55.6734 90.9227 56.8396 92.4892 58.1893C94.0708 59.5509 94.7138 61.6534 95.0407 63.7757L94.9194 63.8128" fill="#F14A3F"/>
<path d="M96.3183 60.132C94.57 56.2255 91.6242 54.5244 88.236 52.7204L88.2809 52.6003C91.6818 53.6964 95.0941 56.3417 96.4859 60.0528L96.3183 60.132" fill="#F14A3F"/>
<path d="M106.34 132.44C104.876 130.978 101.417 130.385 100.011 132.24C99.7913 132.529 100.061 132.922 100.372 132.759C101.474 132.178 102.414 131.904 103.642 132.168C104.503 132.353 105.288 132.864 106.167 132.907C106.373 132.917 106.497 132.598 106.34 132.44Z" fill="#909191"/>
<path d="M103.486 100.094C104.261 103.926 105.849 107.712 107.516 111.159C109.175 114.587 111.094 118.215 113.658 120.912C113.753 121.013 113.917 120.883 113.843 120.754C112.001 117.51 109.869 114.552 108.217 111.162C106.454 107.546 105.288 103.766 103.961 99.9491C103.848 99.6255 103.415 99.7444 103.486 100.094" fill="#909191"/>
<path d="M74.5644 146.78C73.0468 149.564 70.0114 151.424 67.3018 152.467C64.1549 153.678 61.4134 152.335 58.7499 150.482C56.6225 149.002 54.7033 147.141 53.0839 145.011C51.4124 142.812 50.502 140.293 49.0883 137.95C48.9541 137.727 48.6527 137.866 48.7021 138.131C49.2494 141.047 51.2574 143.895 53.0133 146.086C55.0747 148.66 57.5716 150.799 60.3501 152.331C63.0379 153.813 65.3658 154.128 68.1913 152.81C70.755 151.615 73.6958 149.926 74.8342 146.955C74.9098 146.755 74.6721 146.583 74.5644 146.78" fill="#909191"/>
<path d="M93.0769 165.764C92.8991 169.747 89.4867 173.491 87.1184 176.23C84.772 178.944 82.1219 181.185 79.0117 182.703C78.9016 182.757 78.9806 182.967 79.0948 182.921C82.6498 181.476 85.5719 178.85 88.1129 175.778C90.3762 173.042 93.342 169.685 93.4785 165.764C93.4892 165.477 93.0899 165.478 93.0769 165.764" fill="#909191"/>
<path d="M108.545 82.7869C107.562 81.1506 106.58 79.5129 105.599 77.8753C104.843 76.6154 103.888 75.2234 102.526 75.1455C102.003 75.1151 101.491 75.292 100.991 75.4677C98.8464 76.2218 96.7034 76.9759 94.5581 77.7287C94.0981 77.8911 93.5793 78.1117 93.4099 78.6148C93.2292 79.1497 93.5348 79.7229 93.8327 80.1891C97.8052 86.4121 102.78 92.0567 105.102 99.2372" fill="#100F0D"/>
<path d="M169.209 209.82C168.209 211.463 166.201 211.723 164.571 211.884C162.31 212.107 160.094 212.9 157.83 212.913C157.501 211.16 156.889 209.491 156.28 207.832C155.101 204.623 153.877 201.866 152.274 198.926C151.371 197.271 150.464 195.619 149.553 193.969C149.255 193.429 147.39 189.287 146.967 189.299C141.98 180.329 136.933 171.399 132.033 162.369C131.884 162.096 130.922 160.724 131.001 160.464C127.812 170.958 125.092 181.938 121.185 192.13C119.144 197.455 116.59 202.593 113.323 207.118C107.605 215.035 99.8543 221.566 90.0791 219.401C86.9002 218.698 83.0973 216.339 81.2658 213.367C77.8468 207.82 77.3543 200.552 78.5916 193.971C79.8289 187.39 82.6248 181.319 85.3904 175.339C86.8339 172.218 88.2777 169.096 89.7217 165.975C91.4771 162.179 93.2413 158.368 95.4697 154.892C99.6071 148.442 105.211 143.346 110.932 138.62C115.559 134.796 120.448 131.085 126.043 129.524C131.636 127.965 138.129 128.939 142.184 133.494C144.352 135.93 145.645 139.134 146.894 142.265C151.491 153.786 155.763 165.48 160.393 176.98C162.26 181.62 164.01 185.131 165.142 190.195C165.803 193.152 166.508 196.096 167.253 199.026C167.819 201.255 170.139 206.151 169.74 208.359C169.634 208.938 169.453 209.42 169.209 209.82" fill="#474A6D"/>
<path d="M57.4819 193.609C56.0083 205.019 62.4975 217.09 72.2394 221.056C75.2251 222.27 78.4157 222.782 81.5945 222.878C85.8914 223.008 90.3438 222.335 94.0149 219.852C98.7751 216.633 101.586 210.869 103.951 205.265C108.438 194.641 112.132 183.605 114.983 172.304C115.084 172.992 115.184 173.681 115.285 174.369C117.125 186.952 128.699 195.393 133.68 206.878C135.035 210.001 136.814 215.57 139.72 217.36C142.808 219.261 148.132 216.448 151.609 215.5C152.282 215.317 153.111 214.918 153.08 214.149C144.469 188.343 138.554 168.062 130.951 145.115C128.379 137.355 124.282 128.84 116.99 127.196C113.608 126.434 110.09 127.35 106.876 128.749C96.0034 133.482 87.6533 143.456 80.9482 154.081C74.2446 164.706 68.7731 176.295 61.4236 186.379C59.3771 189.188 57.9433 190.032 57.4819 193.609" fill="#54567F"/>
<path d="M115.015 173.306L115.096 173.451L115.392 173.105C114.609 173.046 113.729 170.416 113.401 169.712C112.89 168.615 112.39 167.511 111.9 166.401C110.858 164.041 109.653 161.598 108.938 159.086C108.882 158.892 108.598 159.305 108.693 159.486C110.065 162.116 111.031 165.079 112.25 167.805C112.832 169.11 113.43 170.404 114.041 171.692C114.321 172.288 114.508 173.435 115.114 173.637L115.267 173.531C115.378 173.376 115.484 173.285 115.457 173.088L115.307 173.017L115.188 173.042C115.1 173.06 114.774 173.239 115.015 173.306" fill="#100F0D"/>
<path d="M113.058 171.409C111.633 170.719 110.329 169.744 109.145 168.629C107.766 167.333 105.937 165.511 105.349 163.566C105.304 163.413 104.844 163.721 104.958 163.851C106.246 165.332 107.211 167.051 108.6 168.451C109.956 169.817 111.462 170.859 113.017 171.914C113.14 171.997 113.211 171.485 113.058 171.409" fill="#100F0D"/>
<path d="M64.6159 185.785C62.8229 191.165 63.7347 197.272 66.8389 201.855C66.9326 201.994 67.3078 201.671 67.2098 201.539C63.9437 197.135 63.1098 191.3 64.8077 185.917C64.8768 185.698 64.7107 185.501 64.6159 185.785" fill="#100F0D"/>
<path d="M103.577 130.208C102.149 128.132 100.512 126.257 99.115 124.143C97.8599 122.238 96.8568 120.109 95.5387 118.267C95.4103 118.089 95.1084 118.283 95.1857 118.495C96.0188 120.78 97.4772 122.86 98.8036 124.821C100.142 126.8 101.554 128.876 103.245 130.492C103.413 130.653 103.732 130.434 103.577 130.208" fill="#909191"/>
<path d="M63.7162 53.2144C62.5736 52.2146 60.599 51.3417 59.1547 51.9347C59.0061 51.9954 58.9685 52.2714 59.1547 52.3124C59.8511 52.4669 60.5615 52.418 61.2593 52.6029C62.0448 52.8116 62.7231 53.1972 63.4121 53.6515C63.6493 53.8087 63.9451 53.4138 63.7162 53.2144" fill="#181D3B"/>
<path d="M64.0964 53.2816C63.2793 51.9174 63.1763 50.4501 63.244 48.8574C63.2518 48.6672 63.0235 48.6659 62.9678 48.8164C62.3814 50.4026 62.8406 52.1816 63.7172 53.5273C63.8801 53.7783 64.2562 53.5471 64.0964 53.2816Z" fill="#181D3B"/>
<path d="M64.0899 53.7413C64.6731 50.8833 66.4916 48.6461 68.8177 47.3268C70.3214 46.4749 71.8308 46.0444 73.5115 46.504C74.3262 46.7272 76.6639 47.6319 77.1329 48.6052C77.2359 48.8205 77.5404 48.6725 77.4834 48.4414C77.1867 47.2475 75.5064 46.71 74.5724 46.3125C72.9487 45.6244 71.3921 45.5848 69.7647 46.2702C66.8269 47.509 64.3356 50.1332 63.7547 53.6383C63.7143 53.88 64.0402 53.9856 64.0899 53.7413" fill="#181D3B"/>
<path d="M62.2885 53.5961C57.4866 54.7345 55.9995 60.7792 56.4335 65.5376C56.9123 70.7939 59.3102 76.0013 63.0689 79.2792C63.3309 79.5077 63.7018 79.1286 63.445 78.8606C60.4514 75.7464 58.1727 72.0841 57.2688 67.578C56.1894 62.1949 57.2409 56.0406 62.3782 53.9579C62.581 53.876 62.5036 53.5446 62.2885 53.5961" fill="#181D3B"/>
<path d="M69.5656 11.838C67.778 9.17821 64.2017 8.75822 61.8947 10.9004C59.2538 13.3502 59.2431 17.9568 61.0485 20.9666C65.2595 27.9899 76.0753 27.0654 80.1413 20.2943C82.0501 17.1154 77.164 15.3603 75.0293 14.8426C71.4281 13.9709 67.4821 14.7528 64.4549 17.1207C61.8246 19.1797 60.0323 22.5223 62.7742 25.4582C65.3094 28.1735 69.4753 28.7335 72.7996 28.1141C76.3736 27.4485 79.7692 25.3261 81.9443 22.072C82.8345 20.7394 83.7901 19.0846 83.3848 17.3584C82.9201 15.3761 80.9614 13.6262 79.4947 12.5736C75.9326 10.0168 71.4328 9.60349 67.5617 11.5343C64.4976 13.0623 60.6551 16.7668 61.2232 20.9507C61.7438 24.7939 65.7432 26.454 68.7253 27.0694C72.7366 27.8975 76.95 27.3124 80.7082 25.581C84.2334 23.9579 88.1568 21.0075 90.0098 17.1696C91.7878 13.4915 88.5478 10.4896 85.8748 8.92199C77.801 4.19001 67.4726 3.84799 59.2978 8.49412C52.9557 12.0996 47.5704 20.6443 52.3745 28.2461C54.5091 31.6231 58.0557 32.5251 61.5477 31.5148C65.206 30.457 70.5152 27.772 71.8405 23.4573C73.2917 18.7359 69.1484 16.0339 65.7872 14.5058C61.9019 12.7375 57.5435 12.2884 53.4287 13.2089C49.5588 14.0739 45.2468 16.2293 43.2037 20.1926C41.3389 23.8086 41.9521 28.2051 45.1077 30.5929C52.9747 36.5492 64.601 32.113 71.8155 26.9822C74.8653 24.8137 73.174 22.2463 70.3988 21.1066C66.1034 19.3421 61.1174 18.007 56.519 18.7043C53.3372 19.185 48.5462 21.2095 48.0304 25.3565C47.5169 29.4822 51.8729 30.9416 54.6933 31.5571C59.2669 32.5555 64.0163 32.5106 68.5862 31.5016C70.8694 30.9971 73.1098 30.2482 75.2611 29.2577C77.2436 28.3465 79.61 27.3124 81.1468 25.5982C84.2703 22.1116 79.8037 19.2827 77.3327 17.7758C73.8253 15.6363 69.3695 14.214 65.7539 16.9108C62.9002 19.0384 62.4248 23.0215 63.964 26.2783C65.8407 30.2482 69.7795 31.7895 73.609 31.9783C78.4417 32.2174 83.6938 30.9442 88.0558 28.6581C90.8322 27.2028 94.2267 24.1613 92.8991 20.2891C91.7296 16.8765 87.7171 15.7367 84.7802 15.7102C81.5057 15.6799 77.7749 16.8804 75.7579 19.9364C73.6601 23.1126 74.315 27.1975 76.5673 30.0356C79.4281 33.6411 83.7021 34.5299 87.8216 33.7824C90.3627 33.3202 92.7981 32.3323 95.174 31.2573C96.7702 30.5348 98.572 29.8085 99.2792 27.9001C100.625 24.2709 97.6105 20.4819 95.0729 18.6858C88.8925 14.309 78.9717 15.5293 75.2112 23.1007C73.6007 26.3456 73.5639 30.5467 76.4604 32.916C79.3972 35.3183 83.6237 34.7082 86.91 33.7177C90.5529 32.6202 94.4763 30.6154 95.937 26.4447C97.4179 22.2146 95.609 18.658 92.1349 16.7272C84.6708 12.5763 74.573 11.5528 67.2277 16.5277C64.2421 18.5497 60.806 22.3374 61.9815 26.6323C62.9668 30.2285 66.7369 31.8608 69.8497 31.4038C76.477 30.4318 87.1822 20.4858 79.9155 13.2961C73.9597 7.40455 64.3134 6.49064 56.9005 8.64334C53.0211 9.76988 49.3591 11.8077 46.2844 14.6749C43.6458 17.1366 40.3773 21.3298 41.9415 25.4622C43.4996 29.5774 48.1219 29.7926 51.4142 28.6476C55.5491 27.2094 60.6206 24.259 63.2972 20.3392C65.6161 16.9425 64.0591 13.0966 61.2838 10.7604C57.862 7.88129 53.0175 7.36624 48.9039 8.20619C41.1641 9.78836 33.4077 18.0162 36.2424 27.3745C37.3715 31.1041 40.0766 33.9898 43.6256 34.6131C48.2681 35.4293 53.3123 32.6281 57.1061 29.9207C59.6828 28.081 61.9755 24.8375 59.747 21.5556C57.1215 17.69 51.7077 18.5497 47.9602 19.1203C43.3487 19.8242 40.6566 22.5421 38.0145 26.5992C35.9037 29.8415 33.2663 34.5299 35.7931 38.3955C37.6306 41.2059 41.3555 41.8557 44.1937 40.8744C48.0946 39.5247 50.6856 35.4068 52.8047 31.7908C53.6046 30.4239 54.5567 28.8813 53.7259 27.2794C52.9807 25.8425 51.1075 24.9735 49.7454 24.5984C46.5661 23.7215 42.9054 24.7794 40.6852 27.5145C38.4899 30.2166 37.3358 35.7344 38.5743 39.2025C39.9304 43.0047 46.1976 41.3459 48.6175 40.1969C55.8557 36.7565 64.7484 27.4048 62.0231 17.793L61.8341 17.583C57.9559 16.8144 55.5657 20.6786 55.0297 24.4874C54.7908 26.1845 54.3701 28.95 55.0963 30.5837C55.8332 32.2385 57.7634 32.566 59.249 32.7655C62.9965 33.2686 66.8938 31.9268 69.7736 29.2274C72.1008 27.0469 74.7132 22.8564 72.3349 19.6802L72.0651 19.5997C67.8137 20.8688 67.3656 26.9915 70.205 30.1175C74.0512 34.3503 80.5882 33.4535 84.634 30.1188C86.3538 28.7017 88.2365 26.9796 87.4615 24.4597C86.8316 22.414 85.1522 20.7592 83.2101 20.4555C81.1111 20.1266 78.9183 21.4024 77.883 23.4428C77.6382 23.9236 77.4338 24.4082 77.5015 24.9233C77.599 25.6536 79.1108 27.0918 79.5482 27.6809C80.2292 28.6014 80.9174 29.5153 81.5937 30.4411C81.7791 30.6933 82.0988 30.3328 81.9158 30.0819C80.8996 28.6952 78.3834 26.24 78.3704 24.4743C78.3513 21.6586 82.1844 20.5201 84.1395 21.4275C86.1945 22.381 87.7907 24.955 86.4881 27.2516C85.4517 29.0781 83.4228 30.4332 81.6769 31.252C78.1814 32.8896 73.4391 32.8606 70.6032 29.6751C69.2792 28.1893 68.5934 26.1674 69.0212 24.0926C69.2257 23.1047 69.6405 22.1182 70.2847 21.3852C70.5628 21.0683 70.9633 20.6866 71.3484 20.5519C72.4752 20.1543 72.7699 21.7194 72.7176 22.7244C72.4906 27.0047 68.2546 30.3077 64.9303 31.5055C63.4731 32.0298 61.9423 32.2861 60.4102 32.2359C59.5307 32.2068 58.4313 32.1632 57.6088 31.7802C57.1548 31.5689 55.5194 29.6051 55.372 29.0213C55.2472 28.5248 55.3684 27.7033 55.3851 27.1737C55.4528 24.9497 55.6632 22.5276 56.8315 20.639C57.5506 19.4769 58.7439 18.3543 60.043 18.1694C62.0932 17.8775 62.0409 19.9879 62.0172 21.6824C61.9494 26.4064 59.23 30.4384 56.2717 33.5446C53.4359 36.5228 50.0949 39.3622 46.2547 40.4663C44.4219 40.992 42.2112 41.1623 40.4344 40.2801C38.1952 39.1668 38.686 34.514 39.1317 32.3124C39.9768 28.147 43.0088 25.2389 46.8395 24.9299C48.3323 24.8097 49.8833 25.0937 51.2287 25.8398C52.3662 26.4711 53.6914 27.4656 53.4561 29.1838C53.3206 30.1703 52.4577 31.2757 51.974 32.0813C49.9629 35.4332 47.4801 39.2209 43.8015 40.3593C40.6792 41.3248 36.4409 40.1666 35.4889 36.297C34.3978 31.8595 38.3319 26.5186 40.9003 23.4943C43.9049 19.9549 48.0197 19.49 52.176 19.2919C54.2678 19.1929 56.4429 19.2813 58.1983 20.6958C60.5065 22.554 60.6991 25.6669 58.6607 27.8724C56.1327 30.6075 52.037 32.5872 48.6876 33.5843C44.4564 34.8442 40.1052 33.7494 37.7138 29.436C35.7658 25.9217 35.7943 21.4975 37.4523 17.863C41.0239 10.0301 50.0711 6.81682 57.3949 9.23629C61.619 10.6322 66.2817 15.7816 62.4688 20.503C59.898 23.6845 55.933 26.1238 52.3674 27.6162C50.3064 28.4786 48.0102 29.0887 45.8446 28.3438C43.3047 27.4722 41.6229 24.8744 42.2909 21.891C43.1561 18.0294 46.3688 15.0829 49.2557 13.0214C54.641 9.1782 61.2577 7.59079 67.5997 8.43602C73.6387 9.24163 86.3906 14.5811 80.2661 23.4045C77.9936 26.6785 74.0987 29.794 70.419 30.6299C66.4421 31.5346 61.1947 28.5367 62.5889 23.2698C63.7299 18.9578 68.1405 16.2412 71.7406 15.0011C74.9699 13.8864 78.4084 13.679 81.7565 14.0951C85.3637 14.5428 89.2217 15.6469 92.4106 17.616C96.6668 20.2441 96.8439 25.82 93.3947 29.4228C89.4773 33.5156 76.2036 37.5265 74.7833 28.6251C74.1201 24.465 77.0986 20.5505 80.171 18.6871C83.1495 16.879 86.7377 16.4036 90.0466 17.1538C93.4352 17.9224 97.0697 20.1464 98.4698 23.8285C99.5169 26.5821 98.6612 28.7823 96.2211 30.0436C94.3218 31.0248 92.2882 31.841 90.2724 32.4683C86.0555 33.7824 81.3132 33.9263 77.8569 30.4992C74.9747 27.6399 73.943 22.8617 76.8264 19.5244C79.011 16.9966 82.5267 16.1236 85.5765 16.3363C89.3133 16.5964 94.7627 19.7925 91.7878 24.7001C89.6579 28.2158 84.8895 29.5641 81.4 30.4437C77.7262 31.3695 73.5223 31.9453 69.8497 30.6854C66.0166 29.3726 62.3202 24.8863 64.0258 20.1742C65.7539 15.3946 71.2094 15.4435 74.8237 17.0468C76.5376 17.8075 78.242 18.8376 79.7609 20.0104C80.1579 20.3168 80.7569 20.7223 81.0291 21.1779C81.1432 21.5992 81.2597 22.0217 81.3738 22.443C81.9027 23.2104 81.8658 23.8853 81.2668 24.469C80.7237 25.7699 79.2296 26.5015 78.1362 27.142C74.8962 29.0425 71.3722 30.3698 67.7649 31.0777C63.8392 31.8476 59.7946 31.8951 55.8593 31.1754C54.1846 30.869 52.3507 30.5309 50.8472 29.5998C48.1338 27.9186 47.965 24.8546 50.0675 22.4444C52.8178 19.2933 57.3961 18.7769 61.1091 19.1652C64.4216 19.5112 68.8358 20.3484 71.7288 22.2753C71.9997 22.4972 72.2695 22.7204 72.5393 22.9423C72.3123 24.1032 72.0865 25.2641 71.8595 26.4249C71.6955 26.656 70.8992 27.0562 70.7553 27.146C70.0386 27.5964 69.3112 28.0256 68.5767 28.439C66.6858 29.4995 64.7354 30.4332 62.7231 31.1688C59.1528 32.4776 55.353 33.1854 51.6043 32.5951C47.1152 31.8872 41.6705 29.0847 42.7259 23.0255C43.5056 18.5458 47.4004 15.7975 51.0124 14.4068C54.5876 13.0306 58.5181 12.8206 62.2109 13.7029C65.7492 14.5468 72.1269 17.0032 71.7228 21.994C71.3413 26.6837 65.6529 29.5734 62.1229 30.7897C58.2649 32.1183 54.2714 31.1503 52.2711 27.006C48.5759 19.3514 53.9683 11.9015 60.0834 8.64599C66.8141 5.063 74.8974 4.80675 81.9075 7.5247C85.126 8.77406 92.2514 12.1352 89.4821 17.1881C87.7171 20.4079 84.6494 22.9502 81.6305 24.5495C78.5772 26.1647 75.1743 26.9888 71.7917 26.866C68.5862 26.7485 64.0092 25.8782 62.2359 22.4906C59.6876 17.6213 65.5923 12.6397 69.2007 11.3996C73.1966 10.0261 77.6632 11.1566 80.7664 14.2734C81.4855 14.9945 82.3852 15.8899 82.6883 16.9161C83.1043 18.3292 82.6336 20.0592 81.8611 21.3152C80.8532 22.9528 79.5066 24.3303 77.9936 25.375C75.3883 27.1724 72.2351 28.0374 69.1769 27.7192C64.998 27.2833 58.9709 23.3253 63.6359 18.5458C66.2044 15.9137 69.8164 14.7329 73.2703 15.0473C74.939 15.1991 76.5982 15.7103 78.0779 16.5833C79.5292 17.4391 80.852 18.1495 79.4389 20.5334C78.9278 21.3958 78.0161 22.1512 77.2781 22.7336C74.4018 25.0065 70.6258 25.8967 67.1873 24.9392C63.4814 23.9038 60.1262 20.5215 60.2641 16.0246C60.4174 11.0021 66.1438 7.48115 69.291 12.0164C69.4135 12.1933 69.6892 12.0216 69.5656 11.838" fill="#15233C"/>
<path d="M78.3181 7.60925C77.9211 4.95337 75.5571 3.13217 73.1467 3.55875C70.7364 3.98533 69.0998 6.54215 68.7967 9.10294C67.9552 16.228 75.4347 20.4145 80.858 19.671C83.6784 19.2827 86.7057 17.7692 88.4255 15.1622C89.9563 12.8444 89.1529 10.771 86.8293 9.78443C80.9293 7.27515 74.3353 13.5206 74.0714 20.0817C73.9443 23.2223 75.2707 26.45 77.7048 28.1352C80.3529 29.9696 83.7497 29.5575 86.4917 28.2184C89.141 26.9254 91.7415 24.5707 92.5901 21.3707C93.4245 18.2262 91.8497 15.6905 89.2254 14.5362C83.8532 12.1722 77.6739 15.5835 74.6824 20.6958C71.421 26.2677 72.2518 34.3384 79.1311 35.1797C85.2889 35.9325 92.5854 30.7171 94.8199 24.3409C95.8206 21.4869 94.9482 18.6171 92.2871 17.4827C89.4132 16.2571 86.1815 17.9831 83.9269 19.9364C79.9322 23.3979 75.55 32.4683 80.82 36.9335C85.8487 41.1914 93.6218 36.2468 96.964 31.7248C98.7088 29.3634 99.7416 26.4778 98.3997 23.5723C97.0317 20.6153 94.1412 19.152 91.2245 19.5548C88.2199 19.9695 85.6966 22.1248 84.0659 24.8771C82.8037 27.01 80.4016 31.9586 82.1476 34.3794C83.5168 36.2772 86.2516 35.3052 87.6066 33.9449C89.4797 32.0669 90.0788 29.1019 89.7709 26.4024C88.9508 19.177 82.2664 16.1329 76.5127 15.3656C70.6377 14.5824 62.0208 15.3325 59.1873 22.2806C58.0831 24.988 58.845 27.9556 61.2316 29.4017C63.6954 30.8954 66.5824 30.0515 68.6861 28.1959C70.7625 26.3655 72.5668 23.3966 71.4483 20.3907C70.2634 17.2052 67.0554 16.1302 64.235 15.8674C59.1683 15.3959 49.4638 16.4604 50.1841 24.6129C50.4253 27.3481 52.4055 29.3885 54.6447 30.2588C57.4591 31.351 60.3782 30.4834 62.7375 28.5763C67.3918 24.8124 72.3932 15.4858 68.0158 9.54009C65.9846 6.7812 62.621 5.52922 59.6496 4.56777C56.5262 3.55745 53.0152 2.6356 49.7574 3.39102C47.366 3.94439 45.2124 5.6256 44.9307 8.50071C44.5884 12.0084 47.013 15.3286 49.1655 17.5645C53.4953 22.064 61.0414 24.193 65.4545 18.5458C70.7174 11.8103 60.5517 6.81026 55.7916 6.17502C49.78 5.37205 42.1376 8.12297 40.7506 15.5069C39.5098 22.1116 41.2866 30.8769 47.7915 32.9411C54.6756 35.1268 61.4372 29.5351 65.1799 23.5578C68.8359 17.7177 68.3866 9.2218 61.2981 7.25135C55.3435 5.59655 48.1089 8.43335 45.0436 14.5098C42.2767 19.9932 43.5116 27.7799 48.6021 31.009C54.4854 34.7425 62.4962 32.7192 67.6176 28.3504C70.4654 25.9204 77.1795 16.8593 70.9776 14.0779C64.7081 11.2662 61.4848 22.1393 60.9559 26.9545C60.068 35.0423 67.1387 39.1761 73.3654 35.9668C75.8935 34.6633 78.6259 32.1381 78.8838 28.8259C79.1097 25.9191 76.7683 24.0134 74.3828 23.6489C71.6028 23.2236 68.9274 24.9061 67.8019 27.7614C67.5332 28.4442 66.9996 29.9062 67.3728 30.6379C67.9207 31.7076 70.0339 32.0087 71.0085 32.014C73.9597 32.0325 76.3926 30.0356 78.0162 27.43C79.7384 24.6631 81.7376 20.1385 80.5692 16.7549C78.7305 11.4352 71.9594 11.8618 68.8632 15.3075C66.7298 17.682 65.6756 21.0141 65.193 24.2603C64.8281 26.7062 64.5108 29.7913 66.6264 31.3457C66.7381 31.4289 66.9069 31.3722 66.9723 31.2454C67.2848 30.6247 67.5986 30.004 67.9124 29.3832C67.9849 29.2406 67.9326 29.09 67.8209 28.9989C63.9878 25.8544 58.9258 23.9513 54.3903 26.4394C50.8366 28.3901 48.7198 32.7311 50.2352 37.0101C53.8317 47.1661 69.8473 36.9283 65.0682 28.8193C62.583 24.6037 57.1264 25.9006 55.7595 30.449L55.8261 30.7264C60.5173 35.6261 67.6426 34.4335 72.6048 30.7026C75.6748 28.3953 78.1672 25.2905 80.5478 22.1684C81.8065 20.5176 84.4344 17.2238 81.6567 15.6046L81.3513 15.6482C78.5558 18.8271 75.4989 22.3969 75.3384 27.1051C75.2065 30.9786 77.2841 34.2842 80.8057 34.9393C84.634 35.6525 88.0464 33.2171 90.7004 30.4081C92.8968 28.081 95.8301 24.09 93.4471 20.8041L93.1167 20.7579C87.54 23.4785 86.4798 31.9334 91.549 35.9245C96.4339 39.769 103.839 35.9219 103.852 29.0557C103.858 26.3483 101.964 24.1705 99.4552 24.4307C96.7893 24.708 95.0397 27.7363 95.3844 30.556C95.7232 33.3175 97.7924 35.5336 100.306 35.6855C103.408 35.8743 105.977 33.4522 107.114 30.3948C109.564 23.806 106.333 15.6839 100.136 13.6315C94.2434 11.6809 87.9085 16.0708 87.7682 23.1563C87.7468 24.2577 87.7896 25.8003 88.4897 26.6178C89.2777 27.5369 90.7598 27.8367 91.8402 27.8235C94.6653 27.7905 97.0793 25.82 98.4972 23.2157C99.4017 21.5529 99.952 19.6763 100.382 17.8049C100.808 15.9612 101.237 15.1926 100.253 13.6566C98.5566 11.0126 96.384 8.08733 93.3187 7.54322C91.2994 7.18531 89.135 7.90638 87.1989 8.47427C85.2093 9.05668 83.2339 9.83858 81.545 11.1738C80.1782 12.2541 79.0526 13.6923 78.3716 15.4052C77.9235 16.533 77.2151 19.1929 77.9711 20.3643C79.6255 22.9238 84.1277 21.6652 86.0365 20.3947C89.5451 18.0571 91.0462 13.44 92.2942 9.35914L92.2241 9.06728C87.0765 3.78458 79.881 5.87917 74.1594 8.69881C71.7716 9.87553 68.1679 11.2688 67.8637 14.6947C67.6462 17.1472 69.4088 18.5563 71.4554 18.4916C73.7018 18.4216 77.1189 17.1088 78.4132 14.9482C79.591 12.9817 78.9207 10.2677 77.4683 8.70803C73.3108 4.24943 64.9077 6.98457 60.8429 10.2176C58.5562 12.0348 55.8083 15.1609 56.1161 18.5709C56.4263 22.0125 59.4702 24.3184 61.8722 25.9944L62.1967 25.9481C65.8396 22.097 71.8964 14.9126 66.8356 9.32484C61.5549 3.49538 55.9247 14.1136 53.6071 18.0571C53.4324 18.3542 53.8614 18.6303 54.035 18.3358C56.0674 14.877 58.3945 9.59553 62.3464 8.51522C67.6295 7.07304 69.0486 14.4623 67.2646 18.4626C66.4065 20.3894 65.0789 22.0046 63.7157 23.5049C63.207 24.0662 62.4463 25.2838 61.6369 25.128C60.6765 24.9444 59.4559 23.4349 58.7713 22.6847C57.143 20.9045 56.1351 18.7056 56.9837 16.1791C57.7254 13.971 59.4131 12.0837 61.1115 10.7287C64.2362 8.23659 68.2832 6.97931 72.1187 7.17081C74.2889 7.27779 76.6981 8.01736 77.8617 10.244C79.4639 13.308 77.5348 15.6324 75.0496 16.8289C73.0707 17.7837 70.3133 18.7465 68.7099 16.5172C67.3966 14.6894 69.404 12.2158 70.608 11.3296C71.484 10.6851 72.4705 10.2229 73.4213 9.73819C77.1807 7.82454 81.2467 5.97294 85.472 6.42593C87.0492 6.5963 90.5494 7.29097 91.3945 9.03426C91.833 9.93629 91.1663 11.1658 90.8691 12.0097C90.3913 13.3661 89.8494 14.7052 89.1576 15.9467C88.0701 17.8947 86.6332 19.531 84.7196 20.4383C82.8595 21.3232 78.6782 22.0033 78.2884 18.8442C77.9924 16.4472 79.5613 13.7966 81.0993 12.3029C82.9439 10.5121 85.3365 9.6048 87.6708 8.9405C89.8042 8.33299 92.1349 7.59738 94.291 8.41488C96.1142 9.10691 97.5595 10.7458 98.7456 12.3676C99.3684 13.2181 100.355 14.35 100.337 15.532C100.324 16.4208 99.9342 17.5051 99.7167 18.3542C99.0986 20.7645 98.2108 23.2275 96.5516 24.9959C95.1919 26.446 93.2094 27.3375 91.3172 27.1856C88.347 26.9479 87.9845 24.0715 88.5194 21.3879C89.4441 16.7338 93.1773 13.5827 97.4406 13.7451C101.668 13.9049 105.315 17.0323 106.71 21.4275C108.172 26.03 107.243 32.8923 102.541 34.7095C100.183 35.6208 97.6165 34.7161 96.4256 32.2042C95.1871 29.5972 96.2699 25.7936 99.0487 25.1108C102.583 24.2405 103.885 28.4799 102.879 31.5003C102.078 33.9065 100.181 35.8915 97.9671 36.6245C93.7549 38.0178 88.9461 34.308 88.75 29.3885C88.6632 27.2054 89.4001 24.9629 90.7301 23.3504C91.114 22.8868 92.2407 21.4935 92.879 21.5318C94.9981 21.6586 93.1702 26.0696 92.7827 26.7921C90.755 30.5798 86.3931 34.3463 82.3294 34.4454C77.2306 34.5709 74.8309 29.2617 76.3285 24.2736C77.0166 21.9756 78.3942 20.0025 79.8347 18.2275C80.1211 17.8748 80.4385 17.4152 80.7629 17.1247L80.9995 16.8527C81.7494 15.8384 82.0359 16.71 81.86 19.4715C81.4939 20.5571 80.2067 21.7643 79.5197 22.6531C74.7014 28.8853 67.6961 35.8506 59.6782 32.7245C58.9139 32.426 57.6042 31.8687 57.036 31.1305C56.2243 30.0779 56.7365 29.0359 57.6731 28.118C60.0121 25.8266 63.4696 26.6191 64.9101 29.65C67.3978 34.8839 60.7205 40.1111 56.7211 40.7212C51.7078 41.4859 48.7091 35.1797 51.0588 30.556C53.3242 26.1 58.4433 25.0553 62.5378 26.4988C63.4114 26.8079 67.33 28.2356 67.1624 29.7213C67.0555 30.6603 66.2912 30.2707 65.937 29.823C65.5971 29.3938 65.4925 28.3372 65.4521 27.7561C65.3653 26.5358 65.5389 25.2786 65.7279 24.0807C66.3566 20.1148 68.0265 15.5835 71.5731 13.8706C74.5421 12.439 79.2594 13.4743 80.2293 17.3888C81.3025 21.7259 77.7357 28.5499 74.2996 30.5468C72.7189 31.4646 68.6255 32.3838 68.0146 29.8679C67.2944 26.9043 70.9634 24.2709 73.1848 24.1428C75.9695 23.9843 79.0942 26.2281 78.2337 29.6817C77.5895 32.2689 75.5013 34.1575 73.4272 35.3038C69.0391 37.726 62.8219 36.5545 61.5466 30.5705C60.6635 26.4262 62.5354 20.2547 64.8317 16.9544C66.2033 14.9839 68.5649 13.5364 70.8172 14.5837C73.6388 15.8952 73.1206 19.675 71.9713 22.1222C70.192 25.9178 66.8439 28.8497 63.3698 30.5494C56.3669 33.9752 45.5903 32.8183 44.2425 22.69C43.0255 13.5483 50.7225 7.07703 58.3826 7.35305C63.2557 7.52738 67.4631 10.8343 67.0781 16.6968C66.7667 21.4407 63.5766 25.5374 60.4412 28.4759C57.1513 31.5584 52.8654 33.6834 48.5047 32.5832C43.8111 31.3986 41.5659 26.9043 41.0976 21.8897C40.6508 17.1089 41.2367 12.3729 44.9782 9.39481C48.3264 6.73232 52.7359 6.06668 56.7234 6.8538C60.4971 7.59866 68.7705 11.2794 65.8479 17.06C63.7073 21.2928 58.4979 22.2305 54.678 20.7553C50.9685 19.321 46.9203 15.4607 45.7437 11.1804C44.151 5.3958 49.2594 3.41876 53.3908 3.75157C57.3141 4.06985 62.016 5.39978 65.3594 7.75983C69.8616 10.936 69.7796 16.471 67.5119 21.2822C65.6898 25.1438 62.5877 29.2327 58.5217 30.0462C54.5651 30.8386 49.6088 27.393 50.9127 22.4193C52.2771 17.2145 57.748 16.2702 61.8972 16.3257C64.0068 16.3534 66.3328 16.405 68.2476 17.513C70.8695 19.0318 72.1163 22.1525 70.5213 25.1029C69.4433 27.0971 67.5178 28.8034 65.4747 29.3674C63.0418 30.0383 59.9088 28.8127 59.2931 25.8201C58.1866 20.4489 64.4514 17.023 68.2 16.1804C74.8701 14.6815 86.0603 15.9651 88.7405 24.2867C89.8684 27.7905 89.2895 33.2423 85.5646 34.5524C83.4015 35.3144 81.8873 33.3347 82.3734 30.9337C82.6111 29.7543 82.9831 28.5723 83.4253 27.4722C84.3892 25.0765 85.838 22.8987 87.8657 21.5001C91.6702 18.8746 98.2833 20.1213 98.5162 26.1409C98.7052 31.0327 93.434 35.1955 89.8006 36.7711C86.2493 38.311 80.795 38.5421 79.3783 33.5817C78.1196 29.1785 80.4979 24.218 83.3326 21.2571C84.7814 19.7436 86.6427 18.4031 88.5954 17.8828C91.8378 17.0164 95.6435 19.1744 94.5667 23.4362C93.4601 27.8182 89.3526 31.4699 85.7655 33.2396C82.5505 34.827 77.7845 35.6432 75.014 32.5674C71.5826 28.7612 73.7042 22.4615 76.5056 19.037C78.8256 16.1989 82.3259 14.1875 85.8309 14.317C87.9203 14.3949 90.5185 15.1675 91.7296 17.2317C93.2902 19.8889 91.6476 23.1206 89.8993 25.066C87.0171 28.2726 81.6662 30.1928 77.9711 27.6281C73.6162 24.6077 73.8658 17.8973 76.8265 13.8706C78.1173 12.1141 79.8513 10.8 81.8077 10.145C82.7502 9.82933 83.7569 9.68668 84.741 9.76064C85.2081 9.79497 85.6966 9.9006 86.1482 10.034C86.6165 10.1634 87.0634 10.3642 87.4877 10.6323C87.8039 11.8486 88.12 13.0636 88.4362 14.2787C87.9774 16.1791 85.0678 17.8049 83.575 18.4282C81.8053 19.1665 79.8775 19.4385 77.9972 19.2153C74.0179 18.7412 69.9412 15.6812 69.2709 11.0536C68.8918 8.44525 69.9401 5.49351 72.1912 4.3498C74.6241 3.11497 77.5741 4.73016 78.0495 7.69244C78.0804 7.8879 78.3466 7.80339 78.3181 7.60925" fill="#15233C"/>
<path d="M64.9862 9.30232C63.5385 4.54657 67.7234 1.18413 71.5386 0.979424C74.9616 0.79585 79.2653 2.24465 81.7185 4.99297C84.3178 7.90638 84.5663 12.0982 82.9617 15.6892C82.2807 17.2119 81.3168 18.5616 80.1258 19.6274C78.9611 20.6694 77.328 21.7457 75.7627 20.8001C74.7881 20.2111 74.22 18.7253 73.9632 17.6028C72.272 10.2294 80.3113 1.76526 86.8744 3.65779C91.2459 4.91903 92.2276 10.8449 89.7329 14.523C88.5883 16.2108 86.777 17.5803 84.817 17.6609C82.3841 17.7599 80.7106 15.5888 80.1555 13.1587C78.0304 3.83211 88.7856 -0.502325 95.1336 2.2843C101.509 5.08149 102.482 14.1651 97.6961 19.3025C95.5329 21.6229 91.9257 22.9859 89.0768 21.4341C84.9906 19.2074 85.8107 13.2974 88.5574 10.2281C93.6669 4.51755 103.129 4.5479 106.204 12.645C109.421 21.1144 101.866 29.4453 94.2469 27.4049C92.3488 26.8964 90.4412 25.7844 89.1944 24.0873C87.3807 21.6176 88.0653 18.5946 90.0514 16.5542C91.6583 14.9033 94.0009 14.0594 96.0571 13.3753C97.3336 12.9514 98.5245 12.678 99.845 13.0254C101.524 13.4665 103.064 15.4158 101.918 17.3902C101.843 17.5209 102.022 17.6292 102.102 17.5104C102.838 16.3944 102.751 15.112 102.049 13.9828C100.812 11.9952 98.559 12.1299 96.668 12.645C93.0049 13.6407 87.4853 15.9493 87.515 21.0603C87.5424 25.7685 93.0002 28.2593 96.548 28.3729C100.677 28.5063 104.452 26.0313 106.288 21.9188C110.33 12.8642 102.556 3.1295 94.0045 6.08253C89.9468 7.48377 85.649 10.94 85.6621 16.1276C85.6728 20.4304 88.8795 23.0585 92.5854 22.6359C100.238 21.7616 104.32 9.86365 98.4746 3.92986C92.3215 -2.31694 78.8125 1.22776 79.4864 11.9252C79.7515 16.1487 82.9249 19.3408 86.727 17.7454C90.4151 16.1963 92.6733 11.3375 91.1021 7.19853C89.349 2.57881 84.6554 2.23016 80.9519 3.97874C77.2211 5.74052 73.9276 9.65894 73.3405 14.2258C72.8068 18.378 75.1328 23.6039 79.3652 20.8411C83.1614 18.3635 85.5361 12.5116 83.9233 7.81263C82.2022 2.7967 76.3522 0.439327 71.8833 0.478947C67.702 0.514605 63.018 4.22041 64.7033 9.38822C64.7675 9.58368 65.0468 9.50174 64.9862 9.30232" fill="#15233C"/>
</svg>
