<svg width="170" height="268" viewBox="0 0 170 268" fill="none" xmlns="http://www.w3.org/2000/svg">
<path d="M170 242.5C170 249.957 131.944 256 85 256C38.0554 256 0 249.957 0 242.5C0 235.045 38.0554 229 85 229C131.944 229 170 235.045 170 242.5Z" fill="#848484"/>
<path d="M141.611 189.871C141.611 189.871 138.429 200.409 131.431 213.211L131.42 213.232C131.095 213.837 130.76 214.453 130.412 215.069L130.389 215.103C128.149 219.068 125.529 223.2 122.549 227.277C116.592 235.429 110.051 238.107 101.181 238.879L100.879 238.901C95.1665 239.372 88.4812 239.081 80.3732 238.945H79.8586C78.6026 238.924 77.3265 238.913 76.0052 238.913H75.9932C75.8252 238.901 75.6692 238.901 75.5012 238.901H75.4892C72.8239 238.889 70.0252 238.913 67.0679 239.001C66.5972 239.013 66.1279 239.013 65.6679 239.001C65.5452 239.001 65.4332 239.001 65.3105 238.991C49.1385 238.331 36.7172 222.136 28.9572 208.137C28.2852 206.916 27.6359 205.719 27.0319 204.541C22.2825 195.303 19.7519 187.821 19.7519 187.821L51.8252 179.813L62.9466 179.299L63.2599 179.276H63.2719L119.403 176.667L141.611 189.871" fill="#F8CF81"/>
<path d="M81.1959 190.711C80.9545 193.532 80.8332 196.364 80.8332 199.196C80.8332 200.032 80.8439 200.867 80.8652 201.703C80.8839 202.383 80.9119 203.116 81.2719 203.744C81.5625 204.245 82.1132 204.627 82.6919 204.631C82.8479 204.631 83.0065 204.601 83.1572 204.536C83.9705 204.176 84.1039 203.181 84.1559 202.401C84.3999 198.383 84.6439 194.361 84.8879 190.341L84.7572 190.193L84.6092 190.325C84.3639 194.345 84.1212 198.365 83.8759 202.385C83.8332 203.16 83.6679 204.027 83.0479 204.279C82.9332 204.328 82.8132 204.351 82.6919 204.351C82.2439 204.353 81.7559 204.029 81.5145 203.604C81.1985 203.059 81.1612 202.373 81.1452 201.696C81.1239 200.863 81.1132 200.029 81.1132 199.196C81.1132 196.372 81.2345 193.548 81.4745 190.735L81.3465 190.583L81.1959 190.711" fill="#482756"/>
<path d="M131.313 126.485C130.679 118.011 130.361 111.427 123.689 103.611C118.315 97.316 107.952 92.5506 99.8612 91.22C87.5372 89.1946 76.4399 91.2733 76.4372 91.2747C65.8772 93.252 55.5865 97.832 47.4385 105.136C38.7239 112.948 36.0959 127.413 37.1452 138.687C38.7865 156.343 48.7225 172.587 52.6012 175.025L52.8945 175.203C52.2799 178.16 51.8226 180.243 51.8226 180.243C51.8226 180.243 60.4012 194.54 86.5172 192.824C112.633 191.108 121.783 184.056 121.783 184.056L117.157 166.055C126.647 164.583 132.429 141.367 131.313 126.485Z" fill="#A45711"/>
<path d="M59.9305 122.227L66.6492 153.395L66.7692 153.504L90.7079 156.595L88.8092 173.221L88.9479 173.237L88.9052 173.104C88.9039 173.104 88.2412 173.313 87.0599 173.629C83.5159 174.579 75.3292 176.476 66.6159 176.476C62.5626 176.476 58.3959 176.065 54.5305 174.961L54.3572 175.057L54.4532 175.231C58.3532 176.344 62.5439 176.756 66.6159 176.756C78.2866 176.756 88.9826 173.372 88.9906 173.371L89.0866 173.253L91.0012 156.489L90.8799 156.335L66.9026 153.239L60.2052 122.167L60.0386 122.06L59.9305 122.227" fill="#482756"/>
<path d="M66.7466 153.231C66.7292 153.236 61.9826 154.676 57.9546 160L57.9826 160.196L58.1786 160.168C60.1666 157.54 62.3332 155.872 63.9999 154.86C64.8332 154.355 65.5426 154.013 66.0426 153.799C66.5412 153.585 66.8266 153.5 66.8266 153.499L66.9199 153.324L66.7466 153.231" fill="#482756"/>
<path d="M62.7879 124.335L62.3572 133.343L62.4906 133.489L62.6372 133.356L63.0665 124.348L62.9332 124.201L62.7879 124.335" fill="#482756"/>
<path d="M86.6932 155.928C85.1372 161.968 84.1265 168.147 83.6799 174.367L83.8092 174.516L83.9585 174.387C84.4052 168.184 85.4119 162.021 86.9639 155.997L86.8625 155.828L86.6932 155.928" fill="#482756"/>
<path d="M52.1039 101.849C52.1039 101.851 52.3399 102.095 52.7345 102.58C53.9199 104.037 56.5092 107.641 58.2186 113.089L58.3932 113.18L58.4852 113.005C56.1879 105.684 52.3145 101.665 52.3052 101.656L52.1079 101.652L52.1039 101.849Z" fill="#482756"/>
<path d="M73.2359 92.0866C73.2412 92.108 76.7159 99.8866 87.9399 100.463C88.3199 100.481 88.6972 100.491 89.0692 100.491C99.6732 100.487 106.767 92.8506 106.779 92.8413L106.772 92.6427L106.573 92.6506C106.572 92.6506 106.137 93.1186 105.315 93.828C102.845 95.956 96.9172 100.213 89.0692 100.211C88.7012 100.211 88.3293 100.201 87.9533 100.183C82.4093 99.8973 78.7986 97.84 76.5666 95.8573C75.4506 94.8653 74.6799 93.892 74.1893 93.168C73.9439 92.8053 73.7693 92.5053 73.6559 92.296C73.5413 92.088 73.4919 91.9733 73.4919 91.9733L73.3066 91.9026L73.2359 92.0866" fill="#482756"/>
<path d="M100.243 92.0586C100.243 92.0586 98.5639 96.6587 89.2332 97.6173C80.0892 98.5587 76.4372 91.2747 76.4372 91.2747C78.3479 87.048 79.8452 83.4027 80.2505 80.3187C80.4385 78.8933 80.5159 77.8947 80.5412 77.5987L80.5465 77.5053L96.3559 77.4187L97.1705 77.4133L97.5492 79.6987L100.243 92.0586" fill="#F9B9C5"/>
<path d="M88.9892 85.7214C84.2519 85.7214 80.8865 81.5867 80.2505 80.3187C80.3185 79.804 80.3719 79.344 80.4132 78.9533C81.0719 79.3227 81.7545 79.6494 82.4599 79.9321C84.1465 80.6001 85.9599 81.0227 87.8705 81.156L88.0199 81.16C88.2452 81.18 88.4719 81.1893 88.6985 81.1947C88.8159 81.1973 88.9332 81.1987 89.0505 81.1987C89.2119 81.1987 89.3732 81.196 89.5332 81.1893C89.9519 81.1787 90.3625 81.1507 90.7639 81.108C90.7892 81.1774 90.8039 81.2441 90.8065 81.3067C90.8545 82.6414 93.1412 84.548 93.1412 84.548C93.1412 84.548 93.1465 84.664 93.1705 84.8453C92.2799 85.2307 91.2012 85.5267 89.8879 85.672C89.5839 85.7054 89.2839 85.7214 88.9892 85.7214Z" fill="#F24E6C"/>
<path d="M71.6812 67.2934C65.0946 69.1361 61.4906 60.2734 64.0573 56.7694C66.1666 53.8934 68.4279 55.2254 69.5972 56.2867C70.1026 56.7494 70.4039 57.1574 70.4039 57.1574L70.9692 61.6347L71.6759 67.2681L71.6812 67.2934" fill="#F9B9C5"/>
<path d="M65.7319 59.3347C67.5559 60.2094 68.9586 61.932 69.4479 63.8933L69.6612 64.0226L69.7906 63.808C69.2732 61.74 67.8066 59.9387 65.8852 59.016L65.6492 59.0987L65.7319 59.3347" fill="#482756"/>
<path d="M67.3985 60.3C66.7185 60.8653 66.3466 61.7413 66.3466 62.6147C66.3466 63.012 66.4239 63.4107 66.5892 63.7787L66.8226 63.868L66.9119 63.6347C66.7679 63.316 66.6999 62.9653 66.6999 62.6147C66.6985 61.8413 67.0346 61.06 67.6252 60.5707L67.6479 60.3227L67.3985 60.3" fill="#482756"/>
<path d="M105.769 67.8146L105.696 67.8294L105.656 67.8387C105.337 67.888 105.008 67.908 104.668 67.9027H104.653C104.015 67.888 103.352 67.7747 102.668 67.544L103.627 59.9347L103.897 57.8107C103.897 57.8107 105.249 56.5773 106.929 56.056C107.741 55.8053 108.625 55.7173 109.476 56.012C110.195 56.2573 110.887 56.7747 111.485 57.6934C113.463 60.716 110.537 67.0373 105.769 67.8146" fill="#F9B9C5"/>
<path d="M108.792 58.604C107.383 59.9627 106.568 61.9053 106.568 63.8613C106.568 64.0333 106.575 64.2067 106.587 64.38L106.776 64.5413L106.939 64.352C106.927 64.1893 106.921 64.0253 106.921 63.8613C106.92 62.004 107.699 60.1466 109.037 58.8586L109.041 58.608L108.792 58.604Z" fill="#482756"/>
<path d="M107.628 60.6253C108.595 61.0013 109.281 62.0373 109.279 63.0747L109.267 63.3107L109.425 63.504L109.619 63.3467L109.632 63.0747C109.629 61.8867 108.869 60.7373 107.757 60.2973L107.528 60.3973L107.628 60.6253Z" fill="#482756"/>
<path d="M106.914 55.7658L106.909 55.8244C106.899 56.1644 106.879 56.4978 106.854 56.8325C106.766 58.1298 106.61 59.4965 106.369 60.9032L106.358 60.9565C106.305 61.2711 106.245 61.5912 106.186 61.9058C106.127 62.2245 106.059 62.5445 105.99 62.8591C105.921 63.1791 105.851 63.4978 105.774 63.8178C105.473 65.0911 105.105 66.3684 104.667 67.6218L104.647 67.6711L104.642 67.6765C104.334 68.5711 103.974 69.4458 103.575 70.3005C102.745 72.1152 101.742 73.8165 100.538 75.3058C97.8888 78.5885 94.2914 80.8298 89.5128 80.9578C89.2368 80.9684 88.9581 80.9685 88.6781 80.9631C88.4514 80.9578 88.2248 80.9485 87.9994 80.9285L87.8501 80.9244C85.9394 80.7911 84.1261 80.3685 82.4394 79.7005C79.8781 78.6725 77.6074 77.0605 75.7354 75.0005L75.6994 74.9618C74.8741 74.0418 74.1221 73.0432 73.4541 71.9618C72.5288 70.4592 71.7474 68.8712 71.1141 67.2285L71.0794 67.1351V67.1298C70.9114 66.7071 70.7648 66.2898 70.6181 65.8578C70.2581 64.7564 69.9434 63.6205 69.6981 62.4405L69.6874 62.3818C69.2754 60.4111 69.0395 58.3404 69.0048 56.2578V56.1978C68.8568 47.5272 72.1301 38.5951 80.3501 34.6524C81.5648 34.0724 82.8474 33.6311 84.1834 33.3658C85.6154 33.0751 87.0741 32.9618 88.5194 33.0112C92.9194 33.1538 97.2261 34.8111 100.489 37.7605C105.646 42.4245 107.189 49.1738 106.914 55.7658" fill="#F9B9C5"/>
<path d="M105.723 64.3467C105.747 64.248 105.771 64.148 105.795 64.0493C105.872 63.7293 105.941 63.4107 106.011 63.0907C106.08 62.776 106.148 62.456 106.207 62.1374C106.265 61.8227 106.325 61.5027 106.379 61.188C106.38 61.1894 106.381 61.1894 106.381 61.1907C106.205 62.232 105.987 63.2893 105.723 64.3467" fill="#F46E8C"/>
<path d="M75.7212 75.1934H75.7012C74.8612 74.264 74.1025 73.2467 73.4292 72.1493C72.5132 70.6453 71.7399 69.064 71.1105 67.428C71.1145 67.4267 71.1172 67.4267 71.1212 67.4253L71.1345 67.46C71.7679 69.1027 72.5492 70.6907 73.4745 72.1934C74.1425 73.2747 74.8945 74.2734 75.7199 75.1934H75.7212" fill="#FAC0D5"/>
<path d="M71.1106 67.428C71.1079 67.4226 71.1066 67.4173 71.1039 67.4107C70.9266 66.9547 70.7653 66.4974 70.6133 66.0347C70.2546 64.9347 69.9439 63.7987 69.7039 62.6187C69.7053 62.616 69.7066 62.6146 69.7079 62.612C69.7079 62.6133 69.7079 62.6133 69.7079 62.6133L69.7186 62.672C69.9639 63.852 70.2786 64.988 70.6386 66.0893C70.7853 66.5213 70.9319 66.9386 71.0999 67.3613V67.3667L71.1213 67.4253C71.1173 67.4266 71.1146 67.4266 71.1106 67.428Z" fill="#F46E8C"/>
<path d="M98.9808 60.2747C98.8292 61.3687 97.8209 62.1325 96.7252 61.9808C95.6313 61.8291 94.8675 60.8189 95.0192 59.7267C95.1709 58.6309 96.1809 57.8689 97.2748 58.0188C98.367 58.1723 99.1325 59.1807 98.9808 60.2747" fill="#482756"/>
<path d="M84.9808 59.2747C84.8292 60.3687 83.8209 61.1325 82.7252 60.9808C81.6313 60.8291 80.8675 59.8189 81.0192 58.7267C81.1709 57.6309 82.1809 56.8689 83.2748 57.0188C84.367 57.1723 85.1325 58.1807 84.9808 59.2747" fill="#482756"/>
<path d="M95.1101 63.4907C94.9181 63.4907 94.7288 63.4067 94.5608 63.1907C93.7995 62.2174 94.0341 60 94.0341 60C94.0341 60 95.5075 61.9654 96.4915 62.4574C96.4915 62.4574 95.7821 63.4907 95.1101 63.4907Z" fill="#EB8A9F"/>
<path d="M85.604 62.844C84.8147 62.844 84 62.1747 84 62.1747C84.748 61.356 86.1573 59 86.1573 59C86.1573 59 87.376 61.3494 86.4933 62.424C86.2387 62.7334 85.924 62.844 85.604 62.844" fill="#EB8A9F"/>
<path d="M92.451 62.1074C92.0003 62.2602 91.7373 62.521 91.6447 62.7861C91.5521 63.0542 91.6126 63.3344 91.7175 63.6122L92.4201 65.3088L92.7646 66.1585C92.8708 66.4406 93.0288 66.7238 92.9955 67.0471C92.9955 67.3753 92.5263 67.7058 91.9274 67.8272C91.3422 67.9655 90.7248 67.9842 90.1358 68L90 67.94L90.1086 67.8732C90.6828 67.8277 91.2545 67.7622 91.7249 67.6367C92.1966 67.5075 92.4682 67.2922 92.4794 67.0338C92.5016 66.776 92.3337 66.4939 92.2386 66.2089L91.9139 65.3567C91.6941 64.7877 91.4792 64.2236 91.2866 63.6474C91.1977 63.3581 91.1421 63.0518 91.2878 62.7503C91.4298 62.4549 91.762 62.1638 92.3114 62L92.4892 62.0212L92.451 62.1074" fill="#482756"/>
<path d="M112.897 47.9893C112.509 49.5426 111.58 50.9493 110.331 51.9413C109.928 52.2666 109.491 52.5466 109.029 52.772C108.7 52.9346 108.34 53.068 107.972 53.156C108.163 54.2226 108.129 55.3347 107.824 56.332C107.529 57.304 106.443 61.5226 105.061 61.144C104.684 61.036 104.501 60.6133 104.388 60.2347C103.593 57.6 103.455 54.7733 103.984 52.0693C103.853 51.8786 103.744 51.672 103.656 51.4547C103.056 49.9853 103.327 48.0587 102.137 47.0013C101.473 46.416 100.52 46.284 99.6346 46.3373C98.7506 46.3973 97.8799 46.6133 96.9892 46.6226C95.4079 46.6426 93.8239 45.9547 92.7586 44.78C91.7452 43.664 91.1799 42.14 89.9812 41.2306C88.6186 40.204 86.7519 40.184 85.0706 40.4547C83.8506 40.6467 82.6426 40.96 81.4186 41.064C81.1172 41.0933 80.8132 41.108 80.5132 41.1026C79.9239 41.8693 79.2146 42.548 78.3746 43.0987C77.2239 43.8507 75.8719 44.372 75.0026 45.4386C74.0732 46.5786 73.8719 48.1413 73.8372 49.616C73.8039 51.0867 73.8866 52.6013 73.4052 53.992C73.3466 54.164 73.2772 54.3267 73.1945 54.488C73.1399 56.4933 72.7319 58.484 71.9839 60.3427C71.8372 60.7067 71.6159 61.1146 71.2279 61.184C69.8212 61.4386 69.1186 57.168 68.9132 56.1547C68.2092 55.7173 67.6586 54.9893 67.3639 54.1973C66.9012 52.96 66.9506 51.5333 67.4919 50.3293C67.9052 49.42 68.5786 48.6333 68.8826 47.68C69.2959 46.3587 68.9319 44.9373 68.8386 43.556C68.5932 40.0013 70.2892 36.3747 73.1746 34.2853C73.4199 34.104 73.6852 33.9413 73.9506 33.784C74.0252 33.1786 74.1826 32.58 74.4079 31.9933C75.4106 29.384 77.7799 27.088 80.2586 25.908C83.2466 24.4986 86.8239 24.384 89.8972 25.6093C92.5066 26.6507 94.7932 28.6133 97.5799 28.956C99.7079 29.2226 101.871 28.4987 103.989 28.8187C106.9 29.256 109.333 31.8613 109.58 34.796C109.703 36.2813 109.328 37.844 109.873 39.2347C110.277 40.2627 111.133 41.0386 111.771 41.944C112.995 43.6693 113.419 45.94 112.897 47.9893" fill="#572D0F"/>
<path d="M83.553 52.0479C83.9915 51.898 84.4831 51.7411 84.9796 51.7657C85.6479 51.7996 86.0217 52.1746 85.914 52.5167C85.8078 52.86 85.3476 53.1654 84.8557 53.4282C83.511 54.1482 81.8064 54.689 80.0014 55.0304C79.4797 55.1297 78.9347 55.2131 78.4 55.2029C76.6154 55.1681 76.7792 54.3653 78.0165 53.9355C79.8514 53.2971 81.7084 52.6766 83.553 52.0479" fill="#482756"/>
<path d="M95.8802 52.5762C95.4939 52.3204 95.0592 52.0448 94.5726 51.9432C93.9163 51.8068 93.4599 52.0751 93.4776 52.4333C93.4951 52.7922 93.8629 53.2045 94.2712 53.5826C95.3914 54.6194 96.9037 55.5739 98.5624 56.3598C99.0423 56.587 99.5485 56.8054 100.068 56.9306C101.805 57.3482 101.849 56.5307 100.76 55.8012C99.1458 54.72 97.506 53.6505 95.8802 52.5762Z" fill="#482756"/>
<path d="M93.2372 73.1693C92.8559 73.6626 92.0839 73.5387 91.4559 73.4267C90.0226 73.1693 88.5333 73.236 87.1213 73.6173C86.2706 73.852 83.7172 74.7706 83.5492 73.2146C83.4932 72.732 83.8292 72.2626 84.2999 71.848V71.8374C84.9932 71.22 86.0132 70.6934 86.5052 70.4374C87.6706 69.8094 89.0026 69.596 90.3026 69.7987C91.2999 69.9547 92.2732 70.392 92.8666 71.1533C93.0572 71.388 93.2132 71.6573 93.3146 71.96C93.4492 72.352 93.4932 72.8333 93.2372 73.1693Z" fill="#482756"/>
<path d="M92.8665 71.1533C92.8119 71.3093 92.6999 71.4333 92.5532 71.5C92.3519 71.5893 92.1052 71.568 91.8812 71.5453C89.7985 71.344 87.6812 71.568 85.6892 72.2067C85.1052 72.3854 84.2999 72.396 84.2999 71.848V71.8374C84.9932 71.22 86.0065 70.6547 86.4985 70.3973C87.6639 69.7707 89.0159 69.5614 90.3159 69.7627C91.3119 69.9187 92.2732 70.392 92.8665 71.1533" fill="#FDE3EB"/>
<path d="M87.6639 75.3907C88.0892 75.46 88.5212 75.496 88.9519 75.496C89.6519 75.496 90.3532 75.404 91.0305 75.22L91.1532 75.0053L90.9385 74.8827C90.2919 75.0574 89.6212 75.1453 88.9519 75.1453C88.5399 75.1453 88.1279 75.112 87.7212 75.0453L87.5199 75.1893L87.6639 75.3907" fill="#482756"/>
<path d="M24.1893 160.195C18.1039 163.773 14.8239 172.045 16.7626 179.145C19.9039 190.643 22.6519 193.417 26.7732 199.364C30.8959 205.311 47.7746 221.169 64.6546 232.271C81.5346 243.371 89.7772 247.533 89.7772 247.533L102.339 238.416C93.7919 226.929 85.1066 215.383 77.7599 203.077C71.1679 192.037 65.7599 180.696 56.6319 171.473C48.9146 163.679 35.4013 153.599 24.1893 160.195" fill="#F8CF81"/>
<path d="M64.5945 238.768C64.5945 238.768 83.0452 205.195 96.0226 188.611C108.997 172.027 112.445 166.971 122.177 163.532C131.909 160.093 137.789 165.151 142.047 170.611C146.305 176.072 143.776 184.961 140.084 194.587C136.508 203.905 79.1932 248.677 79.1932 248.677L64.5945 238.768" fill="#F8CF81"/>
<path d="M101.577 119.052C101.577 119.052 108.249 121.721 114.729 116.383C114.729 116.383 129.056 159.128 117.208 165.755C105.961 172.045 98.5266 158.892 98.3359 148.599C98.1452 138.305 101.577 119.052 101.577 119.052Z" fill="#A45711"/>
<path d="M100.624 118.765L101.196 97.7014C101.196 97.7014 96.5253 95.7001 95.9533 92.1734C95.3813 88.6467 99.0026 81.8801 98.0493 81.4987C98.0493 81.4987 96.1439 86.5507 94.8092 86.836C93.2706 87.1654 93.1412 84.548 93.1412 84.548C93.1412 84.548 90.8546 82.6414 90.8066 81.3067C90.7786 80.5401 88.8999 79.4494 89.6626 77.1134C89.9999 76.0814 93.9519 70.5374 95.0946 70.6321C96.2386 70.7281 99.4786 73.1107 99.4786 73.1107C99.4786 73.1107 106.915 74.0641 107.2 74.9214C107.485 75.7801 107.676 91.316 107.581 93.8894C107.485 96.4627 115.111 117.527 115.111 117.527C115.111 117.527 108.82 125.056 100.624 118.765" fill="#F9B9C5"/>
<path d="M90.7572 75.2547C90.7572 75.2547 89.2812 72.3961 89.9958 71.4427C90.7105 70.4894 93.5225 71.824 93.5225 71.824L90.7572 75.2547" fill="#F9B9C5"/>
<path d="M100.285 75.7827C100.283 75.7827 99.4826 75.8067 98.6026 75.8907C98.1612 75.932 97.7012 75.9893 97.3066 76.0667C96.9119 76.1467 96.5893 76.236 96.3919 76.3827C95.6773 76.936 95.1893 77.8774 94.7253 78.568C93.5053 80.396 93.2772 82.7973 93.1679 85.0533V85.0574V85.0747C93.1679 85.1667 93.1733 85.6266 93.3226 86.0813C93.4653 86.5293 93.7906 87.0146 94.4146 87.0146L94.6946 86.984C95.4892 86.8067 96.1532 85.8133 96.6706 84.8773C97.1812 83.9373 97.5133 83.04 97.5146 83.036L97.4319 82.856L97.2519 82.9387C97.2506 82.9413 96.9239 83.8253 96.4239 84.744C95.9319 85.6653 95.2372 86.6027 94.6386 86.7107L94.4146 86.7347C93.9599 86.7347 93.7293 86.404 93.5893 85.9934C93.4546 85.5907 93.4466 85.1493 93.4479 85.0747V85.064L93.3079 85.06L93.4466 85.0667C93.5533 82.82 93.7906 80.4667 94.9573 78.724C95.4306 78.0134 95.9186 77.0973 96.5626 76.6053C96.6746 76.5147 96.9839 76.4133 97.3612 76.3413C98.4999 76.116 100.291 76.0627 100.293 76.0627L100.429 75.9187L100.285 75.7827Z" fill="#482756"/>
<path d="M98.1466 73.0186L97.8492 73.004C96.0026 73.0133 93.9012 74.5586 92.7892 76.0786C91.7119 77.5613 91.0226 79.7946 90.7879 81.3773V81.376L90.7692 81.6213C90.7692 81.832 90.8092 82.0373 90.8812 82.2347V82.236C91.1706 82.992 92.1439 84.26 93.0852 84.6773L93.2692 84.604L93.1959 84.42C92.3746 84.0746 91.3852 82.8053 91.1439 82.1386C91.0826 81.968 91.0492 81.796 91.0492 81.6213L91.0639 81.4173C91.2906 79.8773 91.9799 77.6627 93.0159 76.2427C94.0746 74.7773 96.1599 73.2759 97.8492 73.2839L98.1199 73.2973L98.2719 73.172L98.1466 73.0186" fill="#482756"/>
<path d="M100.624 79.3813C99.5813 79.8053 98.6572 80.508 97.9679 81.3973L97.9546 81.5493L98.0879 81.6226C98.9746 81.5653 99.7892 81.484 100.66 81.2653L100.763 81.096L100.592 80.9946C99.7453 81.2066 98.9506 81.2866 98.0692 81.344L98.0786 81.4826L98.1893 81.5693C98.8479 80.72 99.7332 80.0467 100.731 79.64L100.807 79.4573L100.624 79.3813" fill="#482756"/>
<path d="M97.2866 85.2813C97.0052 86.208 96.8692 87.1734 96.8692 88.1387C96.8705 90.6227 97.7692 93.1107 99.4305 94.9681L99.6292 94.98L99.6399 94.7813C98.0265 92.9813 97.1492 90.556 97.1492 88.1387C97.1492 87.2 97.2826 86.2614 97.5546 85.3627L97.4612 85.188L97.2866 85.2813" fill="#482756"/>
<path d="M115.407 117.52L123.127 143.111L123.301 143.204L123.395 143.029L115.675 117.439L115.5 117.345L115.407 117.52Z" fill="#482756"/>
<path d="M100.487 118.741C100.485 118.745 98.5012 129.847 98.5012 141.496C98.5052 150.753 99.7412 160.356 104.288 165.043L104.485 165.045L104.488 164.847C100.045 160.291 98.7759 150.728 98.7812 141.496C98.7812 135.687 99.2759 130.009 99.7719 125.784C100.019 123.672 100.267 121.923 100.452 120.703C100.639 119.481 100.761 118.792 100.761 118.791L100.648 118.628L100.487 118.741" fill="#482756"/>
<path d="M117.401 115.763L117.353 123.768L117.493 123.909L117.633 123.771L117.681 115.764L117.543 115.624L117.401 115.763" fill="#482756"/>
<path d="M99.8373 123.775C102.184 125.509 104.9 126.336 107.781 126.336C108.04 126.336 108.299 126.329 108.56 126.316C111.735 126.155 114.837 124.865 117.191 122.727L117.2 122.529L117.003 122.52C114.699 124.613 111.653 125.879 108.545 126.036C108.289 126.049 108.035 126.056 107.781 126.056C104.953 126.056 102.301 125.247 100.004 123.549L99.8079 123.579L99.8373 123.775" fill="#482756"/>
<path d="M115.804 110.131C116.897 106.764 118.719 103.635 121.105 101.019L121.096 100.821L120.899 100.829C118.485 103.475 116.644 106.639 115.537 110.044L115.628 110.221L115.804 110.131Z" fill="#482756"/>
<path d="M90.9839 156.724L112.921 156.231L113.072 166.123L89.1866 172.665L90.9839 156.724" fill="#F9B9C5"/>
<path d="M112.751 156.157C112.751 156.157 122.551 145.744 124.459 144.764C126.367 143.783 131.625 143.195 132.168 143.575C132.712 143.956 133.483 145.555 133.315 148.265C133.315 148.265 134.283 148.969 134.483 149.897C134.948 152.041 134.561 152.553 134.159 153.341C134.159 153.341 134.72 156.203 133.943 158.361C133.943 158.361 132.851 165.071 131.517 165.195C130.184 165.32 130.361 159.703 130.361 159.703L127.871 159.619C127.871 159.619 122.471 165.757 118.685 166.481C114.901 167.207 112.681 166.16 112.681 166.16L112.751 156.157" fill="#F9B9C5"/>
<path d="M126.221 155.868C126.223 155.868 126.812 155.679 127.54 155.489C128.265 155.3 129.135 155.112 129.647 155.113C130.14 155.111 131.029 155.379 131.845 155.921C132.664 156.464 133.415 157.273 133.705 158.343L133.921 158.467L134.045 158.251C133.725 157.073 132.909 156.203 132.04 155.627C131.168 155.052 130.249 154.763 129.647 154.76C128.489 154.765 126.124 155.531 126.113 155.532L125.999 155.753L126.221 155.868" fill="#482756"/>
<path d="M125.724 152.561C125.725 152.561 126.304 152.313 127.101 152.064C127.896 151.815 128.908 151.568 129.74 151.569C129.929 151.569 130.108 151.581 130.272 151.608C132.024 151.9 132.825 152.144 134.028 153.46L134.277 153.472L134.289 153.223C133.055 151.849 132.084 151.54 130.329 151.26C130.141 151.229 129.944 151.216 129.74 151.216C127.948 151.22 125.597 152.235 125.585 152.237L125.493 152.468L125.724 152.561Z" fill="#482756"/>
<path d="M124.732 148.983C124.733 148.983 125.343 148.683 126.159 148.355C126.973 148.027 127.995 147.673 128.788 147.571C128.932 147.552 129.091 147.543 129.257 147.543C130.068 147.541 131.087 147.751 131.896 147.963C132.705 148.173 133.304 148.384 133.305 148.384L133.531 148.276L133.421 148.051C133.412 148.049 130.988 147.192 129.257 147.189C129.077 147.189 128.905 147.199 128.741 147.22C127.045 147.445 124.585 148.664 124.576 148.667L124.496 148.903L124.732 148.983" fill="#482756"/>
<path d="M90.1159 247.132C93.8292 252.089 98.0119 256.696 102.589 260.871C104.737 262.829 107.061 264.743 109.851 265.561C113.648 266.677 117.705 265.615 121.519 264.553C123.611 263.972 126.056 263.031 126.501 260.907C126.928 258.865 125.219 257.055 123.637 255.696C116.609 249.665 109.087 244.212 101.165 239.412L101.067 238.943C97.4079 241.773 93.7759 244.301 90.1159 247.132" fill="#3D3F37"/>
<path d="M65.3013 239.212C57.4133 244.913 49.5253 250.615 41.6373 256.316C40.2519 257.317 38.6959 258.747 39.0972 260.407C39.4626 261.913 41.2079 262.555 42.7066 262.953C47.1639 264.14 51.6226 265.329 56.0799 266.516C57.4066 266.869 58.7946 267.225 60.1373 266.936C61.4933 266.643 62.6213 265.729 63.6759 264.827C69.3279 259.988 74.5386 254.635 79.2239 248.855C74.6946 245.617 69.8306 242.448 65.3013 239.212" fill="#2A3534"/>
<path d="M83.0866 209.931L83.0265 209.916L82.9586 209.732C83.0052 209.632 87.6185 199.699 94.4105 190.453L94.6065 190.424L94.6359 190.62C87.8612 199.841 83.2585 209.749 83.2119 209.848L83.0866 209.931" fill="#482756"/>
<path d="M97.8532 233.345L97.7439 233.293L97.7652 233.096C111.837 221.851 124.095 208.584 134.2 193.665L134.393 193.628L134.431 193.823C124.313 208.764 112.035 222.052 97.9399 233.315L97.8532 233.345" fill="#482756"/>
<path d="M129.427 200.58L129.301 200.501L129.367 200.315C131.279 199.383 132.987 198.125 134.443 196.579L134.641 196.573L134.647 196.771C133.168 198.343 131.432 199.62 129.488 200.565L129.427 200.58" fill="#482756"/>
<path d="M136.427 198.159C134.992 203.232 133.313 208.272 131.431 213.211L131.42 213.232C131.095 213.837 130.76 214.453 130.412 215.069C132.607 209.515 134.533 203.825 136.156 198.08C136.548 196.703 136.964 194.249 135.384 193.399C133.571 192.413 131.609 194.753 130.848 195.795C121.149 209.212 109.637 221.217 96.6559 231.476L96.6119 231.509L96.5225 231.532L96.4225 231.488L96.4439 231.285L96.4999 231.241C109.457 221.005 120.937 209.011 130.624 195.639C131.431 194.529 133.515 192.065 135.508 193.152C137.265 194.104 136.84 196.703 136.427 198.159Z" fill="#482756"/>
<path d="M90.1159 247.272L90.0652 247.263C71.1732 240.072 29.2706 200.001 28.8506 199.597L28.8466 199.4L29.0439 199.395C29.4652 199.799 71.3252 239.829 90.1665 247L90.2479 247.181L90.1159 247.272" fill="#482756"/>
<path d="M101.065 239.083L100.947 239.016C85.0573 212.836 61.4746 177.056 61.2372 176.697L61.2773 176.504L61.4719 176.544C61.7066 176.901 85.2946 212.687 101.185 238.869L101.139 239.063L101.065 239.083" fill="#482756"/>
<path d="M65.2999 239.352L65.2106 239.319L65.1932 239.121L69.2546 234.291L69.4506 234.275L69.4692 234.472L65.4079 239.303L65.2999 239.352" fill="#482756"/>
<path d="M35.7666 205.957L35.7359 205.955C33.4679 205.447 31.3572 204.221 29.7946 202.499L29.8052 202.301L30.0026 202.311C31.5266 203.989 33.5839 205.187 35.7972 205.681L35.9039 205.848L35.7666 205.957" fill="#482756"/>
<path d="M78.0359 247.573L77.9319 247.529L77.9399 247.332L82.3732 243.191L82.5719 243.196L82.5639 243.395L78.1306 247.536L78.0359 247.573" fill="#482756"/>
<path d="M91.2692 245.587L91.1479 245.667L91.0799 245.643C87.1599 243.74 83.4533 241.399 79.8586 238.945C78.1666 237.793 76.4973 236.616 74.8519 235.441C59.5653 224.633 43.7626 213.445 31.0506 199.189L31.0186 199.155C30.4133 198.472 29.7746 197.755 28.9692 197.34C28.2292 196.96 27.1532 196.825 26.4266 197.408C25.3066 198.293 25.6532 200.107 26.1466 201.473C26.9639 203.736 27.9039 205.964 28.9573 208.137C28.2853 206.916 27.6359 205.719 27.0319 204.541C26.6279 203.556 26.2466 202.56 25.8879 201.563C25.1386 199.48 25.2612 197.968 26.2466 197.184C27.0759 196.535 28.2732 196.668 29.1026 197.095C29.9532 197.531 30.6026 198.259 31.2306 198.965L31.2639 199.009C43.9532 213.232 59.7439 224.409 75.0199 235.217C76.7773 236.46 78.5586 237.725 80.3732 238.945C83.8452 241.309 87.4279 243.56 91.2039 245.397L91.2692 245.587" fill="#482756"/>
<path d="M95.9612 25.896C98.9372 24.1947 100.992 21.0173 101.324 17.6053C101.355 17.28 101.371 16.952 101.371 16.6253C101.369 13.5347 99.9919 10.468 97.6413 8.44401C96.5706 7.52401 95.2573 6.78268 93.7919 6.64935C93.6519 6.63601 93.5119 6.62936 93.3719 6.62936C92.0279 6.63203 90.6452 7.20136 89.8679 8.35736C89.4746 8.94536 89.2986 9.61468 89.2999 10.28C89.3092 12.02 90.4426 13.7627 92.0706 14.5214C92.8999 14.904 93.7866 15.064 94.6746 15.064C96.1453 15.0627 97.6252 14.6267 98.9346 14.0027V14.004C100.281 13.3574 101.507 12.556 102.836 12.268C103.124 12.2054 103.427 12.172 103.729 12.172C104.801 12.172 105.817 12.5814 106.279 13.4014C106.471 13.7387 106.553 14.0813 106.555 14.4387C106.575 15.7293 105.343 17.2466 103.989 18.012C102.388 18.9306 100.529 19.4213 98.6839 19.42C97.3786 19.42 96.0786 19.176 94.8813 18.668C91.9946 17.448 89.7693 14.6373 89.4199 11.5387C89.3879 11.256 89.3719 10.9693 89.3719 10.6827C89.3693 7.85335 90.9346 5.00668 93.4119 3.68001C94.3373 3.18268 95.4173 2.92132 96.4813 2.92266C98.1066 2.92266 99.6733 3.52398 100.643 4.74798C101.592 5.93331 101.96 7.62001 102.415 9.27467C102.873 10.9187 103.44 12.572 104.977 13.5453C105.652 13.9706 106.425 14.1627 107.199 14.1627C108.508 14.16 109.827 13.6174 110.748 12.6627C111.833 11.5307 112.339 9.97737 112.339 8.43737C112.339 7.92404 112.283 7.41068 112.172 6.91335C111.693 4.77068 110.305 3.03868 108.516 1.84935C106.725 0.660014 104.527 0.00133198 102.365 -1.35323e-06C102.233 -1.35323e-06 102.1 0.00267313 101.967 0.00800646C97.5546 0.180006 93.5852 2.548 90.2319 5.26667C88.9786 6.28667 87.6786 7.46002 87.0866 9.08535C86.8719 9.67468 86.7733 10.288 86.7733 10.8987C86.7773 12.8174 87.7319 14.7134 89.1679 15.996C91.0519 17.672 93.5639 18.388 95.9986 18.6347C96.5972 18.6947 97.2026 18.728 97.8106 18.728C100.284 18.7267 102.792 18.1893 104.843 16.7533C106.895 15.3133 108.316 12.8773 108.321 10.3893C108.321 9.76265 108.229 9.13466 108.032 8.52266C107.143 5.79599 104.371 3.99336 101.549 3.89336L101.329 3.89069C98.6639 3.89469 95.8959 5.48403 95.1573 8.12669C95.0599 8.48403 95.0133 8.84934 95.0133 9.21334C95.0159 10.3747 95.4746 11.5187 96.2173 12.3867C96.9586 13.2533 98.0039 13.856 99.1813 13.8574C99.3119 13.8574 99.4439 13.8494 99.5759 13.8347C101.047 13.6587 102.228 12.7134 103.345 11.8734C104.463 11.0187 105.508 10.284 106.565 10.2934C106.757 10.2934 106.953 10.316 107.156 10.3667C107.749 10.512 108.211 10.888 108.539 11.4107C108.865 11.9333 109.044 12.6 109.044 13.2667C109.044 13.836 108.915 14.4013 108.655 14.88C107.764 16.5413 105.803 17.4654 103.836 17.8934C102.708 18.1414 101.551 18.264 100.395 18.264C98.0612 18.264 95.7253 17.7653 93.6079 16.792C92.6079 16.3387 91.5346 15.7067 90.2773 15.7L90.1652 15.7027C89.5492 15.724 88.9506 15.972 88.4853 16.36C88.0239 16.748 87.6799 17.296 87.6786 17.932C87.6786 18.0814 87.6973 18.2334 87.7399 18.3854C87.8733 18.8774 88.1946 19.248 88.5573 19.5227C88.9213 19.7987 89.3359 19.9933 89.7226 20.1493C91.9159 21.028 94.2719 21.4627 96.6279 21.4627C99.5626 21.4627 102.497 20.7894 105.117 19.452C109.839 17.0387 113.423 12.5347 114.709 7.39069C114.761 7.18402 114.636 6.97332 114.428 6.92266C114.221 6.87066 114.012 6.99604 113.96 7.20404C112.732 12.1227 109.281 16.4587 104.765 18.7627C102.261 20.0414 99.4439 20.6907 96.6279 20.6907C94.3666 20.6907 92.1066 20.272 90.0106 19.432H90.0119C89.6559 19.2894 89.2986 19.116 89.0239 18.9067C88.7479 18.696 88.5613 18.4626 88.4853 18.1813L88.4506 17.932C88.4493 17.5934 88.6453 17.236 88.9826 16.9533C89.3146 16.6707 89.7733 16.4867 90.1893 16.4747L90.2773 16.4734C91.2546 16.4667 92.2439 17.0094 93.2853 17.4934C95.5079 18.516 97.9506 19.0374 100.395 19.0374C101.605 19.0374 102.817 18.908 104.003 18.6493C106.069 18.192 108.257 17.2213 109.335 15.2493V15.248C109.663 14.6413 109.816 13.9507 109.816 13.2667C109.816 12.464 109.607 11.6654 109.195 11.0014C108.783 10.3414 108.152 9.81335 107.34 9.61601C107.077 9.55068 106.819 9.52135 106.565 9.52135C105.148 9.53069 103.999 10.416 102.879 11.2574C101.757 12.112 100.66 12.9387 99.4866 13.0667L99.1813 13.084C98.2786 13.0853 97.4333 12.6173 96.8039 11.884C96.1759 11.1533 95.7853 10.168 95.7866 9.21334C95.7866 8.91334 95.8239 8.61736 95.9026 8.33203C96.4946 6.1227 98.9532 4.65869 101.329 4.66269L101.524 4.66536C104.041 4.7467 106.545 6.40132 107.296 8.75866C107.468 9.29066 107.548 9.83865 107.548 10.3893C107.553 12.5747 106.259 14.824 104.4 16.12C102.521 17.4373 100.176 17.956 97.8106 17.9547C97.2306 17.9547 96.6506 17.924 96.0759 17.8654C93.7333 17.6307 91.3839 16.9387 89.6813 15.42C88.3973 14.2787 87.5426 12.556 87.5466 10.8987C87.5466 10.3707 87.6306 9.84935 87.8119 9.34935L87.8133 9.34798C88.3106 7.96265 89.4853 6.86533 90.7186 5.86667C94.0133 3.192 97.8532 0.934678 101.997 0.780012C102.12 0.774678 102.243 0.772004 102.365 0.772004C104.369 0.772004 106.432 1.39202 108.088 2.49336C109.747 3.59602 110.991 5.16931 111.417 7.08131C111.516 7.52265 111.567 7.98137 111.567 8.43737C111.567 9.81204 111.111 11.1707 110.191 12.1267C109.429 12.9214 108.292 13.392 107.199 13.3893C106.553 13.3893 105.927 13.2294 105.388 12.8907C104.137 12.1107 103.609 10.6987 103.16 9.06803C102.705 7.4507 102.348 5.65867 101.248 4.26667C100.096 2.82 98.2906 2.14935 96.4813 2.14935C95.2933 2.14935 94.0933 2.43736 93.0466 2.9987C90.2879 4.48803 88.6026 7.57601 88.5999 10.6827C88.5999 10.9987 88.6173 11.3134 88.6533 11.6267C89.0453 15.0334 91.4413 18.0453 94.5799 19.38C95.8799 19.9307 97.2813 20.1934 98.6839 20.1934C100.665 20.1934 102.652 19.6707 104.373 18.6827C105.888 17.8 107.307 16.188 107.327 14.4387C107.328 13.9587 107.211 13.472 106.951 13.0173C106.287 11.8693 104.977 11.3987 103.729 11.3987C103.371 11.3987 103.013 11.4373 102.671 11.5133C101.155 11.8493 99.8852 12.6987 98.6026 13.3053C97.3706 13.8933 95.9906 14.292 94.6746 14.292C93.8786 14.292 93.1079 14.148 92.3932 13.82C91.0546 13.2133 90.0626 11.6733 90.0719 10.28C90.0733 9.74668 90.2093 9.23865 90.5106 8.78665C91.0999 7.89599 92.2399 7.40133 93.3719 7.40267L93.7213 7.41868C94.9639 7.52935 96.1479 8.17736 97.1373 9.02936C99.3093 10.896 100.6 13.764 100.597 16.6253C100.597 16.928 100.584 17.2307 100.555 17.532C100.253 20.6827 98.3279 23.6587 95.5786 25.2253C95.3933 25.3307 95.3279 25.5667 95.4346 25.752C95.5399 25.9374 95.7759 26.0014 95.9612 25.896" fill="#482756"/>
</svg>
