<svg class="animated" id="freepik_stories-file-searching" xmlns="http://www.w3.org/2000/svg" viewBox="0 0 750 500" version="1.1"><style>@keyframes fadeIn{0%{opacity:0}to{opacity:1}}@keyframes slideLeft{0%{opacity:0;transform:translateX(-30px)}to{opacity:1;transform:translateX(0)}}@keyframes zoomOut{0%{opacity:0;transform:scale(1.5)}to{opacity:1;transform:scale(1)}}@keyframes zoomIn{0%{opacity:0;transform:scale(.5)}to{opacity:1;transform:scale(1)}}@keyframes lightSpeedRight{60%{transform:skewX(10deg);opacity:1}80%{transform:skewX(-2deg)}}@keyframes lightSpeedLeft{60%{transform:skewX(-10deg);opacity:1}80%{transform:skewX(2deg)}}@keyframes wind{0%{transform:rotate(0deg)}25%{transform:rotate(1deg)}75%{transform:rotate(-1deg)}}@keyframes shake{10%,90%{transform:translate3d(-1px,0,0)}20%,80%{transform:translate3d(2px,0,0)}30%,50%,70%{transform:translate3d(-4px,0,0)}40%,60%{transform:translate3d(4px,0,0)}}svg#freepik_stories-file-searching:not(.animated) .animable{opacity:0}</style><g id="freepik--background-complete--inject-19" class="animable" style="transform-origin:376.425px 209.52px;animation:1s 1 forwards cubic-bezier(.36,-.01,.5,1.38) fadeIn;animation-delay:0s"><path d="M652.37 304.22l-13.12.28-6.66.11c-2.23.05-4.47 0-6.7.06h-.44v-.45l-.06-11.22v-.5h.5l13.24.06c4.42 0 8.83.11 13.24.16h.28v.28c0 1.9-.08 3.79-.13 5.66zm0 0l-.14-5.65c-.05-1.86-.11-3.7-.13-5.54l.27.28c-4.41.05-8.82.16-13.24.16l-13.24.06.5-.5v11.19l-.45-.44c2.18 0 4.36 0 6.55.05l6.51.17z" style="transform-origin:639.02px 298.585px" id="elq58iuxt9lz" class="animable" fill="#ebebeb"/><path d="M637.6 318.33l-13.12.28-6.67.11c-2.22 0-4.46 0-6.69.06h-.44V306.64h.5l13.24.07c4.41 0 8.83.11 13.24.16h.28v.27c0 1.9-.08 3.79-.13 5.66zm0 0l-.14-5.65c-.05-1.86-.11-3.7-.13-5.54l.27.28c-4.41.05-8.83.16-13.24.16l-13.24.06.5-.5v11.19l-.45-.44c2.18 0 4.36 0 6.55.05l6.57.12z" style="transform-origin:624.31px 312.71px" id="elhkau94pzk8" class="animable" fill="#ebebeb"/><path d="M667.14 318.33l-13.12.28-6.66.11c-2.23 0-4.47 0-6.7.06h-.44v-.45l-.06-11.19v-.5h.5l13.24.07c4.42 0 8.83.11 13.24.16h.28v.27c0 1.9-.09 3.79-.13 5.66zm0 0l-.14-5.65c0-1.86-.11-3.7-.13-5.54l.27.28c-4.41.05-8.82.16-13.24.16l-13.24.06.5-.5v11.19l-.45-.44c2.19 0 4.36 0 6.55.05l6.58.12z" style="transform-origin:653.79px 312.71px" id="el5l9ss63qi6r" class="animable" fill="#ebebeb"/><path d="M354.79 171.07l-13.12.28-6.66.11H327.87v-.45l-.06-11.19v-.5h.5l13.24.06c4.42 0 8.83.11 13.24.16h.28v.27c0 1.9-.09 3.78-.14 5.65zm0 0l-.14-5.66c0-1.86-.11-3.7-.13-5.53l.27.27c-4.41 0-8.82.16-13.24.16l-13.24.07.5-.5-.05 11.19-.45-.45c2.18 0 4.36 0 6.55.06l6.58.11z" style="transform-origin:341.44px 165.39px" id="elb1lfe5iph5l" class="animable" fill="#ebebeb"/><path d="M340 185.18l-13.12.28-6.67.11c-2.22 0-4.46 0-6.69.05h-.44v-.45L313 174v-.5h.5l13.24.06c4.41 0 8.83.11 13.24.16h.28v.28c0 1.9-.08 3.78-.13 5.65zm0 0l-.14-5.66c-.05-1.86-.11-3.7-.13-5.53l.27.27c-4.41.05-8.83.16-13.24.16l-13.24.07.5-.5-.02 11.19-.45-.45c2.18 0 4.36 0 6.55.06l6.57.11z" style="transform-origin:326.63px 179.56px" id="elpyiorz20znj" class="animable" fill="#ebebeb"/><path d="M369.56 185.18l-13.12.28-6.66.11c-2.23 0-4.46 0-6.7.05h-.44v-.45l-.06-11.17v-.5h.5l13.24.06c4.42 0 8.83.11 13.24.16h.28v.28c0 1.9-.09 3.78-.13 5.65zm0 0l-.14-5.66c0-1.86-.11-3.7-.13-5.53l.27.27c-4.41.05-8.82.16-13.24.16l-13.24.07.5-.5-.05 11.19-.45-.45c2.19 0 4.36 0 6.55.06l6.58.11z" style="transform-origin:356.21px 179.56px" id="elkt5lcaanft" class="animable" fill="#ebebeb"/><path d="M138.88 245.11l-13.12.28-6.67.11c-2.22 0-4.46 0-6.69.05h-.4V233.41h.5l13.24.06c4.41 0 8.83.11 13.24.16h.28v.27c0 1.9-.08 3.78-.13 5.65zm0 0l-.14-5.66c-.05-1.86-.11-3.7-.13-5.53l.27.27c-4.41.05-8.83.16-13.24.16l-13.24.07.5-.5-.05 11.19-.45-.45c2.18 0 4.36 0 6.55.06l6.57.11z" style="transform-origin:125.63px 239.48px" id="elvdsq1qtzhd" class="animable" fill="#ebebeb"/><path d="M537.86 171.06l-13.12.28-6.66.11c-2.23.05-4.47 0-6.7.05h-.44v-.45l-.06-11.19v-.5h.5l13.24.06c4.42 0 8.83.12 13.24.17h.28v.27c0 1.9-.08 3.79-.13 5.65zm0 0l-.14-5.65c-.05-1.87-.11-3.71-.13-5.54l.27.27c-4.41.05-8.82.16-13.24.17l-13.24.06.5-.5-.05 11.19-.45-.45c2.18 0 4.36 0 6.55.06l6.58.11z" style="transform-origin:524.51px 165.43px" id="elsszywstzzem" class="animable" fill="#ebebeb"/><path d="M650.84 62.38l-13.12.28-6.67.11c-2.22 0-4.46 0-6.69.06h-.44V50.69h.5l13.24.06c4.41 0 8.83.12 13.24.17h.28v.27c0 1.9-.08 3.79-.13 5.65zm0 0l-.14-5.65c-.05-1.87-.11-3.71-.13-5.54l.27.27c-4.41 0-8.83.16-13.24.17l-13.24.06.5-.5-.05 11.19-.45-.45c2.18 0 4.36 0 6.55.06l6.57.11z" style="transform-origin:637.55px 56.76px" id="eleajh7mfezyr" class="animable" fill="#ebebeb"/><path d="M665.61 76.49l-13.12.28-6.66.11c-2.23.05-4.47 0-6.7.05h-.44v-.45l-.06-11.19v-.5h.5l13.24.06c4.42 0 8.83.12 13.24.17h.28v.27c0 1.9-.09 3.79-.14 5.65zm0 0l-.14-5.65c0-1.87-.11-3.71-.13-5.54l.27.27c-4.41.05-8.82.16-13.24.17l-13.24.06.5-.5v11.19l-.45-.45c2.18 0 4.36 0 6.55.06l6.58.11z" style="transform-origin:652.26px 70.86px" id="el42useiwq08b" class="animable" fill="#ebebeb"/><path d="M109.34 62.39l-13.13.28-6.66.11c-2.22 0-4.46 0-6.69.06h-.45V50.7h.51l13.24.07c4.41 0 8.82.11 13.24.16h.27v.27c0 1.9-.09 3.79-.13 5.66zm0 0l-.15-5.65c0-1.87-.11-3.71-.13-5.54l.28.27c-4.42.06-8.83.16-13.24.17l-13.24.06.5-.5-.06 11.19-.44-.39h6.54l6.58.11z" style="transform-origin:96.04px 56.77px" id="elj3mqbvml5me" class="animable" fill="#ebebeb"/><path d="M637 101.49a2.94 2.94 0 0 1-.42 3.06c-.19.24-.37.48-.55.73s-.35.51-.52.76a2.92 2.92 0 0 1-2.75 1.38l-3.79-.37-1.21 12.33 3.78.37a3 3 0 0 1 2.45 1.89 14.9 14.9 0 0 0 .76 1.68 3 3 0 0 1-.2 3.08l-2.21 3.08 10.07 7.22 2.21-3.08a3 3 0 0 1 2.85-1.18c.61.09 1.22.15 1.84.18a2.92 2.92 0 0 1 2.57 1.71l1.57 3.46 11.29-5.12-1.58-3.48a2.94 2.94 0 0 1 .42-3c.19-.23.38-.48.55-.72s.35-.5.52-.76a2.94 2.94 0 0 1 2.76-1.38l3.79.38 1.22-12.34-3.78-.37a3 3 0 0 1-2.45-1.88 17.09 17.09 0 0 0-.76-1.69 2.93 2.93 0 0 1 .2-3.08l2.21-3.08L657.71 94l-2.21 3.08a2.93 2.93 0 0 1-2.85 1.18c-.61-.09-1.23-.15-1.85-.18a3 3 0 0 1-2.57-1.71l-1.56-3.46L635.38 98zm19 5.6a10.16 10.16 0 1 1-14.17 2.35 10.17 10.17 0 0 1 14.17-2.35z" style="transform-origin:650.09px 115.35px" id="eluaj54e11xf" class="animable" fill="#ebebeb"/><path d="M95.48 194.35a2.07 2.07 0 0 1-1.92 1h-1.28a2.05 2.05 0 0 1-1.91-1L89 192l-7.52 4.34 1.33 2.31a2.05 2.05 0 0 1-.08 2.16 12.43 12.43 0 0 0-.64 1.12 2.07 2.07 0 0 1-1.84 1.14h-2.62v8.69h2.66a2.07 2.07 0 0 1 1.84 1.14 12.43 12.43 0 0 0 .64 1.12 2.05 2.05 0 0 1 .08 2.16l-1.33 2.31 7.48 4.38 1.34-2.32a2 2 0 0 1 1.9-1h1.28a2.08 2.08 0 0 1 1.92 1l1.33 2.31 7.52-4.34-1.33-2.3a2.09 2.09 0 0 1 .07-2.17 11.27 11.27 0 0 0 .65-1.12 2.07 2.07 0 0 1 1.84-1.14h2.65v-8.69h-2.65a2.07 2.07 0 0 1-1.84-1.14 11.27 11.27 0 0 0-.65-1.12 2.09 2.09 0 0 1-.07-2.17l1.33-2.3-7.48-4.37zm4.56 13.1a7.11 7.11 0 1 1-7.12-7.11 7.12 7.12 0 0 1 7.08 7.11z" style="transform-origin:92.9px 207.435px" id="elvd07t8yluhh" class="animable" fill="#ebebeb"/><path d="M610.94 63.19a2.05 2.05 0 0 1-2 .76l-.63-.1-.64-.07a2 2 0 0 1-1.76-1.24l-1-2.46-8 3.33 1 2.46a2.07 2.07 0 0 1-.41 2.13 11.43 11.43 0 0 0-.78 1 2.08 2.08 0 0 1-2 .9l-2.63-.35-1.09 8.64 2.63.35a2.06 2.06 0 0 1 1.67 1.36 12.63 12.63 0 0 0 .5 1.2 2.06 2.06 0 0 1-.2 2.15l-1.6 2.12 6.9 5.27 1.62-2.12a2.06 2.06 0 0 1 2-.75l.64.1.63.06a2.07 2.07 0 0 1 1.77 1.25l1 2.47 8-3.34-1-2.45a2.07 2.07 0 0 1 .35-2.14 11.67 11.67 0 0 0 .79-1 2.06 2.06 0 0 1 2-.89l2.64.34 1.12-8.61-2.63-.34a2.07 2.07 0 0 1-1.68-1.37 10.47 10.47 0 0 0-.5-1.2 2.1 2.1 0 0 1 .21-2.16l1.62-2.11-6.9-5.27zm2.83 13.59a7.11 7.11 0 1 1-6.13-8 7.11 7.11 0 0 1 6.13 8z" style="transform-origin:606.73px 75.865px" id="elr4fk8h5s83m" class="animable" fill="#ebebeb"/><path style="transform-origin:587.865px 291.245px" id="eld6kwykmau" class="animable" fill="#ebebeb" d="M538.97 200.31h97.79v181.87h-97.79z"/><path style="transform-origin:587.86px 197.8px" id="el3pyo4fnyyfe" class="animable" fill="#dbdbdb" d="M534.23 195.29h107.26v5.02H534.23z"/><path style="transform-origin:658.355px 197.8px" id="elfwgqfije9o" class="animable" fill="#ebebeb" d="M641.49 195.29h33.73v5.02h-33.73z"/><path style="transform-origin:653.315px 291.245px" id="el19mq6dynfb" class="animable" fill="#dbdbdb" d="M636.75 200.31h33.13v181.87h-33.13z"/><path d="M626.23 317.43h-76.74v-43.38h76.74zm-76.49-.25H626V274.3h-76.26z" style="transform-origin:587.86px 295.74px" id="ell0dxf1el73" class="animable" fill="#c7c7c7"/><path style="transform-origin:584.62px 291.025px" id="el6nym3jjqt2m" class="animable" fill="#c7c7c7" d="M577.15 286.73h14.94v8.59h-14.94z"/><path d="M596.63 294.8h-15.19v-7.55h15.19zm-14.94-.25h14.69v-7.05h-14.69z" style="transform-origin:589.035px 291.025px" id="elge5z8273i4i" class="animable" fill="#c7c7c7"/><path d="M626.23 371.91h-76.74v-43.38h76.74zm-76.49-.25H626v-42.88h-76.26z" style="transform-origin:587.86px 350.22px" id="el8qd36z5rdm7" class="animable" fill="#c7c7c7"/><path style="transform-origin:584.62px 345.505px" id="elelyh8qrh3ve" class="animable" fill="#c7c7c7" d="M577.15 341.21h14.94v8.59h-14.94z"/><path d="M596.63 349.28h-15.19v-7.54h15.19zm-14.94-.28h14.69v-7h-14.69z" style="transform-origin:589.035px 345.51px" id="el6vu9cvhpyo7" class="animable" fill="#c7c7c7"/><path style="transform-origin:587.865px 241.26px" id="elbxngu56f93i" class="animable" fill="#a6a6a6" d="M549.62 219.7h76.49v43.12h-76.49z"/><path style="transform-origin:589.545px 229.765px" id="elwrg2jg8qhfs" class="animable" fill="#c7c7c7" d="M560.43 208.66h58.23v42.21h-58.23z"/><path style="transform-origin:571.305px 206.47px" id="elltna8dmx9b" class="animable" fill="#c7c7c7" d="M581 204.28h-20.57v4.38h21.75l-1.18-4.38z"/><path style="transform-origin:587.14px 231.51px" id="elrvcek5083h" class="animable" fill="#a6a6a6" d="M618.5 250.86h-58.23l-4.49-38.7h58.23l4.49 38.7z"/><path style="transform-origin:566.43px 210.155px" id="el75la0k6jzfi" class="animable" fill="#a6a6a6" d="M575.89 208.15h-20.57l.46 4.01h21.76l-1.65-4.01z"/><path style="transform-origin:551.015px 241.26px" id="el6spf1pc1a49" class="animable" fill="#ebebeb" d="M512.77 219.7h76.49v43.12h-76.49z"/><path d="M589.38 263h-76.74v-43.43h76.74zm-76.49-.25h76.24v-42.93h-76.24z" style="transform-origin:551.01px 241.285px" id="ely07lnk1totc" class="animable" fill="#c7c7c7"/><path style="transform-origin:547.77px 236.545px" id="elr3a0e4qrqeq" class="animable" fill="#c7c7c7" d="M540.3 232.25h14.94v8.59H540.3z"/><path d="M559.78 240.31h-15.19v-7.54h15.19zm-14.94-.25h14.69v-7h-14.69z" style="transform-origin:552.185px 236.54px" id="elnucgse3a6o" class="animable" fill="#c7c7c7"/><path style="transform-origin:607.77px 244.49px" id="el79y5yw03zqn" class="animable" fill="#dbdbdb" d="M589.44 226.16h36.66v36.66h-36.66z"/><circle cx="375" cy="91.65" r="41.34" style="transform-origin:375px 91.65px" class="animable" fill="#ebebeb" transform="rotate(-80.57)" id="el5kr7srcq0zr"/><circle cx="376.89" cy="92.57" r="39.44" style="transform-origin:376.89px 92.57px" class="animable" fill="#dbdbdb" transform="rotate(-42.19)" id="el1x8309syc8a"/><circle cx="376.89" cy="92.57" r="36.95" style="transform-origin:376.89px 92.57px" class="animable" fill="#fff" transform="rotate(-13.73)" id="elgqhyk8w6jv5"/><path d="M413 84.72c-16.83 10.2-44.48 26.93-59.94 36.09A37 37 0 0 1 343 107.24l51.12-47.39A37.05 37.05 0 0 1 413 84.72z" style="transform-origin:378px 90.33px" class="animable" fill="#ebebeb" opacity=".5" id="eluu2srb7w79d"/><path d="M413.82 93.86a36.75 36.75 0 0 1-2.44 12l-46.09 21.8a37.1 37.1 0 0 1-5.82-2.5c13.92-8.05 39.36-22.68 54.35-31.3z" style="transform-origin:386.645px 110.76px" class="animable" fill="#ebebeb" opacity=".5" id="el0ytr1fxz1to"/><path style="transform-origin:376.895px 61.1px" id="elmof2a2bdd9" class="animable" fill="#c7c7c7" d="M376.54 58.3h.71v5.6h-.71z"/><path style="transform-origin:361.155px 65.31px" class="animable" fill="#c7c7c7" transform="rotate(-30)" d="M360.8 62.51h.71v5.6h-.71z" id="el12jank0u3cl"/><path style="transform-origin:349.635px 76.83px" class="animable" fill="#c7c7c7" transform="rotate(-60.114)" d="M349.28 74.03h.71v5.6h-.71z" id="el4rs9t4nxanv"/><path style="transform-origin:345.42px 92.565px" id="el59f5on6ezie" class="animable" fill="#c7c7c7" d="M342.62 92.21h5.6v.71h-5.6z"/><path style="transform-origin:349.64px 108.295px" class="animable" fill="#c7c7c7" transform="rotate(-30.01)" d="M346.84 107.94h5.6v.71h-5.6z" id="elkoioswxisb"/><path style="transform-origin:361.16px 119.815px" class="animable" fill="#c7c7c7" transform="rotate(-60.04)" d="M358.36 119.46h5.6v.71h-5.6z" id="elfho7c1haks"/><path style="transform-origin:376.895px 124.04px" id="el2l5gqzk0t9t" class="animable" fill="#c7c7c7" d="M376.54 121.24h.71v5.6h-.71z"/><path style="transform-origin:392.625px 119.82px" class="animable" fill="#c7c7c7" transform="rotate(-30)" d="M392.27 117.02h.71v5.6h-.71z" id="el2yvc3it5t3y"/><path style="transform-origin:404.145px 108.3px" class="animable" fill="#c7c7c7" transform="rotate(-60)" d="M403.79 105.5h.71v5.6h-.71z" id="el2si64k8lhn"/><path style="transform-origin:408.36px 92.565px" id="elb5h2i4paxyf" class="animable" fill="#c7c7c7" d="M405.56 92.21h5.6v.71h-5.6z"/><path style="transform-origin:404.15px 76.825px" class="animable" fill="#c7c7c7" transform="rotate(-30.01)" d="M401.35 76.47h5.6v.71h-5.6z" id="elvq930dktyed"/><path style="transform-origin:392.63px 65.315px" class="animable" fill="#c7c7c7" transform="rotate(-60.02)" d="M389.83 64.96h5.6v.71h-5.6z" id="eljddg7916jvh"/><path style="transform-origin:376.895px 77.94px" id="el2sw1rqsgvxe" class="animable" fill="#c7c7c7" d="M377.43 60.83l1.22 34.23-3.51-.04 1.34-34.2.95.01z"/><path style="transform-origin:386.4px 87.56px" id="elidmg7ntcqzg" class="animable" fill="#a6a6a6" d="M398.75 80.63l-23.03 14.7-1.67-3.08 24.25-12.46.45.84z"/><path d="M378.09 92.57a1.2 1.2 0 1 1-1.2-1.2 1.19 1.19 0 0 1 1.2 1.2z" style="transform-origin:376.89px 92.57px" id="elpgn7ftj5kko" class="animable" fill="#c7c7c7"/></g><g id="freepik--Floor--inject-19" class="animable" style="transform-origin:373px 382.18px;animation:1s 1 forwards cubic-bezier(.36,-.01,.5,1.38) slideLeft;animation-delay:0s"><path style="transform-origin:373px 382.18px" id="el25htx6cytxb" class="animable" fill="#263238" d="M68.96 382.18l76.01-.24 76.01-.09 152.02-.17 152.02.17 76.01.09 76.01.24-76.01.25-76.01.08-152.02.17-152.02-.17-76.01-.09-76.01-.24z"/></g><g id="freepik--Shadow--inject-19" class="animable" style="transform-origin:375px 425.29px;animation:1s 1 forwards cubic-bezier(.36,-.01,.5,1.38) zoomOut;animation-delay:0s"><ellipse cx="375" cy="425.29" rx="294.39" ry="31.42" style="transform-origin:375px 425.29px" id="ellq5fpttimqc" class="animable" fill="#ebebeb"/></g><g id="freepik--Plant--inject-19" class="animable" style="transform-origin:115.616px 319.122px;animation:1s 1 forwards cubic-bezier(.36,-.01,.5,1.38) zoomIn;animation-delay:0s"><path d="M114.33 279.14a40.8 40.8 0 0 1-.79 15.64 43.77 43.77 0 0 1-2.4 6.91c-1.25 2.87-2.55 5.66-2.23 8.79.3.2-.74.17-.77-.13-8.37-4.77-19.1-5.64-25.54-13.43-3-3.69-4.59-8.37-5.32-13-.79-5.09-1-10.73.3-15.75 1.11-4.25 3.59-8.34 7.58-10.42s9.51-2 13.84-.62c9.35 2.87 14 12.96 15.33 22.01z" style="transform-origin:95.6951px 283.371px" id="eltpnkssvk6lj" class="animable" fill="#ffc727"/><path d="M118.62 341.08c-1.14-3.8-2.28-7.61-3.45-11.41-2.3-7.43-4.69-14.84-7.33-22.17q-2.37-6.57-5-13a79.76 79.76 0 0 1 1-8.09c.7-3.24 1.72-6.38 2.66-9.55.06-.2-.25-.3-.33-.11-1.88 4.37-4.33 10-4.4 15.15q-3.06-7.31-6.57-14.4a61 61 0 0 1 .37-12 .15.15 0 0 0-.29-.05 42.46 42.46 0 0 0-.83 10.55c-1.8-3.55-3.69-7.06-5.71-10.51-.18-.32-.61 0-.45.31 3.15 6.05 6.06 12.24 8.8 18.5A40.43 40.43 0 0 0 84 276.71c-.21-.07-.37.23-.15.32a47.63 47.63 0 0 1 14.15 9.4q2.94 6.87 5.62 13.87c-5.23-5.14-12.4-8.51-19.33-10.32-.24-.07-.3.3-.07.36 8 2.42 14.25 7 20.35 12.43q1.07 2.82 2.09 5.66 3.87 10.76 7.38 21.65 1.7 5.21 3.32 10.44c1.17 3.76 2.09 7.72 3.61 11.34.15.35.77.27.69-.15-.66-3.59-1.99-7.12-3.04-10.63z" style="transform-origin:102.706px 308.717px" id="el69wsweowy1h" class="animable" fill="#263238"/><path d="M104.74 271.81a20.71 20.71 0 0 0-3 7.51.06.06 0 0 0 .12 0 66.27 66.27 0 0 1 3.26-7.37c.12-.2-.24-.36-.38-.14z" style="transform-origin:103.442px 275.542px" id="el41g9l71om4" class="animable" fill="#263238"/><path d="M89.81 289.25a22 22 0 0 0-7.51-2.53c-.07 0-.11.09 0 .12 1.21.5 2.48.85 3.7 1.32s2.42 1 3.66 1.47a.21.21 0 0 0 .15-.38z" style="transform-origin:86.0657px 288.176px" id="elve87vgh64x9" class="animable" fill="#263238"/><path d="M85.61 268.27a14.71 14.71 0 0 0-2.42-1.49.13.13 0 0 0-.14.21 14.51 14.51 0 0 0 2.38 1.55c.16.09.33-.17.18-.27z" style="transform-origin:84.342px 267.665px" id="elhnzrzymzsdf" class="animable" fill="#263238"/><path d="M142.54 307.56c-6 1.79-12.09 3.44-18.11 5.21-.53.16-10.71-19.37-7-29.42a32.81 32.81 0 0 1 20.48-19.44c4.31-1.47 9.6-2.69 14.14-1.69 4 .89 6.9 4.2 8.21 8 1.79 5.17 1.2 11.33.22 16.61a28.91 28.91 0 0 1-5.93 13.55c-3.23 3.81-7.31 5.79-12.01 7.18z" style="transform-origin:139.016px 287.313px" id="el833n15nn9vv" class="animable" fill="#ffc727"/><path d="M151.28 289a80.62 80.62 0 0 1-11.82 4.66 49.37 49.37 0 0 0-7.89 2.85c2.55-5.67 5.34-11.23 8.3-16.73 3.9-1.13 8-2.89 10.93-5.64a.17.17 0 0 0-.22-.26c-3.21 2.27-6.75 3.63-10.31 5.17q1.2-2.22 2.44-4.44c.23-.41-.34-.82-.61-.42a127.13 127.13 0 0 0-8.57 14.38 66.55 66.55 0 0 1-.62-13.17.09.09 0 1 0-.17 0 43.71 43.71 0 0 0 .15 14.48c-2.12 4.22-4 8.55-5.77 12.92-.69-2.63-1.58-5.22-2.18-7.87a36.23 36.23 0 0 1-.87-11.6c0-.11-.15-.12-.17 0a40.92 40.92 0 0 0 2.53 21.3c-1 2.63-2 5.28-2.85 7.92a157.92 157.92 0 0 0-8 41.82.26.26 0 0 0 .51 0 207.91 207.91 0 0 1 9-41.33c1.75-5.25 3.76-10.35 6-15.36 3.56-1.05 7.1-2.48 10.6-3.69a33.28 33.28 0 0 0 9.77-4.79.13.13 0 0 0-.18-.2z" style="transform-origin:133.542px 314.21px" id="el8w4dts592qp" class="animable" fill="#263238"/><path d="M156.9 283.33c-3.69 1.31-7.18 3.15-10.87 4.48-.17.06-.07.33.11.3 3.89-.81 7.76-2 10.9-4.57.12-.09-.04-.25-.14-.21z" style="transform-origin:151.513px 285.718px" id="el2bpul959mgx" class="animable" fill="#263238"/><path d="M126.8 275.38c0-.2-.24-.31-.3-.11-1 3.4-1.71 7-.73 10.48a.13.13 0 0 0 .26 0c.18-3.52-.03-6.92.77-10.37z" style="transform-origin:126.051px 280.522px" id="elegfjl56jw24" class="animable" fill="#263238"/><path d="M142 267.53a9 9 0 0 0-1.6 5.78c0 .13.21.2.25.05.45-1.94 1.2-3.72 1.79-5.6a.25.25 0 0 0-.44-.23z" style="transform-origin:141.417px 270.433px" id="elsn0q7x0xmb" class="animable" fill="#263238"/><path d="M70.85 316.17c1.76 5.61 6 13.36 12.61 13.42 4.31 0 8.65-.47 13-.53 4.63-.07 9.27-.06 13.88.22.38 0-.55-13.86-11.67-20.62-3.12-1.89-6.93-2.49-10.46-3.25a48.06 48.06 0 0 0-12.36-1.29c-2.55.1-4.68.64-5.59 3.26s-.26 6.13.59 8.79z" style="transform-origin:90.1127px 316.847px" id="elzkxo8q5w7" class="animable" fill="#ffc727"/><path d="M75.63 309.15c2.7.7 5.43 1.5 8.14 2.36a27.26 27.26 0 0 0-2.24-2.19c-1.16-1-2.44-1.74-3.69-2.59-.11-.07 0-.27.09-.22a15.34 15.34 0 0 1 6.56 5.22c3.38 1.09 6.72 2.3 10 3.62a38.5 38.5 0 0 1 6.37 3.35 25.75 25.75 0 0 0-2.31-4c-1.47-1.91-3.47-3-5.4-4.33a.17.17 0 0 1 .17-.3 15.82 15.82 0 0 1 8.67 9.4 37.34 37.34 0 0 1 6.31 5.73c7.36 8.36 13.15 19.48 13.17 30.82 0 .27-.43.35-.48.07a62.94 62.94 0 0 0-14-30.14q-.8-.92-1.62-1.77a51.34 51.34 0 0 0-6.08-.45c-2.37 0-4.72.35-7.07.54-3.88.32-8.18.36-11.68-1.59-.15-.08 0-.35.12-.29 7.81 2.84 16-.76 23.82.93a36.62 36.62 0 0 0-11.54-7.44l-.71-.29c-5 .6-10.3 1.91-15.18.28a.12.12 0 0 1 .06-.23c4.72 1.18 9.24-.3 13.89-.54-5.07-2-10.23-3.54-15.31-5.5-.51-.18-.52-.6-.06-.45z" style="transform-origin:98.3829px 331.384px" id="elzzmeszwky8g" class="animable" fill="#263238"/><path d="M73.42 314.09a68.57 68.57 0 0 0 7.29.55c.06 0 .08.09 0 .1a15.07 15.07 0 0 1-7.36-.47c-.1-.03-.05-.2.07-.18z" style="transform-origin:77.0297px 314.541px" id="elsbwc68nuxum" class="animable" fill="#263238"/><path d="M89.89 309.28a11.79 11.79 0 0 1 3.61 2.51c.13.11 0 .34-.18.23-.61-.44-1.25-.86-1.88-1.27a18.66 18.66 0 0 1-1.76-1.11.22.22 0 0 1 .21-.36z" style="transform-origin:91.5893px 310.662px" id="elejrpvfz7pcc" class="animable" fill="#263238"/><path d="M129.16 327.33c-.08.19.18.36.28.16a.26.26 0 0 0 .18.12 112.14 112.14 0 0 0 13.59 2.39c3.68.32 7.92.53 11.14-1.61 4.36-2.89 7.23-10.62 4.87-15.53-2.79-5.83-11.2-2.67-15.42-.59a30.9 30.9 0 0 0-14.64 15.06z" style="transform-origin:144.606px 319.863px" id="el326u7q0xnqy" class="animable" fill="#ffc727"/><path d="M125.9 330a43.39 43.39 0 0 1 8.11-6.18 27.84 27.84 0 0 1 8.22-8.38c.16-.11.3.14.15.25a37.4 37.4 0 0 0-6.93 7.3 76 76 0 0 1 10.18-4.63 13.53 13.53 0 0 1 5.46-5.48s.11 0 .06.07a22.51 22.51 0 0 0-4.94 5.19c2.07-.78 4.16-1.49 6.25-2.19.19-.06.26.23.08.3-3.72 1.45-7.52 3-11.2 4.75a43.44 43.44 0 0 0 13.56 0 .1.1 0 1 1 0 .19 26.7 26.7 0 0 1-14.38.21 71 71 0 0 0-6.83 3.82 17.26 17.26 0 0 1 5.52.46 41.68 41.68 0 0 0 9.69 1.09c.12 0 .16.2 0 .22-5.62 1-10.94-1.59-16.51-.92a41.35 41.35 0 0 0-14.27 16.68c-2.34 4.78-3.62 9.84-5.51 14.77a.18.18 0 0 1-.35-.1C114 347.69 118.81 337 125.9 330z" style="transform-origin:133.642px 335.266px" id="elh498lwkbpbh" class="animable" fill="#263238"/><path d="M142.85 316.69a6.54 6.54 0 0 1 1.44-1.75 5.73 5.73 0 0 1 1.71-1.24c.06 0 .09.06.06.09-.46.53-1.11.91-1.6 1.41s-.92 1.1-1.43 1.59a.08.08 0 0 1-.18-.1z" style="transform-origin:144.454px 315.271px" id="elveep38fjc6r" class="animable" fill="#263238"/><path d="M152.13 319.71c.83-.21 1.71-.2 2.56-.37a23.56 23.56 0 0 0 2.48-.74.1.1 0 0 1 .08.18 8.29 8.29 0 0 1-5.12 1.19.13.13 0 0 1 0-.26z" style="transform-origin:154.647px 319.302px" id="elwyv1qahcjjb" class="animable" fill="#263238"/><path style="transform-origin:117.46px 363.77px" id="ellf4k42o0mvd" class="animable" fill="#37474f" d="M102.73 345.43l.74 8.38 2.5 28.3h22.16l3.13-28.3.93-8.38h-29.46z"/><path style="transform-origin:117.46px 349.62px" id="elrf2ys8r2l4" class="animable" fill="#263238" d="M102.73 345.43l.74 8.38h27.79l.93-8.38h-29.46z"/><path style="transform-origin:117.45px 346.54px" class="animable" fill="#37474f" transform="rotate(180)" d="M100.53 343.14h33.84v6.8h-33.84z" id="el8vjik9xuhzh"/></g><g id="freepik--character-2--inject-19" class="animable" style="transform-origin:552.979px 282.873px;animation:1s 1 forwards cubic-bezier(.36,-.01,.5,1.38) lightSpeedRight;animation-delay:0s"><path d="M666.82 413c-.24-2.19-25.4-56.41-27.67-57.86-.86-.57-9 2.64-18.66 6.79l-.31.13c-2 .85-38.88 10.76-38.88 10.76l16.34 35.49L636 397.27l.58-.29s18.92 16.45 21.58 17.78 8.91.47 8.66-1.76z" style="transform-origin:624.064px 385.233px" id="elm4r4igbsr69" class="animable" fill="#ad6359"/><path d="M613.17 364.16L630 399l6-1.75.59-.28s18.92 16.45 21.58 17.78 8.88.47 8.63-1.71-25.4-56.42-27.67-57.87c-.85-.57-9 2.63-18.67 6.79l-.29.13c-.48.23-3.17 1.01-7 2.07z" style="transform-origin:639.989px 385.243px" id="el6qu69v5f9bx" class="animable" fill="#ebebeb"/><path d="M667 413.32c-.24-2.21-25.45-57.06-27.74-58.54-.86-.57-9.06 2.64-18.86 6.8L636.58 397s19 16.68 21.73 18 8.96.53 8.69-1.68z" style="transform-origin:643.704px 385.178px" id="ela26zf5ajygq" class="animable" fill="#ffc727"/><path d="M664.48 413.54c-4.46-9.09-21.56-46.17-25.27-55.49 0-.08 0-.1.06 0 4.61 8.91 21.41 46.13 25.36 55.45.08.17-.06.23-.15.04z" style="transform-origin:651.932px 385.82px" id="elbvnydlc638u" class="animable" fill="#263238"/><path d="M654.72 412.4a8.1 8.1 0 0 1-.29-6.53 7.86 7.86 0 0 1 4-4.31c.06 0 .11.07.06.11a9.38 9.38 0 0 0-3.62 10.68c-.01.07-.12.12-.15.05z" style="transform-origin:656.195px 406.997px" id="elfxwss1vugta" class="animable" fill="#263238"/><path d="M639.14 400.13c-1.75-3.66-2.41-8.52-.45-12.19.08-.14.28 0 .27.1a56.18 56.18 0 0 0 .66 11.94.25.25 0 0 1-.48.15z" style="transform-origin:638.562px 394.093px" id="elshaevqlpr" class="animable" fill="#263238"/><path d="M641.55 402.46c-1.74-3.66-2.4-8.52-.45-12.19.08-.14.28 0 .27.1a56.8 56.8 0 0 0 .66 11.94.25.25 0 0 1-.48.15z" style="transform-origin:640.976px 396.423px" id="el98dnn6nz8io" class="animable" fill="#263238"/><path d="M644 404.79c-1.75-3.66-2.41-8.52-.45-12.19.07-.14.27 0 .27.1a55.62 55.62 0 0 0 .66 11.95.25.25 0 0 1-.48.14z" style="transform-origin:643.421px 398.754px" id="elr9t4zwav2h" class="animable" fill="#263238"/><path d="M646.38 407.12c-1.74-3.65-2.41-8.52-.45-12.19.08-.14.28 0 .27.1a56.27 56.27 0 0 0 .66 12 .25.25 0 0 1-.48.09z" style="transform-origin:645.798px 401.072px" id="els54skyfxpzm" class="animable" fill="#263238"/><path d="M631.56 364.4c-1.89-4.13 4.53-7.07 6.42-2.93s-4.53 7.07-6.42 2.93z" style="transform-origin:634.77px 362.936px" id="eloc1zhelzll" class="animable" fill="#263238"/><path d="M636.41 405.84c1.65-3.16 1.87-6.93 2.47-10.38.07-.36-.3-.57-.6-.52a.1.1 0 0 0-.16-.07 21.29 21.29 0 0 0-7.87 7.67c-1.07 1.89-1.5 4.93.9 6.08s4.29-.93 5.26-2.78zm-3 1.58c-4.18 1.47-2.76-3.55-1.91-4.91a21.49 21.49 0 0 1 1.86-2.49c1.38-1.65 3-3.08 4.5-4.58-.4 1.68-.66 3.38-1 5.07-.37 2.01-1.12 6.09-3.42 6.91z" style="transform-origin:634.141px 401.9px" id="el7y0nycpf07r" class="animable" fill="#263238"/><path d="M629.77 382.88c-2.27 1.39-1.53 4.37-.27 6.14a21.29 21.29 0 0 0 8.62 6.82.11.11 0 0 0 .15-.08c.31 0 .65-.24.55-.59-1-3.37-1.57-7.09-3.54-10.07-1.14-1.74-3.36-3.54-5.51-2.22zm6.55 7.48c.51 1.65.94 3.31 1.51 4.94-1.68-1.34-3.4-2.59-5-4.1a25.32 25.32 0 0 1-2.11-2.28c-1-1.26-2.9-6.12 1.4-5.08 2.42.57 3.59 4.56 4.2 6.52z" style="transform-origin:633.572px 389.137px" id="el6fnkcz2mk7p" class="animable" fill="#263238"/><path d="M532.89 257.1s.68 21.26 3.86 31.72c0 0 3.48 1.83 4.52 2.49 0 0-26.4 63.22-24.9 87.55.49 8 9.53 21.08 18.65 26.76 16.14 10 95 1.23 95 1.23l-11.44-47.38s-49.82 2.78-51.08.08c-1.6-3.42 8.32-30 16.25-51.62.8-2.18 8.77-10.24 7.84-24.81a75.62 75.62 0 0 0-6.86-26z" style="transform-origin:573.164px 333.754px" id="el8vfgr3ehrbf" class="animable" fill="#37474f"/><path d="M609.44 364.74c-10.86-.2-19.72.72-30.59.73h-12.32a12.31 12.31 0 0 1-2.84-.25 3.49 3.49 0 0 1-2.18-1.3c-.73-1.08-.34-2.45-.09-3.61.55-2.56 1.17-5.1 1.84-7.63 2.74-10.26 6.31-20.29 9.68-30.37q2.59-7.79 5.2-15.56c.42-1.26.84-2.53 1.37-3.75a32.68 32.68 0 0 1 1.71-3.26 30.26 30.26 0 0 0 2.95-6.41c2.94-9.66.11-19.66-3.32-28.78-.47-1.22-.94-2.44-1.44-3.65 0-.09-.17 0-.14 0 3.13 9.62 6.87 19.64 4.76 29.91a24.38 24.38 0 0 1-2.51 6.91c-.6 1.1-1.26 2.17-1.84 3.28a26.57 26.57 0 0 0-1.52 3.51c-1.84 5.1-3.47 10.29-5.2 15.43-3.43 10.22-7 20.42-9.91 30.83-.71 2.59-1.37 5.2-1.95 7.82-.43 1.93-1.4 4.57.28 6.17 1.24 1.17 3.18 1.32 4.79 1.33h8.13c11 0 33.79-1 35.15-1a.19.19 0 0 0-.01-.35z" style="transform-origin:584.995px 313.475px" id="elhhgs70p6bko" class="animable" fill="#263238"/><path d="M621.6 404.65c-1.07-5.53-2.09-11.1-3.31-16.6s-2.56-11-4-16.48c-.41-1.54-.83-3.08-1.24-4.63-.19-.73-.39-1.47-.61-2.2a18.61 18.61 0 0 0-.67-2.2.07.07 0 0 0-.14 0 29.59 29.59 0 0 0 .76 4.25c.27 1.33.52 2.67.8 4 .57 2.75 1.14 5.49 1.74 8.23 1.2 5.49 2.57 10.93 4 16.37q1.19 4.63 2.4 9.27a.14.14 0 0 0 .27-.01z" style="transform-origin:616.615px 383.614px" id="elpoyxnbeba7s" class="animable" fill="#263238"/><path d="M525.42 334.56l55.94-20.26c.78-2.15 1.57-4.28 2.33-6.37s8.77-10.24 7.85-24.81a75.36 75.36 0 0 0-6.86-26h-51.79s.68 21.26 3.87 31.72c0 0 3.47 1.84 4.51 2.49 0-.02-8.71 20.85-15.85 43.23z" style="transform-origin:558.517px 295.84px" id="elhwih8tycaui" class="animable" fill="#263238"/><path d="M440.38 415.59c2.11.64 61.85-1.34 64.08-2.86.86-.56 1.07-9.29 1-19.83v-.33c0-2.18-.94-38.62-.94-38.62l-41.82 1.26 4.2 38.2v.66s-22.53 11-24.8 12.91-3.83 8.02-1.72 8.61z" style="transform-origin:472.428px 384.832px" id="elo9enyow6k0i" class="animable" fill="#ad6359"/><path d="M440.38 415.6c2.11.63 61.85-1.35 64.08-2.87.85-.57 1.08-9.29 1-19.83v-.34c0-.59 0-3.55-.18-8l-39.2 1.5.81 7.37v.65s-22.53 11-24.81 12.92-3.81 8-1.7 8.6z" style="transform-origin:472.426px 400.14px" id="elyoo3n7rhnxk" class="animable" fill="#ebebeb"/><path d="M439.93 415.85c2.13.64 62.46-1.37 64.71-2.9.86-.58 1.07-9.38 1-20l-38.9 1.19s-22.76 11.1-25 13-3.95 8.08-1.81 8.71z" style="transform-origin:472.301px 404.461px" id="ely4yrjnm8ikq" class="animable" fill="#ffc727"/><path d="M440.71 413.41c10.1-.58 50.92-2 61-1.8.08 0 .08.06 0 .06-10 .8-50.82 1.88-61 1.91-.21 0-.21-.16 0-.17z" style="transform-origin:471.161px 412.585px" id="el5ojgtfda9y6" class="animable" fill="#263238"/><path d="M445.54 404.85a8.08 8.08 0 0 1 6.13 2.27 7.79 7.79 0 0 1 2.44 5.32c0 .06-.11.07-.12 0a9.38 9.38 0 0 0-8.44-7.47.07.07 0 0 1-.01-.12z" style="transform-origin:449.81px 408.662px" id="el4v7o3vpysqr" class="animable" fill="#263238"/><path d="M462.89 395.24c4.05-.19 8.79 1.08 11.41 4.31.1.13-.08.27-.2.21a56.78 56.78 0 0 0-11.26-4 .25.25 0 0 1 .05-.52z" style="transform-origin:468.466px 397.498px" id="elrwshw48ifo" class="animable" fill="#263238"/><path d="M459.81 396.57c4-.2 8.78 1.08 11.41 4.3.1.13-.08.27-.2.21a56 56 0 0 0-11.27-4 .25.25 0 0 1 .06-.51z" style="transform-origin:465.386px 398.822px" id="elr7yduvbzwmi" class="animable" fill="#263238"/><path d="M456.72 397.89c4-.19 8.79 1.08 11.41 4.31.11.12-.07.26-.2.21a55.33 55.33 0 0 0-11.26-4 .25.25 0 0 1 .05-.52z" style="transform-origin:462.299px 400.146px" id="el1rs98tpy454i" class="animable" fill="#263238"/><path d="M453.64 399.21c4-.19 8.78 1.08 11.41 4.31.1.12-.08.27-.2.21a55.42 55.42 0 0 0-11.27-4 .25.25 0 0 1 .06-.52z" style="transform-origin:459.214px 401.468px" id="el95kpnq6awy" class="animable" fill="#263238"/><path d="M498.76 402.09c4.54-.14 4.77 6.92.22 7.06s-4.77-6.92-.22-7.06z" style="transform-origin:498.868px 405.62px" id="eleuycl3dg8ls" class="animable" fill="#263238"/><path d="M458.68 390.51c2.27 2.75 5.66 4.41 8.61 6.31a.5.5 0 0 0 .72-.35.11.11 0 0 0 .12-.12 21.21 21.21 0 0 0-4-10.23c-1.33-1.73-4-3.3-5.95-1.53s-.83 4.32.5 5.92zm-.3-3.35c.25-4.41 4.34-1.16 5.26.14a21.22 21.22 0 0 1 1.57 2.69 62.68 62.68 0 0 1 2.48 5.92c-1.39-1-2.85-1.92-4.28-2.88-1.7-1.16-5.17-3.43-5.03-5.87z" style="transform-origin:462.63px 390.344px" id="elsk98t5t0yh" class="animable" fill="#263238"/><path d="M482.42 393.28c-.41-2.63-3.44-3.1-5.56-2.62a21.3 21.3 0 0 0-9.63 5.31.11.11 0 0 0 0 .17.5.5 0 0 0 .33.73c3.48.42 7.15 1.3 10.66.64 2.06-.38 4.58-1.74 4.2-4.23zm-9.42 3.15c-1.72-.17-3.42-.42-5.14-.52a64.09 64.09 0 0 1 5.69-3 23.7 23.7 0 0 1 2.92-1.06c1.55-.41 6.77-.31 4.14 3.26-1.45 1.98-5.61 1.51-7.61 1.32z" style="transform-origin:474.813px 394.121px" id="el55rcfnh5lrr" class="animable" fill="#263238"/><path d="M463.53 390.5h46.78s-8.33-63.69-5.56-67.85c1.22-1.83 62 4.26 79.72-15 16.25-17.6-.28-50.57-.28-50.57h-49.86s-1 14.13-3.7 19.78c-1.15 2.42-56.83-1-65.55 14.88-11.65 21.26-1.55 98.76-1.55 98.76z" style="transform-origin:525.544px 323.79px" id="elz5fwqzuan3l" class="animable" fill="#37474f"/><path d="M505.38 381.6c-5.28-.16-10.57-.36-15.86-.36s-10.59.11-15.89.32c-1.49.06-5.91.27-6.62.33a17.32 17.32 0 0 0-2.16.18.07.07 0 0 0 0 .14c1.15.2 13.12.33 15.75.34 5.26 0 10.52-.14 15.78-.33q4.49-.15 9-.34c.15 0 .17-.28 0-.28z" style="transform-origin:485.14px 381.895px" id="el5yiccimuutc" class="animable" fill="#263238"/><path d="M536.37 272.36c.21-1.49.4-3 .58-4.49.4-3.42.76-6.86.86-10.3 0-.27-.38-.25-.41 0-.31 2.66-.56 5.32-.86 8s-.53 5.32-1 7.92c-.15.79-.48 2.1-1.49 2.12-1.35 0-1.6-1.8-1.72-2.79a44.13 44.13 0 0 1-.13-7.45c.14-2.82.5-5.64.81-8.45 0-.1-.16-.12-.18 0-1.16 5.47-2.27 11.2-1.31 16.79a3.08 3.08 0 0 0 1.81 2.63h.06a.15.15 0 0 0 0 .09v.48a2.54 2.54 0 0 0 0 .39v.83a.2.2 0 0 0 .4 0 .17.17 0 0 0 .15-.14 4.42 4.42 0 0 0 0-1.62 2 2 0 0 0 1.66-.89 7 7 0 0 0 .77-3.12z" style="transform-origin:534.483px 267.584px" id="elawapk16ybg" class="animable" fill="#263238"/><path d="M531.41 276.41a80.17 80.17 0 0 1 10.72 8.82c.14.13 0 .34-.17.23-3.66-2.83-7.41-5.6-10.9-8.62-.28-.23.05-.62.35-.43z" style="transform-origin:536.571px 280.925px" id="eltcz0y8ky0nq" class="animable" fill="#263238"/><path d="M572.39 279.12a20.36 20.36 0 0 1-3.22-.25 24.42 24.42 0 0 1-2.8-.71c-1.73-.51-3.83-1.11-5.09-2.48a18.07 18.07 0 0 1-2.89-5 20.13 20.13 0 0 1-1.7-5.94c0-.09-.15-.09-.14 0a30.53 30.53 0 0 0 1.06 6.29 18.93 18.93 0 0 0 1.18 3 8.23 8.23 0 0 0 7.29 5.29 17.32 17.32 0 0 0 6.34 0c.14.01.1-.19-.03-.2z" style="transform-origin:564.529px 272.143px" id="elmz6sdgt1sm" class="animable" fill="#263238"/><path d="M499.71 319.64a2.74 2.74 0 0 1 2.29-2.18 22.71 22.71 0 0 1 4-.08c3.12 0 6.24.07 9.36.07 12.27 0 24.65-.32 36.73-2.74a85.81 85.81 0 0 0 17.17-5.18c4.69-2 9.37-4.81 12.29-9.12 3.36-5 3.63-11.45 3.51-17.26a65.9 65.9 0 0 0-3-18.47c-.47-1.52-1-3-1.61-4.49 0-.09.1-.17.14-.08a63.86 63.86 0 0 1 4.87 17.83 61.49 61.49 0 0 1 .41 9.1 34.7 34.7 0 0 1-1.15 8.84c-3.18 10.86-15.35 15.35-25.2 18.11-11.84 3.32-24.2 4.24-36.45 4.42-6.16.1-12.32 0-18.48-.08-1.17 0-3.11-.35-3.81.89a6.82 6.82 0 0 0-.55 2.24c-.14.86-.23 1.74-.3 2.61a75 75 0 0 0 .13 9.83q.6 10 1.38 19.93c.53 6.67 1.28 13.34 1.76 20 .12 1.64.28 3.27.44 4.91 0 .18-.31.22-.33 0-1.71-13.2-2.94-26.45-3.8-39.73-.22-3.28-.46-6.56-.55-9.85a35.27 35.27 0 0 1 .75-9.52z" style="transform-origin:542.399px 319.481px" id="elyocfn98i1a8" class="animable" fill="#263238"/><path d="M529.67 322.08a101 101 0 0 0 12.42-.91c3.88-.48 7.75-1 11.61-1.67 6.7-1.14 13.56-2.4 19.89-5a34.59 34.59 0 0 0 9.59-5.56.08.08 0 0 1 .11.12c-4.79 4.65-10.87 7.38-17.25 9.12a139.86 139.86 0 0 1-22.34 3.92 121.91 121.91 0 0 1-14.05.41.24.24 0 0 1 .02-.43z" style="transform-origin:556.421px 315.739px" id="el79t5rwfh6pf" class="animable" fill="#263238"/><path d="M545.15 198.71c-6.45 14.75-28.44 36.95-35.79 39.27-9.05 2.86-30.57-11.14-39.13-19.68-3.53-3.52 9-20.86 14.92-20.5 3.26.2 21 15.69 23.66 14.36 6.41-3.22 15.19-9.5 27.76-18 6.84-4.61 12.6-4.63 8.58 4.55z" style="transform-origin:508.046px 214.74px" id="elm6pd5pljc1n" class="animable" fill="#ad6359"/><path d="M492.59 202.8s-4.17-6.37-6.62-8.76-14.87-7.94-16.22-5.33c-1.74 3.37 4.79 8 8.29 9.83 0 0-4.05 7.8-.07 12.13s14.62-7.87 14.62-7.87z" style="transform-origin:481.025px 199.814px" id="el4tg11f0q9tm" class="animable" fill="#ad6359"/><path d="M472.91 220.57c-2.63-1.27-14.16-8.14-16.94-10.77s-10.24-10.79-8.44-13.12 4.17-.13 4.17-.13-2.6-3.94-.58-6.12 5.61 1.37 5.61 1.37-2.38-4.24-.21-6.27 5.18 2.15 5.18 2.15-2.36-3.78.14-4.7c3-1.11 6.56 6.34 9.85 9 .75.6 16 11.23 16 11.23z" style="transform-origin:467.472px 201.719px" id="el7eerq7ohzb8" class="animable" fill="#ad6359"/><path d="M461.43 187.32c2.63 5.48 4.73 7.42 9.8 10.6.09.06 0 .22-.09.17-5.24-2.66-8.22-4.72-10-10.65-.06-.29.17-.38.29-.12z" style="transform-origin:466.199px 192.633px" id="elen68olt5pw8" class="animable" fill="#263238"/><path d="M456.52 191.37c3.23 5.44 5.49 7.57 10.55 11.29.07.05 0 .18-.09.13-5.27-3.23-8.2-5.35-10.7-11.22-.12-.26.1-.45.24-.2z" style="transform-origin:461.672px 197.027px" id="elt784vuye9h" class="animable" fill="#263238"/><path d="M452 196.73c3.51 5.05 5.88 7.49 11.26 10.47a.12.12 0 0 1-.1.21c-5.78-2.51-8.76-5.53-11.3-10.55-.21-.35-.12-.44.14-.13z" style="transform-origin:457.523px 201.976px" id="el5mosf9dnjnc" class="animable" fill="#263238"/><path d="M469.58 189.79c.62 4.23 5.37 6.35 8.63 8.39a.36.36 0 0 1 .05.58c-1.48 3.38-2.57 8.58-.53 11.9a.09.09 0 0 1-.15.11c-2.67-3.27-2-8.46-.15-12.07-3.38-2-8-4.38-7.89-8.9 0-.03.03-.03.04-.01z" style="transform-origin:473.961px 200.292px" id="el9xhovq5p748" class="animable" fill="#263238"/><path d="M519.71 203.74l10.79 20.84s14.8-21.15 17.39-28.6c2.92-8.38-2-8-9.63-4.43s-18.55 12.19-18.55 12.19z" style="transform-origin:534.226px 206.866px" id="elv8mfmqn453" class="animable" fill="#ffc727"/><path d="M523.86 202.52c1.73 2.47 5.89 10.6 6.59 11.94.37.71 1.72 3.59 2.09 4.29.05.09-.1.14-.15.05-.71-1.33-1.57-2.6-2.29-3.93s-5.25-9.46-6.35-12.29a.07.07 0 0 1 .11-.06z" style="transform-origin:528.15px 210.677px" id="elf55v2inp0a" class="animable" fill="#263238"/><path d="M547.89 196c-2.59 7.45-17.39 28.6-17.39 28.6l-5.56-10.74 20.89-24.71c2.75-.07 3.8 1.85 2.06 6.85z" style="transform-origin:536.84px 206.874px" class="animable" opacity=".1" id="eliyfcd0x5ly"/><path d="M591.91 264.56l-62.71 8.72c.17 1.23-3.32-49.61 8.85-81.49.83-2.17 10.38-5.71 15.28-2.31 21.48 14.91 38.67 75.88 38.58 75.08z" style="transform-origin:560.386px 230.686px" id="elgx0p4y71h2f" class="animable" fill="#ffc727"/><path d="M552.81 189.16l-14.29 2a11.58 11.58 0 0 1 4.43-2.25l5.75-.79a9.22 9.22 0 0 1 4.11 1.04zm3.62 2.81L537 194.65c-.2.56-.39 1.14-.57 1.72l21.48-3q-.73-.72-1.48-1.37zm4.16 4.37l-25.18 3.48c-.16.56-.32 1.13-.47 1.7l26.86-3.7c-.4-.51-.8-1-1.21-1.48zm3.46 4.48l-30 4.13-.39 1.7 31.4-4.33c-.32-.51-.66-1.01-1.01-1.5zm3 4.52L533 210.05q-.18.84-.33 1.68l35.33-4.87zm2.71 4.58L532 215.13q-.15.84-.27 1.68l38.85-5.36c-.24-.52-.52-1.02-.81-1.53zm2.5 4.61l-41 5.65c-.09.56-.16 1.11-.23 1.67l42-5.79q-.36-.78-.76-1.53zm2.33 4.62l-44 6.07c-.07.56-.14 1.12-.19 1.67l44.9-6.2c-.21-.52-.46-1.03-.7-1.54zm2.19 4.65l-46.69 6.44c-.06.56-.11 1.12-.15 1.67l47.53-6.56zm2.05 4.66l-49.16 6.78-.12 1.66 49.95-6.9c-.21-.51-.43-1-.66-1.54zm2 4.68l-51.46 7.1q0 .84-.09 1.65l52.18-7.19zm1.87 4.69l-53.56 7.39c0 .56 0 1.11-.07 1.65l54.24-7.49c-.22-.51-.43-1.03-.63-1.55zm1.79 4.7L529 250.19v1.65l56.13-7.75zm1.72 4.71l-57.31 7.9v1.65l57.88-8c-.22-.5-.4-1.02-.59-1.55zm1.65 4.72l-59 8.14v1.64l59.49-8.21zm1.58 4.74l-60.51 8.3v1.64l61-8.41zm1.51 4.73L529.07 270c0 .63 0 1.18.07 1.64l62.28-8.6c-.13-.48-.3-1.04-.49-1.61z" style="transform-origin:560.14px 229.88px" class="animable" opacity=".1" id="elyxp17pyau5d"/><path d="M541.29 200c3.09.29 8.82-4.09 10.36-8.66.1-.31-.87-3.24-1.88-6.85-.61-2.2-1.23-4.65-1.64-6.94-.08-.47-13.71 6-13.71 6a37.21 37.21 0 0 1 3 8.53 6.35 6.35 0 0 1 .07.95v.16c-.02 1.81.51 6.48 3.8 6.81z" style="transform-origin:543.039px 188.77px" id="elczpo1hpcdaf" class="animable" fill="#ad6359"/><path d="M537.43 193v.16a10.79 10.79 0 0 0 1.48-.18c8.4-1.69 8.74-12.64 8.69-15.39-2.48.81-13.2 5.93-13.2 5.93a36.69 36.69 0 0 1 3 8.53 4.45 4.45 0 0 1 .03.95z" style="transform-origin:541.002px 185.375px" id="elksyn81e36x" class="animable" fill="#263238"/><path d="M547.62 159.27c2.3 4.88 1.75 20-1.4 23.84-4.57 5.54-13.12 7.25-18.1 1.51-4.82-5.57-3.75-25.29-.13-28.87 5.34-5.27 16.23-3.68 19.63 3.52z" style="transform-origin:536.955px 170.409px" id="elhhw92s83oju" class="animable" fill="#ad6359"/><path d="M534.52 170.2s.08.05.07.09c-.06 1 0 2.2.95 2.56v.06c-1.13-.19-1.25-1.76-1.02-2.71z" style="transform-origin:534.982px 171.555px" id="elruaj41w0km9" class="animable" fill="#263238"/><path d="M535.46 169.16c1.65-.07 1.67 3.22.15 3.29s-1.53-3.23-.15-3.29z" style="transform-origin:535.586px 170.805px" id="elsbdrcj2fdi" class="animable" fill="#263238"/><path d="M528.61 170.41s-.08.05-.08.09c0 1-.08 2.19-1 2.54v.06c1.13-.17 1.28-1.73 1.08-2.69z" style="transform-origin:528.107px 171.755px" id="elefuydkc39th" class="animable" fill="#263238"/><path d="M527.69 169.35c-1.64-.11-1.74 3.18-.22 3.28s1.6-3.19.22-3.28z" style="transform-origin:527.531px 170.99px" id="el4horvqsu03f" class="animable" fill="#263238"/><path d="M536.75 167.64a10.19 10.19 0 0 1-1.28-.44 2.2 2.2 0 0 1-1.22-.69.71.71 0 0 1 .11-.85 1.74 1.74 0 0 1 1.74-.19 2.52 2.52 0 0 1 1.47 1.09.74.74 0 0 1-.82 1.08z" style="transform-origin:535.91px 166.49px" id="ele8uyomkm71" class="animable" fill="#263238"/><path d="M526.41 167.7c.45-.08.86-.23 1.3-.35a2.23 2.23 0 0 0 1.27-.61.69.69 0 0 0-.05-.85 1.74 1.74 0 0 0-1.72-.31 2.48 2.48 0 0 0-1.54 1 .74.74 0 0 0 .74 1.12z" style="transform-origin:527.332px 166.592px" id="elbuxz41rkyj7" class="animable" fill="#263238"/><path d="M535.53 179.66c-.24.24-.48.57-.85.61a2.8 2.8 0 0 1-1.1-.25 1.38 1.38 0 0 0 1.3.55 1.1 1.1 0 0 0 .79-.91c-.02-.01-.1-.03-.14 0z" style="transform-origin:534.625px 180.114px" id="el87nkz5emaw9" class="animable" fill="#263238"/><path d="M534.44 176.62a3.47 3.47 0 0 1-2.31 1.56 4.75 4.75 0 0 1-1.25.07H530.42a.27.27 0 0 1-.21-.23.38.38 0 0 1 0-.1v-.09-2c-.29.15-1.74.82-1.72.4a52 52 0 0 1 1.26-10.52c0-.11.2-.09.19 0 0 3.28-.66 6.52-.75 9.81a6.4 6.4 0 0 1 1.64-.51c.11 0-.17 2.31-.13 2.66a4.8 4.8 0 0 0 3.59-1.15c.13-.05.21.01.15.1z" style="transform-origin:531.475px 171.949px" id="elkb3bnnn2op" class="animable" fill="#263238"/><path d="M531.34 177.84a4.07 4.07 0 0 0 1.66 1.27 1.88 1.88 0 0 0 1.13.06c.81-.22.83-1 .67-1.61a4.21 4.21 0 0 0-.37-1 5.33 5.33 0 0 1-3.09 1.28z" style="transform-origin:533.109px 177.895px" id="el1uoala1p44w" class="animable" fill="#263238"/><path d="M533 179.11a1.88 1.88 0 0 0 1.13.06c.81-.22.83-1 .67-1.61a1.93 1.93 0 0 0-1.8 1.55z" style="transform-origin:533.939px 178.395px" id="eln8izmbo5eup" class="animable" fill="#ff99ba"/><path d="M525.86 160.77c.54-1.3 1.18-2.61 2-2.87s1.3 1.63 3.08 1.74c2.39.14 3.53-2.07 6.88-2.34 4.8-.38 7 3.62 7.13 10.44.16 6.1 3.85 6.64 3.85 6.64s2.11-13.46-1.72-17.88-12.53-6.3-18.33-2c-2.16 1.57-2.89 6.27-2.89 6.27z" style="transform-origin:537.62px 163.226px" id="el9vn4fsim1xd" class="animable" fill="#263238"/><path d="M545.66 172s2.75-5.21 5.07-4.28.67 8.16-1.76 9.43a2.6 2.6 0 0 1-3.64-1z" style="transform-origin:548.587px 172.567px" id="eliugl05ste89" class="animable" fill="#ad6359"/><path d="M550.21 169.79v.07c-1.7.95-2.43 2.72-2.87 4.52a1.44 1.44 0 0 1 2.09-.66v.1a1.61 1.61 0 0 0-1.68.78 7.64 7.64 0 0 0-.67 1.52c-.06.17-.36.12-.32-.07-.34-2.31 1.03-5.72 3.45-6.26z" style="transform-origin:548.459px 173.007px" id="elqb9xyg4mxfm" class="animable" fill="#263238"/><path d="M532.65 152.2a21.6 21.6 0 0 1 5.88-2.19c2.3-.44 9.66-.35 11.52 1s2.77 8.22 2.88 9.23.06 7.14-2 8.76-3-8.74-6.72-11.95-11.56-4.85-11.56-4.85z" style="transform-origin:542.807px 159.472px" id="eldimqzvc6l3f" class="animable" fill="#ffc727"/><path d="M532.65 152.2s7.79 1.64 11.51 4.85 4.6 13.56 6.72 11.95c.93-.71 1.34-1.71 1.64-3.36-.67-3-2.2-7.62-4.94-10.71-2.56-2.89-6.73-4.17-11.12-4.37a24.64 24.64 0 0 0-3.81 1.64z" style="transform-origin:542.585px 159.864px" class="animable" opacity=".1" id="el62q5i88rhnk"/><path d="M550.68 175.19c-.38-2.75-3.67-10-6.9-14s-12-6-13.26-5.8c-2.93.36-3.48 1.81-4 1.58s2.24-3.77 3-4.32a9.68 9.68 0 0 1 4-1.29c1.28 0 9.22.22 12.3 3.39s7.76 12.33 7.17 14.79c-.14.59-.88 1-1.07 1.85-.26 1.1-.4 2.36-.68 3.13s-.53.91-.56.67z" style="transform-origin:539.748px 163.328px" id="el4f93um91s9z" class="animable" fill="#ffc727"/><path d="M543 159.32a14.66 14.66 0 0 0 1.82-1.52 10.77 10.77 0 0 0 1.52-1.85h.08A7.68 7.68 0 0 1 545 158a6.36 6.36 0 0 1-2 1.42c0 .08-.09-.04 0-.1z" style="transform-origin:544.693px 157.698px" id="el8jzmsy7ms0w" class="animable" fill="#263238"/><path d="M550.52 172.43c.07-.2.19-.39.27-.59a3.33 3.33 0 0 0 .21-.7 6.24 6.24 0 0 1 .23-1.36 4.77 4.77 0 0 1 .59-1 1.87 1.87 0 0 0 .47-1.16c0-.06.08-.07.09 0a4.69 4.69 0 0 1-.79 2.2 9.17 9.17 0 0 0-.28 1.46 2.2 2.2 0 0 1-.66 1.2s-.15.02-.13-.05z" style="transform-origin:551.449px 170.027px" id="ellpetk1tac5" class="animable" fill="#263238"/><path d="M549.38 169.51c.24-.34.5-.64.71-1a10.64 10.64 0 0 0 .53-1.07c.15-.37.27-.74.41-1.1s.4-.85.54-1.29c0-.05.11 0 .09 0-.16.46-.23.94-.37 1.4a10.28 10.28 0 0 1-.45 1.16 7.13 7.13 0 0 1-.59 1 2.92 2.92 0 0 1-.84.84s-.05.08-.03.06z" style="transform-origin:550.519px 167.27px" id="elsfhgjid9exb" class="animable" fill="#263238"/><path d="M548.19 166.87a8.08 8.08 0 0 0 1.4-1.79c.36-.65.68-1.33 1-2h.08a9.39 9.39 0 0 1-.81 2.16 4.93 4.93 0 0 1-.65.92 5.32 5.32 0 0 1-1 .75s-.06 0-.02-.04z" style="transform-origin:549.424px 164.995px" id="el8hlnshdb25e" class="animable" fill="#263238"/><path d="M546.93 164.36a2.58 2.58 0 0 0 .68-.79c.22-.33.43-.66.64-1s.39-.64.58-1a2.63 2.63 0 0 0 .43-1.05h.09a2.64 2.64 0 0 1-.25 1.1 6.84 6.84 0 0 1-.55 1.12 10.18 10.18 0 0 1-.71 1 1.76 1.76 0 0 1-.85.67c-.07.08-.12-.01-.06-.05z" style="transform-origin:548.127px 162.481px" id="el8a6vfmegt0h" class="animable" fill="#263238"/><path d="M545.93 161.13c.24-.27.47-.54.69-.82s.42-.58.62-.88.42-.63.61-1h.09a6.8 6.8 0 0 1-.45 1 7.09 7.09 0 0 1-.61.93 8.2 8.2 0 0 1-.71.85 2.66 2.66 0 0 1-.85.68c-.05 0-.11 0-.08-.08a4.78 4.78 0 0 1 .69-.68z" style="transform-origin:546.586px 160.16px" id="elkbdklbmxvdh" class="animable" fill="#263238"/><path d="M540.76 157.89c.25-.35.49-.7.77-1s.6-.65.93-1a11.66 11.66 0 0 1 2-1.58s.1 0 .06.07c-1.24 1.2-2.52 2.36-3.74 3.57.01.05-.06-.01-.02-.06z" style="transform-origin:542.639px 156.139px" id="el95pkqbqyuoo" class="animable" fill="#263238"/><path d="M538.93 155.64a5.67 5.67 0 0 1 .88-.95 12.15 12.15 0 0 1 2.28-1.47s.1 0 0 .07c-.68.52-1.38 1-2 1.6a10.89 10.89 0 0 0-.93.87c-.3.31-.51.68-.79 1h-.06a3.16 3.16 0 0 1 .62-1.12z" style="transform-origin:540.222px 154.99px" id="eljkmbfm00he" class="animable" fill="#263238"/><path d="M536.56 154.71a6.16 6.16 0 0 1 .81-1 7.16 7.16 0 0 1 1.94-1.32c.05 0 .08.06 0 .08a14.49 14.49 0 0 0-1.81 1.51c-.28.28-.55.57-.82.86s-.49.64-.78.89h-.05a6.6 6.6 0 0 1 .71-1.02z" style="transform-origin:537.604px 154.06px" id="el684il98bc6t" class="animable" fill="#263238"/><path d="M534.81 153.44c.27-.26.56-.5.85-.74a3.74 3.74 0 0 1 .92-.6v.08c-.54.49-1.07 1-1.59 1.49a9.83 9.83 0 0 0-1.2 1.6h-.05a3.53 3.53 0 0 1 1.07-1.83z" style="transform-origin:535.16px 153.685px" id="eleehj1d0ovn" class="animable" fill="#263238"/><path d="M532.71 153.13a5.66 5.66 0 0 1 1.76-1.27s.09 0 0 .08a7 7 0 0 0-1.6 1.37 9.43 9.43 0 0 0-1.21 1.73h-.06a4.6 4.6 0 0 1 1.11-1.91z" style="transform-origin:533.055px 153.45px" id="el4vlurrz6adb" class="animable" fill="#263238"/><path d="M530.07 154.54a3.42 3.42 0 0 1 .21-.43 4.54 4.54 0 0 1 .57-.79 9.2 9.2 0 0 1 1.48-1.31s.1 0 .06.07a8 8 0 0 0-1.39 1.34 5.91 5.91 0 0 0-.54.77c-.08.13-.15.27-.22.41a3.17 3.17 0 0 1-.21.41h-.08a1.45 1.45 0 0 1 .12-.47z" style="transform-origin:531.175px 153.51px" id="el5c6j6y6epk8" class="animable" fill="#263238"/><path d="M528.42 154.8a5.87 5.87 0 0 1 .46-.65 6.1 6.1 0 0 1 .54-.59c.2-.19.4-.37.59-.57s.11 0 .06.06a6.31 6.31 0 0 0-.54.62l-.48.61-.48.62a7.47 7.47 0 0 1-.48.63h-.06a3.93 3.93 0 0 1 .39-.73z" style="transform-origin:529.08px 154.217px" id="eln3e2zumrie8" class="animable" fill="#263238"/><path d="M561.66 201.22c6.24 13.91 20.06 42.4 16.51 53.12-4.66 14.07-29 29.59-35.36 33.94-2.75 1.89-16.42-15.64-15.58-19.11s25.32-22.53 26.7-24.82-2.86-26.73-3.84-39.63c-1.25-16.28 6.29-15.27 11.57-3.5z" style="transform-origin:552.969px 240.426px" id="elqfy9xz1ar6j" class="animable" fill="#ad6359"/><path d="M520.91 278.56c.74-1.53-.06-1.93-2.78-.6s-12.37 8.87-14.72 5.28 11.42-14.05 16.12-15.9 13-3.22 13-3.22c-2.31 2.58-7.23 9.34-11.62 14.44z" style="transform-origin:517.836px 274.16px" id="eljmk3if23leo" class="animable" fill="#ad6359"/><path d="M549.48 282.83c-6.66 7-14.53 16.14-25 19.15a5.38 5.38 0 0 1-3.54-.11c-4.68 1.43-6.76-.35-6.76-.35-4.77 0-6.64-2.11-6.64-2.11s-5.51 1.61-7-1.56c-1.72-3.54 6.36-5.12 10.27-8.71 9-8.21 19.4-22.39 21.75-25z" style="transform-origin:524.892px 283.283px" id="el5js5n208pj6" class="animable" fill="#ad6359"/><path d="M526.18 287.14a77.34 77.34 0 0 1-8.26 6.74 77.64 77.64 0 0 1-10.35 5.4.1.1 0 0 0 .06.18 41.32 41.32 0 0 0 18.66-12.2c.11-.13.02-.26-.11-.12z" style="transform-origin:516.935px 293.27px" id="eluk2eovgly3" class="animable" fill="#263238"/><path d="M531.92 291.83c-2.74 2.15-7.58 5.91-17.8 9.58v.07A37 37 0 0 0 532 292c.18-.19.1-.32-.08-.17z" style="transform-origin:523.111px 296.623px" id="ell6xk2xbudn" class="animable" fill="#263238"/><path d="M535 294.41c-4.8 3.48-8.27 5.07-14 7.43v.06c6.83-2 9.08-3.48 14.15-7.35.13-.13 0-.28-.15-.14z" style="transform-origin:528.102px 298.127px" id="elvoapji3jah" class="animable" fill="#263238"/><path d="M550.74 222.55l23.26 1.12s-10.78-23.24-15.88-29.18c-5.73-6.68-7.9-2.29-8.61 6.06s1.23 22 1.23 22z" style="transform-origin:561.677px 207.453px" id="elzintyqyzmlh" class="animable" fill="#ffc727"/><path d="M551.76 218.38c3-.26 12 .23 13.53.29.79 0 3.94.31 4.72.34.1 0 .08.16 0 .16-1.5-.06-3 .05-4.52 0s-10.73-.2-13.71-.67c-.08-.01-.08-.12-.02-.12z" style="transform-origin:560.897px 218.744px" id="elxz0ahnb8z7g" class="animable" fill="#263238"/><path d="M563.6 203.22a.08.08 0 0 1 .15-.07c1.14 1.86 2.22 3.75 3.28 5.65a18.71 18.71 0 0 0-1.22-3.19s.05-.07.07 0a15 15 0 0 1 1.4 3.69c.74 1.33 1.46 2.66 2.16 4 1.8 3.41 3.64 6.82 5.23 10.34a.27.27 0 0 1-.27.37c-.81-.06-1.61-.15-2.41-.27-.08 0-.09-.15 0-.15.67-.06 1.33-.07 2-.08-1.82-3.26-3.47-6.61-5.2-9.92s-3.54-6.88-5.19-10.37z" style="transform-origin:569.141px 213.557px" id="el82sx46y6uuf" class="animable" fill="#263238"/><path d="M549.32 212.65c-.25-1.2-.5-2.41-.71-3.62.22.88.42 1.76.61 2.65-.1-1.81-.16-3.61-.15-5.41.37 2.71.6 5.43.91 8.15s.57 5.33.82 8c.53.11 1.05.21 1.58.3a.08.08 0 1 1 0 .15h-1.76a.26.26 0 0 1-.3-.22c-.41-3.29-.78-6.65-1-10z" style="transform-origin:550.549px 214.572px" id="el47m7sf896np" class="animable" fill="#263238"/></g><g id="freepik--Lines--inject-19" class="animable" style="transform-origin:477.48px 182.865px;animation:1s 1 forwards cubic-bezier(.36,-.01,.5,1.38) lightSpeedLeft;animation-delay:0s"><path d="M477.14 164.81a17.45 17.45 0 0 1-.49-4.41 17 17 0 0 1 .5-4.41 19.51 19.51 0 0 1 0 8.82z" style="transform-origin:477.151px 160.4px" id="el23yd9bsl1a6" class="animable" fill="#263238"/><path d="M468.16 167.4a19.78 19.78 0 0 1-4.4-7.64 17.13 17.13 0 0 1 2.63 3.57 17.42 17.42 0 0 1 1.77 4.07z" style="transform-origin:465.96px 163.58px" id="elkit48nadqp" class="animable" fill="#263238"/><path d="M461.67 174.13a17.8 17.8 0 0 1-4.06-1.78 17.44 17.44 0 0 1-3.57-2.64 17 17 0 0 1 4.07 1.78 17.38 17.38 0 0 1 3.56 2.64z" style="transform-origin:457.855px 171.92px" id="el5l1e0b397i4" class="animable" fill="#263238"/><path d="M459.42 183.2a17.93 17.93 0 0 1-4.41.5 17.4 17.4 0 0 1-4.4-.51 17.45 17.45 0 0 1 4.41-.49 17.79 17.79 0 0 1 4.4.5z" style="transform-origin:455.015px 183.199px" id="el85090beznox" class="animable" fill="#263238"/><path d="M462 192.18a17.17 17.17 0 0 1-3.57 2.64 17.4 17.4 0 0 1-4.07 1.76 18.05 18.05 0 0 1 3.57-2.63 17.85 17.85 0 0 1 4.07-1.77z" style="transform-origin:458.18px 194.38px" id="els9lkf6ju41d" class="animable" fill="#263238"/><path d="M468.74 198.67a17.35 17.35 0 0 1-1.77 4.06 17.17 17.17 0 0 1-2.64 3.57 17.42 17.42 0 0 1 1.77-4.07 17.76 17.76 0 0 1 2.64-3.56z" style="transform-origin:466.535px 202.485px" id="el5azqcgb6xwt" class="animable" fill="#263238"/><path d="M477.82 200.92a17.45 17.45 0 0 1 .49 4.41 17 17 0 0 1-.5 4.41 19.51 19.51 0 0 1 0-8.82z" style="transform-origin:477.809px 205.33px" id="elgfq4v0qmyhg" class="animable" fill="#263238"/><path d="M486.8 198.33a18.05 18.05 0 0 1 2.63 3.57 17.42 17.42 0 0 1 1.77 4.1 16.78 16.78 0 0 1-2.63-3.57 17.42 17.42 0 0 1-1.77-4.1z" style="transform-origin:489px 202.165px" id="elafvquwp3mge" class="animable" fill="#263238"/><path d="M493.28 191.6a17.42 17.42 0 0 1 4.07 1.77 17.77 17.77 0 0 1 3.57 2.65 19.83 19.83 0 0 1-7.64-4.42z" style="transform-origin:497.1px 193.81px" id="el3zbibkmp3c9" class="animable" fill="#263238"/><path d="M495.53 182.53a19.51 19.51 0 0 1 8.82 0 17.45 17.45 0 0 1-4.41.49 17.93 17.93 0 0 1-4.41-.49z" style="transform-origin:499.94px 182.524px" id="elgngev7e0xw" class="animable" fill="#263238"/><path d="M493 173.54a19.78 19.78 0 0 1 7.64-4.4 19.45 19.45 0 0 1-7.64 4.4z" style="transform-origin:496.82px 171.34px" id="eln92nxqbpvre" class="animable" fill="#263238"/><path d="M486.21 167.06A17.88 17.88 0 0 1 488 163a17.38 17.38 0 0 1 2.64-3.56 17 17 0 0 1-1.78 4.06 17.44 17.44 0 0 1-2.65 3.56z" style="transform-origin:488.425px 163.25px" id="elwffh3v2pmub" class="animable" fill="#263238"/></g><g id="freepik--Folder--inject-19" class="animable" style="transform-origin:366.355px 283.945px;animation:1s 1 forwards cubic-bezier(.36,-.01,.5,1.38) zoomIn;animation-delay:0s"><path style="transform-origin:360.18px 335.96px" id="el218s4fyo2vg" class="animable" fill="#ffc727" d="M236.38 246.22h247.6V425.7h-247.6z"/><path style="transform-origin:282.635px 236.93px" id="ely4pggfvxy2a" class="animable" fill="#ffc727" d="M323.86 227.64h-87.48v18.58h92.51l-5.03-18.58z"/><g style="transform-origin:360.18px 326.67px" class="animable" opacity=".1" id="elr3kafxe4cm"><path id="elatyqht7dm8" class="animable" style="transform-origin:360.18px 335.96px" d="M236.38 246.22h247.6V425.7h-247.6z"/><path id="el5p1m1rbfh7x" class="animable" style="transform-origin:282.635px 236.93px" d="M323.86 227.64h-87.48v18.58h92.51l-5.03-18.58z"/></g><path d="M435.56 347.58c-48.34-13.83-95.61-27.51-142.14-41.05 11.71-54.69 44.5-108.27 46.7-163.79 48.3 13 95.54 26.08 142 39.18-11.8 55.58-44.55 109.7-46.56 165.66z" style="transform-origin:387.77px 245.16px" id="elpdyrxlnmonk" class="animable" fill="#ebebeb"/><path d="M435.56 347.58a33949.08 33949.08 0 0 1-142.19-40.79l-.28-.08.05-.26c11.67-54.71 44.41-108.3 46.51-163.84v-.42l.47.13c48.34 13.07 95.59 26.16 142.1 39.3l.32.09-.07.3c-11.95 55.55-44.79 109.64-46.91 165.57zm0 0c1.9-56 34.57-110.14 46.28-165.75.09.12.17.25.26.38-46.5-13.05-93.72-26.06-142-39.05l.49-.29c-2.3 55.5-35.14 109.07-46.88 163.75l-.23-.34c46.52 13.62 93.74 27.38 142.08 41.3z" style="transform-origin:387.815px 244.885px" id="elas8gnnuyos" class="animable" fill="#dbdbdb"/><path d="M427.91 246c-7.19 19.19-29 29.89-49.29 23.88s-31-26.28-24-45.37 28-30 48.54-24.06 32.02 26.29 24.75 45.55z" style="transform-origin:391.289px 235.19px" id="el4pmwqd6rahm" class="animable" fill="#455a64"/><path d="M391.3 235.18c-8.33 9.52-16.76 19-25 28.51a33.92 33.92 0 0 1-11.65-39.23c6.9-19 28.1-29.91 48.54-24.06s31.94 26.46 24.71 45.55q-18.29-5.4-36.6-10.77z" style="transform-origin:391.279px 231.255px" id="elc3md7fdkqcq" class="animable" fill="#dbdbdb"/><path d="M391.3 235.18c7.27 9.77 14.46 19.54 21.8 29.34a41.17 41.17 0 0 1-34.48 5.31c-20.3-5.95-30.93-26.4-24-45.37s28.1-29.91 48.54-24.06 31.94 26.46 24.71 45.55q-18.26-5.4-36.57-10.77z" style="transform-origin:391.272px 235.154px" id="elevtc8mnwnzk" class="animable" fill="#dbdbdb"/><path d="M391.3 235.18l-38.4 6.4a34.79 34.79 0 0 1 1.76-17.12c6.9-19 28.1-29.91 48.54-24.06s31.94 26.46 24.71 45.55q-18.3-5.4-36.61-10.77z" style="transform-origin:391.301px 222.385px" id="eljto54rtbj2" class="animable" fill="#ffc727"/><path d="M351.07 166.82q29.43 8.18 58.45 16.38c-.34 1.41-.69 2.83-1 4.25q-28.92-8.2-58.2-16.38c.23-1.42.49-2.83.75-4.25z" style="transform-origin:379.92px 177.135px" id="elmga4zf5xy1k" class="animable" fill="#dbdbdb"/><path d="M346.65 276.18q38.78 11.43 78 23a332.7 332.7 0 0 0-1.14 4.24q-39.37-11.55-78.22-23 .66-2.14 1.36-4.24z" style="transform-origin:384.97px 289.8px" id="elunrrrrndl5a" class="animable" fill="#dbdbdb"/><path d="M343.27 286.79q39 11.47 78.61 23.07c-.34 1.42-.66 2.84-1 4.25Q381.14 302.5 342 291c.43-1.41.84-2.81 1.27-4.21z" style="transform-origin:381.94px 300.45px" id="elgexltm4guvj" class="animable" fill="#dbdbdb"/><path d="M340.24 297.41q39.36 11.54 79.37 23.19c-.26 1.42-.51 2.84-.74 4.27q-40.25-11.69-79.72-23.24c.35-1.41.72-2.82 1.09-4.22z" style="transform-origin:379.38px 311.14px" id="elwdqe1ilauf" class="animable" fill="#dbdbdb"/><path d="M331.36 276.3l-9.36-2.77c.47-1.4.95-2.79 1.43-4.19l9.39 2.76q-.77 2.1-1.46 4.2z" style="transform-origin:327.41px 272.82px" id="elr6c2bq24gl9" class="animable" fill="#ffc727"/><path d="M328 286.89l-9.47-2.78c.43-1.4.87-2.8 1.32-4.19l9.44 2.77c-.43 1.4-.85 2.8-1.29 4.2z" style="transform-origin:323.91px 283.405px" id="el9ezksds3nxk" class="animable" fill="#455a64"/><path d="M325 297.5l-9.55-2.79q.57-2.1 1.17-4.2l9.51 2.78c-.36 1.4-.74 2.81-1.13 4.21z" style="transform-origin:320.79px 294.005px" id="elevvoakysri4" class="animable" fill="#dbdbdb"/><path d="M480.31 222.36q-.74 95.81-1.8 189.48c-78.34 4.61-161.72-21.91-238.46-7.44q.72-95.8 1.8-189.49c78.34-4.6 161.71 21.92 238.46 7.45z" style="transform-origin:360.18px 313.376px" id="elp3j41bdias" class="animable" fill="#ffc727"/><path d="M480.31 222.36q-.74 95.81-1.8 189.48c-78.34 4.61-161.72-21.91-238.46-7.44q.72-95.8 1.8-189.49c78.34-4.6 161.71 21.92 238.46 7.45z" style="transform-origin:360.18px 313.376px" class="animable" fill="#fff" opacity=".8" id="ela9cllrfe0w"/><path d="M274.73 383.09q.61-52 1.31-103.47 3 0 6.11.12-.7 51.38-1.35 103.16-3.04.1-6.07.19z" style="transform-origin:278.44px 331.355px" id="elj8ihyfju34" class="animable" fill="#dbdbdb"/><path d="M290.07 382.83q.68-51.58 1.42-102.75c2.05.09 4.09.2 6.14.32q-.75 51.08-1.46 102.5c-2.03-.04-4.07-.07-6.1-.07z" style="transform-origin:293.85px 331.49px" id="elied7gaqaxtf" class="animable" fill="#dbdbdb"/><path d="M305.5 383.19q.74-51.26 1.5-102.19l6.17.48q-.79 50.87-1.55 102-3.04-.16-6.12-.29z" style="transform-origin:309.335px 332.24px" id="el6t5zeu1secw" class="animable" fill="#dbdbdb"/><path d="M321 384.05q1.14-74.68 2.35-148.91l6.19.63q-1.21 74.22-2.37 148.74c-2.04-.16-4.09-.32-6.17-.46z" style="transform-origin:325.27px 309.825px" id="elyhoanbe9ie9" class="animable" fill="#dbdbdb"/><path d="M336.6 385.31q1.18-74.42 2.41-148.53l6.2.68q-1.21 74.14-2.42 148.42c-2.06-.2-4.13-.39-6.19-.57z" style="transform-origin:340.905px 311.33px" id="elyuy2twq98go" class="animable" fill="#dbdbdb"/><path d="M352.23 386.83q1.2-74.24 2.43-148.34l6.21.67q-1.23 74.19-2.45 148.32z" style="transform-origin:356.55px 312.985px" id="elyo6rpanukwc" class="animable" fill="#dbdbdb"/><path d="M367.87 388.5q1.23-74.14 2.44-148.35l6.19.62q-1.19 74.31-2.42 148.41z" style="transform-origin:372.185px 314.665px" id="elzqc69yivt5" class="animable" fill="#dbdbdb"/><path d="M383.53 390.21q1.22-74.16 2.4-148.56 3.09.27 6.18.51-1.17 74.55-2.38 148.71c-2.07-.21-4.13-.43-6.2-.66z" style="transform-origin:387.82px 316.26px" id="elhupbr0n0wcb" class="animable" fill="#dbdbdb"/><path d="M399.17 391.84q1.2-74.29 2.33-149c2.05.14 4.11.26 6.15.37q-1.09 74.89-2.29 149.21z" style="transform-origin:403.41px 317.63px" id="el61hl8pudj3" class="animable" fill="#dbdbdb"/><path d="M414.78 393.26q1.16-74.52 2.23-149.61 3.06.12 6.12.18-1 75.33-2.18 149.92z" style="transform-origin:418.955px 318.7px" id="elmcv71z4nfug" class="animable" fill="#dbdbdb"/><path d="M430.33 394.37q1.11-74.85 2.1-150.43 3 0 6.08-.06-.93 75.86-2 150.81-3.1-.13-6.18-.32z" style="transform-origin:434.42px 319.285px" id="el1ianbbrvo0e" class="animable" fill="#dbdbdb"/><path d="M445.82 395q1-75.27 1.93-151.46c2-.1 4-.21 6-.35q-.84 76.5-1.86 151.92-3 .01-6.07-.11z" style="transform-origin:449.785px 319.15px" id="elrybomyeat3" class="animable" fill="#dbdbdb"/><path style="transform-origin:359.43px 318.705px" id="eljj3adtcn3o" class="animable" fill="#ebebeb" d="M243.55 228.43h231.76v180.55H243.55z"/><path d="M475.32 228.43l.31 180.57v.32h-.31l-231.77.17h-.49V409l.12-180.54v-.38h.37zm0 0l-231.77.37.38-.37L244 409l-.49-.49 231.77.18-.28.31z" style="transform-origin:359.345px 318.785px" id="ela01xb4obm06" class="animable" fill="#dbdbdb"/><path style="transform-origin:293.085px 318.7px" id="elin87t6pvkbb" class="animable" fill="#c7c7c7" d="M293.08 389.22l-.17-70.52.17-70.52.18 70.52-.18 70.52z"/><path style="transform-origin:298.835px 318.7px" id="eligm5jcy7wsm" class="animable" fill="#c7c7c7" d="M298.84 389.22l-.18-70.52.18-70.52.17 70.52-.17 70.52z"/><path style="transform-origin:304.59px 318.7px" id="elpz3d02olh2" class="animable" fill="#c7c7c7" d="M304.59 389.22l-.18-70.52.18-70.52.18 70.52-.18 70.52z"/><path style="transform-origin:310.34px 318.7px" id="el68wn65n1hr7" class="animable" fill="#c7c7c7" d="M310.34 389.22l-.18-70.52.18-70.52.18 70.52-.18 70.52z"/><path style="transform-origin:316.09px 318.7px" id="elk5kjephzlsi" class="animable" fill="#c7c7c7" d="M316.09 389.22l-.18-70.52.18-70.52.18 70.52-.18 70.52z"/><path style="transform-origin:321.845px 318.7px" id="el79qypvohn3p" class="animable" fill="#c7c7c7" d="M321.84 389.22l-.17-70.52.17-70.52.18 70.52-.18 70.52z"/><path style="transform-origin:327.595px 318.7px" id="elep5quq724rb" class="animable" fill="#c7c7c7" d="M327.6 389.22l-.18-70.52.18-70.52.17 70.52-.17 70.52z"/><path style="transform-origin:333.345px 318.7px" id="elhiaxypnz0is" class="animable" fill="#c7c7c7" d="M333.35 389.22l-.18-70.52.18-70.52.17 70.52-.17 70.52z"/><path style="transform-origin:339.1px 318.7px" id="el61k5gneu4d" class="animable" fill="#c7c7c7" d="M339.1 389.22l-.18-70.52.18-70.52.18 70.52-.18 70.52z"/><path style="transform-origin:344.85px 318.7px" id="elmcr6afgfnd" class="animable" fill="#c7c7c7" d="M344.85 389.22l-.18-70.52.18-70.52.18 70.52-.18 70.52z"/><path style="transform-origin:350.6px 318.7px" id="elgvrd50yr0r6" class="animable" fill="#c7c7c7" d="M350.6 389.22l-.18-70.52.18-70.52.18 70.52-.18 70.52z"/><path style="transform-origin:356.355px 318.7px" id="el2cwupm4h9kb" class="animable" fill="#c7c7c7" d="M356.35 389.22l-.17-70.52.17-70.52.18 70.52-.18 70.52z"/><path style="transform-origin:362.105px 318.7px" id="el2clyrrhptac" class="animable" fill="#c7c7c7" d="M362.11 389.22l-.18-70.52.18-70.52.17 70.52-.17 70.52z"/><path style="transform-origin:367.86px 318.7px" id="elfgz2mq9m7hd" class="animable" fill="#c7c7c7" d="M367.86 389.22l-.18-70.52.18-70.52.18 70.52-.18 70.52z"/><path style="transform-origin:373.61px 318.7px" id="elr8u49kqqx3g" class="animable" fill="#c7c7c7" d="M373.61 389.22l-.18-70.52.18-70.52.18 70.52-.18 70.52z"/><path style="transform-origin:368.25px 368.96px" class="animable" fill="#ffc727" transform="rotate(-90)" d="M362.9 356.89h10.7v24.14h-10.7z" id="el0dozr37wc7wl"/><path style="transform-origin:361.81px 349.115px" class="animable" fill="#ffc727" transform="rotate(-90)" d="M356.46 330.61h10.7v37.01h-10.7z" id="elhntsr88ezb5"/><path style="transform-origin:354.6px 329.275px" class="animable" fill="#ffc727" transform="rotate(-90)" d="M349.25 303.56h10.7v51.43h-10.7z" id="el2ovwi7ex5m3"/><path style="transform-origin:351.51px 309.43px" class="animable" fill="#ffc727" transform="rotate(-90)" d="M346.16 280.62h10.7v57.62h-10.7z" id="el12j2eh01h05"/><path style="transform-origin:345.99px 289.595px" class="animable" fill="#ffc727" transform="rotate(-90)" d="M340.64 255.27h10.7v68.65h-10.7z" id="elukzlwojn1r"/><path style="transform-origin:340.54px 269.745px" class="animable" fill="#ffc727" transform="rotate(-90)" d="M335.19 229.97h10.7v79.55h-10.7z" id="elx1n8s2awe7"/><path d="M289.05 385.4l22.81-.28 22.82-.19c15.21-.13 30.42-.17 45.63-.2l-.66.67v-34.31l.08-34.3.22-34.31.39-34.3.4 34.3.21 34.31.08 34.3v34.97h-.66c-15.21 0-30.42-.07-45.63-.2l-22.82-.19z" style="transform-origin:335.04px 317.12px" id="elkfexpcdgvkq" class="animable" fill="#c7c7c7"/><path style="transform-origin:385.62px 368.965px" class="animable" fill="#c7c7c7" transform="rotate(-90)" d="M380.27 368.48h10.7v.97h-10.7z" id="el3afbzp347g6"/><path style="transform-origin:385.62px 349.115px" class="animable" fill="#c7c7c7" transform="rotate(-90)" d="M380.27 348.63h10.7v.97h-10.7z" id="ellht7bqipco"/><path style="transform-origin:385.62px 329.275px" class="animable" fill="#c7c7c7" transform="rotate(-90)" d="M380.27 328.79h10.7v.97h-10.7z" id="elv3m4mxopzrf"/><path style="transform-origin:385.62px 309.435px" class="animable" fill="#c7c7c7" transform="rotate(-90)" d="M380.27 308.95h10.7v.97h-10.7z" id="el8d9h9i21p7i"/><path style="transform-origin:385.62px 289.595px" class="animable" fill="#c7c7c7" transform="rotate(-90)" d="M380.27 289.11h10.7v.97h-10.7z" id="elola9i3vm7xa"/><path style="transform-origin:385.62px 269.755px" class="animable" fill="#c7c7c7" transform="rotate(-90)" d="M380.27 269.27h10.7v.97h-10.7z" id="elg9qdd1izd0i"/><path d="M359.22 373.1a129.4 129.4 0 0 0-1.22-15.62 148 148 0 0 0-2.77-15.39 133.15 133.15 0 0 0-10.35-29.39 104.78 104.78 0 0 0-17.45-25.7l-1.31-1.44-1.39-1.37-2.79-2.73c-2-1.68-3.87-3.49-6-5a105.94 105.94 0 0 0-13-8.75l.05-.09a94 94 0 0 1 35.24 30.81 104.25 104.25 0 0 1 8 13.61 127.42 127.42 0 0 1 10.12 29.81 128.92 128.92 0 0 1 2.87 31.25z" style="transform-origin:331.11px 320.36px" id="elq09m8x05u2" class="animable" fill="#263238"/><path style="transform-origin:306.18px 270.13px" id="elpr6mse7e8im" class="animable" fill="#263238" d="M310.44 264.67l.37 1.48-7.3 1.82 2.35 7.15-1.46.47-2.85-8.71 8.89-2.21z"/><path style="transform-origin:419.17px 318.695px" class="animable" fill="#dbdbdb" transform="rotate(90)" d="M345.63 315.72h147.08v5.95H345.63z" id="elymw7teg8d7e"/><path style="transform-origin:434.19px 350.835px" class="animable" fill="#dbdbdb" transform="rotate(90)" d="M392.79 347.86h82.8v5.95h-82.8z" id="elco2hvct2we8"/><path style="transform-origin:272.14px 318.695px" class="animable" fill="#dbdbdb" transform="rotate(90)" d="M230.74 315.72h82.8v5.95h-82.8z" id="el4at0q26rvj"/><path style="transform-origin:402.12px 327.41px" id="elzjoxow50hnm" class="animable" fill="#ffc727" d="M518.05 237.18l-.09 180.55-231.77-.12.07-134.05 44.18-46.47 187.61.09z"/><path style="transform-origin:402.12px 327.41px" class="animable" fill="#fff" opacity=".6" d="M518.05 237.18l-.09 180.55-231.77-.12.07-134.05 44.18-46.47 187.61.09z" id="elsb5urt8u6he"/><path style="transform-origin:308.35px 260.335px" id="eliox3d3jviy" class="animable" fill="#ffc727" d="M286.26 283.56l44.18-46.47-.02 46.49-44.16-.02z"/><path style="transform-origin:308.35px 260.335px" class="animable" fill="#fff" opacity=".4" d="M286.26 283.56l44.18-46.47-.02 46.49-44.16-.02z" id="elhtn8y9fyrlv"/><path style="transform-origin:328.09px 349.825px" class="animable" fill="#fff" transform="rotate(90.03)" d="M277.9 346.85h100.38v5.95H277.9z" id="elu5jj03ll2q9"/><path style="transform-origin:343.11px 349.835px" class="animable" fill="#fff" transform="rotate(90.03)" d="M292.92 346.86H393.3v5.95H292.92z" id="ell1qi1w0zki"/><path style="transform-origin:358.13px 349.845px" class="animable" fill="#fff" transform="rotate(90.03)" d="M307.94 346.87h100.38v5.95H307.94z" id="elh7fihga53x9"/><path style="transform-origin:373.17px 326.505px" class="animable" fill="#fff" transform="rotate(90.03)" d="M299.63 323.53h147.08v5.95H299.63z" id="elg6kpotnj54k"/><path style="transform-origin:388.19px 326.505px" class="animable" fill="#fff" transform="rotate(90.03)" d="M314.65 323.53h147.08v5.95H314.65z" id="els8l2ithxnwm"/><path style="transform-origin:403.21px 326.515px" class="animable" fill="#fff" transform="rotate(90.03)" d="M329.67 323.54h147.08v5.95H329.67z" id="elsbu6tecf91"/><path style="transform-origin:418.23px 326.525px" class="animable" fill="#fff" transform="rotate(90.03)" d="M344.69 323.55h147.08v5.95H344.69z" id="elx128gwqeifk"/><path style="transform-origin:433.25px 326.535px" class="animable" fill="#fff" transform="rotate(90.03)" d="M359.71 323.56h147.08v5.95H359.71z" id="elb7gm1a1pnwm"/><path style="transform-origin:448.27px 326.535px" class="animable" fill="#fff" transform="rotate(90.03)" d="M374.73 323.56h147.08v5.95H374.73z" id="ely0yq14wus7q"/><path style="transform-origin:463.3px 326.545px" class="animable" fill="#fff" transform="rotate(90.03)" d="M389.76 323.57h147.08v5.95H389.76z" id="elcbdiodq9i7b"/><path style="transform-origin:478.32px 326.555px" class="animable" fill="#fff" transform="rotate(90.03)" d="M404.78 323.58h147.08v5.95H404.78z" id="ell9cyl4qqddo"/><path style="transform-origin:493.34px 326.565px" class="animable" fill="#fff" transform="rotate(90.03)" d="M419.8 323.59h147.08v5.95H419.8z" id="el82di8td43ad"/><path style="transform-origin:349.98px 343.405px" id="eltxogkjcrt4" class="animable" fill="#ffc727" d="M483.33 425.7h-247.6l-19.1-164.59h247.6l19.1 164.59z"/><path style="transform-origin:261.9px 252.59px" id="eluknip414xmq" class="animable" fill="#ffc727" d="M302.14 244.07h-87.48l1.97 17.04h92.51l-7-17.04z"/></g><g id="freepik--character-1--inject-19" class="animable" style="transform-origin:202.858px 288.543px;animation:1s 1 forwards cubic-bezier(.36,-.01,.5,1.38) zoomIn,1.5s Infinite linear wind;animation-delay:0s,1s"><path d="M264.7 447.7c-2.26.73-66.79.16-69.24-1.41-.93-.6-1.39-10-1.63-21.38-.05-2.45-.09-5-.12-7.57l-4.81-34.48 43.14.26 3.65 34.47-.26 7.57s24.61 11.27 27.11 13.28 4.46 8.56 2.16 9.26z" style="transform-origin:227.311px 415.437px" id="elaa2tlvnkb9f" class="animable" fill="#eb9481"/><path d="M264.7 447.7c-2.26.73-66.79.16-69.24-1.41-1.13-.73-1.58-14.46-1.75-29l42 .25-.26 7.57s24.61 11.27 27.11 13.28 4.44 8.61 2.14 9.31z" style="transform-origin:229.718px 432.652px" id="elaogr5li41ok" class="animable" fill="#fff"/><path d="M264.7 447.7c-2.26.73-66.79.16-69.24-1.41-.93-.6-1.39-10-1.63-21.38l41.6.25s24.61 11.27 27.11 13.28 4.46 8.56 2.16 9.26z" style="transform-origin:229.776px 436.462px" id="elhdxon4zd88" class="animable" fill="#ffc727"/><path d="M263.8 445.11c-10.82-.36-54.47-.8-65.19-.33-.08 0-.08.06 0 .06 10.71.6 54.37.68 65.19.44.2 0 .2-.17 0-.17z" style="transform-origin:231.25px 444.991px" id="eld8osh4fc2z" class="animable" fill="#263238"/><path d="M258.41 436.09a8.67 8.67 0 0 0-6.5 2.58 8.43 8.43 0 0 0-2.46 5.75c0 .07.12.07.13 0a10 10 0 0 1 8.83-8.2.07.07 0 0 0 0-.13z" style="transform-origin:253.952px 440.278px" id="elhrdza7ro9j4" class="animable" fill="#263238"/><path d="M239.62 426.27c-4.33-.1-9.36 1.39-12.09 4.9-.1.14.09.29.22.22a60.61 60.61 0 0 1 11.94-4.59.27.27 0 0 0-.07-.53z" style="transform-origin:233.695px 428.837px" id="eld261cs03oz8" class="animable" fill="#263238"/><path d="M243 427.6c-4.33-.1-9.36 1.39-12.08 4.91-.11.13.08.28.21.22a59.39 59.39 0 0 1 11.87-4.59.28.28 0 0 0 0-.54z" style="transform-origin:237.046px 430.169px" id="ellmqzo0az75" class="animable" fill="#263238"/><path d="M246.28 428.94c-4.33-.1-9.36 1.38-12.08 4.9-.11.13.09.28.21.22a59.39 59.39 0 0 1 11.94-4.59.27.27 0 0 0-.07-.53z" style="transform-origin:240.358px 431.504px" id="el2o4paa3c6jy" class="animable" fill="#263238"/><path d="M249.61 430.27c-4.33-.1-9.36 1.38-12.08 4.9-.11.14.09.29.22.22a60.28 60.28 0 0 1 11.93-4.59.27.27 0 0 0-.07-.53z" style="transform-origin:243.688px 432.837px" id="ely1t1w3ddo0b" class="animable" fill="#263238"/><path d="M201.46 434.53c-4.86 0-4.91 7.52-.05 7.55s4.91-7.52.05-7.55z" style="transform-origin:201.435px 438.305px" id="elx52r5uy3fx" class="animable" fill="#263238"/><path d="M244.4 414.76c-2.18-1.84-5-.09-6.32 1.79a22.65 22.65 0 0 0-4 11 .11.11 0 0 0 .13.12.53.53 0 0 0 .78.36c3.1-2.11 6.67-4 9-7 1.39-1.68 2.47-4.53.41-6.27zm-5.4 9.15c-1.5 1.08-3 2.07-4.51 3.2a67.29 67.29 0 0 1 2.5-6.4 23.48 23.48 0 0 1 1.61-2.9c.95-1.43 5.23-5 5.62-.29.22 2.6-3.43 5.12-5.22 6.39z" style="transform-origin:239.813px 421.039px" id="el3bj1bv83g6q" class="animable" fill="#263238"/><path d="M223.28 429.1c3.76.61 7.66-.43 11.37-1a.54.54 0 0 0 .33-.79.11.11 0 0 0 0-.18 22.64 22.64 0 0 0-10.42-5.42c-2.28-.46-5.51.13-5.87 2.95s2.39 4.08 4.59 4.44zm-2.6-2.49c-2.89-3.74 2.68-4 4.35-3.59a25.34 25.34 0 0 1 3.15 1.06c2.14.85 4.12 2 6.15 3-1.83.16-3.64.47-5.47.69-2.19.29-6.58.9-8.18-1.16z" style="transform-origin:226.855px 425.428px" id="els7brkmxm1ti" class="animable" fill="#263238"/><path d="M127.48 223s49 85.84 50.31 91.84c2 9.22 11.75 100.15 11.75 100.15l48.27-.3s-8-80.16-16.18-106.64c-4.46-14.45-28-53.64-39-73-1-1.73-.7-9.64-.7-9.64z" style="transform-origin:182.645px 318.995px" id="elvl2scj0fq3m" class="animable" fill="#455a64"/><path d="M233.17 406.63c-7.48-.14-30.14-.77-40.11 0-.08 0-.08.13 0 .14 3.42.54 32.63.18 40.11 0a.1.1 0 1 0 0-.14z" style="transform-origin:213.171px 406.655px" id="eln4udwgj51s" class="animable" fill="#263238"/><path d="M135.93 230.92c3.22 5.19 6.62 10.27 9.91 15.42s6.58 10.3 9.82 15.48q9.71 15.54 19 31.35a94.36 94.36 0 0 1 7.62 15.29 93 93 0 0 1 4.2 16.41c.95 5.6 1.56 11.26 2.12 16.91q.9 9 1.79 18.06 1.84 18.48 3.67 37c.15 1.51.3 3 .43 4.54 0 .22-.38.26-.4 0-1.39-12.25-2.51-24.52-3.75-36.78l-1.86-18.31c-.57-5.67-1.12-11.35-1.93-17a111.49 111.49 0 0 0-3.55-16.46 78.74 78.74 0 0 0-7-16c-5.91-10.49-12.17-20.81-18.44-31.11s-12.7-20.73-19.32-30.93c-.82-1.26-1.64-2.51-2.49-3.75-.05-.13.12-.22.18-.12z" style="transform-origin:165.115px 316.219px" id="el3g23t8kq2hl" class="animable" fill="#263238"/><path d="M146.89 451.2c-2.38-.2-63.43-25.79-65.11-28.2a.8.8 0 0 1-.09-.45c0-2.11 4.38-9.45 8-19.09.23-.62 1.85-3.47 4.09-7.33 6.17-10.57 17.09-28.69 17.09-28.69l39.91 16.43-19.55 28.5-3.07 6.92s18.58 19.68 20.13 22.49.96 9.58-1.4 9.42z" style="transform-origin:116.233px 409.321px" id="elvna7zvb4xs" class="animable" fill="#eb9481"/><path d="M146.89 451.2c-2.38-.2-63.43-25.79-65.11-28.2a.8.8 0 0 1-.09-.45c0-2.11 4.38-9.45 8-19.09.23-.62 1.85-3.47 4.09-7.33l37.45 16.24-3.07 6.92s18.58 19.68 20.13 22.49.96 9.58-1.4 9.42z" style="transform-origin:115.418px 423.666px" id="el2a0ya6rclm" class="animable" fill="#fff"/><path d="M146.88 451.2c-2.37-.17-63.43-25.79-65.1-28.17-.64-.9 2.2-9.25 8-19.54l38.47 15.83s18.59 19.68 20.15 22.49.85 9.55-1.52 9.39z" style="transform-origin:115.461px 427.346px" id="elaomkd65c1l" class="animable" fill="#ffc727"/><path d="M147 448.46c-9.89-4.39-50.2-21.17-60.3-24.76-.09 0-.11 0 0 .06 9.71 4.57 50.14 21 60.26 24.86.2.08.26-.07.04-.16z" style="transform-origin:116.882px 436.171px" id="elbidmpt3187n" class="animable" fill="#263238"/><path d="M145.4 438.07a8.71 8.71 0 0 0-7 0 8.43 8.43 0 0 0-4.44 4.41c0 .06.08.11.12.05a10 10 0 0 1 11.26-4.29.07.07 0 0 0 .06-.17z" style="transform-origin:139.709px 439.946px" id="elf4simkmazhu" class="animable" fill="#263238"/><path d="M131.67 421.93c-4-1.72-9.2-2.23-13 0-.15.09 0 .3.12.28a60 60 0 0 1 12.78.23.27.27 0 0 0 .1-.51z" style="transform-origin:125.213px 421.441px" id="el24bllqtq1p7" class="animable" fill="#263238"/><path d="M134.26 424.41c-4-1.71-9.2-2.23-13 0-.15.09 0 .3.12.29a59.38 59.38 0 0 1 12.78.22.27.27 0 0 0 .1-.51z" style="transform-origin:127.803px 423.923px" id="elfbdrz7w02qa" class="animable" fill="#263238"/><path d="M136.84 426.9c-4-1.72-9.19-2.23-13 0-.15.08 0 .29.12.28a60.12 60.12 0 0 1 12.79.23.27.27 0 0 0 .09-.51z" style="transform-origin:130.383px 426.411px" id="elx6ngk911mhm" class="animable" fill="#263238"/><path d="M139.43 429.38c-4-1.71-9.2-2.23-13 0-.15.09 0 .3.12.29a59.47 59.47 0 0 1 12.79.22.27.27 0 0 0 .09-.51z" style="transform-origin:132.973px 428.893px" id="elte89wtub8ok" class="animable" fill="#263238"/><path d="M93.2 415.26c-4.49-1.84-7.37 5.13-2.88 7s7.38-5.14 2.88-7z" style="transform-origin:91.7622px 418.764px" id="elcji0nd98ejt" class="animable" fill="#263238"/><path d="M140.42 413.05c-1.33-2.52-4.56-1.94-6.53-.71a22.65 22.65 0 0 0-7.88 8.72.11.11 0 0 0 .08.16.52.52 0 0 0 .58.62c3.67-.78 7.68-1.17 11-3.06 1.93-1.1 4-3.35 2.75-5.73zm-8.42 6.46c-1.79.43-3.59.77-5.37 1.27 1.54-1.69 3-3.45 4.71-5a25.88 25.88 0 0 1 2.58-2.09c1.42-1 6.73-2.67 5.33 1.84-.8 2.47-5.13 3.47-7.25 3.98z" style="transform-origin:133.399px 416.567px" id="eljjilr3fzn8" class="animable" fill="#263238"/><path d="M115.46 418.42c3.26 2 7.26 2.47 10.9 3.36.38.1.63-.28.61-.6a.12.12 0 0 0 .08-.17 22.75 22.75 0 0 0-7.64-8.93c-1.93-1.28-5.15-1.95-6.54.53s.69 4.65 2.59 5.81zm-1.46-3.28c-1.28-4.56 4-2.7 5.37-1.7a26.07 26.07 0 0 1 2.52 2.16c1.67 1.59 3.08 3.39 4.57 5.12-1.76-.54-3.55-.93-5.33-1.41-2.13-.58-6.43-1.66-7.13-4.17z" style="transform-origin:119.74px 416.365px" id="el1fp2xq3qite" class="animable" fill="#263238"/><path d="M134.39 410.83l-44.67-18.68s56.67-81.16 57.16-87.24c.43-5.39-23.44-52.65-24.23-66.35-.86-14.78 6.39-26.12 14.29-33.12l45 20s-3.93 8-11.68 12.3c0 0 23.08 54.56 21.52 71.24s-57.39 101.85-57.39 101.85z" style="transform-origin:140.788px 308.135px" id="ella422ezmkv" class="animable" fill="#455a64"/><path d="M136.49 402.32c-6.45-2.87-4.56-2.14-11.05-4.94-3.18-1.37-24-10.35-27.24-11.11-.07 0-.12.1 0 .14 2.77 1.74 23.8 10.36 27 11.66 6.54 2.68 4.69 1.84 11.26 4.44a.1.1 0 0 0 .03-.19z" style="transform-origin:117.338px 394.39px" id="eltgedobc07mf" class="animable" fill="#263238"/><path d="M177.91 236.82a86 86 0 0 0-14.16 4.4.15.15 0 0 0 .09.28c4.75-1.33 9.59-2.56 14.25-4.13a.29.29 0 0 0-.18-.55z" style="transform-origin:170.972px 239.156px" id="el77lr5uu09wu" class="animable" fill="#263238"/><path d="M172.44 234.84a22.65 22.65 0 0 0-1.22 2.47 5.65 5.65 0 0 0-.63 2.07.16.16 0 0 0 .27.09 7.55 7.55 0 0 0 1.19-1.94c.4-.76.82-1.52 1.2-2.29.26-.51-.52-.89-.81-.4z" style="transform-origin:171.946px 237.064px" id="elp3l2uxr4369" class="animable" fill="#263238"/><path d="M173.06 230.5c.29-.71.58-1.42.89-2.12s.69-1.45 1-2.2c0-.12.23 0 .18.09-.29.71-.48 1.46-.72 2.2s-.49 1.46-.74 2.19c-.47 1.36-1 2.7-1.64 4a5.16 5.16 0 0 0 2.23-.36 4 4 0 0 0 1.59-1.86c.42-.8.8-1.61 1.23-2.39a17 17 0 0 0 1.32-2.67c0-.12.22 0 .18.08a30.71 30.71 0 0 1-2.54 5.68c-.43.7-.79 1.43-1.58 1.7a6.35 6.35 0 0 1-2.64.14c-.11 0-.25 0-.21-.17a44.12 44.12 0 0 1 1.45-4.31z" style="transform-origin:175.094px 230.594px" id="el184yfah5qk" class="animable" fill="#263238"/><path d="M171 239.49c1.6 3.51 3 7 4.5 10.5s2.83 6.87 4.15 10.34q4 10.53 7.15 21.36 1.54 5.35 2.82 10.78a79.22 79.22 0 0 1 2 11 28.73 28.73 0 0 1-1.07 11 63.14 63.14 0 0 1-4.21 10.22c-1 2.07-1.37 1.79-.87.74 1.42-3 5.15-12 5-19.62a57.43 57.43 0 0 0-1.58-10.9c-.8-3.66-1.72-7.29-2.72-10.9-2-7.11-4.33-14.09-6.75-21.05-1.36-3.9-2.83-7.77-4.21-11.66s-2.83-7.46-4.38-11.74a.1.1 0 0 1 .17-.07z" style="transform-origin:181.292px 282.849px" id="elhve8f9czhaa" class="animable" fill="#263238"/><path d="M137 227.55c.81-.29 1.92.21 2.74.36a24.22 24.22 0 0 0 3.17.36 23.78 23.78 0 0 0 3.16-.07 6.73 6.73 0 0 0 3-.76 15.19 15.19 0 0 0 3.91-4 23.75 23.75 0 0 0 3.07-5.24c0-.11.2 0 .16.08-.35 1.07-.61 2.15-1.06 3.2a19.66 19.66 0 0 1-1.51 2.83 12.27 12.27 0 0 1-4.06 4.49c-1.87 1-4.27.94-6.35.8a25.39 25.39 0 0 1-3.57-.52c-.85-.19-2.27-.35-2.81-1.1a.26.26 0 0 1 .15-.43z" style="transform-origin:146.499px 223.916px" id="el431301tbk0x" class="animable" fill="#263238"/><path d="M102.64 383.75q11.28-16.61 22.15-33.49t21.46-34.08c1.68-2.73 3.62-5.46 4.72-8.49 1.2-3.31.58-6.52-.42-9.78a166 166 0 0 0-6.68-17.51c-2.52-5.74-5.24-11.38-7.91-17a163 163 0 0 1-7.47-17.16c-1.9-5.63-2.58-11.46-1-17.25s4.89-10.9 8.34-15.69c.91-1.27 1.83-2.52 2.74-3.78.07-.1.22 0 .15.11-3.8 5-7.51 10.29-9.77 16.19a28.21 28.21 0 0 0-2 9.1 29.43 29.43 0 0 0 1.35 9.36c1.74 5.89 4.54 11.49 7.14 17s5.4 11.31 8 17a181.77 181.77 0 0 1 6.94 17.58c.88 2.67 1.86 5.47 1.76 8.31-.1 3.12-1.63 5.91-3.2 8.52-6.86 11.37-14 22.59-21.16 33.75s-14.58 22.3-22 33.33l-2.89 4.23c-.11.13-.36-.08-.25-.25z" style="transform-origin:127.38px 296.76px" id="elvblmskki5rq" class="animable" fill="#263238"/><path d="M201.32 131.77c-3-4.65-8.92-6.35-14.87-5.78s-13.21 2.85-14.93 12.85c-1.39 8.12.21 16.36-.8 25.48s-13.28 30.25 1.5 42.85c13.27 11.33 43.23 5.6 46.25-14.35 2.39-15.82-14.22-32.53-15.47-39s1.67-16.95-1.68-22.05z" style="transform-origin:191.844px 169.403px" id="el5c1rpbxxpqr" class="animable" fill="#263238"/><path d="M203 141a36.71 36.71 0 0 0 1.14 13.73 13.23 13.23 0 0 0 1.46 3.27c.61 1 1.27 1.94 1.92 2.88 1.33 1.87 2.64 3.73 3.86 5.64a47.64 47.64 0 0 1 5.79 12.21 37.27 37.27 0 0 1 1.38 13.48 31.55 31.55 0 0 0 .53-6.87 34.59 34.59 0 0 0-1-6.86 42.29 42.29 0 0 0-5.65-12.64c-1.25-1.94-2.6-3.81-3.94-5.66a23.69 23.69 0 0 1-3.45-5.73 29.7 29.7 0 0 1-1.52-6.58A57.36 57.36 0 0 1 203 141z" style="transform-origin:210.945px 166.605px" id="eltv39q6xi6f" class="animable" fill="#263238"/><path d="M171.21 145.75c-.39 4.66-.6 9.32-1.21 13.91a59.5 59.5 0 0 1-1.28 6.8c-.57 2.19-1.45 4.36-2.23 6.56s-1.5 4.44-2.11 6.72a42.22 42.22 0 0 0-1.17 7 25.82 25.82 0 0 0 .52 7.07 17.63 17.63 0 0 0 3.1 6.29 18.77 18.77 0 0 1-2.49-6.42 25 25 0 0 1-.16-6.85 60.8 60.8 0 0 1 3.51-13.36c.75-2.2 1.63-4.37 2.19-6.7a47.54 47.54 0 0 0 1.09-7 119.32 119.32 0 0 0 .24-14.02z" style="transform-origin:167.235px 172.925px" id="elke2v3m7ju3j" class="animable" fill="#263238"/><path d="M178.42 169.32c-1.37 7.82-.54 41.66 3.4 52.46 4.6 12.59 14.89 34.76 18.48 34.74 3.42 0 22.06-10.9 20-13.93S204 217 202 212.84c-1.2-2.47-8.56-27.33-13.18-39.77-4.2-11.26-8.51-14.51-10.4-3.75z" style="transform-origin:199.132px 209.626px" id="el92gal7fi1o" class="animable" fill="#eb9481"/><path d="M177.14 191.12l21.77 2.22S190 171 185.48 165.17c-5-6.56-7.3-2.55-8.38 5.25s.04 20.7.04 20.7z" style="transform-origin:187.77px 177.608px" id="elzweqzkjv9d" class="animable" fill="#ffc727"/><path d="M182.82 168.71a1.1 1.1 0 1 1-1.1-1.09 1.1 1.1 0 0 1 1.1 1.09zm-1.1 12.76a1.1 1.1 0 1 0 1.1 1.1 1.09 1.09 0 0 0-1.1-1.1zm9.57 0a1.1 1.1 0 1 0 1.1 1.1 1.1 1.1 0 0 0-1.1-1.1zm-14.35-6.91h-.21c0 .7-.06 1.42-.08 2.14a.92.92 0 0 0 .29 0 1.1 1.1 0 1 0 0-2.2zm9.57 0a1.1 1.1 0 1 0 1.09 1.1 1.1 1.1 0 0 0-1.09-1.1zM177 188.42c.06 1 .11 1.72.15 2.18a1.1 1.1 0 0 0-.15-2.18zm9.56 0a1.1 1.1 0 1 0 1.09 1.09 1.09 1.09 0 0 0-1.14-1.09zm9.56 0a1.1 1.1 0 1 0 1.1 1.09 1.09 1.09 0 0 0-1.15-1.09z" style="transform-origin:186.935px 179.12px" id="el6gaanj9bpdu" class="animable" fill="#fff"/><path d="M196.24 189.16c-.74-.19-7.51-1-9-1.13s-7.5-.78-9-.8a.05.05 0 1 0 0 .1c1.49.31 7.57 1 9.07 1.15s8.22.81 9 .78c0 0-.01-.09-.07-.1z" style="transform-origin:187.25px 188.245px" id="el2ilmsbbfq3t" class="animable" fill="#263238"/><path d="M195.25 193l-18.11-1.84s-1.12-12.91 0-20.71c.79-5.69 2.2-9.36 4.88-8.37z" style="transform-origin:185.946px 177.459px" id="elozmu4qt1ts" class="animable" fill="#263238"/><path d="M182.84 229.65l2.61-21.83s8.27-6.13 7.31-14c-.48-4-5.85-24.41-10.36-30.59-4.24-5.8-12.66-4.44-16.39-1.82-11.87 8.35-21.59 17.41-36.31 48.86z" style="transform-origin:161.269px 194.405px" id="el8dlnzc89urf" class="animable" fill="#ffc727"/><path d="M163.69 168.71a1.1 1.1 0 1 1-1.1-1.09 1.1 1.1 0 0 1 1.1 1.09zm8.47-1.09a1.1 1.1 0 1 0 1.09 1.09 1.09 1.09 0 0 0-1.09-1.09zm9.56 0a1.1 1.1 0 1 0 1.1 1.09 1.09 1.09 0 0 0-1.1-1.09zm-14.35-6.91a.5.5 0 0 0-.17 0 6.37 6.37 0 0 0-.63.35 1.05 1.05 0 0 0-.28.73 1.1 1.1 0 1 0 1.09-1.1zm9.57 0a1.1 1.1 0 1 0 1.1 1.1 1.1 1.1 0 0 0-1.1-1.1zM153 181.47a1.1 1.1 0 1 0 1.1 1.1 1.09 1.09 0 0 0-1.1-1.1zm9.57 0a1.1 1.1 0 1 0 1.1 1.1 1.1 1.1 0 0 0-1.08-1.1zm9.57 0a1.1 1.1 0 1 0 1.09 1.1 1.1 1.1 0 0 0-1.07-1.1zm9.56 0a1.1 1.1 0 1 0 1.1 1.1 1.09 1.09 0 0 0-1.08-1.1zm-23.91-6.91a1.1 1.1 0 1 0 1.09 1.1 1.1 1.1 0 0 0-1.07-1.1zm9.56 0a1.1 1.1 0 1 0 1.1 1.1 1.1 1.1 0 0 0-1.08-1.1zm9.57 0a1.1 1.1 0 1 0 1.1 1.1 1.11 1.11 0 0 0-1.08-1.1zm9.57 0a1.1 1.1 0 1 0 1.09 1.1 1.1 1.1 0 0 0-1.07-1.1zm-43 20.76a1.1 1.1 0 1 0 1.09 1.1 1.1 1.1 0 0 0-1.12-1.1zm9.56 0a1.1 1.1 0 1 0 1.1 1.1 1.09 1.09 0 0 0-1.15-1.1zm9.57 0a1.1 1.1 0 1 0 1.1 1.1 1.1 1.1 0 0 0-1.13-1.1zm9.57 0a1.1 1.1 0 1 0 1.09 1.1 1.1 1.1 0 0 0-1.12-1.1zm9.56 0a1.1 1.1 0 1 0 1.1 1.1 1.09 1.09 0 0 0-1.13-1.1zm9.57 0a1.1 1.1 0 1 0 1.1 1.1 1.1 1.1 0 0 0-1.13-1.1zm-43-6.9a1.1 1.1 0 1 0 1.1 1.09 1.09 1.09 0 0 0-1.18-1.09zm9.57 0a1.1 1.1 0 1 0 1.09 1.09 1.09 1.09 0 0 0-1.17-1.09zm9.56 0a1.1 1.1 0 1 0 1.1 1.09 1.09 1.09 0 0 0-1.18-1.09zm9.57 0a1.1 1.1 0 1 0 1.1 1.09 1.1 1.1 0 0 0-1.18-1.09zm9.57 0a1.1 1.1 0 1 0 1.09 1.09 1.09 1.09 0 0 0-1.17-1.09zm-52.62 20.75a1.1 1.1 0 1 0 1.1 1.1 1.1 1.1 0 0 0-1.18-1.1zm9.57 0a1.1 1.1 0 1 0 1.09 1.1 1.1 1.1 0 0 0-1.17-1.1zm9.56 0a1.1 1.1 0 1 0 1.1 1.1 1.09 1.09 0 0 0-1.2-1.1zm9.57 0a1.1 1.1 0 1 0 1.1 1.1 1.1 1.1 0 0 0-1.18-1.1zm9.57 0a1.1 1.1 0 1 0 1.09 1.1 1.1 1.1 0 0 0-1.17-1.1zm9.56 0a1.1 1.1 0 1 0 1.1 1.1 1.09 1.09 0 0 0-1.18-1.1zm-43.05-6.9a1.1 1.1 0 1 0 1.1 1.09 1.09 1.09 0 0 0-1.18-1.09zm9.57 0a1.1 1.1 0 1 0 1.1 1.09 1.09 1.09 0 0 0-1.18-1.09zm9.57 0a1.1 1.1 0 1 0 1.09 1.09 1.09 1.09 0 0 0-1.17-1.09zm9.56 0a1.1 1.1 0 1 0 1.1 1.09 1.09 1.09 0 0 0-1.18-1.09zm9.57 0a1.1 1.1 0 1 0 1.1 1.09 1.1 1.1 0 0 0-1.18-1.09zm9.57 0a1.1 1.1 0 1 0 1.09 1.09 1.09 1.09 0 0 0-1.17-1.09zM172.16 223a1.1 1.1 0 1 0 1.09 1.1 1.1 1.1 0 0 0-1.09-1.1zm9.56 0a1.1 1.1 0 1 0 1.1 1.1 1.1 1.1 0 0 0-1.1-1.1zm-33.48-6.9a1.08 1.08 0 0 0-1 .57l2 .75a1.64 1.64 0 0 0 0-.23 1.1 1.1 0 0 0-1-1.07zm9.57 0a1.1 1.1 0 1 0 1.09 1.09 1.09 1.09 0 0 0-1.09-1.07zm9.56 0a1.1 1.1 0 1 0 1.1 1.09 1.09 1.09 0 0 0-1.1-1.07zm9.57 0a1.1 1.1 0 1 0 1.1 1.09 1.1 1.1 0 0 0-1.1-1.07z" style="transform-origin:162.645px 192.945px" id="elth30acs48nh" class="animable" fill="#fff"/><path style="transform-origin:198.51px 240.2px" class="animable" fill="#c7c7c7" transform="rotate(-112.36)" d="M192.98 207.93h11.06v64.54h-11.06z" id="ellwr9y4qjg6"/><path style="transform-origin:159.165px 256.39px" id="el5xeu9n05rmq" class="animable" fill="#263238" d="M135.14 257.23l6.36 15.47 41.69-17.15-6.37-15.47-41.68 17.15z"/><path d="M228.74 184.17a50.4 50.4 0 1 1 17.48 69.09 50.45 50.45 0 0 1-17.48-69.09zm5 3a44.62 44.62 0 1 0 61.17-15.48 44.68 44.68 0 0 0-61.21 15.43z" style="transform-origin:272.043px 209.973px" id="elpq03db7pn8" class="animable" fill="#37474f"/><path d="M266.75 261.61a52.15 52.15 0 1 1 18-1.36 51.7 51.7 0 0 1-18 1.36zM277 161.31A48.87 48.87 0 0 0 224.65 222 48.86 48.86 0 1 0 277 161.31zm-9.66 94.55a46.14 46.14 0 0 1-34.93-69.5 46.12 46.12 0 1 1 50.93 68.3 46.42 46.42 0 0 1-16 1.2zm-32.35-68a43.17 43.17 0 1 0 26.46-19.7A43.17 43.17 0 0 0 235 187.89z" style="transform-origin:271.88px 209.716px" id="el13ba6pxghhfo" class="animable" fill="#37474f"/><g style="transform-origin:272.04px 209.965px" class="animable" opacity=".2" id="el1q9udhrdhkj"><path d="M288.53 170.4a42.87 42.87 0 1 0 23.07 56.08 42.89 42.89 0 0 0-23.07-56.08z" style="transform-origin:272.033px 209.97px" id="el14xr1iwjepo" class="animable" fill="#fff"/><path d="M276.78 167.35a42.92 42.92 0 0 0-47.33 37.48z" style="transform-origin:253.115px 185.96px" id="elapx6ywsw7sr" class="animable" fill="#ebebeb"/><path d="M311.48 193.21l-64.83 51.33a43.12 43.12 0 0 0 8.87 5 42.19 42.19 0 0 0 11.27 3l47.87-37.9a42.74 42.74 0 0 0-3.18-21.43z" style="transform-origin:280.782px 222.875px" id="el5rkkwcqf5gd" class="animable" fill="#ebebeb"/><path d="M292.39 172.25l-61.76 48.89a43.48 43.48 0 0 0 3 7.87l65.76-52.07a41.74 41.74 0 0 0-7-4.69z" style="transform-origin:265.01px 200.63px" id="el15pj93oni28" class="animable" fill="#ebebeb"/><path d="M308.82 188l-66.66 52.76c.38.37.75.72 1.14 1.07l66.29-52.48c-.24-.48-.49-.93-.77-1.35z" style="transform-origin:275.875px 214.915px" id="elq7rmgavm2tg" class="animable" fill="#ebebeb"/><path d="M310.72 228.45l-29.58 23.42q1.88-.41 3.72-1l24.06-19a48.61 48.61 0 0 0 1.8-3.42z" style="transform-origin:295.93px 240.16px" id="el382c6mnbrab" class="animable" fill="#ebebeb"/></g><path d="M162.08 163.74c-6.28 4.33-33.55 26.41-36.79 39.11-2 7.79 11.88 35.15 15.63 41.7 1.64 2.85 21.25-6.91 22-10.35s-13.4-28.2-13.66-30.78c0 0 12.63-20.35 19.34-31.19 6.34-10.23 5.21-16.57-6.52-8.49z" style="transform-origin:148.759px 202.566px" id="elhvm75ou3mr" class="animable" fill="#eb9481"/><path d="M171 252.87c2.23 3.46 8 6.17 6 8.51-1.75 2.09-5.59-.18-5.59-.18s3.5 3.95 1 5.66-6.22-1.64-6.22-1.64 3.06 3.16.41 4.68-6.29-.75-6.29-.75.25 1.51-2.1 1.74c-3.36.34-8.43-4.93-10.42-8.3s-6.78-17.21-7.48-19.34l21.56-13s6.31 4.37 9.24 7 10.2 13.87 7.53 15.86-7.67-6.05-9.33-7.75-2.33-1.61-2.18-.26c.08.9 2.87 6.24 3.87 7.77z" style="transform-origin:159.764px 250.578px" id="elsxuaf0rhdun" class="animable" fill="#eb9481"/><path d="M171.3 261c-5.11-3.53-6.74-6-9.14-11.59 0-.11-.22-.07-.18.05 1.85 5.73 3.44 9.07 9.16 11.8.28.14.4-.09.16-.26z" style="transform-origin:166.702px 255.324px" id="elom5i4z335rf" class="animable" fill="#263238"/><path d="M166.42 265.32c-5-4.14-6.77-6.76-9.72-12.47 0-.08-.18 0-.15.07 2.42 5.84 4.1 9.14 9.63 12.62.25.16.47-.03.24-.22z" style="transform-origin:161.532px 259.208px" id="elasknmicqq5" class="animable" fill="#263238"/><path d="M160.27 269.07c-4.55-4.35-6.63-7.14-8.78-13.06a.12.12 0 0 0-.22.07c1.6 6.24 4.18 9.74 8.85 13.11.32.23.43.15.15-.12z" style="transform-origin:155.85px 262.641px" id="el7qivoyljlb" class="animable" fill="#263238"/><path d="M161.15 187.53L141 178.91s18.67-15.19 25.42-18.11c7.6-3.29 7.61 1.31 4.78 8.65s-10.05 18.08-10.05 18.08z" style="transform-origin:156.968px 173.624px" id="elclyqstkkgmo" class="animable" fill="#ffc727"/><path d="M154.11 168.78a1.08 1.08 0 0 1-1.09 1 1 1 0 0 1-.25 0zm8.48-1.16a1.1 1.1 0 1 0 1.1 1.09 1.09 1.09 0 0 0-1.1-1.09zm8.47 1.09a1 1 0 0 0 .21.64c.22-.58.43-1.15.6-1.69a1.09 1.09 0 0 0-.81 1.05zm-3.69-8a1.1 1.1 0 1 0 1.1 1.1 1.09 1.09 0 0 0-1.1-1.1zM153 181.47a1.1 1.1 0 1 0 1.1 1.1 1.09 1.09 0 0 0-1.1-1.1zm9.57 0a1.1 1.1 0 1 0 1.1 1.1 1.1 1.1 0 0 0-1.08-1.1zm-14.35-6.91a1.1 1.1 0 1 0 1.1 1.1 1.1 1.1 0 0 0-1.08-1.1zm9.57 0a1.1 1.1 0 1 0 1.09 1.1 1.1 1.1 0 0 0-1.07-1.1zm9.56 0a1.1 1.1 0 0 0 0 2.2 1 1 0 0 0 .38-.07l.69-1.28a1.1 1.1 0 0 0-1.05-.85z" style="transform-origin:159.495px 172.19px" id="elxkqdjesjjeq" class="animable" fill="#fff"/><path d="M145.39 176.55c.75.19 7.06 2.78 8.42 3.37s6.94 3 8.29 3.69c.06 0 0 .13 0 .1-1.46-.45-7.09-2.83-8.49-3.4s-7.58-3.28-8.22-3.67c-.1-.03-.05-.1 0-.09z" style="transform-origin:153.729px 180.132px" id="el3g4d63241eh" class="animable" fill="#263238"/><path d="M159.56 186.84c.62.22 1.58.59 1.58.59 1.44-2.09 7.76-13.33 9.33-16h.07q-1.18 2.37-2.4 4.71l.4-.53c.48-.63 1-1.25 1.44-1.9 0 0 .13 0 .09.06a18.67 18.67 0 0 1-1.32 2c-.34.44-.72.86-1.1 1.27-.47.9-.93 1.79-1.43 2.67-1.51 2.71-3 5.57-4.71 8.16a11.68 11.68 0 0 1-2-.92c-.11-.03-.04-.14.05-.11z" style="transform-origin:164.997px 179.65px" id="elugb7y2msjxh" class="animable" fill="#263238"/><path d="M220.58 249.77a4 4 0 0 1-4.67.58s.56 3.77-2.11 5.46c-1.37.87-4-.56-4-.56s.31 3-2.16 4.39c-2 1.09-4.27-.51-4.27-.51s-1.06 3.05-3.41 3.51c-4.78.94-15.79-14.86-11.68-21.36 1.92-3 4.4 1 4.4 1s-2.17-6.62 1-9 6.1 3 6.1 3-2.05-6.43 1.51-8.54c3.71-2.19 5.7 3.7 5.7 3.7s-.07-5.17 3-6.16c5.12-1.63 4.73 9.93 8 12.83l7.46-3.1s-2.31 12.47-4.87 14.76z" style="transform-origin:206.414px 243.902px" id="elrtgzhfqr6q" class="animable" fill="#eb9481"/><path d="M203 258.93c0 .05 0 .12-.07.08a33.44 33.44 0 0 1-10.38-16.95c0-.21.28-.38.37-.16A68.38 68.38 0 0 0 203 258.93z" style="transform-origin:197.775px 250.409px" id="el3obn0yhrj32" class="animable" fill="#263238"/><path d="M209.85 255.35c.05.06 0 .14-.11.09-5-4.48-9.38-11.63-10.17-19.2 0-.26.21-.52.26-.22.91 4.98 6.04 14.55 10.02 19.33z" style="transform-origin:204.72px 245.671px" id="elp3lchr1u00f" class="animable" fill="#263238"/><path d="M207.16 230.92c1 7.23 4.29 13.4 8.54 19.26.05.08-.06.15-.12.1-2.86-2.3-5.18-6.32-6.72-9.59a19.2 19.2 0 0 1-2-9.73c.06-.13.28-.19.3-.04z" style="transform-origin:211.27px 240.564px" id="el6jv3vhf743m" class="animable" fill="#263238"/><path d="M192.63 241.85a13.89 13.89 0 0 1-.81-4.1 6 6 0 0 1 1.14-4.07 3.67 3.67 0 0 1 1.86-1.23 3 3 0 0 1 2.22.4 8.43 8.43 0 0 1 2.84 3.24l-.64.25a12.83 12.83 0 0 1-.46-4.27 6.21 6.21 0 0 1 1.68-4 4.39 4.39 0 0 1 1.95-1.12 2.91 2.91 0 0 1 2.25.41 7.2 7.2 0 0 1 2.48 3.52l-.47.07a10.13 10.13 0 0 1 .37-2 7.1 7.1 0 0 1 .82-1.9 4.11 4.11 0 0 1 1.47-1.46 3.4 3.4 0 0 1 2-.34 3.46 3.46 0 0 0-1.92.48 3.89 3.89 0 0 0-1.3 1.46 9.42 9.42 0 0 0-1 3.83l-.06 1-.41-1a6.8 6.8 0 0 0-2.36-3.14 2.18 2.18 0 0 0-1.75-.3 3.6 3.6 0 0 0-1.62 1 5.45 5.45 0 0 0-1.42 3.57 12.32 12.32 0 0 0 .38 4l.71 2.8-1.36-2.54a7.85 7.85 0 0 0-2.55-3 2.44 2.44 0 0 0-1.77-.38 3 3 0 0 0-1.6 1 5.84 5.84 0 0 0-1.21 3.75 15 15 0 0 0 .54 4.07z" style="transform-origin:201.564px 233.535px" id="elcp6hff4wxo8" class="animable" fill="#263238"/><path d="M174.41 163.26c-.08 1 2.18 7.75 6.82 8.6 2.41.44 3.92-6.1 3.92-6.1l.31-.53 4.37-7.39-7.42-9.05-1.09-1.23s-1.06 2.1-2.36 4.73l-.18.38a4.23 4.23 0 0 0-.22.42c-.2.39-.4.79-.59 1.19s-.3.61-.44.93l-.44 1a57.19 57.19 0 0 0-2.68 7.05z" style="transform-origin:182.119px 159.721px" id="elm2pbtlh75d" class="animable" fill="#eb9481"/><path d="M179 152.29a17.2 17.2 0 0 0 6.5 12.94l4.37-7.39-7.42-9.05-1.09-1.23s-1.1 2.1-2.36 4.73z" style="transform-origin:184.435px 156.395px" id="el07p409hvgl0f" class="animable" fill="#263238"/><path d="M205.42 150.07c-3.74 14.6-12.9 14-16 13.2-2.86-.73-12.5-3.6-10.29-18.51s10.18-17.79 16.8-16.45 13.23 7.16 9.49 21.76z" style="transform-origin:192.654px 145.813px" id="elxnubo8vnhs" class="animable" fill="#eb9481"/><path d="M179.65 143.84c3.38 1.22 5.22-4.14 5.22-4.14s4 1 6.42-5.11a10 10 0 0 0 5.49 7c1 .55-1.65-3.6-1.65-3.6s3 5.56 11.78 6.92c.62.09 2.42-9-3-14.23s-11.82-5.58-17.23-2.91a8.27 8.27 0 0 0-6.28 4.66c-2.1 4.27-2.06 10.94-.75 11.41z" style="transform-origin:193.215px 135.522px" id="elwbd0xecj41i" class="animable" fill="#263238"/><path d="M181.52 145.52s-1.54-5.52-4-5.12-2.32 7.65-.26 9.36a2.54 2.54 0 0 0 3.67-.16z" style="transform-origin:178.607px 145.423px" id="el7uivtlgsfen" class="animable" fill="#eb9481"/><path d="M177.65 142.48v.06c1.43 1.25 1.76 3.09 1.81 4.9a1.4 1.4 0 0 0-1.86-1.06c-.05 0 0 .1 0 .11a1.55 1.55 0 0 1 1.44 1.08 7.23 7.23 0 0 1 .32 1.59c0 .18.32.19.33 0 .76-2.16.15-5.68-2.04-6.68z" style="transform-origin:178.79px 145.889px" id="el91ys6s63vlu" class="animable" fill="#263238"/><path d="M202.89 148.28a10 10 0 0 1-.9-.52c-.34-.21-.64-.33-.82-.71a.54.54 0 0 1 .21-.62 1.32 1.32 0 0 1 1.34.11 2 2 0 0 1 .95 1 .57.57 0 0 1-.78.74z" style="transform-origin:202.431px 147.32px" id="el54ec7ejyvf" class="animable" fill="#263238"/><path d="M194.09 143.54a8.85 8.85 0 0 0 1 .17 1.6 1.6 0 0 0 1.08 0 .54.54 0 0 0 .24-.61 1.35 1.35 0 0 0-1.11-.77 1.93 1.93 0 0 0-1.39.2.57.57 0 0 0 .18 1.01z" style="transform-origin:195.053px 143.042px" id="el09xjzx0j9k2g" class="animable" fill="#263238"/><path d="M195 147.89s-.09 0-.1.06c-.26 1-.73 2.09-1.72 2.14v.06c1.1.18 1.71-1.28 1.82-2.26z" style="transform-origin:194.09px 149.028px" id="el1qs4svr2e3j" class="animable" fill="#263238"/><path d="M194.42 146.6c-1.55-.6-2.63 2.53-1.2 3.09s2.49-2.59 1.2-3.09z" style="transform-origin:193.776px 148.14px" id="el6wkdkzzts3a" class="animable" fill="#263238"/><path d="M193.74 146.55c-.33.08-.71.3-1.05.22s-.57-.52-.71-.92h-.06a1.2 1.2 0 0 0 .41 1.6 1.22 1.22 0 0 0 1.52-.65c.07-.08.03-.28-.11-.25z" style="transform-origin:192.826px 146.685px" id="elbmfgpu7qp78" class="animable" fill="#263238"/><path d="M192.32 155.73c.14.32.24.71.58.88a2.83 2.83 0 0 0 1.12.17v.06a1.37 1.37 0 0 1-1.41 0 1.08 1.08 0 0 1-.42-1.14c.03-.02.11-.01.13.03z" style="transform-origin:193.089px 156.363px" id="elwxhw6k3z2bd" class="animable" fill="#263238"/><path d="M197.56 153.56s-.28 1.52-.51 2.21c0 .07-.2 0-.43 0a3.41 3.41 0 0 1-2.76-2.27.07.07 0 0 1 .13-.06 5.24 5.24 0 0 0 2.69 1.84c.12-.17.4-2.62.51-2.59a6 6 0 0 1 1.44.87c.68-3.16.85-6.39 1.58-9.52a.1.1 0 0 1 .19 0 52.39 52.39 0 0 1-1.26 10.33c-.14.39-1.34-.6-1.58-.81z" style="transform-origin:197.127px 149.886px" id="ellobrgav2hh" class="animable" fill="#263238"/><path d="M203.71 150.3a2.89 2.89 0 0 0-1.59-.59 2.56 2.56 0 0 0-.9.11 2.24 2.24 0 0 0-.78.51l-.4.41.56.1a6.29 6.29 0 0 1 1.18.33 2.39 2.39 0 0 1 1 .72 1.83 1.83 0 0 0-.8-1.11 3.55 3.55 0 0 0-1.3-.54l.17.51a2 2 0 0 1 1.26-.53 6.1 6.1 0 0 1 1.6.08z" style="transform-origin:201.875px 150.798px" id="el4rasuw2qhfp" class="animable" fill="#263238"/><path d="M201.51 152a5.36 5.36 0 0 1-1.06-.78c-.07-.08-.34-.42-.3-.49a2.6 2.6 0 0 1 .38-.53 1.75 1.75 0 0 0-.5.48.83.83 0 0 0 .28.67 2.59 2.59 0 0 0 1.2.65z" style="transform-origin:200.769px 151.1px" id="el6ke3gg3jkh6" class="animable" fill="#263238"/></g><g id="freepik--speech-bubble--inject-19" class="animable" style="transform-origin:243.696px 115.37px;animation:1s 1 forwards cubic-bezier(.36,-.01,.5,1.38) slideLeft,1.5s Infinite linear shake;animation-delay:0s,1s"><path d="M271.09 118a24.91 24.91 0 0 1-41.64 15.76L217 135.55l6.24-10.78a24.93 24.93 0 1 1 47.85-6.77z" style="transform-origin:244.118px 115.358px;animation:1s 1 forwards cubic-bezier(.36,-.01,.5,1.38) slideLeft;animation-delay:0s" id="elzclgs3vga5q" class="animable" fill="#fff"/></g><defs><filter id="active" height="200%"><feMorphology in="SourceAlpha" result="DILATED" operator="dilate" radius="2"/><feFlood flood-color="#32DFEC" flood-opacity="1" result="PINK"/><feComposite in="PINK" in2="DILATED" operator="in" result="OUTLINE"/><feMerge><feMergeNode in="OUTLINE"/><feMergeNode in="SourceGraphic"/></feMerge></filter><filter id="hover" height="200%"><feMorphology in="SourceAlpha" result="DILATED" operator="dilate" radius="2"/><feFlood flood-color="red" flood-opacity=".5" result="PINK"/><feComposite in="PINK" in2="DILATED" operator="in" result="OUTLINE"/><feMerge><feMergeNode in="OUTLINE"/><feMergeNode in="SourceGraphic"/></feMerge><feColorMatrix values="0 0 0 0 0 0 1 0 0 0 0 0 0 0 0 0 0 0 1 0"/></filter></defs></svg>