<svg width="178" height="260" viewBox="0 0 178 260" fill="none" xmlns="http://www.w3.org/2000/svg">
<path d="M97.7525 147.752C97.7402 147.747 97.7284 147.742 97.7173 147.737C93.2934 149.064 90.2994 151.268 88.4099 154.089C86.4924 156.951 85.6792 160.498 85.7236 164.516C85.8125 172.57 89.3457 182.383 94.067 191.966C98.7809 201.533 104.647 210.809 109.34 217.77C111.685 221.25 113.736 224.15 115.202 226.218L115.377 226.465C116.028 227.383 116.556 228.128 116.929 228.669C117.131 228.963 117.292 229.203 117.403 229.381C117.458 229.469 117.507 229.551 117.543 229.62C117.56 229.654 117.58 229.694 117.596 229.735L117.596 229.735C117.604 229.758 117.629 229.821 117.637 229.903C117.637 229.904 117.638 229.905 117.639 229.907C117.651 229.937 117.676 229.986 117.72 230.056C117.806 230.196 117.943 230.386 118.135 230.619C118.519 231.084 119.098 231.692 119.861 232.381C121.387 233.757 123.63 235.435 126.481 236.906C132.179 239.846 140.29 241.957 149.971 239.219C151.902 238.673 153.066 237.564 153.663 236.011C154.272 234.425 154.308 232.325 153.847 229.793C152.924 224.732 150.06 218.188 146.372 211.176C142.689 204.176 138.213 196.759 134.098 189.962L133.796 189.463C129.807 182.873 126.179 176.881 124.016 172.487C119.652 163.623 113.038 157.416 107.504 153.422C104.738 151.426 102.246 149.986 100.448 149.046C99.5486 148.576 98.8234 148.231 98.3245 148.004C98.075 147.891 97.8822 147.807 97.7525 147.752Z" fill="#FCFCFC" stroke="#C9C7C7"/>
<path d="M116.775 171.537C113.175 152.46 98.611 141.236 58.2728 139.918C17.9347 138.6 3.7463 158.391 8.9751 193.361C14.2039 228.331 37.7734 260 37.7734 260H146.564C146.564 260 130.519 244.389 116.775 171.537Z" fill="#934646"/>
<path d="M46.4905 110.238C46.4905 110.238 46.8726 131.269 40.7982 141.082C40.7982 141.082 73.2279 163.049 76.9472 163.025C80.0571 163.005 84.9388 142.782 84.9388 142.782C84.9388 142.782 75.982 142.455 76.895 128.925C77.8081 115.399 46.4905 110.238 46.4905 110.238Z" fill="#F9B7B0"/>
<path d="M54 128.149L73.3983 121C76.0287 123.393 77.6675 126.218 77.4181 129.509C77.1865 132.551 77.4478 134.95 78 136.845C62.8234 138.371 54 128.149 54 128.149Z" fill="#36302F"/>
<path d="M33.0495 93.5707C31.2626 113.853 46.993 131.045 64.0242 132.545C81.0562 134.039 89.0714 123.293 91.83 98.3285C94.5225 74.0059 82.6964 60.6327 65.6652 59.1334C48.6332 57.6391 34.8372 73.2835 33.0495 93.5707Z" fill="#F9B7B0"/>
<path d="M31.8158 70.3289C26.4583 67.6283 20 65.5216 20 65.5216C25.3417 63.8363 29.1108 64.5064 31.7319 66.014C29.1056 58.4656 36.7591 53.8563 36.7591 53.8563C35.543 57.2524 35.3804 61.2576 35.5901 64.7348C39.2334 58.0646 47.6471 47.2267 63.1848 49.2471C85.3538 52.1304 103.885 75.2783 94.5066 87.7761C94.5066 87.7761 81.0552 78.5931 69.0455 79.4205C57.0357 80.248 52.9521 83.6745 46.8345 79.7962C46.8345 79.7962 48.664 94.7306 32.2928 107C32.2928 107 11.4972 79.7302 31.8158 70.3289Z" fill="#36302F"/>
<path d="M45 56.6256C49.1799 51.0361 55.8594 45.7766 65.82 47.2514C83.5086 49.8708 98.5853 68.9132 95.6271 82C76.1364 45.1682 52.5407 52.8821 45 56.6256Z" fill="#514B48"/>
<path d="M29.6669 113.287C31.372 118.997 35.8128 122.831 39.5882 121.846C43.3589 120.86 45.0364 115.431 43.3358 109.717C41.6307 104.007 37.1899 100.169 33.4145 101.154C29.6392 102.14 27.9617 107.573 29.6669 113.287Z" fill="#F9B7B0"/>
<path d="M1.54193 194.483C2.89755 174.691 7.93269 156.741 20.868 148.928C44.7793 134.484 39.0207 215.592 40.7637 222.761C42.5009 229.935 92.6074 225.332 92.6074 225.332C94.8231 223.657 96.7426 221.645 99.1064 220.105C102.421 217.952 106.494 215.884 110.737 215.467C115.157 215.034 119.919 217.922 123.428 219.959C125.82 221.348 129.295 224.673 128.11 226.419C126.897 228.2 125.974 227.878 123.656 226.892C126.293 228.798 128.554 231.012 129.545 233.618C130.531 236.214 129.733 238.251 126.891 238.156C127.814 239.791 128.833 242.12 126.954 243.297C126.424 243.63 125.757 243.635 125.154 243.685C123.639 243.826 123.872 243.237 123.826 244.289C123.787 245.254 124.533 246.004 124.208 247.045C123.593 249.023 121.429 248.962 119.612 248.238C117.721 247.478 116.257 245.999 114.981 244.611C114.491 244.082 113.927 243.091 113.318 242.694C112.418 242.105 113.409 242.181 112.224 242.553C110.618 243.066 108.96 244.575 107.417 245.295C105.799 246.049 104.073 246.729 102.296 247.111C100.439 247.508 95.313 245.275 93.5757 244.696C81.5859 247.911 42.8427 258.098 24.5646 254.174C3.1026 249.561 -0.633889 226.253 1.54193 194.483Z" fill="#F9B7B0"/>
<path d="M58.0924 100.965C57.9133 100.997 57.7294 101.009 57.543 100.998C55.9112 100.895 54.7251 99.1167 54.8934 97.0199C55.0425 95.1613 56.2032 93.6762 57.5995 93.4296C57.7802 93.3977 57.9644 93.3887 58.1508 93.3999C59.7806 93.4997 60.9667 95.2782 60.7991 97.3779C60.65 99.2365 59.489 100.719 58.0924 100.965" fill="#191614"/>
<path d="M78.121 101.279C77.946 101.356 77.7632 101.416 77.5745 101.454C75.9221 101.779 74.4704 100.352 74.3309 98.2622C74.2072 96.4096 75.1535 94.6578 76.5183 94.0534C76.6949 93.9752 76.8784 93.9184 77.0671 93.8807C78.7172 93.5534 80.1689 94.9799 80.3094 97.0727C80.4332 98.9253 79.4861 100.674 78.121 101.279" fill="#191614"/>
<path d="M49.8621 91.1426C51.9829 91.0127 54.0798 90.7775 56.1174 90.103C58.0303 89.4717 59.3728 88.2155 61.0242 87.1201C61.7252 86.656 62.2836 87.6462 61.844 88.2279C59.1292 91.8667 54.0798 93.0363 49.8621 92.9991C48.7037 92.9868 48.7216 91.2107 49.8621 91.1426Z" fill="#36302F"/>
<path d="M73.0802 86.2506C73.2038 86.0265 73.9683 86.0446 74.2277 86.2735C75.7559 87.6073 77.0383 88.7804 79.1327 89.9568C80.2038 90.5597 81.3258 91.1304 82.683 91.5468C83.8378 91.9018 84.91 92.1296 85.9849 92.5742C87.1764 93.0627 86.0921 93.8218 84.8684 93.5005C81.5036 92.6138 79.2139 91.8935 76.6606 90.3655C74.7076 89.1972 72.3543 87.6508 73.0802 86.2506Z" fill="#36302F"/>
<path d="M67.3937 109.323C71.5222 108.417 71.7763 106.761 71.4601 104.716C71.2906 103.589 69.9578 102.191 70.9348 101.1C71.1099 100.91 71.7029 101.016 71.7086 101.204C71.7255 103.173 73.3972 104.951 72.9115 106.996C72.5501 108.512 70.9292 109.365 68.1505 109.966C67.2751 110.153 66.507 109.516 67.3937 109.323Z" fill="#36302F"/>
<path d="M112.862 222.238C115.989 221.554 121.56 223.456 122.983 226.112C123.097 226.323 122.818 226.519 122.613 226.358C120.232 224.542 116.45 222.298 113.118 223.068C112.514 223.204 112.252 222.374 112.862 222.238Z" fill="#36302F"/>
<path d="M115.385 229.291C119.378 230.821 123.815 233.613 125.769 237.15C125.9 237.396 125.53 237.708 125.313 237.462C122.431 234.232 119.076 231.852 114.912 230.006C114.366 229.764 114.844 229.085 115.385 229.291Z" fill="#36302F"/>
<path d="M115.066 235.902C117.225 236.762 119.11 237.945 120.865 239.343C121.987 240.239 123.593 241.491 123.416 242.965C123.382 243.232 122.983 243.302 122.881 243.031C121.782 240.138 117.481 237.854 114.548 236.687C113.95 236.445 114.468 235.666 115.066 235.902Z" fill="#36302F"/>
<path d="M146.564 240.505C151.776 241.345 168.3 236.808 167.73 217.076C167.172 197.768 159.756 142.685 159.756 142.685L141.039 149.034C141.039 211.522 115.157 235.454 146.564 240.505Z" fill="#F9B7B0"/>
<path d="M136.483 118.763C134.768 117.178 132.194 115.125 132.558 112.65C133.145 108.621 138.847 110.497 141.108 112.177C143.278 113.792 144.987 115.835 146.952 117.636C147.886 118.491 149.122 119.734 150.489 120.041C152.682 120.534 155.433 119.125 156.811 117.847C159.278 115.558 161.134 113.601 162.405 110.628C163.692 107.609 161.949 102.327 163.914 99.5347C167.092 95.017 170.379 101.985 171.074 105.139C171.615 107.594 171 111.694 169.992 114.18C169.194 116.147 168.869 117.118 168.385 119.185C167.838 121.525 167.867 123.935 167.639 126.304C166.83 134.555 162.501 142.428 157.142 149.099C157.022 149.25 156.834 149.275 156.68 149.23C154.402 151.936 149.088 152.716 145.67 152.706C140.743 152.686 138.476 150.352 137.178 146.292C135.503 141.07 135.457 135.249 137.759 130.203C139.746 125.851 140.612 122.576 136.483 118.763Z" fill="#F9B7B0"/>
<path d="M144.195 134.836C144.924 133.805 145.887 133.161 146.969 132.779C146.906 132.703 146.855 132.618 146.844 132.507C146.536 129.539 147.55 127.939 149.247 127.215C148.712 124.241 149.817 120.785 153.491 119.93C157.717 118.944 163.094 121.464 166.301 123.728C166.477 123.854 166.34 124.166 166.107 124.141C165.23 124.055 164.683 123.728 163.903 123.326C162.222 122.471 160.593 121.781 158.714 121.344C156.601 120.846 154.277 120.413 152.369 121.575C150.472 122.727 150.119 124.986 150.421 126.863C154.442 126.108 160.793 128.618 164.051 130.273C164.432 130.47 164.096 130.963 163.703 130.792C158.919 128.739 147.516 124.08 148.028 132.492C152.107 131.732 157.5 134.032 160.582 135.496C160.89 135.636 160.679 136.109 160.343 135.999C156.373 134.676 152.129 132.502 147.687 133.71C142.013 135.249 145.055 142.056 149.874 142.343C149.919 142.348 149.959 142.363 149.999 142.373C150.346 141.603 150.671 140.828 150.791 140.033C150.836 139.706 151.395 139.681 151.395 140.033C151.383 142.398 149.378 144.798 150.637 147.092C150.996 147.751 149.942 148.319 149.515 147.675C148.552 146.211 148.94 144.818 149.532 143.419C145.146 142.951 141.603 138.489 144.195 134.836Z" fill="#36302F"/>
<path d="M84.4168 84.3364H85.6699C85.7668 84.3364 85.7668 84.4672 85.6699 84.4672H84.4168C84.3257 84.4672 84.3257 84.3364 84.4168 84.3364Z" fill="#FEEEF1"/>
<path d="M76.7387 163.135C76.7387 163.135 76.8071 155.634 74.2553 154.241C71.7036 152.847 44.8362 138.247 43.2641 135.455C41.692 132.668 40.7636 140.909 40.7636 140.909C40.7636 140.909 69.374 164.514 76.7387 163.135Z" fill="white"/>
<path d="M77.5134 162.758C77.5134 162.758 76.2546 155.383 77.2514 152.485C78.2425 149.587 79.7519 143.027 78.2767 138.122C77.3482 135.028 84.5877 139.078 84.8896 142.956C85.1915 146.835 80.7088 161.908 77.5134 162.758Z" fill="white"/>
<path d="M41.2495 222.643L41.2497 222.644C41.3689 223.137 41.8505 223.647 42.8545 224.127C43.8397 224.598 45.2189 224.985 46.9171 225.294C50.308 225.91 54.855 226.193 59.7854 226.267C69.6393 226.415 80.932 225.729 87.3591 225.256L87.9632 225.212L87.8923 225.813C87.6386 227.967 87.36 231.703 87.0392 236.005C86.9732 236.891 86.9054 237.8 86.8356 238.725C86.4277 244.131 85.9542 250.044 85.3858 254.643L85.3432 254.988L85.0053 255.068C76.1637 257.171 64.6008 258.495 53.4894 258.916C42.3838 259.337 31.6825 258.857 24.5735 257.329C13.6141 254.976 7.17875 247.149 3.77003 235.993C0.368423 224.861 -0.0458374 210.349 1.04313 194.449C1.72276 184.526 3.32609 175.036 6.39578 167.034C9.4659 159.031 14.0164 152.482 20.6095 148.5C23.6833 146.643 26.3757 146.269 28.7015 147.195C31.0013 148.11 32.8177 150.25 34.2662 153.139C37.1622 158.916 38.7432 168.009 39.6269 177.695C40.5125 187.4 40.7033 197.777 40.7822 206.165C40.795 207.523 40.8048 208.829 40.8141 210.071C40.8337 212.667 40.8512 214.985 40.889 216.928C40.917 218.364 40.956 219.588 41.0148 220.562C41.0742 221.547 41.1523 222.243 41.2495 222.643Z" fill="white" stroke="#C5C5C5"/>
<path d="M112.532 160.273C112.566 159.966 113.067 159.956 113.078 160.273C113.221 163.855 115.288 167.371 116.485 170.757C117.749 174.334 118.769 177.936 119.737 181.584C120.472 184.33 121.224 187.087 121.941 189.854C121.958 189.698 121.981 189.563 122.004 189.472C122.249 188.571 122.608 187.691 122.921 186.806C123.707 184.572 124.476 182.348 124.715 180.009C124.738 179.767 125.148 179.757 125.148 180.009C125.165 182.152 124.778 184.195 124.237 186.282C123.781 188.043 123.496 190.121 122.75 191.791C122.699 191.907 122.608 192.008 122.499 192.088C123.337 195.469 124.071 198.86 124.618 202.276C125.37 205.043 125.507 208.041 126.111 210.803C126.919 214.526 127.683 218.037 129.084 221.629C130.4 224.99 130.741 228.788 132.667 231.933C134.028 234.151 134.831 236.199 135.89 238.518C136.181 239.147 134.956 239.61 134.643 238.986C134.159 238.035 133.874 237.024 133.435 236.058C132.678 234.398 131.351 233.029 130.553 231.384C129.112 228.406 128.685 225.081 127.472 222.022C125.273 216.478 123.519 210.149 123.325 204.082C123.285 204.021 123.251 203.956 123.234 203.87C121.913 195.871 119.674 188.013 117.738 180.125C116.855 176.512 115.733 172.976 114.582 169.424C113.597 166.385 112.167 163.487 112.532 160.273Z" fill="#934646"/>
<path d="M21.8363 213.716C27.3328 213.157 33.0572 214.782 38.343 215.939C39.0891 216.1 40.0346 216.317 40.8605 216.649C39.8353 213.102 40.1599 208.75 40.4675 205.52C40.2283 196.435 39.8296 187.46 38.5081 178.374C37.2209 169.519 37.5911 159.367 32.3167 151.454C32.1572 151.212 32.5503 151.021 32.7268 151.237C38.5594 158.406 38.5594 167.728 39.784 176.15C41.0029 184.506 41.7605 192.732 42.0054 201.048C42.8028 199.584 43.8907 198.135 44.3179 197.386C47.126 192.526 49.9796 187.434 50.7201 181.956C50.7599 181.664 51.2384 181.649 51.2441 181.956C51.3466 186.564 49.3531 191.107 47.1374 195.227C46.2887 196.797 45.3944 198.351 44.5458 199.926C44.0217 200.912 42.3642 203.015 42.5351 204.127C42.5864 204.444 42.3585 204.721 42.0794 204.831C42.1022 206.899 42.1022 208.972 42.0567 211.059C42.051 211.251 41.9655 211.392 41.8459 211.497C41.863 214.531 42.1934 217.564 44.2268 219.738C46.7273 222.419 51.0675 223.491 54.7584 224.17C59.281 225 63.9288 225.277 68.5311 225.226C71.3676 225.196 74.1984 225.055 77.0293 224.96C78.7836 224.904 83.7789 224.074 85.163 225.252C85.0605 225.171 85.1288 224.975 85.2826 224.995C85.3623 225.005 85.4364 225.01 85.5161 225.02C85.6243 225.03 85.7383 225.081 85.761 225.186C85.7667 225.211 85.7724 225.237 85.7781 225.262C85.8066 225.382 85.744 225.548 85.5845 225.569C74.5459 226.902 61.8669 227.687 51.039 224.744C48.0259 223.928 44.8362 222.646 42.8427 220.412C40.308 221.322 37.9044 222.278 35.814 223.873C33.8945 225.337 32.6756 227.189 31.0807 228.879C30.6592 229.327 29.708 228.844 29.9473 228.295C31.7756 224.125 37.0272 220.553 42.0168 219.662C41.8687 219.587 41.7548 219.461 41.7947 219.265C41.8231 219.119 41.8117 218.983 41.7776 218.852C41.6921 218.701 41.6067 218.55 41.5269 218.395C39.2087 215.658 23.3287 214.757 21.711 214.546C21.1357 214.47 21.3522 213.766 21.8363 213.716Z" fill="#934646"/>
<path d="M49.4322 105C49.4322 105 54.8932 109.922 51.327 112.019C47.7699 114.109 50.9283 108.445 49.4322 105Z" fill="white"/>
<path d="M174.02 216.118L174.02 216.118C173.58 212.643 173.421 207.993 173.242 202.746C173.159 200.331 173.073 197.788 172.952 195.176C172.573 186.976 171.862 178.038 169.927 169.959C165.706 169.523 159.381 169.059 153.046 168.607C152.289 168.553 151.532 168.499 150.778 168.445C145.327 168.058 140.059 167.683 136.343 167.349C136.351 179.943 135.026 190.784 133.575 199.982C133.088 203.074 132.587 205.972 132.119 208.686C131.17 214.184 130.352 218.925 130.034 222.98C129.561 229.036 130.228 233.363 133.096 236.287C135.982 239.229 141.217 240.88 150.244 241.216L150.244 241.216C153.414 241.335 159.999 239.842 165.475 235.899C170.919 231.98 175.234 225.67 174.02 216.118Z" fill="white" stroke="#D7D7D7"/>
<path d="M52.1359 14.4121C49.8178 11.0488 45.1802 10.5178 42.1886 13.2264C38.764 16.3241 38.7501 22.1489 41.0913 25.9547C46.5519 34.8355 60.5773 33.6664 65.85 25.1047C68.3252 21.0851 61.9891 18.8658 59.221 18.2112C54.551 17.109 49.4341 18.0976 45.5085 21.0918C42.0977 23.6953 39.7735 27.9219 43.3291 31.6341C46.6166 35.0675 52.0187 35.7757 56.3296 34.9925C60.9642 34.1508 65.3675 31.4672 68.188 27.3525C69.3424 25.6675 70.5816 23.575 70.056 21.3924C69.4534 18.8858 66.9134 16.6731 65.0115 15.3422C60.3924 12.1092 54.5572 11.5866 49.5373 14.028C45.564 15.9601 40.5811 20.6443 41.3178 25.9347C41.9929 30.7942 47.1792 32.8933 51.0462 33.6715C56.2479 34.7186 61.7117 33.9788 66.5851 31.7895C71.1565 29.7371 76.2442 26.0065 78.647 21.1536C80.9527 16.5029 76.7512 12.7071 73.285 10.7248C62.8152 4.74144 49.4217 4.30897 38.821 10.1838C30.5968 14.7428 23.6134 25.5473 29.8432 35.1594C32.6113 39.4295 37.2104 40.5701 41.7386 39.2925C46.4826 37.9549 53.3673 34.5599 55.0858 29.1042C56.9677 23.1342 51.5949 19.7175 47.2362 17.7854C42.1979 15.5493 36.5461 14.9815 31.2103 16.1455C26.192 17.2393 20.6003 19.9646 17.9509 24.9761C15.5327 29.5484 16.3279 35.1076 20.42 38.1269C30.6215 45.6583 45.6981 40.049 55.0535 33.5613C59.0083 30.8192 56.8151 27.5729 53.2163 26.1317C47.6462 23.9007 41.1807 22.2124 35.2175 23.0941C31.0916 23.702 24.8788 26.2619 24.2099 31.5056C23.5441 36.7224 29.1928 38.5678 32.8502 39.346C38.7809 40.6084 44.9398 40.5517 50.8659 39.2758C53.8266 38.6379 56.7319 37.691 59.5216 36.4386C62.0924 35.2863 65.161 33.9788 67.1539 31.8112C71.2043 27.4025 65.4122 23.8255 62.208 21.9201C57.6597 19.2148 51.8816 17.4163 47.1931 20.8263C43.4925 23.5166 42.876 28.5531 44.8719 32.6712C47.3056 37.691 52.4133 39.6399 57.3792 39.8787C63.646 40.1809 70.4568 38.5711 76.1132 35.6804C79.7135 33.8401 84.1154 29.9943 82.3938 25.0981C80.8772 20.7829 75.6739 19.3417 71.8655 19.3083C67.6193 19.2699 62.7813 20.7879 60.1658 24.6521C57.4455 28.6683 58.2947 33.8335 61.2154 37.4222C64.9252 41.9811 70.4675 43.105 75.8095 42.1598C79.1047 41.5753 82.2628 40.3262 85.3437 38.9669C87.4136 38.0534 89.7502 37.135 90.6672 34.7219C92.4119 30.1329 88.5033 25.3418 85.2127 23.0707C77.1982 17.5365 64.3334 19.0795 59.4568 28.6533C57.3684 32.7563 57.3207 38.0685 61.0767 41.0643C64.8851 44.102 70.3658 43.3304 74.6274 42.078C79.3513 40.6902 84.439 38.1553 86.3332 32.8816C88.2536 27.5328 85.9078 23.0356 81.4027 20.5942C71.7237 15.3456 58.6292 14.0513 49.1043 20.342C45.2326 22.8987 40.7768 27.6881 42.3011 33.1187C43.5788 37.666 48.4677 39.73 52.5042 39.1522C61.0983 37.9231 74.9804 25.3468 65.5571 16.2557C57.8339 8.80609 45.3251 7.6505 35.7123 10.3725C30.6816 11.797 25.933 14.3737 21.9458 17.9991C18.5242 21.1119 14.2858 26.414 16.3141 31.6392C18.3347 36.8427 24.3286 37.1149 28.5979 35.667C33.9599 33.8485 40.5364 30.1179 44.0073 25.1615C47.0143 20.8664 44.9953 16.0035 41.3964 13.0494C36.9592 9.40891 30.677 8.75766 25.3427 9.81974C15.3061 11.8203 5.24785 22.2241 8.92374 34.0573C10.3879 38.7732 13.8958 42.422 18.498 43.2102C24.5182 44.2422 31.0592 40.7003 35.9789 37.2769C39.3204 34.9507 42.2934 30.8493 39.4036 26.6995C35.9989 21.8116 28.9785 22.8987 24.119 23.6201C18.1389 24.5102 14.648 27.9469 11.2218 33.077C8.48451 37.1767 5.06444 43.105 8.34115 47.9929C10.7239 51.5465 15.5542 52.3681 19.2348 51.1273C24.2931 49.4207 27.6531 44.2138 30.4011 39.6415C31.4384 37.9132 32.6729 35.9626 31.5956 33.937C30.6292 32.1201 28.2002 31.0213 26.4339 30.5471C22.3111 29.4382 17.564 30.7758 14.685 34.2343C11.8383 37.651 10.3417 44.628 11.9477 49.0133C13.7063 53.821 21.8333 51.7235 24.9713 50.2707C34.3575 45.9205 45.8892 34.0956 42.3551 21.9418L42.11 21.6763C37.0809 20.7044 33.9815 25.5906 33.2863 30.4067C32.9766 32.5526 32.431 36.0495 33.3727 38.1152C34.3282 40.2076 36.8312 40.6218 38.7578 40.8739C43.6174 41.5102 48.6711 39.8135 52.4056 36.4002C55.4234 33.6431 58.8111 28.3444 55.727 24.3282L55.3771 24.2263C49.8641 25.8311 49.283 33.573 52.9651 37.5257C57.9526 42.8779 66.4295 41.744 71.6759 37.5274C73.9061 35.7355 76.3474 33.5579 75.3426 30.3717C74.5257 27.7849 72.3479 25.6925 69.8295 25.3084C67.1076 24.8926 64.264 26.5058 62.9216 29.0859C62.6041 29.6937 62.339 30.3066 62.4268 30.9579C62.5532 31.8813 64.5137 33.6999 65.0809 34.4447C65.964 35.6086 66.8564 36.7642 67.7334 37.9348C67.9738 38.2538 68.3884 37.7979 68.151 37.4806C66.8333 35.7272 63.5705 32.6228 63.5535 30.3901C63.5288 26.8298 68.4994 25.3902 71.0347 26.5375C73.6995 27.7432 75.7694 30.9979 74.0802 33.9019C72.7363 36.2115 70.1053 37.9248 67.8412 38.9602C63.3084 41.0309 57.1588 40.9942 53.4814 36.9663C51.7644 35.0876 50.8751 32.5309 51.43 29.9075C51.6951 28.6583 52.233 27.4109 53.0684 26.4841C53.429 26.0833 53.9484 25.6007 54.4478 25.4303C55.9089 24.9277 56.2911 26.9066 56.2233 28.1774C55.9289 33.5897 50.4359 37.7662 46.125 39.2808C44.2354 39.9438 42.2503 40.2678 40.2636 40.2043C39.1231 40.1676 37.6974 40.1124 36.6309 39.6282C36.0421 39.361 33.9214 36.8778 33.7302 36.1396C33.5684 35.5117 33.7256 34.4731 33.7472 33.8034C33.835 30.9913 34.1078 27.9286 35.6229 25.5406C36.5553 24.071 38.1028 22.6515 39.7873 22.4178C42.446 22.0487 42.3782 24.7173 42.3474 26.8598C42.2595 32.8332 38.7331 37.9315 34.897 41.8592C31.2195 45.6249 26.8871 49.2153 21.9073 50.6114C19.5306 51.276 16.6639 51.4914 14.3597 50.3759C11.456 48.9681 12.0926 43.0849 12.6705 40.3011C13.7664 35.0341 17.6981 31.3569 22.6656 30.9662C24.6014 30.8142 26.6127 31.1733 28.3574 32.1168C29.8324 32.915 31.5509 34.1724 31.2457 36.345C31.07 37.5925 29.9511 38.9902 29.3238 40.0089C26.716 44.2472 23.4963 49.0366 18.7261 50.4761C14.6773 51.6968 9.18116 50.2323 7.94661 45.3394C6.53174 39.7284 11.6333 32.9751 14.9639 29.1509C18.8602 24.6755 24.196 24.0877 29.5858 23.8372C32.2984 23.712 35.1189 23.8238 37.3953 25.6123C40.3884 27.9619 40.6381 31.898 37.9949 34.6868C34.7166 38.1453 29.4055 40.6485 25.0622 41.9093C19.5754 43.5025 13.9328 42.118 10.8318 36.664C8.30572 32.2203 8.34272 26.626 10.4928 22.0304C15.1242 12.1259 26.8562 8.06293 36.3534 11.1223C41.831 12.8874 47.8774 19.3985 42.9331 25.3685C39.5993 29.3914 34.4577 32.4758 29.834 34.3629C27.1614 35.4534 24.1837 36.2248 21.3755 35.283C18.0819 34.1808 15.901 30.8961 16.7672 27.1237C17.8892 22.2408 22.0552 18.5151 25.7989 15.9083C32.7823 11.0488 41.3625 9.04159 49.5866 10.1104C57.4178 11.129 73.9539 17.8806 66.0118 29.0374C63.0649 33.1772 58.0142 37.1166 53.2425 38.1737C48.0855 39.3176 41.2808 35.5268 43.0887 28.8671C44.5683 23.4147 50.2879 19.9797 54.9564 18.4116C59.144 17.0022 63.6028 16.7399 67.9445 17.266C72.6222 17.8321 77.6251 19.2282 81.7603 21.7181C87.2795 25.0412 87.5092 32.0917 83.0365 36.6473C77.9565 41.8225 60.7438 46.8941 58.902 35.6387C58.042 30.3783 61.9043 25.4286 65.8885 23.0724C69.7509 20.7862 74.4039 20.1851 78.6948 21.1336C83.0889 22.1055 87.802 24.9177 89.6176 29.5735C90.9755 33.0553 89.8658 35.8374 86.7016 37.4322C84.2387 38.673 81.6016 39.705 78.9876 40.4982C73.5192 42.1598 67.3696 42.3418 62.8877 38.0083C59.1501 34.3929 57.8123 28.3511 61.5514 24.1312C64.3842 20.9349 68.9432 19.831 72.8981 20.0999C77.7438 20.4289 84.8105 24.4701 80.9527 30.6756C78.1908 35.121 72.0073 36.826 67.4822 37.9382C62.7181 39.1088 57.2667 39.8369 52.5042 38.2438C47.5337 36.5839 42.7404 30.9111 44.9521 24.9528C47.1931 18.9092 54.2674 18.971 58.9544 20.9983C61.1769 21.9602 63.387 23.2627 65.3568 24.7456C65.8715 25.1331 66.6483 25.6458 67.0013 26.2219C67.1492 26.7546 67.3003 27.2889 67.4482 27.8217C68.1341 28.7919 68.0863 29.6453 67.3095 30.3834C66.6052 32.0283 64.6678 32.9534 63.2498 33.7633C59.0484 36.1664 54.4786 37.8447 49.8009 38.7398C44.7101 39.7134 39.4652 39.7734 34.3621 38.8633C32.1905 38.4759 29.8124 38.0484 27.8627 36.8711C24.344 34.7453 24.1251 30.871 26.8516 27.8234C30.4181 23.8389 36.355 23.1859 41.1698 23.6769C45.4653 24.1144 51.1895 25.1731 54.941 27.6096C55.2924 27.8901 55.6422 28.1724 55.9921 28.4529C55.6977 29.9208 55.4049 31.3887 55.1105 32.8566C54.8978 33.1488 53.8652 33.6548 53.6787 33.7684C52.7493 34.3378 51.806 34.8806 50.8536 35.4033C48.4014 36.7442 45.8722 37.9248 43.2629 38.855C38.633 40.5099 33.7056 41.405 28.8444 40.6585C23.0231 39.7634 15.9627 36.2198 17.3313 28.5581C18.3424 22.8937 23.393 19.4186 28.0769 17.6601C32.713 15.9201 37.8099 15.6545 42.5986 16.7701C47.1869 17.8371 55.4573 20.9432 54.9332 27.2539C54.4385 33.1839 47.0621 36.8377 42.4845 38.3757C37.4816 40.0557 32.303 38.8316 29.7091 33.5914C24.9173 23.9124 31.91 14.4922 39.8398 10.3758C48.5679 5.8453 59.05 5.52129 68.1403 8.95803C72.314 10.5378 81.5538 14.7878 77.9627 21.177C75.6739 25.2483 71.6959 28.4629 67.7812 30.4852C63.8217 32.5276 59.4091 33.5696 55.0227 33.4143C50.8659 33.2657 44.9305 32.1652 42.631 27.8818C39.3265 21.7248 46.9835 15.4258 51.6627 13.8577C56.8444 12.1209 62.6364 13.5504 66.6607 17.4914C67.5931 18.4032 68.7598 19.5355 69.1529 20.833C69.6923 22.6199 69.082 24.8074 68.0801 26.3955C66.7732 28.4662 65.0269 30.208 63.0649 31.529C59.6865 33.8017 55.5975 34.8956 51.6319 34.4931C46.2128 33.942 38.3971 28.9372 44.4466 22.8937C47.7772 19.5655 52.4611 18.0726 56.94 18.47C59.1039 18.662 61.2555 19.3084 63.1743 20.4122C65.0562 21.4943 66.7716 22.3927 64.9391 25.4069C64.2764 26.4974 63.0942 27.4526 62.1371 28.1891C58.4072 31.063 53.5107 32.1886 49.0518 30.9779C44.2462 29.6687 39.8952 25.392 40.074 19.7058C40.2729 13.355 47.6986 8.90296 51.7798 14.6375C51.9386 14.8613 52.2962 14.6442 52.1359 14.4121" fill="#15233C"/>
<path d="M63.5929 8.77551C63.0772 5.36326 60.0063 3.0234 56.8752 3.57146C53.7441 4.11952 51.6181 7.40451 51.2244 10.6946C50.1313 19.8488 59.8473 25.2276 66.8923 24.2723C70.556 23.7735 74.4884 21.8289 76.7225 18.4794C78.7111 15.5016 77.6674 12.8377 74.649 11.5702C66.9849 8.34625 58.4191 16.3703 58.0764 24.8C57.9112 28.835 59.6342 32.9819 62.7962 35.147C66.2361 37.5039 70.6487 36.9745 74.2105 35.2539C77.652 33.5927 81.0301 30.5674 82.1325 26.4561C83.2163 22.416 81.1706 19.1582 77.7616 17.6752C70.783 14.638 62.7561 19.0207 58.87 25.589C54.6334 32.7478 55.7126 43.1169 64.6489 44.1978C72.6481 45.1649 82.1263 38.4643 85.0289 30.2722C86.3289 26.6054 85.1956 22.9183 81.7388 21.4608C78.0055 19.8861 73.8076 22.1038 70.8787 24.6133C65.6896 29.0606 59.997 40.7142 66.8429 46.4511C73.3753 51.9215 83.4726 45.5688 87.8142 39.7589C90.0807 36.7251 91.4223 33.0176 89.6792 29.2846C87.9021 25.4855 84.1473 23.6055 80.3585 24.123C76.4554 24.6558 73.1776 27.4249 71.0594 30.9611C69.4197 33.7014 66.2994 40.0593 68.5674 43.1695C70.346 45.6078 73.8987 44.359 75.6588 42.6113C78.092 40.1984 78.8701 36.3891 78.4703 32.9208C77.4049 23.6377 68.7218 19.7266 61.2476 18.7408C53.616 17.7346 42.4224 18.6983 38.7417 27.6251C37.3074 31.1036 38.297 34.9163 41.3972 36.7743C44.5978 38.6934 48.348 37.6091 51.0808 35.2251C53.7781 32.8733 56.1218 29.0589 54.6689 25.197C53.1296 21.1044 48.9625 19.7232 45.2988 19.3855C38.717 18.7798 26.1107 20.1474 27.0464 30.6217C27.3598 34.1358 29.932 36.7573 32.8408 37.8755C36.4968 39.2787 40.2887 38.164 43.3534 35.7138C49.3995 30.878 55.8964 18.8952 50.21 11.2562C47.5715 7.71164 43.2021 6.1031 39.3423 4.86783C35.2848 3.56979 30.724 2.3854 26.4921 3.35596C23.3857 4.06692 20.5881 6.22692 20.2222 9.92084C19.7775 14.4275 22.9271 18.6932 25.7232 21.5659C31.3478 27.3469 41.1502 30.0821 46.8828 22.8266C53.7194 14.173 40.5141 7.74897 34.3306 6.93282C26.5214 5.90117 16.5939 9.43552 14.7922 18.9223C13.1803 27.4079 15.4885 38.6696 23.9384 41.3217C32.8809 44.1299 41.6643 36.9457 46.5262 29.266C51.2753 21.7628 50.6917 10.8473 41.4837 8.31568C33.7486 6.1896 24.3506 9.8343 20.3688 17.6412C16.7746 24.6863 18.3787 34.6906 24.9914 38.8393C32.6339 43.6361 43.04 41.0366 49.6928 35.4236C53.3921 32.3015 62.1138 20.6598 54.0575 17.0864C45.9133 13.4739 41.7261 27.4436 41.0391 33.6301C39.8858 44.0213 49.0706 49.3323 57.1593 45.2091C60.4433 43.5343 63.9927 40.29 64.3278 36.0344C64.6211 32.2998 61.5796 29.8514 58.4809 29.3831C54.8697 28.8367 51.3942 30.9984 49.9321 34.6668C49.5832 35.5441 48.89 37.4225 49.3748 38.3625C50.0865 39.7369 52.8316 40.1237 54.0977 40.1305C57.9313 40.1543 61.0917 37.5887 63.2007 34.241C65.4379 30.6862 68.0348 24.873 66.5171 20.5258C64.1286 13.6911 55.3328 14.2392 51.3109 18.6661C48.5395 21.7169 47.17 25.998 46.5432 30.1687C46.0692 33.3111 45.657 37.2748 48.4052 39.2719C48.5503 39.3788 48.7695 39.3059 48.8545 39.143C49.2605 38.3455 49.6681 37.548 50.0757 36.7505C50.1699 36.5673 50.102 36.3738 49.9569 36.2567C44.9777 32.2167 38.402 29.7716 32.5104 32.9684C27.894 35.4745 25.1442 41.0519 27.1127 46.5495C31.7847 59.5978 52.5892 46.4443 46.3811 36.026C43.1527 30.6098 36.0645 32.2761 34.289 38.1198L34.3754 38.4762C40.4693 44.7713 49.7253 43.239 56.1712 38.4456C60.1592 35.4813 63.3968 31.4922 66.4893 27.481C68.1243 25.36 71.538 21.1282 67.9298 19.0479L67.533 19.1039C63.9017 23.1881 59.9307 27.7745 59.7222 33.8236C59.5509 38.8003 62.2497 43.0473 66.8244 43.8889C71.7974 44.8052 76.23 41.6763 79.6776 38.0672C82.5308 35.0775 86.3412 29.9498 83.2456 25.7282L82.8164 25.6688C75.5723 29.1642 74.1951 40.027 80.78 45.1547C87.1256 50.0941 96.7443 45.1514 96.7613 36.3297C96.769 32.8513 94.3095 30.0533 91.0502 30.3876C87.5872 30.7439 85.3145 34.6346 85.7623 38.2573C86.2023 41.8053 88.8903 44.6524 92.1557 44.8476C96.1854 45.0902 99.5218 41.9783 100.999 38.0502C104.181 29.5849 99.985 19.1497 91.9349 16.5129C84.2801 14.0067 76.0509 19.6469 75.8687 28.7502C75.8409 30.1653 75.8965 32.1471 76.8059 33.1975C77.8295 34.3784 79.7548 34.7636 81.1582 34.7466C84.8282 34.7042 87.9639 32.1726 89.8058 28.8265C90.9808 26.6902 91.6956 24.2791 92.2545 21.8748C92.8073 19.506 93.3646 18.5185 92.0862 16.5451C89.883 13.1481 87.0607 9.38974 83.0789 8.69067C80.4557 8.23084 77.6442 9.15725 75.1292 9.88687C72.5446 10.6352 69.9786 11.6397 67.7847 13.3552C66.0092 14.7432 64.5471 16.5909 63.6624 18.7916C63.0803 20.2407 62.1601 23.6581 63.1421 25.1631C65.2912 28.4515 71.1397 26.8345 73.6192 25.2022C78.1769 22.1988 80.1269 16.2668 81.748 11.0238L81.6569 10.6488C74.9701 3.8616 65.6231 6.55271 58.1906 10.1754C55.0889 11.6872 50.4077 13.4773 50.0124 17.8788C49.7299 21.0297 52.0195 22.8402 54.6782 22.7571C57.5962 22.6671 62.035 20.9805 63.7164 18.2045C65.2464 15.678 64.3757 12.1911 62.489 10.1872C57.0883 4.45884 46.1726 7.97292 40.8924 12.1267C37.9218 14.4615 34.3523 18.4778 34.7522 22.8589C35.1551 27.2807 39.1091 30.2433 42.2294 32.3965L42.6509 32.3371C47.3831 27.3893 55.251 18.1588 48.6769 10.9797C41.8172 3.49004 34.5036 17.1322 31.4929 22.1988C31.2659 22.5806 31.8233 22.9353 32.0487 22.5569C34.6889 18.113 37.7119 11.3275 42.8455 9.93948C49.7083 8.08658 51.5517 17.5802 49.2343 22.7198C48.1195 25.1954 46.395 27.2705 44.6241 29.1981C43.9633 29.9192 42.9752 31.4837 41.9237 31.2834C40.6762 31.0476 39.0906 29.1081 38.2013 28.1444C36.0861 25.8571 34.7768 23.032 35.8792 19.786C36.8426 16.949 39.035 14.5243 41.2413 12.7833C45.3003 9.5815 50.5574 7.96617 55.5397 8.2122C58.3589 8.34964 61.4885 9.29985 63 12.1606C65.0812 16.0972 62.5754 19.0835 59.347 20.6208C56.7764 21.8476 53.1945 23.0846 51.1117 20.2204C49.4057 17.872 52.0134 14.6939 53.5774 13.5554C54.7153 12.7273 55.9967 12.1335 57.2319 11.5108C62.1153 9.0521 67.3972 6.67319 72.8858 7.25519C74.9347 7.47408 79.4815 8.36659 80.5793 10.6064C81.149 11.7653 80.2828 13.3449 79.8969 14.4292C79.2762 16.1718 78.5722 17.8923 77.6736 19.4873C76.2609 21.9901 74.3943 24.0925 71.9085 25.2582C69.4923 26.395 64.0607 27.2688 63.5543 23.2101C63.1698 20.1304 65.2078 16.725 67.2057 14.8059C69.6019 12.5051 72.7098 11.3394 75.7421 10.4859C78.5135 9.70536 81.5411 8.76025 84.3418 9.81056C86.7102 10.6997 88.5877 12.8053 90.1285 14.889C90.9375 15.9817 92.219 17.436 92.1958 18.9546C92.1789 20.0965 91.6724 21.4895 91.3899 22.5806C90.5871 25.6772 89.4338 28.8417 87.2784 31.1138C85.5122 32.9768 82.9369 34.1222 80.4789 33.927C76.6206 33.6216 76.1497 29.926 76.8445 26.4781C78.0457 20.4987 82.8952 16.4501 88.4333 16.6588C93.9251 16.8641 98.6619 20.8821 100.474 26.529C102.373 32.4423 101.166 41.2589 95.0583 43.5937C91.9951 44.7645 88.6618 43.6022 87.1148 40.3749C85.506 37.0254 86.9125 32.1386 90.5222 31.2614C95.1139 30.1432 96.8045 35.5899 95.4983 39.4705C94.4577 42.562 91.9936 45.1123 89.1172 46.0541C83.6455 47.8442 77.3988 43.0779 77.144 36.7573C77.0313 33.9525 77.9886 31.0713 79.7162 28.9996C80.2149 28.404 81.6785 26.6139 82.5076 26.6631C85.2605 26.826 82.8859 32.4933 82.3826 33.4214C79.7486 38.2878 74.0824 43.1271 68.8037 43.2543C62.1802 43.4155 59.063 36.5944 61.0083 30.1857C61.9023 27.2332 63.6917 24.6982 65.5629 22.4177C65.935 21.9647 66.3473 21.3742 66.7688 21.0009L67.076 20.6514C68.0502 19.3483 68.4223 20.4681 68.1938 24.0161C67.7183 25.4108 66.0462 26.9617 65.1538 28.1037C58.8947 36.1108 49.7947 45.0597 39.3793 41.0434C38.3866 40.6599 36.6852 39.9439 35.9472 38.9954C34.8927 37.643 35.5581 36.3043 36.7747 35.125C39.8132 32.1811 44.3045 33.1991 46.1758 37.0933C49.4072 43.8177 40.7334 50.5336 35.538 51.3175C29.0257 52.2999 25.1304 44.1977 28.1827 38.2573C31.1255 32.5323 37.7752 31.1901 43.094 33.0447C44.2288 33.4417 49.3192 35.276 49.1015 37.1849C48.9625 38.3913 47.9698 37.8908 47.5097 37.3156C47.0681 36.7641 46.9323 35.4066 46.8798 34.66C46.7671 33.0922 46.9925 31.4769 47.238 29.9379C48.0547 24.8425 50.2239 19.0208 54.831 16.82C58.6878 14.9807 64.8157 16.3109 66.0755 21.3402C67.4697 26.9125 62.8364 35.6799 58.3728 38.2454C56.3194 39.4247 51.0021 40.6056 50.2085 37.3732C49.2729 33.5656 54.039 30.1822 56.9246 30.0176C60.5421 29.814 64.6011 32.6969 63.4833 37.134C62.6464 40.458 59.9338 42.8844 57.2396 44.3573C51.5394 47.4692 43.463 45.9641 41.8064 38.2759C40.6593 32.9514 43.0909 25.0223 46.0738 20.782C47.8555 18.2504 50.9233 16.3907 53.8491 17.7363C57.5144 19.4212 56.8413 24.2774 55.3483 27.4216C53.037 32.2982 48.6877 36.065 44.1748 38.2488C35.0779 42.6503 21.079 41.1639 19.3282 28.1512C17.7472 16.406 27.7458 8.09171 37.6964 8.44634C44.0266 8.67032 49.4921 12.9191 48.9919 20.4511C48.5874 26.546 44.4434 31.8095 40.3705 35.5848C36.0969 39.5451 30.5295 42.2753 24.8648 40.8619C18.7678 39.3398 15.8513 33.5656 15.243 27.1229C14.6625 20.9805 15.4236 14.8958 20.2839 11.0696C24.6332 7.64884 30.3612 6.79362 35.5411 7.80491C40.4431 8.7619 51.1904 13.4909 47.3939 20.9178C44.6133 26.356 37.8462 27.5607 32.884 25.6654C28.0654 23.8227 22.8067 18.8629 21.2782 13.3636C19.2094 5.93169 25.8452 3.39159 31.2119 3.81919C36.3084 4.22811 42.4162 5.9368 46.7593 8.96896C52.6078 13.0497 52.5012 20.1609 49.5554 26.3424C47.1886 31.3038 43.1589 36.5571 37.8771 37.6023C32.7373 38.6204 26.2991 34.1935 27.9928 27.8034C29.7653 21.1163 36.872 19.9031 42.2619 19.9743C45.0023 20.01 48.0238 20.0762 50.5111 21.4998C53.917 23.4511 55.5366 27.4606 53.4647 31.2512C52.0643 33.8134 49.5631 36.0056 46.9091 36.7302C43.7487 37.5921 39.6789 36.0175 38.8791 32.1726C37.4417 25.2717 45.5798 20.8702 50.4494 19.7877C59.1139 17.8618 73.6501 19.5111 77.1317 30.2026C78.5969 34.7041 77.8449 41.7086 73.0062 43.3918C70.1963 44.3708 68.2293 41.8273 68.8608 38.7425C69.1696 37.2273 69.6528 35.7087 70.2272 34.2952C71.4793 31.2173 73.3614 28.4193 75.9953 26.6224C80.9375 23.2492 89.5279 24.8509 89.8306 32.5849C90.076 38.8698 83.2287 44.2181 78.5089 46.2424C73.8956 48.2208 66.8105 48.5178 64.9701 42.1446C63.3351 36.4875 66.4245 30.1143 70.1068 26.3101C71.9888 24.3656 74.4066 22.6434 76.9433 21.9749C81.1551 20.8618 86.0988 23.6343 84.7 29.1098C83.2626 34.7398 77.9268 39.4314 73.2672 41.7051C69.0909 43.7447 62.8997 44.7933 59.3008 40.8415C54.8434 35.9513 57.5993 27.8576 61.2384 23.4578C64.2521 19.8114 68.799 17.2272 73.3521 17.3935C76.0663 17.4936 79.4414 18.4862 81.0147 21.1383C83.0418 24.5523 80.9081 28.7044 78.637 31.2037C74.893 35.3235 67.9421 37.7907 63.1421 34.4955C57.4851 30.6149 57.8093 21.9935 61.6553 16.82C63.332 14.5633 65.5846 12.875 68.1259 12.0334C69.3502 11.6278 70.6579 11.4446 71.9363 11.5396C72.5431 11.5837 73.1776 11.7194 73.7643 11.8908C74.3727 12.0571 74.9532 12.315 75.5044 12.6595C75.915 14.2222 76.3257 15.7833 76.7364 17.3443C76.1405 19.786 72.3609 21.8747 70.4217 22.6756C68.1228 23.6241 65.6185 23.9736 63.176 23.6869C58.0069 23.0777 52.7112 19.1463 51.8404 13.2008C51.3479 9.84959 52.7097 6.05722 55.6339 4.5878C58.7943 3.0013 62.6264 5.07648 63.2439 8.88238C63.2841 9.13351 63.6299 9.02493 63.5929 8.77551" fill="#15233C"/>
<path d="M46.2155 11.3858C44.3399 5.24925 49.7619 0.910557 54.705 0.646418C59.1399 0.409546 64.716 2.27899 67.8943 5.82527C71.2621 9.58456 71.584 14.9935 69.5051 19.627C68.6227 21.5918 67.3738 23.3334 65.8308 24.7086C64.3217 26.0532 62.2059 27.442 60.1778 26.2219C58.9151 25.4619 58.179 23.5447 57.8464 22.0962C55.6551 12.5821 66.0711 1.66042 74.5745 4.10242C80.2382 5.72986 81.5102 13.3763 78.2779 18.1222C76.795 20.3001 74.4482 22.0672 71.9089 22.1712C68.7567 22.299 66.5885 19.4974 65.8693 16.3619C63.116 4.32736 77.0506 -1.26554 85.2753 2.33015C93.5354 5.93948 94.7966 17.6604 88.5954 24.2894C85.7927 27.2836 81.1191 29.0423 77.4279 27.0399C72.1337 24.1668 73.1963 16.5408 76.755 12.5804C83.3751 5.21181 95.6343 5.25097 99.618 15.6989C103.787 26.6275 93.9974 37.3771 84.1265 34.7442C81.6673 34.0882 79.1957 32.6533 77.5804 30.4635C75.2305 27.2768 76.1174 23.376 78.6906 20.7432C80.7726 18.613 83.8078 17.5241 86.4718 16.6414C88.1257 16.0943 89.6687 15.7416 91.3795 16.1898C93.5554 16.759 95.5496 19.2742 94.0651 21.8219C93.9681 21.9906 94.2006 22.1303 94.3038 21.977C95.257 20.537 95.1446 18.8823 94.2345 17.4253C92.633 14.8606 89.7133 15.0343 87.2633 15.6989C82.5173 16.9838 75.366 19.9627 75.4045 26.5576C75.4399 32.6328 82.5112 35.8468 87.1078 35.9934C92.4575 36.1655 97.3482 32.972 99.7274 27.6653C104.965 15.9819 94.892 3.42075 83.8124 7.23117C78.5551 9.03924 72.9868 13.4989 73.0038 20.1927C73.0176 25.7448 77.1723 29.1359 81.9737 28.5906C91.8892 27.4625 97.1773 12.1101 89.604 4.45348C81.6319 -3.60701 64.1293 0.966856 65.0024 14.7702C65.3458 20.22 69.4573 24.3389 74.3835 22.2803C79.1619 20.2813 82.0877 14.0119 80.0519 8.67118C77.7806 2.71017 71.6995 2.2603 66.9011 4.51655C62.0673 6.78985 57.8002 11.846 57.0395 17.7388C56.3481 23.0966 59.3617 29.8397 64.8453 26.2747C69.7638 23.0778 72.8405 15.5268 70.7509 9.46358C68.5211 2.99133 60.9416 -0.0504907 55.1516 0.000632899C49.7342 0.0466442 43.6654 4.8284 45.849 11.4966C45.9322 11.7488 46.294 11.6431 46.2155 11.3858" fill="#15233C"/>
<path d="M67.2873 119.613C66.3424 119.468 64.662 119.285 62.3961 119.33C61.6713 119.346 61.1905 118.662 61.498 118.044C62.4451 116.137 65.5233 115.415 67.5958 115.417C69.605 115.419 68.6115 117.234 68.4653 118.766C68.413 119.308 67.8614 119.701 67.2873 119.613" fill="#EB8C8C"/>
</svg>
