<svg width="50" height="50" viewBox="0 0 50 50" fill="none" xmlns="http://www.w3.org/2000/svg">
<path d="M0.0305067 24.0094C-0.379254 17.3505 3.39054 10.4103 8.22571 6.09612C13.0609 1.78194 19.2073 0.0937865 26.4191 0C33.6309 0 41.99 1.50058 46.4154 7.50292C50.8408 13.5053 51.0047 24.1969 47.8086 32.8253C46.3908 36.9708 44.1255 40.667 41.2024 43.6042C38.2793 46.5414 34.7837 48.6341 31.0084 49.7069C24.1244 51.1137 16.8307 47.2684 10.9301 42.2039C5.02958 37.1395 0.440267 30.5744 0.112459 24.0094H0.0305067Z" fill="url(#paint0_radial)"/>
<path d="M31.0811 19.8821L29.7691 18.5714L24.3243 23.6893L18.9452 18.5714L17.6332 19.8197L23.0123 25L17.5676 30.1179L18.9452 31.3662L24.3243 26.3107L29.7691 31.4286L31.0811 30.1803L25.7019 25L31.0811 19.8821Z" fill="#EEE2DC"/>
<defs>
<radialGradient id="paint0_radial" cx="0" cy="0" r="1" gradientUnits="userSpaceOnUse" gradientTransform="translate(25 25) rotate(90) scale(25)">
<stop stop-color="#F02626"/>
<stop offset="1" stop-color="#DE2525" stop-opacity="0"/>
</radialGradient>
</defs>
</svg>
